<svg width="49" height="49" viewBox="0 0 49 49" fill="none" xmlns="http://www.w3.org/2000/svg">
<g clip-path="url(#clip0_34_1836)">
<path d="M1.32525 34.6804C1.71357 34.6804 2.02839 34.3657 2.02839 33.9773V2.24235C2.02839 2.10547 2.13977 1.99418 2.27656 1.99418H29.4816C29.6185 1.99418 29.7298 2.10556 29.7298 2.24235V5.30018C29.7298 5.6886 30.0446 6.00333 30.4329 6.00333C30.8213 6.00333 31.1361 5.6886 31.1361 5.30018V2.24235C31.1361 1.33013 30.3938 0.587891 29.4816 0.587891H2.27656C1.36434 0.587891 0.622101 1.33013 0.622101 2.24235V33.9772C0.622101 34.3656 0.936922 34.6804 1.32525 34.6804Z" fill="#00518F"/>
<path d="M14.2491 6.42387V6.09265C14.2491 5.70425 13.9343 5.38953 13.546 5.38953C13.1577 5.38953 12.8429 5.70425 12.8429 6.09265V6.42387C12.8429 6.81228 13.1577 7.127 13.546 7.127C13.9343 7.127 14.2491 6.81228 14.2491 6.42387Z" fill="#00518F"/>
<path d="M18.9151 6.09265C18.9151 5.70425 18.6003 5.38953 18.2119 5.38953C17.8236 5.38953 17.5088 5.70425 17.5088 6.09265V6.42387C17.5088 6.81228 17.8236 7.127 18.2119 7.127C18.6003 7.127 18.9151 6.81228 18.9151 6.42387V6.09265Z" fill="#00518F"/>
<path d="M15.879 11.4756C17.4683 11.4756 18.7613 10.1827 18.7613 8.5934C18.7613 8.20499 18.4464 7.89026 18.0581 7.89026C17.6698 7.89026 17.355 8.20499 17.355 8.5934C17.355 9.40727 16.6929 10.0694 15.879 10.0694C15.0651 10.0694 14.4031 9.40727 14.4031 8.5934C14.4031 8.20499 14.0882 7.89026 13.6999 7.89026C13.3116 7.89026 12.9968 8.20499 12.9968 8.5934C12.9968 10.1827 14.2897 11.4756 15.879 11.4756Z" fill="#00518F"/>
<path d="M6.46142 42.9542C6.81412 43.222 7.20282 43.3584 7.60455 43.3584C7.75633 43.3584 7.91009 43.339 8.0644 43.2998C9.04937 43.0494 9.76939 42.0783 10.1592 41.4135C10.314 41.5937 10.5264 41.7167 10.765 41.7601C11.0752 41.8169 11.3908 41.7318 11.6308 41.5277L11.9167 41.2846L12.1307 41.8793C12.2566 42.2289 12.5617 42.4877 12.9272 42.5547C13.2922 42.6219 13.6697 42.488 13.9113 42.2058L14.6294 41.3671H17.133C17.5213 41.3671 17.8362 41.0524 17.8362 40.664C17.8362 40.2756 17.5213 39.9608 17.133 39.9608H14.4641C14.1577 39.9608 13.8677 40.0944 13.6688 40.327L13.2449 40.822L13.0644 40.3205C12.9481 39.9974 12.6806 39.7518 12.3488 39.6633C12.0169 39.5749 11.6627 39.6548 11.4011 39.8772L11.0543 40.1721L11.0537 40.1709C10.8604 39.8221 10.4937 39.6142 10.0946 39.6322C9.69664 39.6487 9.3476 39.8845 9.18381 40.2479C8.74852 41.2135 8.10378 41.8386 7.71827 41.9366C7.61261 41.9633 7.49045 41.9695 7.31213 41.8341C7.10569 41.6773 7.07597 41.5416 7.07428 41.4295C7.06425 40.7891 8.00515 39.7351 8.6768 39.1908C8.97906 38.9469 9.0265 38.5043 8.78264 38.2021C8.53879 37.8997 8.09619 37.8524 7.79393 38.0961C7.77274 38.1133 7.26891 38.5216 6.76546 39.1012C6.02706 39.9515 5.65787 40.7415 5.66818 41.4494C5.67671 42.0463 5.95103 42.5666 6.46142 42.9542Z" fill="#00518F"/>
<path d="M7.42007 37.1929V37.1831C7.42007 36.7947 7.10526 36.48 6.71695 36.48C6.32864 36.48 6.01382 36.7947 6.01382 37.1831V37.1929C6.01382 37.5814 6.32864 37.8961 6.71695 37.8961C7.10526 37.8961 7.42007 37.5814 7.42007 37.1929Z" fill="#00518F"/>
<path d="M23.5577 13.9121C18.1216 13.9121 13.6989 18.3348 13.6989 23.7709C13.6989 29.207 18.1215 33.6297 23.5577 33.6297C28.994 33.6297 33.4166 29.207 33.4166 23.7709C33.4166 18.3348 28.9939 13.9121 23.5577 13.9121ZM29.3789 17.9498V20.893H26.436V17.9498H29.3789ZM26.436 16.5436V15.8234C26.9625 16.0146 27.4648 16.2565 27.9368 16.5436H26.436ZM30.7852 19.392C31.0723 19.8641 31.3142 20.3665 31.5055 20.893H30.7852V19.392ZM22.0862 22.2992H25.0297V25.2427H22.0862V22.2992ZM20.6799 25.2428H17.7368V22.2993H20.6799V25.2428ZM26.436 22.2992H29.379V25.2427H26.436V22.2992ZM25.0298 20.8929H22.0863V17.9498H25.0298V20.8929ZM20.6799 20.8929H17.7368V17.9498H20.6799V20.8929ZM19.1786 16.5436C19.6508 16.2564 20.1533 16.0145 20.6799 15.8232V16.5436H19.1786ZM16.3305 20.8929H15.61C15.8014 20.3662 16.0434 19.8637 16.3305 19.3915V20.8929ZM16.3305 22.2992V25.2427H15.2337C15.1494 24.7645 15.1052 24.2728 15.1052 23.7709C15.1052 23.269 15.1494 22.7773 15.2337 22.2992H16.3305ZM16.3305 26.6491V28.1504C16.0434 27.6783 15.8014 27.1757 15.61 26.6491H16.3305ZM17.7368 29.592V26.649H20.6799V29.592H17.7368ZM20.6799 30.9983V31.7187C20.1533 31.5275 19.6507 31.2855 19.1785 30.9983H20.6799ZM22.0862 26.6491H25.0297V29.5921H22.0862V26.6491ZM26.436 26.6491H29.379V29.5921H26.436V26.6491ZM27.9369 30.9983C27.4649 31.2853 26.9625 31.5273 26.436 31.7186V30.9983H27.9369ZM30.7852 26.6491H31.5054C31.3141 27.1755 31.0722 27.6778 30.7852 28.1499V26.6491ZM30.7852 25.2428V22.2993H31.8818C31.9661 22.7774 32.0103 23.2691 32.0103 23.771C32.0103 24.2729 31.9661 24.7646 31.8818 25.2428H30.7852ZM25.0298 15.4469V16.5435H22.0863V15.4469C22.5643 15.3627 23.056 15.3185 23.5578 15.3185C24.0597 15.3184 24.5515 15.3627 25.0298 15.4469ZM22.0862 32.095V30.9983H25.0297V32.0949C24.5515 32.1792 24.0597 32.2234 23.5576 32.2234C23.0559 32.2235 22.5642 32.1793 22.0862 32.095Z" fill="#00518F"/>
<path d="M47.6522 43.055L38.1223 33.5251C37.5474 32.9503 36.7578 32.7182 36.0093 32.8284L34.247 31.0661C35.6703 28.9874 36.504 26.4749 36.504 23.771C36.504 19.4605 34.3858 15.636 31.1362 13.2819V8.42482C31.1362 8.03641 30.8214 7.72168 30.4331 7.72168C30.0447 7.72168 29.7299 8.03641 29.7299 8.42482V12.3937C27.8944 11.3941 25.7917 10.8257 23.5586 10.8257C20.5947 10.8257 17.8607 11.8278 15.6762 13.5098H6.717C5.80478 13.5098 5.06254 14.252 5.06254 15.1642V17.4513C5.06254 18.3635 5.80478 19.1057 6.717 19.1057H11.4835C11.2144 19.7998 11.0037 20.5227 10.857 21.2683H10.4189C10.0306 21.2683 9.71577 21.583 9.71577 21.9714C9.71577 22.3598 10.0306 22.6746 10.4189 22.6746H10.6602C10.6298 23.0362 10.6134 23.4017 10.6134 23.771C10.6134 23.8448 10.615 23.9182 10.6162 23.9917H8.90416C8.51583 23.9917 8.20101 24.3064 8.20101 24.6949C8.20101 25.0833 8.51583 25.398 8.90416 25.398H10.7152C10.8191 26.2229 11.0015 27.0236 11.2537 27.793H6.37161C5.98329 27.793 5.66847 28.1077 5.66847 28.4962C5.66847 28.8846 5.98329 29.1993 6.37161 29.1993H11.8081C12.0048 29.6236 12.2237 30.0357 12.4636 30.4337H6.37161C5.98329 30.4337 5.66847 30.7485 5.66847 31.1369C5.66847 31.5253 5.98329 31.84 6.37161 31.84H13.4436C13.7914 32.2752 14.1667 32.6876 14.5667 33.0744H6.37161C5.98329 33.0744 5.66847 33.3891 5.66847 33.7775C5.66847 34.1659 5.98329 34.4807 6.37161 34.4807H16.2942C18.3669 35.8911 20.8681 36.7165 23.5586 36.7165C25.7917 36.7165 27.8944 36.1481 29.7299 35.1486V45.2519C29.7299 45.3888 29.6185 45.5001 29.4818 45.5001H2.27659C2.1398 45.5001 2.02842 45.3887 2.02842 45.2519V37.1017C2.02842 36.7133 1.7136 36.3986 1.32528 36.3986C0.936953 36.3986 0.622131 36.7133 0.622131 37.1017V45.2519C0.622131 46.1641 1.36437 46.9064 2.27659 46.9064H29.4817C30.394 46.9064 31.1361 46.1641 31.1361 45.2519V34.742L32.6145 36.2204C32.597 36.3402 32.588 36.4619 32.588 36.5851C32.588 37.2461 32.8453 37.8675 33.3127 38.3348L36.8806 41.9029C37.1552 42.1774 37.6005 42.1774 37.875 41.9029C38.1496 41.6282 38.1496 41.183 37.875 40.9084L36.7376 39.771L39.5579 36.95L46.6575 44.0496C46.8593 44.2513 46.9704 44.5196 46.9704 44.8049C46.9704 45.0903 46.8593 45.3585 46.6575 45.5603L45.3474 46.8705C44.931 47.287 44.2533 47.2868 43.8368 46.8705L40.0841 43.1177C39.8095 42.8433 39.3642 42.8431 39.0897 43.1177C38.8151 43.3924 38.8151 43.8376 39.0897 44.1122L42.8425 47.8649C43.3249 48.3473 43.9585 48.5885 44.5922 48.5885C45.2258 48.5885 45.8595 48.3473 46.3419 47.8648L47.652 46.5546C48.1193 46.0872 48.3767 45.4659 48.3767 44.8049C48.3767 44.1439 48.1195 43.5224 47.6522 43.055ZM6.717 17.6994C6.58021 17.6994 6.46883 17.588 6.46883 17.4513V15.1642C6.46883 15.0274 6.58021 14.9161 6.717 14.9161H14.125C13.3433 15.7484 12.6702 16.6838 12.1285 17.6994H6.717ZM12.0196 23.771C12.0196 17.4084 17.1959 12.2319 23.5586 12.2319C29.9214 12.2319 35.0977 17.4084 35.0977 23.771C35.0977 30.1336 29.9214 35.3101 23.5586 35.3101C17.1959 35.3101 12.0196 30.1337 12.0196 23.771ZM31.9788 33.5956C32.4818 33.1639 32.9515 32.6943 33.3832 32.1912L34.6713 33.4793C34.6551 33.4946 34.6387 33.5095 34.6229 33.5252L33.3127 34.8354C33.2969 34.8512 33.282 34.8676 33.2667 34.8837L31.9788 33.5956ZM35.7433 38.7765L34.3071 37.3403C34.1054 37.1386 33.9943 36.8703 33.9943 36.585C33.9943 36.2997 34.1054 36.0314 34.3071 35.8297L35.6172 34.5196C36.0337 34.1031 36.7114 34.1029 37.1279 34.5196L38.5637 35.9554L35.7433 38.7765Z" fill="#00518F"/>
</g>
<defs>
<clipPath id="clip0_34_1836">
<rect width="48" height="48" fill="white" transform="translate(0.5 0.587891)"/>
</clipPath>
</defs>
</svg>
