<svg width="1440" height="706" viewBox="0 0 1440 706" fill="none" xmlns="http://www.w3.org/2000/svg">
<g clip-path="url(#clip0_32_544)">
<path d="M2021.89 306.069C1889.85 306.069 1833.79 300.81 1696.41 357.368C1457.87 458.42 1353.87 524.133 1208.22 445.172C1085.9 373.308 1023.47 263.805 926.135 245.862C822.867 235.745 746.052 329.999 644.06 439.946C425.915 672.299 405.314 554.652 166.697 398.591C59.1642 330.344 -55.643 284.085 -267.266 300.507C-432.493 314.077 -397.016 306.069 -581.893 306.069" stroke="white" stroke-width="0.5" stroke-linecap="round" stroke-linejoin="round"/>
<path d="M2021.89 306.069C1889.51 306.326 1830.94 303.82 1696.41 356.794C1425.1 466.675 1344.39 515.888 1208.22 449.265C1085.84 384.018 1023.37 280.273 926.135 263.385C823.49 253.949 747.648 341.441 644.06 445.312C428.105 658.985 409.171 548.544 166.702 398.918C56.4582 332.873 -64.3611 287.618 -267.261 299.727C-427.979 310.549 -392.008 305.612 -581.889 306.069" stroke="white" stroke-width="0.5" stroke-linecap="round" stroke-linejoin="round"/>
<path d="M2021.89 306.069C1901.16 306.373 1837.1 306.345 1718.13 348.184C1450.95 445.504 1364.53 515.029 1219.06 458.089C1097.3 404.947 1031.06 305.435 936.995 282.686C830.115 265.238 750.443 352.034 644.06 450.679C426.799 649.176 411.162 537.069 155.855 393.136C-80.5978 263.777 -220.511 305.304 -581.889 306.069" stroke="white" stroke-width="0.5" stroke-linecap="round" stroke-linejoin="round"/>
<path d="M2021.89 306.069C1915.87 306.326 1851.36 308.141 1750.67 337.535C1495.82 415.932 1398.11 502.108 1251.61 471.29C1130.84 440.571 1060.07 350.457 969.526 309.896C869.076 272.149 789.119 332.608 709.158 399.959C438.476 631.514 457.21 567.331 199.246 417.645C-84.237 256.465 -250.251 305.029 -581.889 306.069" stroke="white" stroke-width="0.5" stroke-linecap="round" stroke-linejoin="round"/>
<path d="M2021.89 306.069C1917.4 306.405 1848.99 310.423 1750.67 337.848C1495.16 412.796 1397.08 497.301 1251.61 473.218C1130.09 448.019 1061.11 365.025 969.526 326.69C870.262 291.813 791.15 346.523 709.158 410.113C440.689 621.205 460.032 557.265 199.246 416.753C-105.841 255.564 -287.821 304.851 -581.889 306.069" stroke="white" stroke-width="0.5" stroke-linecap="round" stroke-linejoin="round"/>
<path d="M2021.89 306.069C1603.78 307.763 1439.42 521.245 1219.06 468.64C1058.24 423.944 998.213 300.498 850.191 341.903C708.416 388.815 608.601 534.311 470.474 539.332C347.06 535.618 122.347 297.217 -278.099 296.596C-368.653 297.254 -506.496 305.789 -581.875 306.06" stroke="white" stroke-width="0.5" stroke-linecap="round" stroke-linejoin="round"/>
<path d="M2021.89 306.069C1621 307.427 1436.77 504.586 1229.91 473.834C1068.32 443.777 1005.38 325.477 861.051 355.772C719.747 392.222 619.572 525.902 481.325 533.406C383.741 532.878 339.777 464.291 101.604 374.456C-217.156 257.113 -372.119 305.094 -581.889 306.051" stroke="white" stroke-width="0.5" stroke-linecap="round" stroke-linejoin="round"/>
<path d="M2021.89 306.069C1626.79 307.674 1429.9 495.995 1229.91 476.433C1070.3 455.158 1010.22 350.363 871.884 370.625C733.064 397.364 638.493 511.861 503.018 527.162C395.894 533.737 391.486 484.198 134.149 388.4C-244.626 249.932 -377.825 304.931 -581.889 306.069" stroke="white" stroke-width="0.5" stroke-linecap="round" stroke-linejoin="round"/>
<path d="M2021.89 306.069C1791.66 307.161 1616.53 371.507 1414.35 445.457C1167.7 532.92 1100.92 426.609 958.688 390.336C783.205 354.582 662.212 520.998 492.176 522.822C374.947 518.305 362.701 445.55 -39.433 336.975C-324.24 261.654 -408.067 304.926 -581.889 306.074" stroke="white" stroke-width="0.5" stroke-linecap="round" stroke-linejoin="round"/>
<path d="M2021.89 306.069C1666.25 307.997 1417.93 465.523 1262.47 480.497C1096.32 491.445 1023.63 397.192 893.586 402.637C750.798 414.434 654.018 511.683 513.879 518.198C400.969 518.665 430.958 483.731 145.009 394.457C-84.1659 324.236 -198.391 292.359 -332.354 291.678C-453.125 292.355 -490.446 305.374 -581.884 306.069" stroke="white" stroke-width="0.5" stroke-linecap="round" stroke-linejoin="round"/>
<path d="M2021.89 306.069C1916.58 306.709 1776.71 329.994 1674.72 354.339C1442.43 411.196 1411.01 453.52 1284.16 478.122C1113.34 506.779 1036.86 424.248 915.297 419.516C773.167 419.609 675.756 505.416 535.572 514.166C453.673 516.322 420.142 494.273 351.135 462.835C269.627 427.286 225.947 418.741 -61.1307 337.456C-362.97 254.29 -407.885 304.567 -581.889 306.069" stroke="white" stroke-width="0.5" stroke-linecap="round" stroke-linejoin="round"/>
<path d="M2021.89 306.069C1916.26 306.802 1751.83 333.909 1642.19 359.477C1433.61 409.058 1376.96 466.456 1240.77 484.828C1071.74 502.99 1019.3 424.29 871.884 438.336C730.078 455.83 633.267 527.419 492.172 507.787C412.082 493.675 396.867 470.268 307.735 439.516C230.515 414.261 172.487 405.148 47.3445 371.386C-172.343 311.02 -234.917 279.993 -408.294 291.132C-502.425 298.132 -504.065 305.267 -581.88 306.065" stroke="white" stroke-width="0.5" stroke-linecap="round" stroke-linejoin="round"/>
<path d="M2021.89 306.069C1933.46 306.769 1760.89 332.953 1674.72 349.78C1517.9 381.339 1500.32 396.319 1370.94 447.221C1124.54 542.221 1056.76 456.899 915.297 452.876C742.813 453.226 628.592 548.931 448.777 490.987C378.209 465.859 371.855 449.722 275.19 425.032C225.916 413.09 201.081 409.301 134.153 395.087C-116.177 340.82 -189.135 282.503 -375.754 287.898C-476.178 292.177 -499.706 305.094 -581.889 306.069" stroke="white" stroke-width="0.5" stroke-linecap="round" stroke-linejoin="round"/>
<path d="M2021.89 306.069C1948.31 306.718 1654.91 340.55 1522.83 383.015C1378.77 431.803 1283.35 500.372 1132.27 498.118C984.101 492.285 986.696 446.628 774.251 484.991C608.201 515.818 541.242 529.645 383.666 455.905C263.544 401.438 194.545 420.193 -6.91972 363.238C-180.306 313.111 -250.425 274.916 -419.185 289.181C-506.278 297.632 -507.638 305.047 -581.924 306.069" stroke="white" stroke-width="0.5" stroke-linecap="round" stroke-linejoin="round"/>
<path d="M2021.89 306.069C1986.5 306.41 1651.37 335.594 1512 381.923C1365.57 433.007 1267.76 506.051 1110.58 506.051C1026.59 504.105 1000.32 489.471 926.135 486.452C850.919 485.103 791.425 496.718 709.158 506.471C522.086 527.064 458.686 479.177 361.986 439.213C249.565 396.874 173.958 420.757 -28.5996 360.35C-191.304 310.698 -262.48 271.579 -430.018 288.953C-513.507 298.696 -510.637 305.024 -581.907 306.097" stroke="white" stroke-width="0.5" stroke-linecap="round" stroke-linejoin="round"/>
<path d="M2021.89 306.069C1971.98 306.592 1967 307.936 1902.55 316.55C1816.43 327.712 1762.51 331.8 1685.58 341.46C1487.4 367.242 1468.81 397.397 1294.99 469.484C1114.69 542.113 1041.58 508.618 936.986 503.274C792.251 498.799 683.576 537.102 535.563 500.834C444.026 476.316 410.229 449.325 351.126 428.224C284.819 407.36 237.371 410.08 144.995 400.285C-32.7456 379.674 -127.895 320.297 -256.423 293.138C-404.753 264.948 -476.218 304.301 -581.898 306.069" stroke="white" stroke-width="0.5" stroke-linecap="round" stroke-linejoin="round"/>
<path d="M2021.89 306.069C1946.35 306.937 1954.35 312.439 1826.61 325.365C1741.25 333.634 1702.85 335.995 1642.2 343.62C1411.14 374.419 1339.32 474.58 1153.99 515.725C1042.08 537.862 1012.41 515.347 882.762 518.31C621.269 526.131 610.565 538.203 383.683 434.365C290.178 394.499 228.325 412.792 101.604 396.664C-99.6338 368.045 -192.401 278.276 -375.754 282.182C-475.978 286.354 -495.574 304.417 -581.889 306.069" stroke="white" stroke-width="0.5" stroke-linecap="round" stroke-linejoin="round"/>
<path d="M2021.89 306.069C1944.8 307.035 1946.65 314.18 1826.61 325.067C1755.96 331.18 1713.71 332.832 1653.02 338.637C1427.79 361.89 1353.77 455.9 1175.67 514.395C1058.03 550.49 1014.7 531.871 893.582 533.061C762.12 535.24 676.778 539.206 568.12 506.928C478.281 478.435 426.59 445.555 372.832 423.058C282.051 389.259 217.442 412.792 90.7577 397.514C-110.089 369.771 -202.172 269.928 -397.452 282.042C-488.779 289.531 -501.821 304.361 -581.889 306.069" stroke="white" stroke-width="0.5" stroke-linecap="round" stroke-linejoin="round"/>
<path d="M2021.89 306.069C1945.56 307.101 1946.26 314.469 1837.48 323.9C1737.32 331.94 1678.08 330.578 1598.79 340.513C1372.37 372.515 1248.2 541.012 1023.8 549.468C1023.57 549.468 797.695 547.191 795.971 547.135C469.745 533.341 455.788 396.613 253.493 400.341C177.064 402.619 134.637 407.593 58.2133 395.381C-98.4607 367.144 -189.895 292.793 -332.372 280.586C-447.459 273.74 -485.082 303.759 -581.902 306.051" stroke="white" stroke-width="0.5" stroke-linecap="round" stroke-linejoin="round"/>
<path d="M2021.89 306.069C1913.94 307.637 1967.02 321.296 1685.58 329.971C1450.89 338.837 1410.18 405.339 1208.22 506.69C1076.1 570.724 1025.55 563.561 882.744 563.075C644.527 560.943 575.399 510.391 405.381 424.192C298.292 372.333 246.339 408.256 112.455 403.729C-80.3622 393.192 -182.03 285.252 -354.056 278.397C-461.883 277.03 -490.121 303.661 -581.889 306.051" stroke="white" stroke-width="0.5" stroke-linecap="round" stroke-linejoin="round"/>
<path d="M2021.89 306.069C1923.66 307.6 1924.82 324.016 1750.67 326.462C1609.81 327.712 1549.37 325.02 1436.06 377.485C1352.56 417.775 1294.98 460.03 1208.23 508.379C1075.68 580.173 1024.19 577.415 904.455 577.882C673.121 577.252 582.131 513.498 427.088 428.942C316.093 369.706 288.57 395.059 155.855 404.569C-49.8531 415.769 -145.606 307.973 -310.661 281.146C-433.56 264.766 -484.682 303.307 -581.889 306.069" stroke="white" stroke-width="0.5" stroke-linecap="round" stroke-linejoin="round"/>
<path d="M2021.89 306.069C1922.54 307.717 1919.16 325.332 1750.67 324.39C1614.96 323.107 1556.18 317.357 1446.89 365.786C1260.77 452.886 1165.96 582.152 958.688 589.184C791.323 593.991 686.794 574.205 524.721 480.824C347.993 377.658 360.435 375.786 199.246 399.954C-27.8887 432.218 -112.084 330.764 -278.099 287.263C-417.181 254.817 -479.67 302.84 -581.875 306.055" stroke="white" stroke-width="0.5" stroke-linecap="round" stroke-linejoin="round"/>
<path d="M2021.89 306.069C1945.33 307.404 1940.33 316.475 1848.3 321.669C1759.97 325.65 1708.98 319.056 1631.33 319.187C1465.09 321.655 1380.58 392.698 1229.91 494.646C1098.99 582.212 1039.42 606.212 882.744 601.975C587.841 589.035 460.45 389.3 318.59 383.066C252.826 383.579 205.281 403.641 123.306 408.769C-31.4835 414.499 -125.384 336.756 -256.414 293.47C-407.77 247.463 -476.866 302.448 -581.889 306.069" stroke="white" stroke-width="0.5" stroke-linecap="round" stroke-linejoin="round"/>
<path d="M2021.89 306.069C1942.35 307.534 1934.1 318.239 1837.48 321.497C1753.48 323.298 1705.55 315.99 1631.35 314.497C1468.14 313.452 1382.39 382.819 1229.93 493.937C1100.69 586.8 1038.34 619.507 882.762 614.136C597.048 598.386 463.449 381.591 318.59 378.675C251.049 381.008 206.689 403.085 123.306 410.304C-30.9059 419.455 -124.562 339.295 -256.414 293.689C-407.77 245.428 -477.582 302.173 -581.889 306.069" stroke="white" stroke-width="0.5" stroke-linecap="round" stroke-linejoin="round"/>
<path d="M2021.89 306.069C1940.91 307.633 1933.72 318.697 1837.48 320.829C1605.2 322.911 1548.57 249.208 1284.18 451.201C1115.88 581.279 1056.12 633.558 882.762 626.255C605.388 607.887 466.577 373.738 318.59 374.288C250.991 378.367 206.689 402.614 123.306 411.858C-30.4793 424.416 -124.415 341.614 -256.414 293.922C-407.699 243.399 -478.026 301.869 -581.889 306.069" stroke="white" stroke-width="0.5" stroke-linecap="round" stroke-linejoin="round"/>
<path d="M2021.89 306.069C1938.28 307.768 1933.89 319.107 1837.48 320.12C1748.52 319.803 1697.51 308.3 1620.49 304.539C1292.89 294.45 1209.96 663.073 871.884 637.086C605.508 609.315 467.781 366.127 318.59 370.079C250.409 375.912 207.005 402.124 123.306 413.347C-30.1416 429.213 -123.864 344.036 -256.414 294.151C-407.547 241.518 -479.124 301.618 -581.889 306.069" stroke="white" stroke-width="0.5" stroke-linecap="round" stroke-linejoin="round"/>
<path d="M2021.89 306.069C1935.27 307.871 1934.19 319.266 1837.48 319.103C1605.46 315.225 1542.48 226.501 1273.32 452.904C1113.69 588.699 1050.88 655.467 882.762 646.334C730.011 633.516 618.994 544.386 503.023 454.351C314.911 310.376 319.555 379.291 134.153 412.987C-25.6447 437.304 -119.536 347.797 -256.432 294.622C-407.739 240.132 -478.684 301.263 -581.889 306.069" stroke="white" stroke-width="0.5" stroke-linecap="round" stroke-linejoin="round"/>
<path d="M2021.89 306.069C1937.96 307.871 1930.93 319.387 1837.48 318.09C1609.87 311.319 1539.94 218.844 1284.18 439.614C1118.44 584.443 1056.15 665.042 882.762 654.739C616.826 630.618 472.945 355.203 318.59 364.181C250.16 372.464 207.018 401.676 123.306 415.932C-29.7283 436.931 -123.753 348.268 -256.414 295.07C-407.583 238.872 -479.301 300.922 -581.889 306.055" stroke="white" stroke-width="0.5" stroke-linecap="round" stroke-linejoin="round"/>
<path d="M2021.89 306.069C1927.96 308.15 1895.55 328.86 1750.67 308.962C1626.69 290.763 1564.04 269.157 1457.74 313.545C1267.01 400.607 1148.66 620.076 980.386 657.175C790.305 691.665 657.391 580.225 513.874 460.007C383.83 352.015 349.815 345.464 253.484 377.434C154.873 411.709 90.2956 442.204 -28.5908 403.795C-210.197 339.621 -268.545 228.979 -495.094 290.53C-535.179 301.636 -544.417 304.063 -581.889 306.069" stroke="white" stroke-width="0.5" stroke-linecap="round" stroke-linejoin="round"/>
<path d="M2021.89 306.069C1929.46 308.179 1895.28 327.652 1761.5 308.272C1636.05 288.775 1573.54 262.704 1468.58 302.163C1271.09 384.368 1150.87 623.949 980.363 665.024C790.567 702.738 653.818 580.211 513.874 458.64C385.105 348.044 350.508 341.385 253.484 375.847C154.838 412.465 90.1666 444.757 -28.5909 406.366C-210.517 341.81 -268.265 227.677 -495.103 290.11C-534.988 301.31 -544.177 303.927 -581.898 306.069" stroke="white" stroke-width="0.5" stroke-linecap="round" stroke-linejoin="round"/>
<path d="M2021.89 306.069C1930.52 308.202 1894.05 327.535 1761.5 306.097C1636.52 284.464 1573.67 256.278 1468.6 295.397C1277.09 374.792 1150.83 619.311 991.241 669.443C799.726 719.337 655.933 584.821 513.874 457.445C385.656 343.858 350.353 337.843 253.484 374.34C154.287 413.384 89.7979 447.085 -28.5908 408.834C-209.669 344.39 -268.034 226.501 -495.094 289.723C-534.912 301.067 -544.057 303.797 -581.889 306.055" stroke="white" stroke-width="0.5" stroke-linecap="round" stroke-linejoin="round"/>
<path d="M2021.89 306.069C1940.08 307.992 1924.95 319.252 1837.48 313.862C1613.32 295.915 1531.77 180.788 1284.18 422.157C1117.55 587.537 1058.79 690.092 893.595 684.483C735.441 672.817 615.711 549.248 503.036 447.426C320.719 285.079 311.965 369.837 134.166 417.929C-19.5482 454.216 -111.529 365.469 -245.55 302.126C-404.286 231.41 -474.178 299.266 -581.875 306.079" stroke="white" stroke-width="0.5" stroke-linecap="round" stroke-linejoin="round"/>
<path d="M2021.89 306.069C1941.99 307.959 1923.1 318.944 1837.48 312.71C1669.48 297.31 1594.13 231.835 1457.76 287.17C1297.88 359.253 1190.56 544.853 1056.33 643.315C798.041 817.869 550.173 458.775 405.381 370.173C305.602 316.233 251.404 389.394 123.306 421.233C-97.5365 467.898 -198.547 248.182 -419.149 272.727C-498.422 284.053 -512.157 301.435 -581.889 306.069" stroke="white" stroke-width="0.5" stroke-linecap="round" stroke-linejoin="round"/>
<path d="M2021.89 306.069C1941.05 308.01 1922.55 318.669 1837.48 311.557C1670.25 294.291 1593.78 226.207 1457.76 280.805C1302.46 350.359 1196.82 531.367 1067.18 637.188C846.778 805.648 619.434 555.991 503.032 446.577C320.523 277.65 309.81 367.097 134.162 419.152C-94.5682 478.883 -195.152 248.186 -419.141 272.578C-498.271 283.721 -512.308 301.221 -581.88 306.069" stroke="white" stroke-width="0.5" stroke-linecap="round" stroke-linejoin="round"/>
<path d="M2021.89 306.069C1927.65 308.347 1886.17 326.546 1750.67 294.977C1630.39 265.457 1569.41 234.901 1468.6 270.128C1271.69 348.306 1149.16 623.609 991.241 684.142C801.396 744.634 651.756 590.318 513.874 456.544C387.718 335.72 351.939 328.081 253.484 370.215C155.158 414.154 89.74 453.437 -28.5909 416.305C-208.651 353.308 -266.946 225.386 -495.103 288.803C-537.978 301.062 -545.243 303.372 -581.898 306.046" stroke="white" stroke-width="0.5" stroke-linecap="round" stroke-linejoin="round"/>
<path d="M2021.89 306.069C1928.9 308.333 1885.19 326.019 1750.67 292.747C1630.96 261.626 1569.52 229.399 1468.6 264.006C1270.53 341.637 1149.16 624.057 991.241 687.138C800.854 750.406 648.712 589.506 513.874 456.423C388.122 333.9 352.188 325.841 253.484 369.207C154.207 414.742 89.3579 454.715 -28.5909 418.065C-210.775 354.731 -266.319 225.241 -495.103 288.64C-537.529 300.773 -544.786 303.251 -581.898 306.069" stroke="white" stroke-width="0.5" stroke-linecap="round" stroke-linejoin="round"/>
<path d="M2021.89 306.069C1932.19 308.253 1886.51 324.217 1761.5 293.694C1638.75 262.046 1579.42 226.777 1479.42 255.158C1275.16 323.471 1150.15 621.7 991.219 686.952C796.9 753.267 639.097 581.489 513.852 456.787C388.429 333.322 352.779 324.129 253.493 368.133C158.926 411.928 94.859 452.335 -17.7309 422.447C-197.88 367.597 -260.987 227.999 -484.243 285.663C-534.819 299.499 -539.755 302.756 -581.889 306.069" stroke="white" stroke-width="0.5" stroke-linecap="round" stroke-linejoin="round"/>
<path d="M2021.89 306.069C1934.88 308.188 1886.05 323.653 1761.5 291.953C1639.77 259.288 1579.48 222.581 1479.42 250.034C1140.37 360.331 1086.89 1024.71 568.12 511.627C412.597 356.374 380.066 317.675 275.19 357.671C184.209 395.75 118.334 448.667 3.96685 428.63C-171.454 390.425 -248.221 240.067 -451.698 278.089C-515.685 291.673 -525.101 301.459 -581.893 306.088" stroke="white" stroke-width="0.5" stroke-linecap="round" stroke-linejoin="round"/>
<path d="M2021.89 306.069C1929.83 308.314 1881.77 323.774 1750.67 287.184C1630.32 251.966 1569.24 216.501 1468.6 248.336C1130.21 372.562 1084.68 1032.19 557.269 501.538C402.453 344.456 371.25 316.013 264.344 361.078C173.478 402.049 106.879 451.14 -6.88421 427.187C-182.292 382.991 -254.104 237.094 -462.545 280.506C-522.532 294.37 -529.229 301.659 -581.889 306.069" stroke="white" stroke-width="0.5" stroke-linecap="round" stroke-linejoin="round"/>
<path d="M2021.89 306.069C1929.33 308.323 1880.52 322.934 1750.67 285.331C1630.9 248.966 1569.34 212.133 1468.6 243.109C1131.03 364.26 1084.13 1036.55 557.283 502.285C404.181 345.594 372.917 313.862 264.344 359.99C173.58 401.265 106.759 451.267 -6.88421 428.149C-182.848 384.979 -253.686 237.934 -462.545 280.623C-521.768 294.081 -529.606 301.561 -581.889 306.069" stroke="white" stroke-width="0.5" stroke-linecap="round" stroke-linejoin="round"/>
<path d="M2021.89 306.069C1928.79 308.337 1879.28 322.094 1750.67 283.637C1626.84 244.798 1563.55 205.003 1457.74 241.999C1130.94 373.49 1075.73 1032.03 557.283 502.966C404.106 344.997 373.081 312.369 264.357 358.772C173.683 400.253 106.661 451.113 -6.87087 428.923C-186.562 386.193 -254.295 234.43 -473.396 283.213C-529.073 296.722 -533.792 301.809 -581.889 306.079" stroke="white" stroke-width="0.5" stroke-linecap="round" stroke-linejoin="round"/>
<path d="M2021.89 306.069C1929.31 308.356 1878.18 321.417 1750.67 282.578C1579.22 227.85 1483.31 153.275 1284.16 370.392C1154.67 515.491 1085.03 646.008 980.386 685.957C727.723 765.609 559.758 477.543 416.232 367.844C319.11 300.39 275.119 360.928 145.004 413.309C-95.4214 502.439 -187.593 264.584 -408.303 273.726C-488.597 279.876 -510.188 299.597 -581.889 306.069" stroke="white" stroke-width="0.5" stroke-linecap="round" stroke-linejoin="round"/>
<path d="M2021.89 306.069C1929.74 308.375 1877.45 320.862 1750.67 281.514C1628.62 241.877 1563.69 199.893 1457.74 234.276C1253.9 311.207 1137.29 621.658 980.386 682.336C775.539 747.812 627.21 576.333 503.023 447.51C383.048 324.684 348.695 314.838 242.633 365.38C142.209 414.901 76.996 455.028 -39.4464 420.613C-216.721 361.53 -269.327 233.487 -495.107 289.046C-536.947 299.812 -544.257 302.612 -581.902 306.069" stroke="white" stroke-width="0.5" stroke-linecap="round" stroke-linejoin="round"/>
<path d="M2021.89 306.069C1923.3 308.571 1871.25 320.339 1739.83 276.871C1620.83 236.1 1554.01 195.292 1446.89 234.378C1245.79 318.622 1127.65 630.963 969.526 682.229C766.359 736.869 630.872 581.018 503.023 447.711C383.87 324.983 349.575 312.812 242.633 363.612C143.031 412.647 77.2271 454.188 -39.4464 421.009C-216.645 363.84 -268.732 234.985 -495.107 289.256C-540.551 300.68 -545.168 302.653 -581.902 306.088" stroke="white" stroke-width="0.5" stroke-linecap="round" stroke-linejoin="round"/>
<path d="M2021.89 306.069C1928.06 308.482 1874.42 319.135 1750.67 279.396C1628.44 238.293 1563.86 194.797 1457.74 226.562C1253.06 298.729 1134.94 613.805 980.386 675.085C789.314 737.863 652.503 603.389 546.418 493.344C401.622 341.749 370.18 304.529 253.493 356.705C158.161 401.816 89.5268 451.901 -28.5819 424.336C-205.434 375.954 -263.337 238.937 -484.243 286.899C-535.014 298.757 -538.898 301.986 -581.889 306.069" stroke="white" stroke-width="0.5" stroke-linecap="round" stroke-linejoin="round"/>
<path d="M2021.89 306.069C1927.56 308.557 1873.16 318.45 1750.67 278.57C1630.69 237.678 1569.85 196.319 1468.6 219.982C1268.2 277.268 1146.45 578.573 1002.08 661.174C935.511 693.34 838.14 699.906 741.689 654.002C672.405 618.07 621.914 570.472 568.107 515.995C413.077 356.757 383.097 306.065 275.19 345.468C183.712 382.87 117.912 440.898 3.96685 430.244C-175.756 405.629 -244.772 251.332 -451.698 281.015C-518.613 292.294 -521.906 300.278 -581.893 306.069" stroke="white" stroke-width="0.5" stroke-linecap="round" stroke-linejoin="round"/>
<path d="M2021.89 306.069C1928.72 308.668 1872.81 318.337 1750.67 278.537C1631.26 237.738 1570.08 195.941 1468.6 218.018C1260.54 274.015 1140.91 586.972 991.241 659.671C914.777 690.521 820.61 690.937 730.851 646.232C662.065 609.045 611.596 560.252 557.283 504.576C402.093 343.429 375.05 298.785 253.506 351.945C161.232 394.872 94.7124 444.486 -17.7086 426.063C-196.471 389.347 -256.379 245.643 -473.396 285.397C-527.607 296.391 -533.677 301.361 -581.889 306.051" stroke="white" stroke-width="0.5" stroke-linecap="round" stroke-linejoin="round"/>
<path d="M2021.89 306.069C1926.44 308.869 1870.67 317.666 1750.67 278.495C1632.29 237.985 1570.44 195.525 1468.6 216.034C1260.25 268.621 1139.1 580.785 991.241 652.924C914.902 683.928 819.721 686.522 730.851 644.057C661.657 608.009 611 559.291 557.283 504.296C402.466 343.681 375.516 296.596 253.493 349.169C158.264 392.964 89.1847 445.583 -28.5819 423.263C-205.656 382.548 -261.6 244.621 -484.243 288.029C-538.24 299.438 -538.538 301.823 -581.889 306.069" stroke="white" stroke-width="0.5" stroke-linecap="round" stroke-linejoin="round"/>
<path d="M2021.89 306.069C1929.46 308.916 1871.39 317.903 1750.67 278.462C1632.14 237.799 1570.54 195.171 1468.6 214.065C1258.43 263.562 1139.34 573.542 991.241 646.18C921.38 674.73 823.614 684.334 730.851 641.925C661.381 607.061 610.298 558.194 557.283 504.016C407.163 348.394 378.138 297.847 264.344 341.791C168.919 382.263 100.685 440.188 -17.7086 424.574C-196.431 393.542 -255.481 249.796 -473.374 286.414C-527.998 296.638 -532.824 301.235 -581.867 306.069" stroke="white" stroke-width="0.5" stroke-linecap="round" stroke-linejoin="round"/>
<path d="M2021.89 306.069C1922.43 309.284 1864.37 317.493 1739.83 274.701C1622.51 232.787 1554.85 188.334 1446.88 217.388C1242.54 283.026 1129.81 582.404 980.372 643.903C779.654 713.317 663.274 613.571 546.405 492.5C400.76 339.733 372.348 293.983 253.479 343.639C158.619 386.235 88.8736 440.646 -28.5953 422.138C-205.892 386.944 -260.423 248.723 -484.256 288.878C-536.325 299.065 -537.765 301.706 -581.902 306.088" stroke="white" stroke-width="0.5" stroke-linecap="round" stroke-linejoin="round"/>
<path d="M2021.89 306.069C1920.48 309.55 1861.92 316.858 1739.83 274.944C1623.58 233.445 1555.15 188.306 1446.88 215.465C1241.55 277.464 1129.22 574.914 980.386 636.516C778.401 707.05 666.833 616.665 546.418 492.056C398.365 336.789 371.206 288.481 242.646 345.426C151.145 388.241 82.715 437.057 -28.5819 421.34C-202.501 389.734 -259.436 254.747 -473.378 287.413C-528.758 296.918 -531.935 301.071 -581.871 306.079" stroke="white" stroke-width="0.5" stroke-linecap="round" stroke-linejoin="round"/>
<path d="M2021.89 306.069C1918.97 309.97 1860.28 316.919 1739.83 276.041C1624.14 235.158 1555.3 189.963 1446.88 214.821C1235.5 273.815 1127.04 575.273 969.513 630.944C769.599 692.691 674.503 625.209 535.559 479.751C393.175 328.202 364.772 285.341 231.795 346.672C134.055 393.659 65.3852 439.428 -50.2796 415.997C-221.164 374.802 -269.563 251.126 -495.076 291.697C-541.8 300.698 -543.51 302.229 -581.871 306.069" stroke="white" stroke-width="0.5" stroke-linecap="round" stroke-linejoin="round"/>
<path d="M2021.89 306.069C1908.48 310.95 1851.22 316.135 1728.97 273.343C1620.17 233.734 1551.74 192.417 1446.88 214.172C1234.42 268.598 1126.7 565.385 969.526 621.579C768.274 685.104 677.924 627.589 535.572 478.785C396.934 332.136 367.633 284.599 242.646 337.909C145.777 381.942 76.7784 433.725 -39.433 417.024C-215.285 384.765 -263.489 252.209 -495.094 292.07C-542.302 300.792 -543.124 302.182 -581.889 306.069" stroke="white" stroke-width="0.5" stroke-linecap="round" stroke-linejoin="round"/>
<path d="M2021.89 306.069C1908.01 311.361 1850.02 316.424 1728.97 274.477C1570.6 217.332 1460.21 141.814 1273.3 316.611C1145.77 440.926 1079.84 566.598 980.386 608.265C763.858 686.55 668.837 614.7 546.418 489.135C402.711 339.155 374.01 283.484 253.493 329.588C158.726 369.253 88.1183 426.987 -28.5819 417.183C-206.767 394.98 -257.774 257.085 -484.243 290.633C-534.628 298.906 -536.232 301.459 -581.889 306.032" stroke="white" stroke-width="0.5" stroke-linecap="round" stroke-linejoin="round"/>
<path d="M2021.89 306.069C1907.27 311.795 1848.8 316.695 1728.97 275.62C1567.09 217.733 1457.45 144.217 1273.3 311.212C1145.27 432.479 1079.89 556.981 980.386 598.876C768.497 676.377 678.671 623.436 546.418 488.188C402.377 338.1 374.01 280.959 253.493 325.934C161.312 363.793 93.7793 419.203 -17.7086 416.525C-198.818 404.737 -251.438 262.573 -473.374 289.597C-523.47 296.596 -532.295 301.076 -581.867 306.079" stroke="white" stroke-width="0.5" stroke-linecap="round" stroke-linejoin="round"/>
<path d="M2021.89 306.069C1907.86 312.248 1848.59 317.525 1728.97 277.044C1567.55 219.973 1456.16 145.743 1273.3 305.887C1145.77 422.754 1079.99 546.738 980.386 588.834C769.963 666.722 685.167 628.434 546.418 487.105C402.36 337.363 374.21 278.327 253.493 322.169C158.108 360.485 87.8117 419.572 -28.5819 414.238C-203.354 399.137 -256.459 265.308 -473.378 290.11C-525.612 297.054 -530.3 300.843 -581.871 306.079" stroke="white" stroke-width="0.5" stroke-linecap="round" stroke-linejoin="round"/>
<path d="M2021.89 306.069C1909.24 312.868 1848.73 318.916 1728.97 279.223C1623.84 242.745 1546.64 197.527 1436.05 215.25C1224.51 258.35 1124.41 523.074 969.526 581.219C786.066 644.655 706.665 651.426 535.572 474.482C398.24 330.004 368.615 273.133 242.646 322.397C147.324 362.795 75.9564 419.115 -39.4329 411.392C-212.65 392.88 -260.631 263.66 -484.229 291.93C-533.663 298.958 -533.854 301.193 -581.875 306.074" stroke="white" stroke-width="0.5" stroke-linecap="round" stroke-linejoin="round"/>
<path d="M2021.89 306.069C1804.02 320.302 1800.16 304.039 1609.63 237.472C1326.86 143.933 1230.28 352.664 1056.33 515.477C1023.45 544.465 1000.5 566.841 861.051 604.653C566.614 676.993 483.467 297.698 307.739 301.729C242.864 308.379 197.002 342.388 112.455 379.249C-39.1219 441.934 -113.302 400.248 -245.563 333.793C-396.243 260.655 -464.482 294.072 -581.889 306.06" stroke="white" stroke-width="0.5" stroke-linecap="round" stroke-linejoin="round"/>
<path d="M2021.89 306.069C1817.16 320.689 1801.79 309.429 1620.47 243.94C1338.59 145.902 1252.55 315.803 1067.17 494.179C1033.73 525.029 1006.62 555.007 850.191 598.48C567.236 669.359 479.446 297.194 307.739 298.463C242.953 304.105 198.806 336.677 112.455 374.993C-39.6374 439.25 -112.738 400.794 -245.563 334.759C-396.776 262.027 -467.637 294.361 -581.889 306.069" stroke="white" stroke-width="0.5" stroke-linecap="round" stroke-linejoin="round"/>
<path d="M2021.89 306.069C1818.52 321.865 1801.57 311.622 1620.47 246.609C1336.75 148.408 1253.46 306.569 1067.17 482.999C1033.25 513.858 1009.09 540.312 850.191 589.623C565.934 670.161 479.703 296.624 307.739 295.196C243.308 299.816 198.837 331.758 112.455 370.723C-46.0982 439.134 -114.075 398.4 -256.414 330.54C-400.007 264.897 -474.289 294.986 -581.889 306.065" stroke="white" stroke-width="0.5" stroke-linecap="round" stroke-linejoin="round"/>
<path d="M2021.89 306.069C1818.18 323.335 1799.76 313.391 1620.47 249.544C1334.96 151.352 1254.09 297.632 1067.17 471.379C1021.19 512.514 1010.3 521.922 861.051 576.585C706.114 629.782 624.624 563.337 513.874 446.46C411.98 337.339 380.431 293.894 307.739 292.112C243.548 295.705 198.549 327.073 112.455 366.444C-49.0932 437.402 -118.074 396.636 -256.414 331.385C-396.385 267.954 -460.319 293.47 -581.889 306.069" stroke="white" stroke-width="0.5" stroke-linecap="round" stroke-linejoin="round"/>
<path d="M2021.89 306.069C1909.97 316.545 1847.04 325.818 1728.97 291.011C1641.95 263.866 1556.42 220.155 1446.88 219.25C1229.59 224.877 1127.29 444.99 991.241 511.59C785.729 601.098 710.642 642.989 535.572 467.823C398.885 327.53 369.731 259.913 242.646 302.308C146.457 338.165 75.0632 397.971 -39.433 401.237C-215.214 399.273 -258.587 268.425 -495.094 294.842C-539.689 300.441 -536.472 301.295 -581.889 306.041" stroke="white" stroke-width="0.5" stroke-linecap="round" stroke-linejoin="round"/>
<path d="M2021.89 306.069C1908.26 317.857 1845.09 327.101 1728.97 293.871C1645.67 268.597 1557.1 224.952 1446.88 221.191C1222.56 220.724 1127.08 438.611 980.372 502.831C800.988 576.379 723.435 652.433 535.576 466.521C403.093 331.809 372.775 262.531 253.493 295.14C156.726 326.093 86.6608 388.507 -28.5819 398.269C-204.07 406.31 -253.988 276.838 -473.378 292.863C-519.44 297.063 -529.158 300.455 -581.871 306.055" stroke="white" stroke-width="0.5" stroke-linecap="round" stroke-linejoin="round"/>
<path d="M2021.89 306.069C1909.37 318.739 1845.44 329.066 1728.97 296.736C1649.42 273.264 1557.55 229.773 1446.88 223.132C1220.53 216.333 1127.6 424.598 980.386 489.322C789.146 568.773 719.782 655.621 513.874 443.096C393.761 316.709 359.253 254.383 231.795 298.687C134.829 335.86 63.1279 393.883 -50.2796 396.594C-220.533 394.004 -262.076 271.295 -495.076 295.206C-537.289 300.129 -534.885 301.025 -581.871 306.069" stroke="white" stroke-width="0.5" stroke-linecap="round" stroke-linejoin="round"/>
<path d="M2021.89 306.069C1908.24 319.877 1844.37 330.638 1728.97 299.602C1650.32 277.03 1549.06 231.004 1436.05 224.443C1215.89 218.158 1125.61 411.681 980.386 475.845C801.756 551.544 725.354 653.325 524.721 453.096C397.792 323.074 366.087 255.102 242.646 291.225C145.573 323.751 74.3967 384.727 -39.4329 393.888C-211.988 401.093 -258.01 275.77 -484.229 294.324C-524.87 298.309 -533.392 300.796 -581.875 306.069" stroke="white" stroke-width="0.5" stroke-linecap="round" stroke-linejoin="round"/>
<path d="M2021.89 306.069C1804.63 334.535 1788.8 322.015 1609.63 263.884C1310.58 170.769 1254.75 259.605 1056.33 416.436C990.526 466.279 1009.5 441.495 871.884 516.233C736.623 588.391 659.061 584.48 524.716 452.064C422.129 348.049 391.051 294.884 318.586 280.427C250.329 272.811 193.572 306.704 112.451 345.062C-46.1827 418.368 -112.676 398.363 -245.568 338.249C-386.019 276.25 -438.039 290.236 -581.893 306.051" stroke="white" stroke-width="0.5" stroke-linecap="round" stroke-linejoin="round"/>
<path d="M2021.89 306.069C1908.13 322.206 1843.77 334.474 1728.97 305.561C1659.55 286.759 1559.9 244.952 1446.89 229.544C1218.72 203.747 1129.18 376.491 991.241 442.419C804.387 525.445 727.607 641.057 535.572 461.873C404.794 335.361 374.059 257.295 253.493 282.713C157.277 307.796 85.4344 370.831 -28.5819 387.448C-205.638 406.632 -252.58 281.015 -473.378 293.745C-517.16 297.063 -526.669 299.863 -581.889 306.069" stroke="white" stroke-width="0.5" stroke-linecap="round" stroke-linejoin="round"/>
<path d="M2021.89 306.069C1908.52 323.386 1843.61 336.527 1728.97 308.598C1655.87 289.382 1562.68 250.585 1446.88 231.924C1216.45 199.627 1130.38 361.694 991.241 427.724C809.675 508.496 732.006 632.76 546.418 470.889C413.055 349.094 382.728 262.162 264.344 278.397C168.768 296.867 96.4898 360.844 -17.7087 382.879C-198.444 411.345 -247.759 285.574 -462.505 293.236C-509.224 295.826 -523.057 299.349 -581.849 306.069" stroke="white" stroke-width="0.5" stroke-linecap="round" stroke-linejoin="round"/>
<path d="M2021.89 306.069C1908.77 324.446 1843.89 338.66 1728.97 311.636C1559.79 268.542 1413.32 188.75 1251.61 250.599C1169.91 284.963 1120.72 330.704 1045.47 382.427C1000.49 411.975 995.258 409.632 947.833 433.011C783.293 520.204 709.349 633.791 503.036 428.751C386.949 310.619 352.112 245.979 220.962 287.095C119.334 322.561 44.834 382.721 -71.9639 385.091C-238.294 382.025 -269.981 267.585 -527.629 299.34C-557.729 303.237 -558.805 303.409 -581.875 306.093" stroke="white" stroke-width="0.5" stroke-linecap="round" stroke-linejoin="round"/>
<path d="M2021.89 306.069C1908.01 325.823 1843.19 340.569 1728.97 314.674C1521.19 263.436 1390.89 182.216 1219.06 258.247C1138.78 296.596 1089.96 342.206 1023.78 381.741C979.386 406.263 975.387 402.143 926.135 430.855C828.018 491.272 755.335 562.058 644.06 528.249C573.817 502.309 521.139 447.79 470.474 395.087C370.126 289.928 330.503 240.333 188.4 296.223C88.6071 337.694 16.5687 387.023 -93.675 382.254C-172.57 375.758 -207.034 350.433 -288.959 320.377C-406.53 279.671 -469.81 292.803 -581.889 306.069" stroke="white" stroke-width="0.5" stroke-linecap="round" stroke-linejoin="round"/>
<path d="M2021.89 306.069C1908.44 327.017 1843.05 342.589 1728.97 317.577C1663.43 301.902 1487.98 240.113 1381.8 227.85C1203.37 212.026 1117.36 321.329 1002.08 378.334C961.945 396.874 954.48 398.484 915.297 423.431C817.673 488.132 744.604 557.592 633.214 520.587C557.727 490.54 502.134 428.438 437.93 361.689C354.214 275.84 308.446 245.293 177.548 298.029C78.6002 339.785 5.02442 387.089 -104.526 379.422C-182.799 370.938 -213.899 345.884 -299.81 316.573C-412.618 280.525 -478.026 293.39 -581.889 306.069" stroke="white" stroke-width="0.5" stroke-linecap="round" stroke-linejoin="round"/>
<path d="M2021.89 306.069C1908.35 328.361 1842.7 344.456 1728.97 320.227C1671.41 306.811 1486.72 245.909 1392.66 229.754C1213.36 203.127 1131.24 296.046 1012.94 357.876C970.583 378.325 966.22 376.953 926.139 401.634C829.982 464.552 761.52 538.674 654.911 522.127C583.837 506.303 531.955 457.776 481.325 407.719C378.578 304.151 338.933 241.737 199.246 288.309C95.8144 325.771 21.6699 380.555 -93.675 377.961C-172.325 373.201 -206.54 349.108 -288.959 319.896C-406.032 280.665 -470.552 292.27 -581.889 306.069" stroke="white" stroke-width="0.5" stroke-linecap="round" stroke-linejoin="round"/>
<path d="M2021.89 306.069C1906.5 330.335 1837.39 347.508 1718.13 320.423C1465.38 258.467 1366.25 189.034 1208.22 240.977C1128.72 269.75 1077.47 310.129 1012.94 342.794C971.241 362.436 964.549 362.529 926.135 386.748C827.844 452.793 755.633 535.277 644.06 515.244C573.475 497.81 521.464 448.443 470.474 398.045C375.036 302.233 333.458 244.738 199.246 287.077C99.8003 321.399 27.7264 373.28 -82.8284 375.898C-241.058 373.761 -279.303 269.652 -527.625 299.168C-561.2 303.4 -534.654 300.138 -581.871 306.079" stroke="white" stroke-width="0.5" stroke-linecap="round" stroke-linejoin="round"/>
<path d="M2021.89 306.069C1906.63 331.618 1836.72 349.356 1718.13 323.144C1664.51 310.307 1442.63 242.773 1392.66 231.051C1228.85 195.852 1160.9 251.201 1023.78 322.388C976.391 345.613 969.61 343.793 926.135 371.853C827.187 440.072 755.908 525.986 644.06 510.787C573.337 496.293 521.495 448.723 470.474 399.296C369.024 299.196 329.686 243.063 188.4 289.387C84.5501 326.117 10.2145 377.9 -104.526 373.071C-177.973 367.247 -209.562 346.215 -288.959 319.135C-405.299 281.552 -469.872 291.692 -581.889 306.069" stroke="white" stroke-width="0.5" stroke-linecap="round" stroke-linejoin="round"/>
<path d="M2021.89 306.069C1908.06 332.575 1837 351.432 1718.13 325.86C1452.09 263.744 1368.07 194.695 1219.06 223.664C1149.47 239.609 1100.47 267.996 1034.65 302.061C983.492 327.591 977.893 324.927 937.013 349.785C838.66 414.686 767.683 510.013 654.929 507.306C583.544 500.666 532.088 457.725 481.325 410.85C377.409 312.206 338.417 245.657 199.246 284.594C96.4632 316.522 21.3233 370.859 -93.6927 371.307C-266.044 365.684 -257.565 263.828 -581.907 306.069" stroke="white" stroke-width="0.5" stroke-linecap="round" stroke-linejoin="round"/>
<path d="M2021.89 306.069C1816.4 356.127 1787.41 348.296 1609.63 298.603C1312.12 218.134 1299.24 157.554 1034.64 287.473C953.138 326.317 961.074 309.406 850.199 402.67C716.721 514.301 637.946 542.688 503.032 431.359C365.46 312.602 342.088 227.99 145.013 302.565C-1.58314 359.841 -69.9334 397.089 -223.857 341.348C-374.79 285.817 -421.931 285.112 -581.88 306.065" stroke="white" stroke-width="0.5" stroke-linecap="round" stroke-linejoin="round"/>
<path d="M2021.89 306.069C1911.07 334.269 1842.25 353.457 1728.97 332.332C1345.96 252.792 1337.2 133.634 1034.63 273.124C984.927 295.532 982.225 293.33 947.833 312.462C791.421 409.348 705.585 599.917 492.176 423.716C379.64 326.779 345.74 255.111 210.097 282.559C107.732 306.946 32.4498 361.32 -82.8284 366.915C-262.347 369.403 -252.522 262.909 -581.889 306.069" stroke="white" stroke-width="0.5" stroke-linecap="round" stroke-linejoin="round"/>
<path d="M2021.89 306.069C1822.86 358.768 1787.24 352.627 1620.47 305.803C1317.54 222.866 1289.95 149.136 1034.63 258.765C982.545 280.889 980.501 278.831 947.833 296.988C794.122 392.632 704.985 593.006 492.176 425.391C381.799 334.255 348.784 263.847 220.948 281.813C119.139 300.176 43.6831 354.61 -71.9773 364.26C-233.615 372.459 -277.601 273.017 -516.774 297.814C-536.107 300.026 -529.189 299.177 -581.871 306.079" stroke="white" stroke-width="0.5" stroke-linecap="round" stroke-linejoin="round"/>
<path d="M2021.89 306.069C1823.41 360.667 1786.83 354.167 1620.47 307.88C1335.77 230.734 1285.87 145.487 1045.48 240.048C973.463 268.868 971.717 266.605 937.004 288.304C781.005 395.665 694.143 586.664 481.325 418.499C376.76 332.103 341.439 264.155 210.097 284.963C111.047 304.217 38.8574 352.711 -71.9773 362.118C-254.73 371.759 -252.326 262.568 -581.889 306.069" stroke="white" stroke-width="0.5" stroke-linecap="round" stroke-linejoin="round"/>
<path d="M2021.89 306.069C1824.88 362.3 1787.79 356.066 1620.47 309.961C1403.52 251.798 1356.23 201.4 1229.91 192.716C1117.69 188.432 979.235 248.644 947.833 266.073C799.281 359.304 703.292 579.095 492.176 428.76C379.689 343.83 347.522 267.436 210.097 286.162C107.225 303.895 32.5787 354.237 -82.8284 360.578C-263.2 364.755 -257.308 263.152 -581.889 306.069" stroke="white" stroke-width="0.5" stroke-linecap="round" stroke-linejoin="round"/>
<path d="M2021.89 306.069C1828.6 363.532 1781.73 356.406 1631.33 314.432C1554.93 293.535 1543.5 295.616 1446.88 255.807C1299.79 194.433 1221.98 162.669 1067.17 205.679C1029.96 216.935 981.554 232.208 947.833 250.762C799.748 343.396 701.782 570.724 492.176 430.608C382.053 352.001 350.744 277.464 220.948 287.016C119.05 298.594 43.5586 348.268 -71.9773 358.091C-254.815 368.138 -256.063 263.362 -581.889 306.069" stroke="white" stroke-width="0.5" stroke-linecap="round" stroke-linejoin="round"/>
<path d="M2021.89 306.069C1922.94 336.583 1852.7 356.873 1750.67 343.401C1701.31 335.701 1545.61 296.895 1457.74 260.72C1374.89 225.965 1319.68 198.47 1240.77 184.498C1134.98 168.735 1021.73 200.574 958.688 229.828C811.896 308.808 709.131 555.884 503.023 439.39C391.491 370.649 363.261 294.641 242.633 290.063C145.44 290.852 72.8903 335.188 -39.4463 353.061C-217.836 377.009 -261.978 282.891 -484.243 295.406C-521.404 298.034 -541.009 300.815 -581.889 306.055" stroke="white" stroke-width="0.5" stroke-linecap="round" stroke-linejoin="round"/>
<path d="M2021.89 306.069C1923.5 337.335 1852.46 357.671 1750.67 344.124C1703.16 336.658 1545.01 297.665 1457.74 261.178C1263.61 178.329 1194.85 141.002 991.241 202.278C830.804 255.293 732.122 521.567 535.572 455.658C414.61 407.742 385.176 315.304 264.344 296.036C164.329 285.266 88.2427 329.901 -28.5819 350.107C-211.984 377.765 -257.93 286.759 -473.378 295.136C-515.147 297.394 -538.16 300.591 -581.871 306.069" stroke="white" stroke-width="0.5" stroke-linecap="round" stroke-linejoin="round"/>
<path d="M2021.89 306.069C1928.13 336.77 1858.22 356.878 1761.5 346.29C1701.39 338.226 1540.04 295.756 1468.58 266.236C1289.29 190.135 1203.29 128.958 991.241 187.868C828.271 238.433 727.159 520.162 524.721 451.677C405.959 404.331 377.991 315.262 253.493 299.275C153.114 291.146 77.3071 333.807 -39.433 350.415C-243.742 374.946 -247.39 264.729 -581.889 306.083" stroke="white" stroke-width="0.5" stroke-linecap="round" stroke-linejoin="round"/>
<path d="M2021.89 306.069C1929.65 337.167 1858.55 357.755 1761.5 347.013C1372.59 294.384 1298.39 95.308 991.241 173.49C829.16 220.505 731.242 497.586 535.572 455.037C419.796 422.544 388.873 335.893 275.19 307.446C179.69 288.519 106.506 322.761 -6.88417 344.101C-241.195 384.349 -232.446 263.838 -581.875 306.069" stroke="white" stroke-width="0.5" stroke-linecap="round" stroke-linejoin="round"/>
<path d="M2021.89 306.093C1929.91 337.717 1858.81 358.31 1761.5 347.293C1377.4 294.263 1284.47 93.278 991.241 159.869C828.284 203.075 724.946 495.696 524.721 452.027C406.159 418.695 380.346 330.195 253.493 308.822C153.02 296.424 77.4404 333.718 -39.433 348.179C-244.306 369.449 -252.135 267.953 -581.889 306.055" stroke="white" stroke-width="0.5" stroke-linecap="round" stroke-linejoin="round"/>
<path d="M2021.89 306.153C1928.49 338.464 1859.17 358.492 1761.5 346.971C1705.73 339.01 1537.39 294.996 1468.58 266.241C1319.59 202.007 1188.06 109.158 991.241 147.335C830.932 184.844 728.9 469.527 535.572 453.311C420.516 436.175 389.695 351.684 275.181 319.509C175.767 296.41 99.6402 328.426 -17.7398 345.254C-244.519 374.186 -236.219 269.349 -581.898 306.055" stroke="white" stroke-width="0.5" stroke-linecap="round" stroke-linejoin="round"/>
<path d="M2021.89 306.209C1927.94 338.935 1859.98 358.749 1761.5 346.654C1702.4 337.937 1532.43 291.305 1479.42 270.198C1333.67 209.697 1189.85 107.665 1002.06 133.046C828.888 160.863 731.091 455.004 535.572 452.223C422.484 443.203 388.304 359.43 275.181 326.019C171.878 300.353 93.1215 332.636 -28.5909 346.439C-244.635 367.55 -243.475 272.844 -581.898 306.009" stroke="white" stroke-width="0.5" stroke-linecap="round" stroke-linejoin="round"/>
<path d="M2021.89 306.27C1885 354.251 1814.38 365.726 1674.72 327.026C1548.31 291.043 1550.33 297.656 1479.44 269.629C1329.89 207.933 1069.62 37.9385 904.441 161.843C779.41 264.094 678.808 452.667 524.721 451.024C383.297 440.193 370.859 314.058 166.697 321.688C34.6493 329.523 -48.049 370.952 -213.019 332.766C-358.167 297.884 -412.195 290.74 -581.893 305.985" stroke="white" stroke-width="0.5" stroke-linecap="round" stroke-linejoin="round"/>
<path d="M2021.89 306.331C1851.86 366.019 1792.6 360.494 1642.19 316.928C1561.92 294.011 1547.43 296.895 1468.6 264.58C1288.01 187.942 1054.28 26.7202 893.582 155.921C763.595 268.779 660.963 461.715 503.023 449.778C371.939 431.14 360.937 319.355 155.855 326.186C1.97172 334.329 -42.0236 371.657 -245.563 324.726C-379.789 294.454 -448.152 295.033 -581.889 305.962" stroke="white" stroke-width="0.5" stroke-linecap="round" stroke-linejoin="round"/>
<path d="M2021.89 306.396C1851.52 366.393 1794.73 360.322 1642.19 315.673C1558.14 291.463 1540.22 294.786 1446.88 254.468C1309.62 193.369 1105.05 66.7213 958.675 104.305C808.484 156.976 686.287 464.02 492.163 449.708C385.763 434.593 369.486 360.877 231.795 335.599C126.804 319.831 48.6376 346.089 -71.9773 347.904C-256.472 347.685 -261.467 282.91 -581.889 305.953" stroke="white" stroke-width="0.5" stroke-linecap="round" stroke-linejoin="round"/>
<path d="M2021.89 306.438C1852.88 365.809 1796.04 359.393 1642.19 313.792C1559.15 289.662 1545.25 293.614 1457.74 258.005C1300.18 191.741 1099.04 63.0206 958.688 93.502C807.435 140.694 683.634 450.954 492.176 450.739C383.986 443.039 368.975 365.511 220.948 340.503C115.721 325.883 37.3377 349.327 -82.8284 348.025C-260.178 343.317 -266.959 287.035 -581.889 305.953" stroke="white" stroke-width="0.5" stroke-linecap="round" stroke-linejoin="round"/>
<path d="M2021.89 306.489C1853.63 365.441 1796.97 358.362 1642.19 311.917C1561.1 288.118 1545.34 291.538 1457.74 256.852C1280.42 184.293 1091.42 59.1523 958.688 82.6947C806.458 124.334 680.55 438.28 492.176 451.771C384.941 451.738 371.242 375.241 220.948 347.041C115.788 330.293 37.8753 350.63 -82.8284 348.156C-257.73 342.127 -268.465 290.857 -581.889 305.957" stroke="white" stroke-width="0.5" stroke-linecap="round" stroke-linejoin="round"/>
<path d="M2021.89 306.54C1852.67 365.66 1796.04 356.794 1642.19 310.045C1558.2 285.177 1547.15 290.105 1457.74 255.695C1240.95 169.444 1059.35 36.991 936.995 78.0793C785.346 143.821 654.947 454.323 470.474 453.52C375.858 445.937 358.853 378.316 210.084 351.633C104.657 335.431 26.6199 352.972 -93.6884 347.829C-258.299 338.59 -275.255 294.846 -581.902 305.962" stroke="white" stroke-width="0.5" stroke-linecap="round" stroke-linejoin="round"/>
<path d="M2021.89 306.592C1854.37 364.965 1797.89 356.057 1642.19 308.174C1559.84 283.53 1547.7 288.169 1457.74 254.542C1273.39 183.313 1102.2 67.2579 980.386 59.9082C792.869 61.8401 639.634 522.542 416.232 446.474C347.011 417.425 307.641 364.69 155.842 350.811C44.6739 342.58 -32.8699 358.021 -158.786 341.651C-264.986 326.368 -330.452 299.835 -581.902 305.971" stroke="white" stroke-width="0.5" stroke-linecap="round" stroke-linejoin="round"/>
<path d="M2021.89 306.625C1855.16 364.321 1798.54 354.587 1642.19 305.976C1489.72 259.974 1531 298.855 1164.83 118.804C1002.16 39.6977 954.534 24.3544 861.051 103.246C754.18 199.711 672.041 343.653 557.283 423.888C391.931 529.351 396.725 368.665 112.487 352.804C0.509839 347.825 -66.3696 357.359 -191.286 336.873C-322.21 314.362 -390.307 303.811 -581.871 305.981" stroke="white" stroke-width="0.5" stroke-linecap="round" stroke-linejoin="round"/>
<path d="M2021.89 306.639C1845.08 367.107 1792.16 349.047 1631.33 300.105C1539.55 273.199 1480.56 274.151 1262.46 169.024C1059.16 69.8711 991.681 11.0082 893.582 68.0698C731.42 175.581 593.635 498.655 416.232 456.586C347.247 433.973 308.89 380.061 145.004 360.387C36.6622 348.996 -36.2114 358.259 -158.773 342.449C-248.158 329.924 -329.79 306.793 -581.889 306.009" stroke="white" stroke-width="0.5" stroke-linecap="round" stroke-linejoin="round"/>
<path d="M2021.89 306.648C1855.52 362.86 1799.25 350.392 1642.19 300.866C1561.68 276.167 1553.54 281.384 1457.74 250.702C1220.85 172.468 1103.39 70.9445 991.241 42.5116C817.517 7.46643 694.685 338.058 513.874 443.978C410.011 497.278 392.121 436.665 253.484 389.889C145.724 356.038 65.0785 359.477 -61.1397 352.202C-237.867 341.026 -254.028 311.786 -581.898 306.037" stroke="white" stroke-width="0.5" stroke-linecap="round" stroke-linejoin="round"/>
<path d="M2021.89 306.662C1852.38 363.257 1795.1 346.971 1642.19 298.314C1565.61 274.613 1546.76 276.997 1446.88 246.026C1192.01 164.535 1108.58 72.6382 991.241 37.229C816.9 -6.36049 691.055 325.365 513.874 442.335C411.144 502.7 392.708 445.191 253.484 397.07C141.485 360.714 57.0179 362.146 -71.9863 352.529C-239.876 339.154 -249.123 316.685 -581.898 306.051" stroke="white" stroke-width="0.5" stroke-linecap="round" stroke-linejoin="round"/>
<path d="M2021.89 306.676C1856.44 361.227 1797.59 345.655 1642.19 295.761C1545.32 265.536 1443.63 257.146 1273.3 180.662C1087 94.7341 1011.88 4.16715 915.297 29.4688C777.361 78.7327 667.878 317.74 524.712 432.727C447.897 489.191 413.753 477.73 340.279 440.926C194.474 369.669 92.8906 367.527 -71.9773 353.569C-223.452 339.995 -254.739 320.904 -581.889 306.097" stroke="white" stroke-width="0.5" stroke-linecap="round" stroke-linejoin="round"/>
<path d="M2021.89 306.671C1853.43 361.269 1795.57 342.687 1642.19 293.106C1568.63 269.998 1552.23 272.037 1446.88 244.029C1102.95 149.841 1040.76 -3.63974 915.297 22.7352C775.726 65.4614 666.98 305.687 524.712 429.908C416.907 516.737 392.988 461.314 253.484 411.172C140.618 372.52 49.0596 366.449 -71.9863 354.857C-212.619 340.695 -241.333 326.537 -581.898 306.125" stroke="white" stroke-width="0.5" stroke-linecap="round" stroke-linejoin="round"/>
<path d="M2021.89 306.643C1853.51 360.06 1794.8 339.915 1642.19 290.348C1526.21 253.781 1399.77 246.982 1240.77 173.812C981.399 50.2485 954.64 -119.294 709.158 200.234C623.527 313.19 566.267 399.193 492.176 452.69C400.835 511.063 387.274 462.083 231.786 410.355C69.0999 358.581 -425.41 317.647 -581.898 306.139" stroke="white" stroke-width="0.5" stroke-linecap="round" stroke-linejoin="round"/>
<path d="M2021.89 306.615C1853.55 358.852 1793.84 337.078 1642.19 287.586C1561.2 261.948 1512.88 258.495 1403.5 232.773C1128 165.627 1083.92 53.5432 958.701 16.0294C782.516 -19.9537 645.007 343.807 481.325 459.368C393.921 513.256 382.892 464.16 210.097 409.856C31.4278 355.996 -369.893 324.857 -581.889 306.181" stroke="white" stroke-width="0.5" stroke-linecap="round" stroke-linejoin="round"/>
<path d="M2021.89 306.592C1853.78 357.587 1793.25 334.353 1642.19 284.828C1503.65 240.809 1387.29 246.562 1240.77 183.663C991.957 71.4718 952.494 -140.806 709.158 178.315C620.274 297.292 566.614 386.944 492.176 450.711C401.973 520.447 389.433 476.223 220.948 419.614C29.5171 357.443 -184.252 347.018 -581.889 306.219" stroke="white" stroke-width="0.5" stroke-linecap="round" stroke-linejoin="round"/>
<path d="M2021.89 306.564C1925.05 335.263 1861.44 345.244 1750.67 316.686C1597.51 274.356 1692.46 282.289 1414.35 235.783C1149.56 190.052 1122.34 99.7133 980.386 21.5312C795.264 -68.5318 665.731 276.699 503.023 439.685C409.936 525.72 394.788 487.404 231.795 429.703C48.9175 366.65 -158.901 346.061 -354.056 332.412C-454.036 324.973 -501.732 315.659 -581.889 306.237" stroke="white" stroke-width="0.5" stroke-linecap="round" stroke-linejoin="round"/>
<path d="M2021.89 306.527C1925.21 334.39 1861.76 343.429 1750.67 314.264C1608.76 274.468 1658.56 269.134 1414.35 236.403C1349.18 227.36 1301.35 218.433 1240.77 194.625C998.08 92.8208 949.437 -157.689 709.158 157.913C620.581 277.464 567.538 374.246 492.176 448.462C344.651 581.265 371.855 376.598 -332.359 336.117C-445.353 328.991 -489.637 318.431 -581.889 306.251" stroke="white" stroke-width="0.5" stroke-linecap="round" stroke-linejoin="round"/>
<path d="M2021.89 306.471C1861.17 351.656 1796.69 327.736 1642.19 276.904C1488.53 227.943 1395.8 250.865 1262.47 209.333C1081.76 148.291 1017.52 6.38378 904.442 2.69727C755.753 12.1422 647.522 265.298 513.856 423.613C397.272 553.705 393.921 483.811 123.271 405.992C-15.9045 367.144 -184.576 347.032 -256.414 342.328C-472.409 329.836 -426.717 328.982 -581.889 306.261" stroke="white" stroke-width="0.5" stroke-linecap="round" stroke-linejoin="round"/>
<path d="M2021.89 306.419C1765.92 376.178 1728.03 262.232 1468.6 241.905C1383.35 235.797 1327.3 235.839 1251.61 212.418C1126.92 169.953 1089.91 106.909 980.386 30.822C786.906 -92.3402 661.439 248.322 503.023 433.637C405.266 540.569 395.045 501.048 177.548 427.509C20.6034 375.46 -149.752 350.405 -256.414 344.148C-456.755 333.956 -419.998 332.332 -581.889 306.251" stroke="white" stroke-width="0.5" stroke-linecap="round" stroke-linejoin="round"/>
<path d="M2021.89 306.368C1763.47 374.601 1716.03 253.851 1468.6 241.121C1386.25 237.603 1334.52 240.309 1262.46 222.236C1084.16 172.081 1017.29 18.9411 904.442 2.06252C716.854 -7.9844 588.725 394.503 437.93 490.745C370.904 524.689 352.965 485.416 112.455 411.331C-145.42 333.867 -295.869 353.168 -440.847 331.842C-499.671 322.645 -524.51 316.317 -581.889 306.251" stroke="white" stroke-width="0.5" stroke-linecap="round" stroke-linejoin="round"/>
<path d="M2021.89 306.317C1764.44 372.025 1708.44 249.157 1479.44 240.599C1396.41 238.564 1346.65 244.957 1273.3 231.079C1012.89 173.653 960.474 -151.922 741.689 86.0918C620.256 226.249 539.815 421.938 437.93 492.164C372.77 528.324 354.569 493.619 112.455 415.521C-154.6 331.315 -287.017 357.657 -440.847 333.718C-498.524 324.143 -524.008 317.255 -581.889 306.247" stroke="white" stroke-width="0.5" stroke-linecap="round" stroke-linejoin="round"/>
<path d="M2021.89 306.265C1765.16 369.263 1697.92 242.731 1479.44 239.889C1396.54 240.071 1347.1 249.129 1273.3 237.71C1011.38 188.591 956.395 -161.941 730.856 93.0868C613.271 233.762 536.203 421.284 437.93 493.293C372.237 532.491 351.006 497.493 101.604 415.713C-166.944 329.612 -280.365 361.698 -440.847 335.379C-496.88 325.58 -523.741 318.062 -581.889 306.228" stroke="white" stroke-width="0.5" stroke-linecap="round" stroke-linejoin="round"/>
<path d="M2021.89 306.223C1764.94 366.5 1689.63 237.127 1479.44 239.493C1402.34 241.686 1354.81 252.2 1284.16 246.026C1145.2 229.618 1095.08 152.15 980.386 52.3672C777.237 -114.455 661.234 211.293 503.023 426.091C416.903 536.775 391.806 525.641 242.633 470.422C124.226 426.044 43.7852 394.518 -82.8417 370.859C-342.148 324.787 -213.037 385.899 -581.902 306.2" stroke="white" stroke-width="0.5" stroke-linecap="round" stroke-linejoin="round"/>
<path d="M2021.89 306.177C1761.18 364.508 1679.29 228.121 1468.6 239.637C1385.55 245.587 1336.3 259.12 1262.47 250.496C999.355 210.001 941.021 -200.103 687.478 139.901C603.94 256.563 554.274 361.787 481.343 452.34C404.617 540.555 388.051 529.845 166.697 445.924C1.594 384.326 -111.107 355.711 -299.814 352.127C-424.744 348.894 -470.445 331.674 -581.893 306.2" stroke="white" stroke-width="0.5" stroke-linecap="round" stroke-linejoin="round"/>
<path d="M2021.89 306.13C1758.1 362.254 1676.07 222.684 1468.6 239.502C1390.8 247.272 1344.19 261.985 1273.3 258.789C1006.8 237.048 946.855 -176.906 709.158 107.287C629.117 208.447 577.883 315.897 503.023 422.904C418.569 537.736 392.268 534.101 242.633 478.902C119.712 432.787 -39.9751 360.042 -256.428 354.661C-420.278 352.048 -430.138 342.934 -581.902 306.13" stroke="white" stroke-width="0.5" stroke-linecap="round" stroke-linejoin="round"/>
<path d="M2021.89 306.088C1760.61 358.819 1666.7 218.074 1468.6 239.357C1391.59 249.232 1344.4 266.423 1273.3 265.807C1144.29 259.866 1090.43 184.032 980.386 75.7181C770.741 -121.986 663.087 186.762 503.023 421.312C421.893 534.642 398.44 540.531 242.633 483.111C136.948 443.389 53.8187 404.644 -71.9907 377.648C-323.423 326.606 -227.292 396.277 -581.889 306.083" stroke="white" stroke-width="0.5" stroke-linecap="round" stroke-linejoin="round"/>
<path d="M2021.89 306.069C1758.96 355.819 1661.96 214.177 1468.6 239.539C1392.36 251.276 1344.63 270.73 1273.3 272.671C1011.82 269.75 951.148 -140.778 730.856 77.5569C613.449 203.472 536.092 408.457 437.93 497.843C383.355 539.729 356.298 531.129 123.329 439.853C-174.143 325.291 -257.383 374.382 -419.127 346.733C-477.168 335.869 -500.719 327.344 -581.889 306.069" stroke="white" stroke-width="0.5" stroke-linecap="round" stroke-linejoin="round"/>
<path d="M2021.89 306.069C1758.17 352.309 1657.08 211.111 1468.6 239.95C1392.33 253.483 1344.93 274.949 1273.3 279.368C1011.07 285.542 950.485 -132.383 730.856 78.6394C613.556 201.139 535.732 407.878 437.93 498.921C378.067 546.052 331.565 525.417 123.329 442.386C-176.418 324.791 -253.326 377.056 -419.127 347.792C-478.084 336.397 -501.688 327.451 -581.867 306.069" stroke="white" stroke-width="0.5" stroke-linecap="round" stroke-linejoin="round"/>
<path d="M2021.89 306.069C1756.67 348.893 1652.39 208.195 1468.6 240.356C1392.22 255.713 1345.25 279.088 1273.3 286.087C1015.35 301.011 953.894 -108.948 741.689 69.6331C619.625 183.229 539.309 403.571 437.93 500.003C408.256 523.942 392.659 529.831 351.135 524.32C276.483 510.876 209.324 479.298 112.455 440.585C-183.319 323.872 -256.934 381.185 -430.001 346.686C-486.127 334.595 -506.1 326.62 -581.889 306.088" stroke="white" stroke-width="0.5" stroke-linecap="round" stroke-linejoin="round"/>
<path d="M2021.89 306.069C1749.99 346.201 1647.81 200.5 1457.74 243.203C1381.32 262.274 1333.72 287.212 1262.46 293.796C1010.15 306.242 945.953 -112.863 730.856 80.814C613.027 197.2 536.172 405.628 437.93 501.081C378.24 550.424 328.113 532.347 123.329 447.454C-181.012 323.559 -246.914 382.287 -419.127 349.925C-479.435 337.549 -502.497 327.992 -581.867 306.088" stroke="white" stroke-width="0.5" stroke-linecap="round" stroke-linejoin="round"/>
<path d="M2021.89 306.069C1750.08 342.412 1642.39 198.017 1457.74 243.865C1320.38 281.622 1226.99 355.861 1088.88 239.269C1005.83 164.367 973.134 104.3 904.442 58.009C699.32 -62.4467 585.006 356.276 437.93 502.164C408.683 526.896 393.268 533.812 351.135 529.327C279.221 518.067 209.444 486.223 134.153 454.529C-191.557 318.921 -236.276 386.37 -419.149 350.966C-481.408 337.806 -507.442 326.798 -581.889 306.069" stroke="white" stroke-width="0.5" stroke-linecap="round" stroke-linejoin="round"/>
<path d="M2021.89 306.069C1748.85 339.061 1639.38 196.16 1457.74 244.644C1385.4 265.956 1341.65 291.734 1273.3 305.267C1013.25 346.374 952.823 -81.2433 741.689 76.8054C624.042 175.907 547.889 381.027 448.777 492.91C412.1 529.607 394.361 533.625 361.986 532.725C302.922 526.891 243.375 502.756 188.4 479.723C-195.174 316.13 -214.734 385.096 -397.452 355.749C-468.148 343.032 -502.688 328.216 -581.889 306.069" stroke="white" stroke-width="0.5" stroke-linecap="round" stroke-linejoin="round"/>
<path d="M2021.89 306.069C1747.22 335.935 1636.03 195.189 1457.74 245.489C1320.68 288.117 1226.84 370.896 1088.88 259.913C1002.29 184.923 968.41 117.931 893.582 70.6131C687.478 -41.9469 571.369 391.433 427.088 515.011C400.924 533.21 386.385 539.01 340.297 532.277C271.342 519.462 209.422 490.824 134.162 458.285C-183.105 322.663 -230.838 387.098 -408.294 354.279C-475.867 340.508 -506.94 326.914 -581.88 306.074" stroke="white" stroke-width="0.5" stroke-linecap="round" stroke-linejoin="round"/>
<path d="M2021.89 306.069C1740.52 333.214 1632.95 188.969 1446.9 249.89C1305.09 300.119 1216.4 377.793 1078.02 260.823C991.415 182.59 959.186 117.758 882.744 74.5095C682.834 -20.6306 568.894 395.33 427.088 516.98C328.713 585.577 167.333 450.856 -50.2708 392.572C-224.599 348.422 -273.153 380.439 -408.294 354.773C-477.075 340.405 -505.14 327.33 -581.88 306.093" stroke="white" stroke-width="0.5" stroke-linecap="round" stroke-linejoin="round"/>
<path d="M2021.89 306.069C1742.84 329.588 1628.46 188.549 1446.9 250.912C1368.99 279.876 1323.13 311.203 1251.62 325.459C1002.58 363.434 937.261 -72.5215 720.004 113.237C594.964 231.266 515.136 457.389 416.232 526.532C348.131 562.59 242.437 509.066 112.455 452.163C-182.292 325.235 -246.741 392.777 -430.001 350.396C-491.526 335.146 -515.023 324.483 -581.889 306.065" stroke="white" stroke-width="0.5" stroke-linecap="round" stroke-linejoin="round"/>
<path d="M2021.89 306.069C1740.79 326.383 1625.16 187.784 1446.9 251.938C1305.59 306.914 1216.23 392.562 1078.03 281.458C996.343 210.691 966.975 151.091 893.582 100.689C685.047 -25.4882 570.92 397.136 427.088 520.914C326.771 591.191 164.418 452.83 -50.2796 394.564C-228.607 348.889 -272.696 385.348 -419.149 353.327C-485.189 337.731 -510.215 325.72 -581.889 306.069" stroke="white" stroke-width="0.5" stroke-linecap="round" stroke-linejoin="round"/>
<path d="M2021.89 306.069C1741.86 323.275 1622.11 188.101 1446.9 252.778C1310.74 307.091 1221.59 392.632 1088.88 298.556C1008.01 235.802 977.715 175.207 904.442 119.13C694.343 -25.4696 581.931 371.288 437.93 514.269C408.869 538.968 393.179 546.206 351.135 542.673C279.518 532.832 215.896 501.487 123.306 459.699C-178.266 325.557 -233.508 394.919 -419.149 353.42C-485.522 337.451 -511.686 325.02 -581.889 306.069" stroke="white" stroke-width="0.5" stroke-linecap="round" stroke-linejoin="round"/>
<path d="M2021.89 306.069C1946.44 309.952 1886.58 307.633 1761.5 278.126C1574.43 233.188 1545.01 213.846 1436.03 257.893C1357.2 291.743 1312.14 324.558 1240.75 340.592C1118.74 362.006 1053.13 280.086 969.503 190.042C759.152 -30.6447 669.548 189.463 503.023 437.314C423.693 551.255 393.739 573.449 242.633 513.676C86.3541 449.526 -16.1001 375.88 -245.577 370.681C-426.975 367.443 -431.471 345.818 -581.902 306.069" stroke="white" stroke-width="0.5" stroke-linecap="round" stroke-linejoin="round"/>
<path d="M2021.89 306.069C1924.33 310.129 1857.82 299.415 1761.5 277.17C1572.18 232.708 1543.3 214.77 1436.05 258.686C1358.84 292.284 1312.13 326.294 1240.77 343.756C994.627 392.161 930.121 -31.2561 709.158 157.661C589.023 270.343 510.626 474.263 416.232 536.518C344.692 572.016 237.883 513.144 112.455 456.591C-167.931 331.907 -233.481 396.477 -419.149 353.215C-487.713 336.14 -511.459 324.259 -581.889 306.083" stroke="white" stroke-width="0.5" stroke-linecap="round" stroke-linejoin="round"/>
<path d="M2021.89 306.069C1924.68 309.144 1857.7 297.954 1761.5 276.204C1568.14 231.872 1539.49 213.888 1425.17 264.258C1345.88 301.095 1300.31 333.956 1229.89 349.285C1107.25 369.883 1044.83 287.371 958.666 200.098C748.932 -3.61192 660.39 228.176 492.154 461.421C418.969 558.395 386.732 577.672 231.764 512.075C35.4136 426.478 -24.5517 378.502 -267.292 371.978C-419.394 367.373 -462.492 336.191 -581.92 306.046" stroke="white" stroke-width="0.5" stroke-linecap="round" stroke-linejoin="round"/>
<path d="M2021.89 306.069C1925.26 308.179 1857.45 296.47 1761.5 275.271C1559.45 229.474 1531.52 212.861 1403.48 275.551C1323.57 315.99 1276.81 346.78 1208.2 356.281C1084.09 366.547 1025.25 270.842 936.973 190.621C725.563 10.5789 623.705 304.949 470.452 493.181C411.02 561.027 377.951 579.739 210.062 503.844C-19.9214 398.088 -45.3562 382.623 -288.994 371.997C-421.162 364.802 -473.369 332.86 -581.924 306.083" stroke="white" stroke-width="0.5" stroke-linecap="round" stroke-linejoin="round"/>
<path d="M2021.89 306.069C1896.46 307.745 1809.04 284.907 1663.88 253.077C1551.19 229.334 1514.94 219.665 1392.66 281.258C1324.55 316.322 1268.32 351.525 1197.36 358.814C977.919 369.081 906.779 -13.5234 676.609 221.555C592.911 312.696 546.085 407.621 470.474 497.885C410.789 564.013 377.351 581.349 210.084 504.632C-56.4517 380.504 -62.8548 386.991 -299.823 372.007C-423.464 362.557 -478.479 330.792 -581.902 306.069" stroke="white" stroke-width="0.5" stroke-linecap="round" stroke-linejoin="round"/>
<path d="M2021.89 306.069C1834.06 307.18 1666.26 242.559 1555.39 235.424C1410.25 232.871 1314.61 358.563 1175.67 359.972C1017.1 352.267 968.046 178.245 828.497 159.929C670.01 152.402 568.578 409.324 448.777 525.179C355.596 604.402 266.29 520.312 58.2133 435.727C-106.317 370.999 -195.347 381.666 -310.661 371.666C-427.001 359.822 -480.963 329.341 -581.889 306.069" stroke="white" stroke-width="0.5" stroke-linecap="round" stroke-linejoin="round"/>
<path d="M2021.89 306.069C1890.66 305.869 1805.84 280.404 1631.33 246.954C1539.13 229.74 1502.17 225.022 1370.94 291.799C1301.43 327.582 1246.11 358.469 1175.66 360.756C963.469 355.618 896.821 6.4024 654.911 271.425C569.724 369.277 518.273 465.028 448.776 529.542C373.197 591.018 307.57 551.232 134.175 469.284C-90.9068 364.321 -185.425 386.193 -321.508 370.933C-431.778 356.784 -484.327 327.74 -581.898 306.069" stroke="white" stroke-width="0.5" stroke-linecap="round" stroke-linejoin="round"/>
<path d="M2021.89 306.069C1836 304.399 1634.98 233.874 1533.69 236.926C1394.25 247.785 1300.05 361.474 1164.83 361.521C1008.65 352.841 959.537 188.773 817.637 187.191C664.656 197.546 565.081 430.421 448.776 533.91C353.174 608.149 260.331 517.437 58.2132 436.404C-110.196 371.26 -207.065 385.325 -321.508 371.311C-431.707 356.071 -484.469 326.891 -581.898 306.074" stroke="white" stroke-width="0.5" stroke-linecap="round" stroke-linejoin="round"/>
<path d="M2021.89 306.069C1890.08 303.881 1800.3 276.106 1609.63 243.93C1400.07 210.192 1322.67 367.125 1153.97 362.277C955.733 345.566 885.859 35.1571 633.214 321.063C491.643 486.764 460.019 579.986 351.135 561.47C188.182 525.538 102.164 401.662 -213.015 380.821C-435.315 367.242 -429.112 337.423 -581.889 306.069" stroke="white" stroke-width="0.5" stroke-linecap="round" stroke-linejoin="round"/>
<path d="M2021.89 306.069C1894.97 303.213 1811.43 277.24 1609.63 244.621C1397.91 211.788 1313.51 369.981 1143.11 360.252C950.863 338.875 881.926 53.2445 622.362 346.994C533.106 450.791 489.435 520.778 427.088 556.365C351.143 589.623 261.522 528.795 123.315 464.482C-94.7504 365.165 -192.175 395.115 -343.196 368.46C-442.856 349.285 -492.921 323.545 -581.88 306.069" stroke="white" stroke-width="0.5" stroke-linecap="round" stroke-linejoin="round"/>
<path d="M2021.89 306.069C1895.22 302.551 1804.96 274.482 1598.78 243.795C1400.25 216.333 1300.92 370.658 1132.27 356.929C943.473 331.823 879.402 73.2915 611.516 373.126C514.478 483.969 469.661 549.902 405.381 566.864C323.927 578.101 223.983 506.536 90.7577 449.769C-114.835 364.993 -206.723 400.985 -375.754 361.549C-464.18 339.719 -503.936 320.689 -581.889 306.088" stroke="white" stroke-width="0.5" stroke-linecap="round" stroke-linejoin="round"/>
<path d="M2021.89 306.069C1896.81 301.939 1781.63 268.976 1587.94 243.212C1399.98 221.28 1298.5 363.388 1132.27 354.811C943.105 335.986 882.962 94.6828 611.516 386.603C515.874 491.389 469.648 554.736 405.381 569.305C325.433 577.784 231.311 510.223 101.604 454.043C-107.023 366.467 -199.004 404.42 -375.754 361.362C-462.403 339.169 -505.723 319.653 -581.889 306.069" stroke="white" stroke-width="0.5" stroke-linecap="round" stroke-linejoin="round"/>
<path d="M2021.89 306.069C1900.62 301.431 1804.86 271.915 1587.94 244.122C1395.77 222.437 1291.35 363.224 1121.41 351.973C935.84 331.128 882.197 116.232 600.665 411.48C508.333 509.429 465.533 560.378 405.381 571.764C327.073 577.579 237.225 513.349 112.455 458.313C-90.6134 371.456 -187.655 404.499 -354.056 366.57C-449.654 343.49 -498.271 320.218 -581.889 306.069" stroke="white" stroke-width="0.5" stroke-linecap="round" stroke-linejoin="round"/>
<path d="M2021.89 306.069C1856.02 298.855 1609.95 224.77 1479.44 248.065C1340.58 277.137 1238.54 364.526 1099.72 348.133C969.939 327.092 910.027 218.62 752.553 299.662C633.489 366.953 553.928 490.619 459.628 553.915C374.939 603.496 314.618 554.587 155.855 477.698C9.19688 408.167 -66.2052 401.662 -223.866 387.854C-395.128 371.699 -456.208 326.205 -581.889 306.083" stroke="white" stroke-width="0.5" stroke-linecap="round" stroke-linejoin="round"/>
<path d="M2021.89 306.069C1884.27 299.536 1615.14 230.473 1490.3 246.651C1350.77 268.854 1248.69 351.012 1110.58 345.473C970.37 334.395 917.252 228.429 752.553 315.972C633.8 384.471 553.204 501.165 459.628 558.031C381.742 598.891 345.696 567.364 155.855 476.368C6.5752 406.534 -69.991 404.112 -223.866 389.674C-388.351 372.851 -455.689 325.23 -581.889 306.069" stroke="white" stroke-width="0.5" stroke-linecap="round" stroke-linejoin="round"/>
<path d="M2021.89 306.069C1912.28 300.502 1867.9 278.705 1587.94 247.477C1388.37 227.248 1285.19 341.506 1110.58 340.461C987.415 335.449 957.226 275.387 839.353 297.768C722.857 325.421 643.434 416.249 535.572 508.226C473.78 559.459 434.282 588.125 361.986 570.108C270.449 542.683 198.544 484.581 69.06 439.446C-121.723 376.295 -175.134 422.792 -408.294 351.091C-499.173 322.78 -524.434 314.324 -581.88 306.069" stroke="white" stroke-width="0.5" stroke-linecap="round" stroke-linejoin="round"/>
<path d="M2021.89 306.069C1909.8 300.003 1859.55 275.182 1577.09 247.696C1385.4 231.672 1273.18 335.711 1099.73 335.389C981.337 331.502 948.57 278.925 828.511 314.007C711.824 353.135 631.685 444.295 524.734 525.529C442.058 585.843 407.923 584.415 351.148 566.291C254.759 531.647 182.636 472.494 47.3756 432.143C-73.9635 398.111 -154.924 404.317 -256.401 389.212C-387.094 367.713 -466.731 321.655 -581.875 306.065" stroke="white" stroke-width="0.5" stroke-linecap="round" stroke-linejoin="round"/>
<path d="M2021.89 306.069C1927.6 300.675 1852.38 277.16 1685.58 259.717C1528.35 244.117 1496.03 234.803 1338.41 279.676C1243.42 307.418 1187.21 325.631 1110.58 330.377C982.754 335.043 958.137 287.282 839.353 323.895C724.412 363.793 643.043 449.339 535.572 526.336C472.029 570.201 432.824 590.159 361.986 569.389C270.942 538.539 197.3 479.209 69.06 438.168C-49.4442 402.441 -135.582 406.842 -234.717 394.14C-374.688 374.018 -457.613 321.889 -581.889 306.069" stroke="white" stroke-width="0.5" stroke-linecap="round" stroke-linejoin="round"/>
<path d="M2021.89 306.069C1927.87 300.372 1854.87 276.204 1685.58 260.147C1539.83 247.183 1499.37 236.24 1349.25 272.909C1263.02 294.646 1208.93 312.705 1132.27 323.046C993.85 339.089 978.057 299.387 871.884 326.224C675.756 383.617 538.838 596.749 394.534 577.518C306.437 559.631 233.075 495.855 101.604 448.121C-86.9298 383.257 -153.507 432.227 -375.754 360.798C-461.958 332.65 -508.593 314.828 -581.889 306.093" stroke="white" stroke-width="0.5" stroke-linecap="round" stroke-linejoin="round"/>
<path d="M2021.89 306.069C1924.23 299.952 1753.94 253.66 1522.83 249.246C1366.69 248.984 1257.06 299.97 1110.58 318.342C964.211 334.343 936.39 283.754 763.404 389.529C581.291 504.324 498.757 606.576 372.819 570.43C260.149 532.669 177.58 450.301 -6.8976 420.202C-92.0443 407.546 -148.366 409.259 -223.879 399.609C-363.308 379.314 -449.534 320.927 -581.902 306.069" stroke="white" stroke-width="0.5" stroke-linecap="round" stroke-linejoin="round"/>
<path d="M2021.89 306.069C1928.78 300.078 1613.14 223.869 1360.11 262.844C1267.46 277.916 1210.2 294.478 1121.41 308.935C973.845 331.516 963.225 301.398 850.191 354.031C735.295 410.897 648.562 492.863 535.59 549.682C355.862 634.612 301.416 496.578 69.0778 435.074C-47.7867 406.422 -133.742 415.773 -234.699 400.122C-364.183 377.331 -451.871 319.826 -581.871 306.069" stroke="white" stroke-width="0.5" stroke-linecap="round" stroke-linejoin="round"/>
<path d="M2021.89 306.069C1933.07 300.204 1863.83 275.163 1707.29 263.791C1428.68 245.055 1429.08 242.111 1132.3 298.874C966.526 329.598 963.94 306.158 861.073 358.46C753.584 415.867 670.219 492.033 557.283 546.897C367.647 633.88 320.154 509.14 101.618 442.344C-13.265 409.628 -92.0753 418.508 -202.155 406.879C-350.568 388.68 -435.173 320.652 -581.875 306.083" stroke="white" stroke-width="0.5" stroke-linecap="round" stroke-linejoin="round"/>
<path d="M2021.89 306.069C1943.16 300.75 1563.39 213.263 1219.06 273.525C947.766 322.752 942.736 324.063 882.744 355.655C777.806 413.781 695.996 490.834 578.967 545.973C375.098 636.596 330.01 510.424 112.455 443.446C-1.64531 410.78 -77.8117 420.949 -191.317 410.398C-344.494 393.692 -429.107 320.274 -581.902 306.069" stroke="white" stroke-width="0.5" stroke-linecap="round" stroke-linejoin="round"/>
<path d="M2021.89 306.069C1953.41 301.328 1910.41 286.568 1804.91 273.11C1712.26 262.055 1671.21 264.92 1587.94 259.913C1442.64 250.342 1345.64 242.619 1197.35 268.85C892.951 325.575 909.512 346.439 720.004 477.348C358.626 722.281 349.655 449.727 -6.88421 421.513C-90.1113 415.941 -150.37 419.941 -223.866 408.396C-352.728 384.821 -439.821 318.333 -581.889 306.069" stroke="white" stroke-width="0.5" stroke-linecap="round" stroke-linejoin="round"/>
<path d="M2021.89 306.069C1933.93 299.933 1872.03 273.483 1718.13 266.115C1403.56 253.464 1329.72 232.773 1164.83 265.788C966.295 307.945 919.127 343.667 871.884 376.86C768.279 451.757 692.517 523.905 578.963 563.052C387.54 622.699 317.062 496.881 123.306 441.084C9.10801 410.906 -65.6764 425.218 -180.47 416.179C-339.993 400.887 -417.55 319.434 -581.889 306.051" stroke="white" stroke-width="0.5" stroke-linecap="round" stroke-linejoin="round"/>
<path d="M2021.89 306.069C1952.05 301.174 1920.85 287.403 1815.77 274.183C1722.27 263.38 1675.61 267.431 1598.78 264.808C1363.51 254.379 1283.96 203.496 1012.94 301.673C820.917 372.833 683.479 618.662 448.777 573.822C310.139 541.624 243.17 452.583 69.06 427.15C-76.6608 408.867 -156.769 443.614 -310.661 387.518C-411.316 349.547 -477.133 314.11 -581.889 306.069" stroke="white" stroke-width="0.5" stroke-linecap="round" stroke-linejoin="round"/>
<path d="M2021.89 306.069C1936.05 300.04 1876.5 272.867 1728.97 267.907C1556.03 263.66 1659.01 277.739 1381.8 243.599C1318.96 236.24 1270.63 233.132 1208.22 239.665C1115.19 251.332 1008.7 292.793 947.828 330.097C807.337 423.058 686.754 605.274 481.325 577.77C375.778 559.319 303.513 500.521 199.246 457.688C90.1934 415.437 22.9896 420.963 -93.675 423.212C-345.551 426.618 -378.829 320.694 -581.889 306.083" stroke="white" stroke-width="0.5" stroke-linecap="round" stroke-linejoin="round"/>
<path d="M2021.89 306.069C1937.02 300.078 1881.1 273.451 1739.83 268.789C1620.52 266.106 1599.47 278.313 1446.89 252.41C1300.46 226.921 1170.67 195.479 969.526 315.514C824.276 409.058 714.308 608.275 503.023 580.981C396.25 563.019 305.273 496.322 210.097 456.656C20.3279 382.063 -93.0485 455.257 -256.414 409.012C-368.236 374.149 -448.117 315.062 -581.889 306.06" stroke="white" stroke-width="0.5" stroke-linecap="round" stroke-linejoin="round"/>
<path d="M2021.89 306.069C1937.33 300.087 1880.99 272.471 1739.83 269.302C1618.67 267.93 1590.27 281.841 1446.89 252.629C1295.51 220.859 1169.75 179.034 969.526 313.69C822.392 419.978 718.231 625.723 503.023 581.718C405.226 557.919 303.509 490.596 220.948 455.532C29.6682 378.852 -82.3396 456.997 -245.563 414.075C-358.527 380.742 -441.371 314.88 -581.889 306.069" stroke="white" stroke-width="0.5" stroke-linecap="round" stroke-linejoin="round"/>
<path d="M2021.89 306.069C1937.14 300.115 1881.73 271.561 1739.83 270.025C1619.48 270.109 1584.05 285.723 1446.89 253.422C1281.34 213.015 1173.75 168.404 980.386 302.471C833.141 411.177 733.717 625.251 524.721 584.62C424.555 561.115 305.655 480.558 210.097 444.425C100.045 405.75 32.9475 418.788 -82.8284 427.519C-333.123 444.15 -366.24 318.827 -581.889 306.069" stroke="white" stroke-width="0.5" stroke-linecap="round" stroke-linejoin="round"/>
<path d="M2021.89 306.069C1898.32 297.492 1909.54 261.621 1631.33 275.536C1460.63 282.658 1387.38 221.69 1251.61 206.183C891.196 175.319 826.636 661.71 524.721 582.492C397.876 544.083 272.28 436.035 123.306 417.925C-13.6961 404.998 -113.902 454.827 -245.563 417.691C-356.136 382.693 -439.714 314.002 -581.889 306.069" stroke="white" stroke-width="0.5" stroke-linecap="round" stroke-linejoin="round"/>
<path d="M2021.89 306.069C1896.88 297.497 1911.14 260.132 1631.33 277.767C1459.25 287.1 1388.76 219.805 1251.61 199.137C898.545 156.77 833.03 669.405 535.572 583.948C415.534 544.316 282.709 431.859 134.153 414.327C-8.79047 401.564 -108.334 459.456 -245.563 419.46C-356.043 383.355 -438.679 313.582 -581.889 306.064" stroke="white" stroke-width="0.5" stroke-linecap="round" stroke-linejoin="round"/>
<path d="M2021.89 306.069C1938.12 300.395 1886.4 270.655 1750.67 272.102C1619.29 275.368 1582.19 298.542 1457.74 259.862C1286.77 203.649 1183.06 121.291 991.241 280.142C834.869 416.697 744.426 665.714 524.721 578.241C459.756 549.706 314.307 451.556 199.246 420.048C92.8461 394.266 25.2469 417.346 -82.8284 431.383C-321.748 459.008 -356.678 317.171 -581.889 306.055" stroke="white" stroke-width="0.5" stroke-linecap="round" stroke-linejoin="round"/>
<path d="M2021.89 306.069C1937.97 300.469 1886.61 269.773 1750.67 272.755C1621.13 277.515 1579.51 302.481 1457.74 261.154C1288.17 200.159 1182.78 105.737 991.241 275.21C833.75 422.185 745.808 679.168 524.721 576.118C480.908 553.892 335.956 454.79 220.948 418.946C109.803 387.793 41.1191 412.824 -71.9773 431.079C-320.814 467.898 -347.893 316.867 -581.889 306.069" stroke="white" stroke-width="0.5" stroke-linecap="round" stroke-linejoin="round"/>
<path d="M2021.89 306.069C1935.4 300.418 1887.73 268.933 1750.67 273.521C1620.76 279.853 1578.13 306.597 1457.74 262.914C1288.47 197.625 1187.2 97.3379 1002.08 259.755C844.161 406.17 755.775 671.337 546.418 581.097C473.749 546.211 410.522 483.568 264.344 424.826C73.8945 353.504 -23.4186 455.34 -191.317 437.174C-323.734 417.677 -405.726 313.783 -581.902 306.046" stroke="white" stroke-width="0.5" stroke-linecap="round" stroke-linejoin="round"/>
<path d="M2021.89 306.069C1936.84 300.656 1886.97 268.187 1750.67 274.309C1623.24 282.074 1580.19 308.934 1468.6 268.971C1302.81 205.082 1196.3 85.1631 1012.94 243.898C850.684 392.002 763.769 670.273 557.283 580.728C467.177 536.864 438.698 485.042 275.204 419.007C80.0487 345.454 -21.93 457.38 -191.317 438.924C-323.769 419.04 -404.046 313.484 -581.902 306.088" stroke="white" stroke-width="0.5" stroke-linecap="round" stroke-linejoin="round"/>
<path d="M2021.89 306.069C1936.23 300.745 1887.25 267.394 1750.67 275.103C1621.64 284.534 1579.11 312.873 1468.6 271.089C1298.7 201.797 1191.37 68.3499 1002.08 247.864C840.486 410.108 756.139 693.811 535.572 563.383C477.473 526.481 404.106 454.216 264.344 405.013C157.904 370.821 90.7977 390.355 -17.7309 419.997C-264.213 485.962 -270.123 391.494 -473.396 324.213C-515.085 311.492 -536.747 307.838 -581.889 306.069" stroke="white" stroke-width="0.5" stroke-linecap="round" stroke-linejoin="round"/>
<path d="M2021.89 306.069C1933.21 300.712 1888.14 266.53 1750.67 275.891C1621.75 286.867 1578.45 316.956 1468.6 273.208C1299.45 200.467 1190.93 56.1843 1002.08 241.919C839.051 411.896 757.037 700.372 535.572 557.13C481.028 519.448 396.956 434.187 253.493 391.937C141.072 362.646 68.8911 394.989 -39.433 425.792C-312.421 500.115 -326.222 315.556 -581.889 306.093" stroke="white" stroke-width="0.5" stroke-linecap="round" stroke-linejoin="round"/>
<path d="M2021.89 306.069C1932.89 300.824 1888.14 265.742 1750.67 276.671C1620.69 289.317 1577.64 320.913 1468.6 275.313C1302.67 200.215 1194.74 50.0341 1012.94 224.915C852.11 388.778 766.573 690.708 557.283 565.581C463.844 504.539 441.809 448.966 286.055 392.114C94.2192 327.894 -1.04092 450.627 -169.606 446.064C-312.963 436.222 -392.981 312.644 -581.875 306.069" stroke="white" stroke-width="0.5" stroke-linecap="round" stroke-linejoin="round"/>
<path d="M2021.89 306.069C1934.15 301.081 1887.74 265.112 1750.67 277.431C1620.75 291.505 1577.11 324.418 1468.6 277.515C1300.8 198.904 1194.35 41.5083 1012.94 219.007C851.724 386.421 767.412 691.203 557.283 556.519C462.698 490.675 439.085 432.363 286.042 380.817C173.496 346.532 102.968 374.928 -6.88421 414.542C-248.194 499.803 -262.311 400.313 -462.545 327.6C-514.89 309.971 -540.031 307.446 -581.889 306.069" stroke="white" stroke-width="0.5" stroke-linecap="round" stroke-linejoin="round"/>
<path d="M2021.89 306.069C1933.63 301.23 1887.52 264.458 1750.67 278.169C1621.06 293.568 1576.86 327.89 1468.6 279.718C1301.25 198.89 1193.95 33.5941 1012.94 213.188C852.168 382.698 768.35 690.531 557.283 546.598C468.541 481.267 428.478 408.246 275.204 366.374C167.062 340.681 97.1297 373.374 -6.87083 413.604C-244.715 503.755 -263.955 400.071 -462.532 327.554C-514.934 309.821 -539.773 307.39 -581.875 306.088" stroke="white" stroke-width="0.5" stroke-linecap="round" stroke-linejoin="round"/>
<path d="M2021.89 306.069C1932.57 301.366 1887.82 263.777 1750.67 278.91C1620.38 295.822 1576.45 331.278 1468.6 281.925C1296.98 196.505 1189.07 18.8386 1002.08 218.993C842.717 400.491 762.2 695.748 546.418 528.263C465.991 462.056 420.151 390.281 275.19 355.231C162.352 332.164 89.0736 373.813 -17.7309 417.057C-298.206 527.116 -317.895 313.928 -581.889 306.069" stroke="white" stroke-width="0.5" stroke-linecap="round" stroke-linejoin="round"/>
<path d="M2021.89 306.069C1931.92 301.515 1887.83 263.138 1750.67 279.648C1621.11 297.847 1576.15 334.712 1468.6 284.127C1298.65 197.074 1188.71 10.5882 1002.08 213.346C841.837 398.75 762.876 694.59 546.418 517.913C466.791 449.227 419.16 374.326 275.19 344.096C163.107 324.875 92.2907 369.025 -17.7086 416.399C-296.179 532.449 -314.651 313.568 -581.867 306.069" stroke="white" stroke-width="0.5" stroke-linecap="round" stroke-linejoin="round"/>
<path d="M2021.89 306.069C1931.24 301.664 1887.69 262.475 1750.67 280.404C1620.71 300.031 1575.77 338.1 1468.6 286.33C1301.08 198.096 1192.84 9.91157 1012.94 195.735C844.427 381.493 769.065 698.212 546.418 507.558C468.146 436.959 412.126 351.917 264.344 331.455C157.522 321.067 89.2024 366.92 -17.7309 415.741C-293.482 537.321 -313.945 313.134 -581.889 306.079" stroke="white" stroke-width="0.5" stroke-linecap="round" stroke-linejoin="round"/>
<path d="M2021.89 306.069C1931.6 301.869 1891.33 264.309 1761.5 279.4C1631.4 297.38 1584.02 339.388 1479.42 293.4C1313.52 212.161 1201.62 9.60815 1023.78 179.468C856.576 352.001 777.033 686.018 557.283 503.592C468.857 425.699 423.306 342.743 275.19 321.795C163.507 310.633 93.4104 361.927 -17.7309 415.167C-289.412 540.695 -314.438 312.77 -581.889 306.078" stroke="white" stroke-width="0.5" stroke-linecap="round" stroke-linejoin="round"/>
<path d="M2021.89 306.069C1930.73 302.042 1891.17 263.889 1761.5 279.797C1631.57 298.654 1583.94 341.558 1479.42 295.154C1311.07 211.83 1201.62 5.54832 1023.78 174.545C861.588 341.32 779.565 667.515 568.12 499.004C465.151 411.088 439.196 339.626 296.892 313.302C188.835 297.646 117.596 342.622 14.8134 397.807C-225.652 524.894 -251.855 411.727 -451.698 331.371C-511.575 308.925 -538.196 307.105 -581.893 306.069" stroke="white" stroke-width="0.5" stroke-linecap="round" stroke-linejoin="round"/>
<path d="M2021.89 306.069C1930.01 302.21 1891.07 263.446 1761.5 280.198C1632.01 299.863 1583.94 343.728 1479.44 296.904C1310.13 212.222 1201.42 1.67526 1023.78 169.631C861.944 335.477 780.512 660.077 568.12 485.406C465.671 395.526 437.21 322.309 296.892 301.309C184.765 289.214 110.709 343.336 3.96685 402.474C-221.991 524.586 -259.032 409.161 -451.698 331.334C-511.477 308.822 -537.698 307.068 -581.893 306.069" stroke="white" stroke-width="0.5" stroke-linecap="round" stroke-linejoin="round"/>
<path d="M2021.89 306.069C1928.71 302.364 1891.29 262.979 1761.5 280.595C1631.83 301.207 1583.78 345.87 1479.42 298.654C1310.31 213.16 1201 -1.9878 1023.75 164.727C861.908 330.046 781.432 652.56 568.12 471.813C467.697 381.321 430.887 298.86 286.042 288.547C174.998 285.565 104.568 344.638 -6.88417 407.542C-279.045 556.071 -311.71 311.744 -581.875 306.083" stroke="white" stroke-width="0.5" stroke-linecap="round" stroke-linejoin="round"/>
<path d="M2021.89 306.069C1928.13 302.56 1891.2 262.531 1761.5 280.992C1632.12 302.457 1583.76 348.039 1479.42 300.404C1306.57 212.086 1195.52 -15.0494 1012.92 170.826C850.577 348.483 775.282 649.764 557.283 448.187C467.026 360.718 418.809 275.457 275.19 277.081C169.119 283.148 100.058 343.812 -6.88417 406.716C-278.121 560.747 -308.492 311.478 -581.875 306.069" stroke="white" stroke-width="0.5" stroke-linecap="round" stroke-linejoin="round"/>
<path d="M2021.89 306.069C1924.83 302.635 1891.75 262.204 1761.5 281.048C1632.52 302.77 1583.81 348.735 1479.42 301.137C1307.15 213.197 1195.07 -15.8846 1012.92 166.742C849.382 343.205 776.059 636.316 557.283 432.26C464.413 341.726 422.16 265.331 286.042 266.204C175.447 272.018 104.781 338.417 -6.88417 406.198C-275.193 563.239 -309.199 311.132 -581.875 306.065" stroke="white" stroke-width="0.5" stroke-linecap="round" stroke-linejoin="round"/>
<path d="M2021.89 306.069C1894.15 301.809 1895 240.827 1653.02 307.138C1582.41 325.925 1544.76 331.403 1479.44 301.725C1341.88 231.69 1245.37 71.2336 1110.58 99.7925C897.065 163.35 826.591 656.503 568.12 426.222C487.831 350.872 455.104 297.25 383.683 268.91C158.255 194.666 34.9871 451.78 -158.773 459.214C-300.014 456.61 -384.201 309.508 -581.889 306.069" stroke="white" stroke-width="0.5" stroke-linecap="round" stroke-linejoin="round"/>
<path d="M2021.89 306.069C1922.31 302.966 1888.22 259.227 1750.67 282.933C1621.71 308.099 1575.4 351.064 1468.6 296.806C1302.36 204.07 1189.74 -12.3941 1012.94 158.777C904.286 272.331 838.113 441.159 720.004 472.989C648.397 485.201 596.732 438.541 546.418 389.165C460.938 302.835 409.558 228.139 275.19 246.404C164.52 266.731 92.3174 343.863 -17.7086 411.975C-269.11 560.439 -314.536 310.451 -581.867 306.046" stroke="white" stroke-width="0.5" stroke-linecap="round" stroke-linejoin="round"/>
<path d="M2021.89 306.069C1921.07 303.134 1888.4 258.971 1750.67 282.961C1621.43 308.463 1575.25 351.446 1468.6 297.427C1301.3 204.2 1189.51 -13.1174 1012.94 154.801C908.961 261.663 843.823 419.53 730.856 457.45C659.968 474.286 609.37 433.105 557.283 383.593C465.746 293.46 414.259 211.508 275.19 236.217C165.067 261.131 90.971 342.584 -17.7086 411.686C-267.039 562.744 -313.647 310.129 -581.889 306.069" stroke="white" stroke-width="0.5" stroke-linecap="round" stroke-linejoin="round"/>
<path d="M2021.89 306.069C1918.49 303.269 1888.58 258.705 1750.67 282.989C1621.72 308.729 1575.36 351.992 1468.6 297.996C1304.1 206.571 1188.71 -13.3134 1012.94 150.825C909.654 255.261 843.93 410.57 730.856 444.818C659.582 459.456 608.383 416.259 557.283 367.368C464.831 276.027 413.268 195.759 275.204 226.03C164.969 255.611 91.9175 339.859 -17.7086 411.392C-265.155 565.087 -313.149 309.882 -581.867 306.065" stroke="white" stroke-width="0.5" stroke-linecap="round" stroke-linejoin="round"/>
<path d="M2021.89 306.069C1918.83 303.489 1888.08 258.789 1750.67 282.541C1623.28 307.507 1575.42 350.671 1468.6 297.301C1302.93 206.253 1188.56 -11.7642 1012.94 147.797C910.543 248.662 843.956 399.987 730.855 430.314C659.399 442.699 607.939 398.713 557.283 350.727C462.143 257.823 415.312 187.546 286.042 214.774C175.998 243.464 102.733 328.296 -6.88417 404.233C-262.249 573.603 -310.452 309.667 -581.875 306.088" stroke="white" stroke-width="0.5" stroke-linecap="round" stroke-linejoin="round"/>
<path d="M2021.89 306.069C1917.4 303.629 1888.47 258.802 1750.67 282.037C1624.52 306.246 1575.78 349.327 1468.6 296.447C1297.85 203.766 1183.82 -18.7733 1002.08 155.267C899.803 260.776 833.394 401.153 720.004 417.141C648.708 420.589 596.652 371.95 546.418 323.55C458.774 237.519 405.101 170.135 275.19 209.375C160.739 249.554 84.0035 346.443 -28.5819 418.391C-262.618 559.211 -318.535 309.317 -581.889 306.069" stroke="white" stroke-width="0.5" stroke-linecap="round" stroke-linejoin="round"/>
<path d="M2021.89 306.069C1916.87 303.811 1892.53 261.388 1761.5 279.746C1634.65 300.624 1584.58 346.476 1479.42 300.876C1307.19 216.982 1192.37 -11.6568 1012.92 141.94C911.431 236.422 844.521 378.26 730.856 400.906C659.648 408.648 608.17 364.452 557.283 317.297C462.191 226.954 409.269 155.128 275.19 201.144C165.471 244.206 91.4153 336.938 -17.7309 411.508C-259.707 568.232 -313.518 309.107 -581.889 306.046" stroke="white" stroke-width="0.5" stroke-linecap="round" stroke-linejoin="round"/>
<path d="M2021.89 306.069C1914.8 303.965 1892.91 261.388 1761.5 279.288C1634.22 299.737 1584.79 345.048 1479.42 299.956C1305.52 216.333 1192.34 -9.7949 1012.94 139.014C916.47 226.175 850.528 356.906 741.689 384.415C671.166 396.03 620.652 357.125 568.12 310.526C467.19 218.078 417.365 144.936 286.042 188.74C176.687 230.762 103.373 323.909 -6.88417 404.042C-256.437 576.977 -309.332 308.925 -581.875 306.046" stroke="white" stroke-width="0.5" stroke-linecap="round" stroke-linejoin="round"/>
<path d="M2021.89 306.069C1912.95 304.114 1893.2 261.425 1761.5 278.831C1634.99 298.64 1585.02 343.616 1479.42 299.037C1306.05 216.758 1191.76 -7.55047 1012.92 136.093C913.493 223.23 845.014 356.63 730.855 371.493C660.106 374.629 608.659 330.428 557.269 283.88C461.467 195.366 410.522 133.447 286.042 180.06C176.82 226.557 103.328 322.635 -6.88417 403.981C-254.899 578.367 -308.981 308.65 -581.875 306.069" stroke="white" stroke-width="0.5" stroke-linecap="round" stroke-linejoin="round"/>
<path d="M2021.89 306.069C1911.2 304.249 1893.62 261.71 1761.5 277.963C1635.2 296.568 1585.16 340.494 1479.42 296.708C1305.78 215.969 1191.46 -3.69117 1012.94 134.203C914.986 216.832 845.223 345.235 730.855 356.374C660.443 357.41 609.116 313.998 557.283 268.215C460.641 181.39 409.216 123.004 286.042 173.775C177.806 223.911 101.822 323.55 -6.88417 404.247C-253.34 578.307 -308.999 308.468 -581.875 306.069" stroke="white" stroke-width="0.5" stroke-linecap="round" stroke-linejoin="round"/>
<path d="M2021.89 306.069C1912.05 304.431 1893.28 262.102 1761.5 277.062C1635.75 294.328 1585.5 337.26 1479.42 294.268C1308.94 216.725 1196.66 9.41227 1023.78 124.315C925.753 196.962 856.727 323.914 741.689 340.522C671.663 345.058 620.958 306.331 568.12 261.962C464.853 173.182 412.895 110.614 286.042 167.699C172.874 224.35 95.57 331.959 -17.7309 412.246C-253.771 569.972 -312.434 308.23 -581.889 306.088" stroke="white" stroke-width="0.5" stroke-linecap="round" stroke-linejoin="round"/>
<path d="M2021.89 306.069C1911.06 304.567 1893.56 262.442 1761.5 276.162C1635.78 292.201 1585.65 333.966 1479.42 291.827C1309.08 216.025 1196.18 13.3415 1023.78 122.822C931.107 188.605 862.997 304.137 752.553 324.549C682.763 332.122 632.68 297.721 578.967 255.018C468.03 164.139 419.805 102.779 296.893 156.299C189.448 208.671 112.989 311.156 3.96688 396.697C-249.22 586.487 -302.192 308.099 -581.889 306.069" stroke="white" stroke-width="0.5" stroke-linecap="round" stroke-linejoin="round"/>
<path d="M2021.89 306.069C1908 304.697 1894.9 262.671 1761.5 275.271C1636.36 290.007 1585.93 330.727 1479.42 289.396C1306.94 214.326 1196.31 16.8414 1023.78 121.333C929.983 184.974 857.7 302.476 741.689 310.927C560.682 310.834 496.46 55.3724 296.893 149.799C184.72 208.703 106.661 319.602 -6.88417 405.12C-248.896 577.863 -308.337 307.824 -581.875 306.069" stroke="white" stroke-width="0.5" stroke-linecap="round" stroke-linejoin="round"/>
<path d="M2021.89 306.069C1906.42 304.837 1895.22 263.026 1761.5 274.361C1636.91 287.833 1586.13 327.456 1479.42 286.96C1306.67 213.514 1195.92 20.7098 1023.75 119.854C931.325 179.692 858.553 291.823 741.689 296.13C553.564 289.891 495.034 31.8113 286.042 149.402C177.944 215.596 102.969 322.276 -6.88417 405.414C-247.394 577.695 -308.43 307.642 -581.875 306.069" stroke="white" stroke-width="0.5" stroke-linecap="round" stroke-linejoin="round"/>
<path d="M2021.89 306.069C1905.31 304.963 1895.83 263.567 1761.5 273.138C1637.31 284.804 1586.47 322.901 1479.42 283.367C1302.76 210.374 1189.79 17.3032 1012.94 125.957C925.531 185.203 854.11 281.416 741.689 281.836C673.041 277.529 622.26 240.841 568.107 200.257C458.383 117.194 405.186 74.6681 286.028 145.659C174.1 217.822 95.6945 332.831 -17.7086 413.659C-212.579 543.957 -283.915 380.527 -484.22 316.396C-520.142 306.237 -537.28 306.293 -581.867 306.069" stroke="white" stroke-width="0.5" stroke-linecap="round" stroke-linejoin="round"/>
<path d="M2021.89 306.069C1903.12 305.085 1897.12 264.141 1761.5 271.897C1637.26 281.804 1586.74 318.253 1479.42 279.727C1303.56 209.24 1189.07 22.7397 1012.94 125.103C923.811 182.412 849.364 277.464 730.856 266.572C547.214 238.349 480.921 10.1589 275.19 149.388C163.08 230.356 84.2346 346.444 -28.5819 421.345C-220.333 539.636 -294.46 369.328 -495.094 312.957C-525.399 305.906 -548.363 306.223 -581.889 306.069" stroke="white" stroke-width="0.5" stroke-linecap="round" stroke-linejoin="round"/>
<path d="M2021.89 306.069C1900.83 305.206 1898.43 264.701 1761.5 270.655C1637.8 278.724 1587.12 313.643 1479.42 276.087C1302.02 207.117 1188.84 27.8076 1012.94 124.254C930.641 174.279 856.065 260.436 741.689 253.301C556.314 230.799 485.098 6.77581 286.042 138.426C178.771 214.467 102.564 325.16 -6.88421 406.982C-203.608 545.604 -277.126 387.266 -473.396 319.047C-507.789 308.165 -516.156 306.326 -581.889 306.069" stroke="white" stroke-width="0.5" stroke-linecap="round" stroke-linejoin="round"/>
<path d="M2021.89 306.069C1898.91 305.318 1899.73 265.345 1761.5 269.414C1637.97 275.718 1587.6 309.051 1479.42 272.447C1301.83 205.6 1188.26 33.0992 1012.94 123.405C929.263 171.357 851.955 255.625 730.856 237.397C547.063 199.804 480.041 0.139927 286.042 134.81C175.082 217.014 95.7123 335.613 -17.7086 415.125C-206.691 538.833 -279.978 385.479 -473.374 318.65C-507.056 308.062 -513.748 306.303 -581.867 306.083" stroke="white" stroke-width="0.5" stroke-linecap="round" stroke-linejoin="round"/>
<path d="M2021.89 306.069C1897.26 305.458 1900.99 265.98 1761.5 268.173C1638.53 272.685 1587.94 304.413 1479.42 268.807C1303.15 204.597 1187.18 38.5684 1012.94 122.537C933.875 165.1 859.442 239.908 741.689 224.765C553.999 190.994 481.405 -10.8309 286.042 131.193C178.979 213.948 102.968 326.606 -6.88421 408.032C-198.16 541.297 -273.984 392.212 -462.545 321.949C-508.247 306.251 -515.281 306.349 -581.889 306.083" stroke="white" stroke-width="0.5" stroke-linecap="round" stroke-linejoin="round"/>
<path d="M2021.89 306.069C1905.74 305.603 1959.43 295.668 1848.3 273.913C1684.99 246.161 1613.14 311.482 1468.6 260.744C1291.75 193.08 1177.39 39.5765 1002.08 127.712C920.176 173.14 847.64 233.039 730.856 208.867C542.419 161.208 472.412 -20.3364 275.19 137.731C164.44 231.14 84.7545 350.387 -28.5819 423.142C-214.072 533.093 -287.639 375.357 -484.243 314.352C-510.673 307.063 -511.712 306.307 -581.889 306.069" stroke="white" stroke-width="0.5" stroke-linecap="round" stroke-linejoin="round"/>
<path d="M2021.89 306.069C1894.59 305.495 1966.34 295.033 1837.48 271.696C1679.52 247.146 1610.74 304.646 1468.62 256.609C1291.99 191.745 1176.42 45.5402 1002.08 127.045C917.146 171.092 852.168 218.559 741.689 197.476C548.178 152.188 474.362 -29.45 275.19 135.916C161.023 235.358 78.1781 361.306 -39.433 429.983C-222.235 527.381 -295.429 365.838 -495.094 310.88C-512.992 306.681 -514.441 306.214 -581.889 306.069" stroke="white" stroke-width="0.5" stroke-linecap="round" stroke-linejoin="round"/>
<path d="M2021.89 306.069C1938.19 305.822 1954.29 306.013 1913.41 291.431C1802.42 254.173 1736.37 262.802 1631.33 270.469C1379.62 286.801 1269.06 91.6169 1078.02 105.332C936.022 122.63 877.016 265.247 633.227 140.125C518.802 79.9274 451.234 31.396 351.148 79.9694C276.301 121.058 216.616 190.098 134.166 279.302C-142.647 575.535 -209.584 441.504 -408.294 343.037C-498.8 300.367 -516.849 306.172 -581.88 306.069" stroke="white" stroke-width="0.5" stroke-linecap="round" stroke-linejoin="round"/>
<path d="M2021.89 306.069C1933.75 305.855 1957.26 307.693 1913.41 291.729C1804.01 254.23 1738.26 260.665 1631.33 266.731C1458.15 275.271 1391.33 210.598 1240.77 142.346C970.334 25.115 965.98 242.685 720.004 163.602C643.38 136.536 598.661 103.558 524.721 72.769C368.402 12.5389 297.848 100.997 134.135 280.1C-141.265 576.809 -211.002 439.605 -408.294 342.328C-499.386 299.625 -515.356 306.144 -581.88 306.051" stroke="white" stroke-width="0.5" stroke-linecap="round" stroke-linejoin="round"/>
<path d="M2021.89 306.069C1913.99 306.069 1974.98 310.073 1880.86 281.36C1766.68 249.05 1696.28 262.62 1598.78 263.74C1364.77 262.629 1232.7 71.145 1034.63 114.791C973.236 131.179 946.842 158.655 861.051 169.085C751.989 178.208 679.791 132.836 578.967 84.6124C363.492 -15.6234 315.187 91.3415 101.604 315.65C-157.573 582.198 -237.667 411.312 -440.847 327.316C-508.211 301.319 -511.375 306.046 -581.889 306.046" stroke="white" stroke-width="0.5" stroke-linecap="round" stroke-linejoin="round"/>
</g>
<defs>
<clipPath id="clip0_32_544">
<rect width="2604" height="706" fill="white" transform="translate(-582)"/>
</clipPath>
</defs>
</svg>
