<svg width="49" height="49" viewBox="0 0 49 49" fill="none" xmlns="http://www.w3.org/2000/svg">
<g clip-path="url(#clip0_34_1847)">
<path d="M8.26972 29.7553C8.59006 29.9697 8.95231 30.0722 9.31072 30.0722C9.91541 30.0722 10.5091 29.7801 10.8707 29.2398C13.9004 24.7124 18.9651 22.0095 24.4186 22.0095C29.856 22.0095 34.9123 24.7001 37.9442 29.2067C38.5224 30.0659 39.6874 30.2938 40.5465 29.7158C41.4058 29.1377 41.6337 27.9726 41.0556 27.1135C38.6332 23.5129 35.1601 20.8561 31.1913 19.4349C33.5714 17.4906 35.0938 14.534 35.0938 11.2283C35.0938 5.3868 30.3415 0.634521 24.5 0.634521C18.6585 0.634521 13.9062 5.3868 13.9062 11.2283C13.9062 14.5103 15.4064 17.4483 17.7571 19.3931C13.7263 20.8091 10.201 23.498 7.75419 27.1542C7.17828 28.0149 7.40909 29.1794 8.26972 29.7553ZM24.5 4.38452C28.2736 4.38452 31.3438 7.45465 31.3438 11.2283C31.3438 15.0019 28.2736 18.072 24.5 18.072C20.7264 18.072 17.6562 15.0019 17.6562 11.2283C17.6562 7.45465 20.7264 4.38452 24.5 4.38452ZM31.9773 33.8342L29.1821 35.8507C28.7662 36.1507 28.5921 36.6825 28.751 37.168L29.8767 40.4306C29.9242 40.576 29.9425 40.7179 29.9364 40.8533C29.8965 41.7296 28.7983 42.329 27.9928 41.7479L25.1976 39.7309C24.9897 39.5809 24.7449 39.5059 24.5001 39.5059C24.2553 39.5059 24.0105 39.5809 23.8026 39.7309L21.0074 41.7479C20.2019 42.329 19.0984 41.7296 19.0635 40.8533C19.0582 40.7179 19.0769 40.5759 19.1245 40.4306L20.2491 37.168C20.408 36.6825 20.2339 36.1507 19.818 35.8507L17.0228 33.8342C16.0928 33.1633 16.5707 31.572 17.7203 31.572H21.1753C21.6895 31.572 22.1451 31.3741 22.3039 30.8887L23.3715 27.6049C23.5492 27.0622 24.0246 26.7908 24.5001 26.7908C24.9756 26.7908 25.451 27.0622 25.6287 27.6049L26.6963 30.8887C26.8552 31.3741 27.3107 31.572 27.8248 31.572H31.2799C32.4294 31.572 32.9073 33.1633 31.9773 33.8342ZM48.0086 40.3967L45.2133 42.4132C44.7974 42.7132 44.6233 43.245 44.7822 43.7305L45.9079 46.9931C45.9554 47.1385 45.9737 47.2804 45.9676 47.4158C45.9278 48.2921 44.8295 48.8915 44.024 48.3104L41.2288 46.2934C41.0209 46.1434 40.7761 46.0684 40.5313 46.0684C40.2866 46.0684 40.0418 46.1434 39.8338 46.2934L37.0387 48.3104C36.2332 48.8915 35.1297 48.2921 35.0948 47.4158C35.0894 47.2804 35.1082 47.1384 35.1557 46.9931L36.2803 43.7305C36.4393 43.245 36.2652 42.7132 35.8493 42.4132L33.054 40.3967C32.124 39.7258 32.602 38.1345 33.7515 38.1345H37.2066C37.7207 38.1345 38.1763 37.9366 38.3352 37.4512L39.4028 34.1674C39.5804 33.6247 40.0558 33.3533 40.5313 33.3533C41.0068 33.3533 41.4822 33.6247 41.6599 34.1674L42.7275 37.4512C42.8864 37.9366 43.342 38.1345 43.8561 38.1345H47.3112C48.4606 38.1345 48.9386 39.7258 48.0086 40.3967ZM15.9461 40.3967L13.1508 42.4132C12.7349 42.7132 12.5608 43.245 12.7197 43.7305L13.8454 46.9931C13.8929 47.1385 13.9112 47.2804 13.9051 47.4158C13.8653 48.2921 12.767 48.8915 11.9615 48.3104L9.16625 46.2934C8.95831 46.1434 8.71353 46.0684 8.46875 46.0684C8.22397 46.0684 7.97919 46.1434 7.77125 46.2934L4.97609 48.3104C4.17059 48.8915 3.06706 48.2921 3.03219 47.4158C3.02684 47.2804 3.04559 47.1384 3.09312 46.9931L4.21775 43.7305C4.37666 43.245 4.20256 42.7132 3.78669 42.4132L0.991437 40.3967C0.0614374 39.7258 0.539375 38.1345 1.68894 38.1345H5.144C5.65812 38.1345 6.11375 37.9366 6.27256 37.4512L7.34019 34.1674C7.51784 33.6247 7.99325 33.3533 8.46875 33.3533C8.94425 33.3533 9.41966 33.6247 9.59731 34.1674L10.6649 37.4512C10.8238 37.9366 11.2794 38.1345 11.7935 38.1345H15.2486C16.3981 38.1345 16.8761 39.7258 15.9461 40.3967Z" fill="#00518F"/>
</g>
<defs>
<clipPath id="clip0_34_1847">
<rect width="48" height="48" fill="white" transform="translate(0.5 0.587646)"/>
</clipPath>
</defs>
</svg>
