<svg width="69" height="68" viewBox="0 0 69 68" fill="none" xmlns="http://www.w3.org/2000/svg">
<g clip-path="url(#clip0_32_333)">
<path d="M66 53.3973C65.4858 54.856 64.4386 55.4357 62.915 55.3567C61.8109 55.2988 60.7011 55.35 59.5947 55.3411C59.1486 55.3411 58.7203 55.1475 58.6779 54.6935C58.6467 54.3597 58.8196 53.9603 59.027 53.6821C59.1386 53.5263 59.5133 53.5163 59.7698 53.5119C60.9387 53.4952 62.112 53.5119 63.2753 53.503C63.9601 53.503 64.153 53.3083 64.153 52.6284C64.153 46.8427 64.153 41.0546 64.153 35.2644C64.153 34.5445 63.9779 34.3743 63.2329 34.3743C58.1493 34.3743 53.0653 34.3743 47.9809 34.3743C47.2169 34.3743 47.0585 34.5378 47.0574 35.3189C47.0574 37.2004 47.0306 39.083 47.0685 40.9634C47.0853 41.819 46.734 42.3464 45.9733 42.6847C45.139 43.0552 44.326 43.4724 43.3757 43.9308C44.2903 44.3759 45.0755 44.8043 45.8964 45.147C46.7507 45.503 47.0942 46.076 47.0708 47.0018C47.0239 48.841 47.0552 50.6824 47.0574 52.5238C47.0574 53.3339 47.2191 53.4996 48.0177 53.5008C50.3145 53.5008 52.6106 53.5008 54.9059 53.5008C55.4022 53.5008 55.7982 53.632 55.9599 54.1505C56.1606 54.7892 55.7257 55.3244 54.9561 55.3377C53.9523 55.3555 52.9485 55.3433 51.9447 55.3433C50.5919 55.3433 49.2379 55.3433 47.885 55.3433C46.2187 55.3366 45.2182 54.3297 45.2082 52.6596C45.2082 52.3781 45.2082 52.0966 45.2082 51.785C44.9684 51.7706 44.79 51.7506 44.6104 51.7494C43.959 51.7494 43.3077 51.7494 42.6028 51.7494C42.5861 52.0053 42.5627 52.2023 42.5627 52.3992C42.5627 54.3219 42.5749 56.2445 42.5515 58.1661C42.5515 58.629 42.6909 58.768 43.1471 58.7536C44.0895 58.7224 45.0331 58.7369 45.9755 58.7469C47.0808 58.7591 47.5838 59.2587 47.6006 60.3691C47.6151 61.3516 47.6128 62.333 47.6006 63.3143C47.5872 64.4848 47.0842 64.9933 45.8997 64.9989C43.2954 65.0111 40.6923 64.9989 38.0925 64.9989H23.3981C21.85 64.9989 21.4106 64.5661 21.4084 63.044C21.4084 62.2061 21.4084 61.3672 21.4084 60.5283C21.4151 59.2198 21.8846 58.748 23.1806 58.7413C24.1844 58.7413 25.1882 58.7413 26.192 58.7291C26.2658 58.7169 26.338 58.6964 26.4072 58.6679V51.745H25.612C19.8123 51.745 14.0108 51.7468 8.20744 51.7506C6.65714 51.7506 5.29645 51.35 4.23355 50.1695C3.46286 49.315 3.029 48.308 3.02677 47.1653C3.01339 39.537 3.01116 31.9086 3.02008 24.2803C3.02008 23.5994 3.36583 23.211 3.93018 23.2066C4.53245 23.2066 4.86147 23.6083 4.86147 24.386C4.86147 31.8096 4.8637 39.2336 4.86817 46.6579C4.85113 47.0655 4.89626 47.4733 5.00201 47.8674C5.36449 48.9945 6.14967 49.6799 7.34418 49.8535C7.66964 49.8945 7.99768 49.9116 8.32566 49.9047C20.3592 49.9047 32.3928 49.9047 44.4264 49.9047H45.1825V48.0643H44.3304C32.8293 48.0643 21.3284 48.0643 9.82799 48.0643C9.47978 48.0703 9.13153 48.0551 8.78517 48.0187C8.23985 47.9545 7.73424 47.7019 7.35596 47.3049C6.97769 46.9078 6.75059 46.3912 6.71402 45.8446C6.70064 45.661 6.70621 45.4763 6.70621 45.2883V18.7871C6.70621 16.9424 7.61074 16.0367 9.4566 16.0356C12.942 16.0356 16.4285 16.0801 19.9116 16.0088C21.0013 15.9866 22.0876 15.6684 23.1683 15.4525C23.3066 15.4236 23.5264 15.0898 23.4873 15.0242C23.3112 14.7232 23.0892 14.4515 22.8293 14.2186C22.7378 14.1363 22.5125 14.1997 22.3486 14.1997C17.5899 14.1997 12.8338 14.1997 8.08029 14.1997C5.9846 14.1997 4.86259 15.3268 4.86147 17.4264C4.86147 18.1006 4.87151 18.776 4.86147 19.4503C4.84809 20.0789 4.48784 20.4661 3.94914 20.4706C3.41044 20.475 3.03235 20.0889 3.02677 19.4692C3.01673 18.4878 2.95762 17.4976 3.06246 16.5273C3.32568 14.0973 5.29979 12.3894 7.81596 12.3683C10.2964 12.346 12.7769 12.3627 15.2574 12.3627H21.8021C21.1184 11.1154 21.6069 10.2631 22.4713 9.4787C23.1985 8.82001 23.8654 8.09345 24.567 7.40583C25.3477 6.64144 26.1362 6.55576 27.063 7.13768C27.8259 7.61612 28.5765 8.11347 29.335 8.5997C29.8658 8.94017 30.0923 8.85673 30.2272 8.25478C30.4291 7.35798 30.6131 6.45785 30.815 5.56105C31.0381 4.56523 31.6559 4.04117 32.6731 4.02448C33.9022 4.00445 35.132 4.00445 36.3626 4.02448C37.3441 4.04117 37.972 4.56968 38.1906 5.52211C38.4003 6.43782 38.5832 7.3591 38.7906 8.27592C38.92 8.8456 39.1464 8.93572 39.6472 8.61973C40.4279 8.12683 41.1919 7.61834 41.9704 7.12433C42.8627 6.56244 43.6657 6.64144 44.4241 7.3769C45.1825 8.11236 45.8841 8.87119 46.6548 9.58106C47.4745 10.3399 47.8694 11.1688 47.2124 12.3627H48.0155C52.0942 12.3627 56.1763 12.4473 60.2528 12.3338C63.1392 12.2537 65.2539 13.373 66.0089 16.3393L66 53.3973ZM60.4647 32.5362V31.9231C60.4647 27.5467 60.4647 23.1702 60.4647 18.7938C60.4647 17.9827 60.3643 17.8826 59.5367 17.8814C56.6874 17.8814 53.8382 17.8814 50.9889 17.8814C50.7893 17.8814 50.5907 17.9026 50.3487 17.917C50.3376 18.1752 50.3208 18.3944 50.3197 18.6136C50.3197 19.5738 50.3309 20.5351 50.313 21.4964C50.2929 22.6313 49.7955 23.2222 48.6858 23.4681C47.8069 23.6639 46.9247 23.8464 46.0469 24.0466C45.4725 24.1768 45.3777 24.4027 45.6934 24.8956C46.1886 25.6745 46.6972 26.4355 47.1912 27.2144C47.7567 28.1123 47.6797 28.91 46.9459 29.6622C46.1146 30.51 45.274 31.3486 44.4241 32.1779C43.6713 32.9122 42.8627 32.9912 41.9704 32.4282C41.1741 31.9253 40.3911 31.4024 39.5937 30.9017C39.162 30.6302 38.9156 30.7292 38.8029 31.2188C38.5921 32.1345 38.4059 33.0558 38.2006 33.9715C37.9776 34.9729 37.3887 35.507 36.3615 35.5359C35.1123 35.5726 33.8609 35.5737 32.6118 35.5359C31.6158 35.5025 31.0347 34.9695 30.8161 33.9971C30.6142 33.1003 30.4302 32.2002 30.2272 31.3045C30.0911 30.7025 29.8636 30.618 29.335 30.9584C28.5765 31.4436 27.8259 31.942 27.063 32.4205C26.1362 33.0013 25.3443 32.9167 24.567 32.1534C23.7491 31.3501 22.9367 30.5408 22.13 29.7256C21.3191 28.9067 21.2455 28.1212 21.8779 27.1343C22.3631 26.3765 22.8627 25.6288 23.3446 24.8689C23.6345 24.4116 23.5342 24.1802 22.9932 24.0578C22.0954 23.853 21.1942 23.6672 20.2953 23.467C19.2313 23.23 18.726 22.6258 18.7059 21.5254C18.687 20.544 18.7059 19.5627 18.6981 18.5813C18.6981 18.3654 18.677 18.1496 18.6625 17.8848H9.56924C8.62679 17.8848 8.55542 17.9571 8.55542 18.8962C8.55542 27.6275 8.55542 36.3592 8.55542 45.0913C8.55542 46.1728 8.6123 46.2307 9.69974 46.2307H43.5553C42.8768 45.7736 42.1595 45.3768 41.4116 45.0446C40.9242 44.8221 40.612 44.4883 40.6209 43.9197C40.6298 43.3812 40.9298 43.0663 41.3949 42.846C42.4868 42.3308 43.5597 41.7756 44.6606 41.2816C45.0721 41.0969 45.2305 40.8788 45.2182 40.4182C45.1903 38.6602 45.2015 36.9011 45.2082 35.1431C45.2149 33.5565 46.2354 32.5462 47.8326 32.5417C49.7386 32.5417 51.6458 32.5417 53.5519 32.5417L60.4647 32.5362ZM23.3468 11.2845C23.9535 12.2203 24.5737 13.156 25.1737 14.1084C25.8429 15.1721 25.0912 16.9235 23.8598 17.1972C22.9207 17.4063 21.9828 17.6233 21.037 17.7947C20.65 17.8648 20.534 18.0328 20.5429 18.4066C20.563 19.3056 20.5652 20.2069 20.5429 21.1059C20.5328 21.5031 20.6544 21.6811 21.0682 21.7535C21.975 21.9115 22.8717 22.1307 23.7706 22.3298C25.1648 22.638 25.8697 24.3593 25.0945 25.5654C24.5101 26.4733 23.9201 27.3779 23.3624 28.2358L26.0225 30.8917C26.9348 30.3042 27.875 29.6856 28.8275 29.087C29.8893 28.4194 31.6548 29.1582 31.9292 30.3821C32.1433 31.3379 32.3519 32.2958 32.5404 33.2583C32.6006 33.5687 32.7144 33.7167 33.0579 33.71C34.02 33.6907 34.9833 33.6907 35.9477 33.71C36.2823 33.71 36.4172 33.5988 36.4797 33.2739C36.6593 32.3515 36.8634 31.4346 37.0675 30.5178C37.3853 29.0836 39.0974 28.3815 40.3365 29.1749C41.2444 29.7557 42.1489 30.3398 42.9642 30.8639L45.6409 28.1935C45.0755 27.3212 44.4676 26.3999 43.8765 25.4686C43.1805 24.3738 43.9111 22.6202 45.1792 22.3365C46.1183 22.1262 47.0574 21.9181 48.0021 21.739C48.3467 21.6734 48.4895 21.5376 48.4817 21.176C48.4623 20.2354 48.4623 19.2949 48.4817 18.3543C48.4895 17.9949 48.35 17.857 48.0032 17.7924C47.0987 17.6211 46.2008 17.4152 45.3008 17.2161C43.8508 16.8967 43.146 15.1955 43.9401 13.9616C44.5234 13.0548 45.11 12.1513 45.651 11.3157L42.9742 8.65867C42.082 9.23725 41.1395 9.85811 40.1859 10.4523C39.1185 11.1199 37.3653 10.3666 37.0909 9.13934C36.8823 8.20249 36.6715 7.26564 36.4908 6.32322C36.4262 5.98942 36.3046 5.83031 35.9332 5.8381C34.9907 5.85924 34.0472 5.85702 33.1047 5.8381C32.7545 5.83143 32.5984 5.94937 32.5315 6.30208C32.3586 7.22558 32.1456 8.14018 31.9437 9.05812C31.6448 10.4144 29.9138 11.1399 28.7472 10.3933C27.8192 9.80248 26.898 9.20165 25.9968 8.62084L23.3468 11.2845ZM64.1553 32.5362V31.9231C64.1553 27.0786 64.1553 22.2341 64.1553 17.3897C64.1553 15.3379 63.0176 14.1919 60.9721 14.1908C56.1777 14.1908 51.3819 14.1908 46.5845 14.1908C46.4406 14.1908 46.2376 14.1363 46.1651 14.2097C45.914 14.4529 45.6978 14.7296 45.5227 15.0319C45.4881 15.0942 45.7179 15.418 45.8573 15.447C46.957 15.6695 48.0634 15.9821 49.1732 16.0033C52.6552 16.0745 56.1395 16.0278 59.6226 16.0311C61.3792 16.0311 62.2994 16.9635 62.2994 18.7271C62.2994 23.1035 62.2994 27.4781 62.2994 31.8508V32.5239L64.1553 32.5362ZM45.7302 60.6418H23.2553C23.2553 61.2849 23.2933 61.879 23.2442 62.4654C23.1951 63.0518 23.4093 63.1775 23.9658 63.1764C30.9923 63.1586 38.0188 63.1545 45.0454 63.1641H45.7313L45.7302 60.6418ZM31.1775 58.708C31.1775 57.9213 31.1094 57.2014 31.192 56.4993C31.3537 55.1141 32.1355 54.1717 33.4828 53.7589C35.6276 53.1002 37.6586 54.4587 37.8504 56.6863C37.9073 57.3472 37.8593 58.0215 37.8593 58.689H40.6778V51.8028H28.3512V58.708H31.1775ZM35.98 58.708C35.98 57.9658 36.0436 57.2515 35.9611 56.555C35.8819 55.8874 35.2495 55.4601 34.5402 55.449C33.8007 55.4379 33.1427 55.864 33.0579 56.555C32.9731 57.2459 33.0356 57.9591 33.0356 58.7046L35.98 58.708Z" fill="#00518F"/>
<path d="M55.5941 50.8382C54.1196 50.8382 52.644 50.8471 51.1685 50.8382C49.752 50.8282 48.92 49.9937 48.9166 48.5795C48.9099 45.6369 48.9099 42.6936 48.9166 39.7495C48.9166 38.3464 49.7621 37.4964 51.1796 37.4886C54.1293 37.4752 57.0797 37.4752 60.0308 37.4886C61.4807 37.4886 62.3061 38.342 62.3083 39.7907C62.3128 42.7132 62.3128 45.6362 62.3083 48.5595C62.3083 50.0059 61.4852 50.8304 60.0196 50.8393C58.5541 50.8482 57.0696 50.8382 55.5941 50.8382ZM50.7592 44.1901C50.7592 45.6009 50.7592 47.0118 50.7592 48.4182C50.7592 48.7709 50.8015 49.0012 51.2477 49.0001C54.1572 48.9882 57.0674 48.9882 59.9784 49.0001C60.3531 49.0001 60.4747 48.8599 60.4736 48.4916C60.4639 45.6083 60.4639 42.7258 60.4736 39.8441C60.4736 39.4279 60.3085 39.3144 59.9282 39.3156C57.0581 39.323 54.1888 39.323 51.3201 39.3156C50.8907 39.3156 50.7491 39.4736 50.7547 39.8953C50.7692 41.3284 50.7592 42.7592 50.7592 44.1912V44.1901Z" fill="#00518F"/>
<path d="M17.3966 44.2824C15.9466 44.2824 14.4878 44.2824 13.0334 44.2824C11.5422 44.2746 10.7124 43.4524 10.6912 41.9715C10.6812 41.1136 10.6767 40.2546 10.6912 39.3968C10.718 38.0104 11.55 37.1915 12.9219 37.1893C15.8916 37.1848 18.8613 37.1848 21.8311 37.1893C23.2252 37.1893 24.0494 38.0049 24.0617 39.3879C24.0706 40.2869 24.0706 41.1859 24.0617 42.0849C24.0461 43.4201 23.2174 44.2613 21.869 44.2791C20.3867 44.2969 18.8911 44.2824 17.3966 44.2824ZM12.5505 39.0274C12.5505 40.1 12.5349 41.1147 12.5717 42.1272C12.5717 42.2385 12.884 42.4265 13.0524 42.4276C15.9399 42.4466 18.8275 42.4365 21.714 42.4466C22.1222 42.4466 22.2471 42.2852 22.237 41.8969C22.217 41.1425 22.2025 40.3848 22.237 39.6304C22.2627 39.1286 22.0731 39.014 21.6002 39.0174C18.8978 39.0374 16.1942 39.0274 13.4918 39.0274H12.5505Z" fill="#00518F"/>
<path d="M15.1592 32.07C14.403 32.07 13.6469 32.0822 12.8918 32.07C12.2226 32.0566 11.8802 31.7451 11.8657 31.1887C11.8512 30.6091 12.2125 30.2474 12.8951 30.2396C14.4276 30.2241 15.96 30.2241 17.4925 30.2396C18.1204 30.2463 18.503 30.628 18.5018 31.1598C18.5007 31.6917 18.1159 32.0499 17.4891 32.0655C16.7129 32.0822 15.9366 32.07 15.1592 32.07Z" fill="#00518F"/>
<path d="M15.1994 35.3946C14.4187 35.3946 13.6468 35.4068 12.8706 35.3946C12.2092 35.3812 11.8668 35.0608 11.8668 34.4978C11.8668 33.9348 12.2014 33.5809 12.8561 33.5709C14.4086 33.5487 15.9611 33.5487 17.5137 33.5709C18.1394 33.5809 18.5175 33.9826 18.503 34.51C18.4885 35.0374 18.1081 35.3823 17.4691 35.3946C16.7117 35.4046 15.9556 35.3946 15.1994 35.3946Z" fill="#00518F"/>
<path d="M13.7093 28.7376C13.3814 28.7376 13.0535 28.7532 12.7267 28.7376C12.2326 28.7075 11.9259 28.4394 11.8735 27.9409C11.8188 27.418 12.0653 27.0085 12.5795 26.9618C13.3531 26.8939 14.1313 26.8939 14.9049 26.9618C15.3901 27.0019 15.6422 27.3913 15.6132 27.8842C15.583 28.4071 15.2841 28.7109 14.7533 28.7398C14.4097 28.7532 14.0573 28.7376 13.7093 28.7376Z" fill="#00518F"/>
<path d="M29.0349 23.566C29.0349 24.2458 29.0472 24.8377 29.0349 25.4297C29.016 26.1062 28.658 26.5034 28.1081 26.4967C27.5583 26.49 27.2158 26.0961 27.2002 25.4119C27.1846 24.5329 27.1824 23.6528 27.2002 22.7749C27.2158 22.0461 27.5404 21.739 28.2654 21.7268C28.794 21.7179 29.3227 21.7268 29.8826 21.7268V20.8077C29.1654 20.8077 28.4773 20.8077 27.7891 20.8077C27.5439 20.8209 27.2981 20.7977 27.0597 20.7387C26.637 20.6041 26.4574 20.2658 26.4853 19.8319C26.5143 19.3613 26.7708 19.0531 27.2415 19.0119C27.8315 18.964 28.4271 18.9796 29.026 18.9707C29.2881 18.9707 29.5502 18.9707 29.8759 18.9707C29.8993 18.6169 29.9183 18.3198 29.9439 17.9348C29.3718 17.9348 28.8286 17.9415 28.2787 17.9348C27.5538 17.9237 27.2214 17.6155 27.2058 16.8923C27.1872 15.9933 27.1872 15.0939 27.2058 14.1941C27.2192 13.5477 27.5661 13.1727 28.0981 13.1616C28.6557 13.1493 29.016 13.5376 29.0361 14.2152C29.0539 14.8216 29.0361 15.4291 29.0361 16.0945C29.5357 16.0945 29.9629 16.119 30.3856 16.0812C30.535 16.0678 30.7023 15.9265 30.8072 15.7985C32.8148 13.3318 36.1886 13.3396 38.2308 15.8108C38.3765 15.9624 38.5704 16.0587 38.7795 16.0834C39.1409 16.1257 39.5111 16.0956 39.9852 16.0956C39.9852 15.5838 39.9852 15.1043 39.9852 14.6258C39.9764 14.3606 39.9947 14.0951 40.0398 13.8336C40.1446 13.3707 40.4859 13.1482 40.9443 13.166C41.4295 13.1894 41.7797 13.4642 41.7953 13.9649C41.8288 15.0052 41.8377 16.0489 41.8009 17.0903C41.7808 17.64 41.4038 17.9204 40.8529 17.9304C40.2841 17.9393 39.7141 17.9304 39.0907 17.9304C39.1096 18.2875 39.1252 18.5846 39.1453 18.9674C39.9316 18.9674 40.6833 18.9674 41.4351 18.9674C41.8645 18.9674 42.2604 19.0531 42.4645 19.4892C42.7545 20.1123 42.3686 20.7565 41.6436 20.7899C40.8317 20.8266 40.0153 20.7977 39.1542 20.7977C39.133 21.1315 39.1163 21.3852 39.094 21.7256C39.6862 21.7256 40.2328 21.7179 40.7793 21.7256C41.4685 21.739 41.8042 22.0461 41.821 22.7337C41.8433 23.6528 41.8433 24.5726 41.821 25.4931C41.8054 26.1217 41.425 26.5034 40.8941 26.4945C40.3632 26.4856 40.0119 26.1061 39.9918 25.4675C39.9718 24.8589 39.9918 24.2436 39.9918 23.5637C39.5301 23.5637 39.1241 23.5382 38.7237 23.5771C38.5765 23.5916 38.4092 23.7329 38.3099 23.8619C36.3024 26.4989 32.7456 26.4911 30.7079 23.8452C30.6043 23.7074 30.4541 23.6118 30.2852 23.576C29.8982 23.5404 29.5101 23.566 29.0349 23.566ZM37.2259 19.882C37.2259 19.3112 37.276 18.7348 37.2158 18.1707C37.0652 16.7532 35.9354 15.8019 34.481 15.8108C33.0557 15.8197 31.9058 16.7632 31.8043 18.154C31.7162 19.3136 31.7162 20.4782 31.8043 21.6377C31.9158 23.023 33.0713 23.9654 34.4967 23.9676C35.922 23.9699 37.0552 23.033 37.2102 21.6544C37.2805 21.0714 37.2259 20.4739 37.2259 19.882Z" fill="#00518F"/>
<path d="M55.6308 42.9695C56.077 42.4755 56.4517 42.0371 56.8577 41.6343C57.3206 41.177 57.8202 41.1559 58.2195 41.5309C58.6188 41.9058 58.6088 42.4633 58.1481 42.935C57.7633 43.33 57.3417 43.6894 56.7584 44.229C57.2581 44.6441 57.702 44.9701 58.0968 45.3417C58.6054 45.829 58.6355 46.3943 58.2262 46.7881C57.837 47.162 57.2871 47.1219 56.8198 46.6479C56.435 46.2552 56.0904 45.8246 55.6465 45.3128C55.1546 45.8502 54.7977 46.2719 54.4073 46.6591C53.9333 47.1286 53.3824 47.1575 52.9965 46.7703C52.6106 46.3831 52.6206 45.8491 53.1002 45.3684C53.4883 44.9801 53.911 44.6251 54.4062 44.1756C53.9054 43.7016 53.4839 43.3256 53.0879 42.9228C52.6195 42.4443 52.6005 41.9092 53.0065 41.5208C53.4125 41.1325 53.8988 41.1737 54.3728 41.6132C54.5825 41.8083 54.7854 42.0104 54.9817 42.2196C55.1769 42.441 55.3598 42.6613 55.6308 42.9695Z" fill="#00518F"/>
<path d="M34.5836 17.9204C34.9182 18.0684 35.3309 18.1429 35.5763 18.3832C36.0224 18.8283 35.7636 19.6305 35.1446 19.793C34.8078 19.8687 34.4608 19.889 34.1174 19.8531C33.5397 19.8074 33.2151 19.4202 33.243 18.885C33.2698 18.371 33.5932 18.0717 34.1676 18.035C34.2892 18.0272 34.4119 18.035 34.5346 18.035L34.5836 17.9204Z" fill="#00518F"/>
</g>
<defs>
<clipPath id="clip0_32_333">
<rect width="63" height="61" fill="white" transform="translate(3 4)"/>
</clipPath>
</defs>
</svg>
