<svg width="69" height="68" viewBox="0 0 69 68" fill="none" xmlns="http://www.w3.org/2000/svg">
<g clip-path="url(#clip0_32_268)">
<path d="M39.7993 53.726V53.8749L39.8426 54.0172L42.2576 61.9507L42.4487 62.5783H42.4452L42.064 61.3336C41.6926 60.1204 41.3241 58.9085 40.9565 57.6995C40.5245 56.2784 40.0936 54.8613 39.6605 53.4507L39.4442 52.746H39.7993V53.7227V53.726ZM26.7964 61.3353L26.4182 62.5783H25.7076C25.8638 62.5291 26.0216 62.453 26.1718 62.338C26.5475 62.0502 26.7005 61.6486 26.7821 61.3716L26.7823 61.3707C27.3162 59.551 27.8712 57.7386 28.44 55.8812C28.6285 55.2656 28.8186 54.645 29.0098 54.0177L29.3975 52.746H29.4095L29.1945 53.4535C28.6516 55.2405 28.1079 57.0265 27.5607 58.8242C27.3068 59.6583 27.0521 60.4949 26.7964 61.3353ZM5.90385 52.1839C5.93991 52.2187 5.97683 52.2512 6.01446 52.2817C5.96017 52.241 5.91074 52.1985 5.86578 52.1546C5.53854 51.8353 5.29044 51.2887 5.29044 50.351V7.59484C5.29044 6.67158 5.53767 6.11888 5.86505 5.79341C5.9352 5.72366 6.01589 5.65754 6.1085 5.59667C6.03384 5.64854 5.96189 5.70728 5.8935 5.77377C5.34835 6.30379 5.2996 7.05873 5.2996 7.62128V45.8009V46.801L6.29975 46.8009L62.5514 46.7926L63.5513 46.7925V45.7926V45.1199V45.0467V44.9735V44.9003V44.827V44.7538V44.6806V44.6074V44.5342V44.4609V44.3877V44.3145V44.2413V44.1681V44.0948V44.0216V43.9484V43.8752V43.802V43.7287V43.6555V43.5823V43.5091V43.4358V43.3626V43.2894V43.2162V43.143V43.0697V42.9965V42.9233V42.8501V42.7769V42.7036V42.6304V42.5572V42.484V42.4108V42.3375V42.2643V42.1911V42.1179V42.0447V41.9714V41.8982V41.825V41.7518V41.6785V41.6053V41.5321V41.4589V41.3857V41.3124V41.2392V41.166V41.0928V41.0196V40.9463V40.8731V40.7999V40.7267V40.6534V40.5802V40.507V40.4338V40.3606V40.2873V40.2141V40.1409V40.0677V39.9944V39.9212V39.848V39.7748V39.7016V39.6283V39.5551V39.4819V39.4087V39.3354V39.2622V39.189V39.1158V39.0426V38.9693V38.8961V38.8229V38.7497V38.6764V38.6032V38.53V38.4568V38.3836V38.3103V38.2371V38.1639V38.0907V38.0174V37.9442V37.871V37.7978V37.7246V37.6513V37.5781V37.5049V37.4317V37.3584V37.2852V37.212V37.1388V37.0655V36.9923V36.9191V36.8459V36.7727V36.6994V36.6262V36.553V36.4798V36.4065V36.3333V36.2601V36.1869V36.1136V36.0404V35.9672V35.894V35.8208V35.7475V35.6743V35.6011V35.5279V35.4546V35.3814V35.3082V35.235V35.1617V35.0885V35.0153V34.9421V34.8688V34.7956V34.7224V34.6492V34.576V34.5027V34.4295V34.3563V34.2831V34.2098V34.1366V34.0634V33.9902V33.9169V33.8437V33.7705V33.6973V33.624V33.5508V33.4776V33.4044V33.3311V33.2579V33.1847V33.1115V33.0382V32.965V32.8918V32.8186V32.7453V32.6721V32.5989V32.5257V32.4525V32.3792V32.306V32.2328V32.1596V32.0863V32.0131V31.9399V31.8667V31.7934V31.7202V31.647V31.5738V31.5005V31.4273V31.3541V31.2809V31.2076V31.1344V31.0612V30.988V30.9147V30.8415V30.7683V30.6951V30.6218V30.5486V30.4754V30.4022V30.3289V30.2557V30.1825V30.1093V30.036V29.9628V29.8896V29.8164V29.7431V29.6699V29.5967V29.5234V29.4502V29.377V29.3038V29.2305V29.1573V29.0841V29.0109V28.9376V28.8644V28.7912V28.718V28.6447V28.5715V28.4983V28.4251V28.3518V28.2786V28.2054V28.1322V28.0589V27.9857V27.9125V27.8393V27.766V27.6928V27.6196V27.5464V27.4731V27.3999V27.3267V27.2534V27.1802V27.107V27.0338V26.9605V26.8873V26.8141V26.7409V26.6676V26.5944V26.5212V26.448V26.3747V26.3015V26.2283V26.155V26.0818V26.0086V25.9354V25.8621V25.7889V25.7157V25.6425V25.5692V25.496V25.4228V25.3496V25.2763V25.2031V25.1299V25.0566V24.9834V24.9102V24.837V24.7637V24.6905V24.6173V24.5441V24.4708V24.3976V24.3244V24.2511V24.1779V24.1047V24.0315V23.9582V23.885V23.8118V23.7386V23.6653V23.5921V23.5189V23.4456V23.3724V23.2992V23.226V23.1527V23.0795V23.0063V22.933V22.8598V22.7866V22.7134V22.6401V22.5669V22.4937V22.4205V22.3472V22.274V22.2008V22.1275V22.0543V21.9811V21.9079V21.8346V21.7614V21.6882V21.6149V21.5417V21.4685V21.3953V21.322V21.2488V21.1756V21.1023V21.0291V20.9559V20.8827V20.8094V20.7362V20.663V20.5897V20.5165V20.4433V20.3701V20.2968V20.2236V20.1504V20.0771V20.0039V19.9307V19.8575V19.7842V19.711V19.6378V19.5645V19.4913V19.4181V19.3449V19.2716V19.1984V19.1252V19.0519V18.9787V18.9055V18.8323V18.759V18.6858V18.6126V18.5393V18.4661V18.3929V18.3196V18.2464V18.1732V18.1V18.0267V17.9535V17.8803V17.807V17.7338V17.6606V17.5873V17.5141V17.4409V17.3677V17.2944V17.2212V17.148V17.0747V17.0015V16.9283V16.8551V16.7818V16.7086V16.6354V16.5621V16.4889V16.4157V16.3424V16.2692V16.196V16.1228V16.0495V15.9763V15.9031V15.8298V15.7566V15.6834V15.6101V15.5369V15.4637V15.3904V15.3172V15.244V15.1708V15.0975V15.0243V14.9511V14.8778V14.8046V14.7314V14.6581V14.5849V14.5117V14.4385V14.3652V14.292V14.2188V14.1455V14.0723V13.9991V13.9258V13.8526V13.7794V13.7061V13.6329V13.5597V13.4864V13.4132V13.34V13.2668V13.1935V13.1203V13.0471V12.9738V12.9006V12.8274V12.7541V12.6809V12.6077V12.5344V12.4612V12.388V12.3147V12.2415V12.1683V12.0951V12.0218V11.9486V11.8754V11.8021V11.7289V11.6557V11.5824V11.5092V11.436V11.3627V11.2895V11.2163V11.143V11.0698V10.9966V10.9233V10.8501V10.7769V10.7037V10.6304V10.5572V10.484V10.4107V10.3375V10.2643V10.191V10.1178V10.0446V9.97133V9.8981V9.82486V9.75163V9.6784V9.60517V9.53193V9.4587V9.38547V9.31224V9.23901V9.16577V9.09254V9.01931V8.94607V8.87284V8.79961V8.72638V8.65314V8.57991V8.50668V8.43345V8.36021V8.28698V8.21375V8.14051V8.06728V7.99405V7.92082V7.84758V7.77435V7.70112V7.62788C63.5513 7.0636 63.5024 6.30969 62.9611 5.77888C62.9025 5.72135 62.8412 5.66956 62.7778 5.62297C62.8545 5.67602 62.9229 5.73273 62.9837 5.79212C63.3143 6.11507 63.5605 6.65422 63.5605 7.53533V7.61908V7.70283V7.78658V7.87033V7.95408V8.03783V8.12158V8.20533V8.28908V8.37283V8.45658V8.54033V8.62408V8.70783V8.79158V8.87533V8.95908V9.04283V9.12659V9.21034V9.29409V9.37784V9.46159V9.54534V9.62909V9.71284V9.79659V9.88034V9.96409V10.0478V10.1316V10.2153V10.2991V10.3828V10.4666V10.5503V10.6341V10.7178V10.8016V10.8853V10.9691V11.0529V11.1366V11.2204V11.3041V11.3879V11.4716V11.5554V11.6391V11.7229V11.8066V11.8904V11.9741V12.0579V12.1416V12.2254V12.3091V12.3929V12.4766V12.5604V12.6441V12.7279V12.8116V12.8954V12.9791V13.0629V13.1466V13.2304V13.3141V13.3979V13.4816V13.5654V13.6491V13.7329V13.8166V13.9004V13.9841V14.0679V14.1516V14.2354V14.3191V14.4029V14.4866V14.5704V14.6541V14.7379V14.8217V14.9054V14.9892V15.0729V15.1567V15.2404V15.3242V15.4079V15.4917V15.5754V15.6592V15.7429V15.8267V15.9104V15.9942V16.0779V16.1617V16.2454V16.3292V16.4129V16.4967V16.5804V16.6642V16.7479V16.8317V16.9154V16.9992V17.0829V17.1667V17.2504V17.3342V17.4179V17.5017V17.5855V17.6692V17.753V17.8367V17.9205V18.0042V18.088V18.1717V18.2555V18.3392V18.423V18.5067V18.5905V18.6742V18.758V18.8417V18.9255V19.0092V19.093V19.1767V19.2605V19.3442V19.428V19.5117V19.5955V19.6793V19.763V19.8468V19.9305V20.0143V20.098V20.1818V20.2655V20.3493V20.433V20.5168V20.6005V20.6843V20.768V20.8518V20.9355V21.0193V21.103V21.1868V21.2705V21.3543V21.438V21.5218V21.6056V21.6893V21.7731V21.8568V21.9406V22.0243V22.1081V22.1918V22.2756V22.3593V22.4431V22.5268V22.6106V22.6943V22.7781V22.8618V22.9456V23.0293V23.1131V23.1969V23.2806V23.3644V23.4481V23.5319V23.6156V23.6994V23.7831V23.8669V23.9506V24.0344V24.1181V24.2019V24.2856V24.3694V24.4531V24.5369V24.6206V24.7044V24.7882V24.8719V24.9557V25.0394V25.1232V25.2069V25.2907V25.3744V25.4582V25.5419V25.6257V25.7094V25.7932V25.8769V25.9607V26.0444V26.1282V26.212V26.2957V26.3795V26.4632V26.547V26.6307V26.7145V26.7982V26.882V26.9657V27.0495V27.1332V27.217V27.3007V27.3845V27.4683V27.552V27.6358V27.7195V27.8033V27.887V27.9708V28.0545V28.1383V28.222V28.3058V28.3895V28.4733V28.557V28.6408V28.7246V28.8083V28.8921V28.9758V29.0596V29.1433V29.2271V29.3108V29.3946V29.4783V29.5621V29.6458V29.7296V29.8134V29.8971V29.9809V30.0646V30.1484V30.2321V30.3159V30.3996V30.4834V30.5671V30.6509V30.7346V30.8184V30.9021V30.9859V31.0697V31.1534V31.2372V31.3209V31.4047V31.4884V31.5722V31.6559V31.7397V31.8234V31.9072V31.9909V32.0747V32.1585V32.2422V32.326V32.4097V32.4935V32.5772V32.661V32.7447V32.8285V32.9122V32.996V33.0798V33.1635V33.2473V33.331V33.4148V33.4985V33.5823V33.666V33.7498V33.8335V33.9173V34.001V34.0848V34.1686V34.2523V34.3361V34.4198V34.5036V34.5873V34.6711V34.7548V34.8386V34.9223V35.0061V35.0899V35.1736V35.2574V35.3411V35.4249V35.5086V35.5924V35.6761V35.7599V35.8436V35.9274V36.0112V36.0949V36.1787V36.2624V36.3462V36.4299V36.5137V36.5974V36.6812V36.7649V36.8487V36.9325V37.0162V37.1V37.1837V37.2675V37.3512V37.435V37.5187V37.6025V37.6862V37.77V37.8538V37.9375V38.0213V38.105V38.1888V38.2725V38.3563V38.44V38.5238V38.6076V38.6913V38.7751V38.8588V38.9426V39.0263V39.1101V39.1938V39.2776V39.3613V39.4451V39.5289V39.6126V39.6964V39.7801V39.8639V39.9476V40.0314V40.1151V40.1989V40.2827V40.3664V40.4502V40.5339V40.6177V40.7014V40.7852V40.8689V40.9527V41.0365V41.1202V41.204V41.2877V41.3715V41.4552V41.539V41.6227V41.7065V41.7903V41.874V41.9578V42.0415V42.1253V42.209V42.2928V42.3765V42.4603V42.5441V42.6278V42.7116V42.7953V42.8791V42.9628V43.0466V43.1303V43.2141V43.2979V43.3816V43.4654V43.5491V43.6329V43.7166V43.8004V43.8841V43.9679V44.0517V44.1354V44.2192V44.3029V44.3867V44.4704V44.5542V44.6379V44.7217V44.8055V44.8892V44.973V45.0567V45.1405V45.2242V45.308V45.3917V45.4755V45.5593V45.643V45.7268V45.8105V45.8943V45.978V46.0618V46.1456V46.2293V46.3131V46.3968V46.4806V46.5643V46.6481V46.7318V46.8156V46.8994V46.9831V47.0669V47.1506V47.2344V47.3181V47.4019V47.4857V47.5694V47.6532V47.7369V47.8207V47.9044V47.9882V48.0719V48.1557V48.2395V48.3232V48.407V48.4907V48.5745V48.6582V48.742V48.8258V48.9095V48.9933V49.077V49.1608V49.2445V49.3283V49.412V49.4958V49.5796V49.6633V49.7471V49.8308V49.9146V49.9983V50.0821V50.1659V50.2496V50.3334V50.4171C63.5605 51.2828 63.3162 51.8241 62.9868 52.1505C62.7808 52.3546 62.4892 52.5265 62.0858 52.6271C62.1268 52.6064 62.1683 52.5827 62.2098 52.5553C62.2303 52.542 62.2545 52.5264 62.2816 52.509C62.4207 52.4196 62.6365 52.281 62.8157 52.1373C62.9282 52.0471 63.0661 51.9246 63.1865 51.7718C63.3019 51.6253 63.4581 51.3796 63.4936 51.0495L63.4936 51.0495L63.4946 51.0397C63.5733 50.2317 63.5595 49.3891 63.5468 48.61C63.5423 48.3312 63.5379 48.0605 63.5379 47.8024V46.8023L62.5378 46.8024L6.34982 46.8074L5.62921 46.8074L5.40126 47.491C5.36385 47.6032 5.33601 47.7183 5.318 47.8351L5.30632 47.9109V47.9875V47.992V47.9964V48.0009V48.0054V48.0099V48.0143V48.0188V48.0233V48.0277V48.0322V48.0367V48.0411V48.0456V48.0501V48.0545V48.059V48.0635V48.0679V48.0724V48.0769V48.0813V48.0858V48.0903V48.0947V48.0992V48.1037V48.1081V48.1126V48.1171V48.1216V48.126V48.1305V48.135V48.1394V48.1439V48.1484V48.1528V48.1573V48.1618V48.1662V48.1707V48.1752V48.1796V48.1841V48.1886V48.193V48.1975V48.202V48.2064V48.2109V48.2154V48.2199V48.2243V48.2288V48.2333V48.2377V48.2422V48.2467V48.2511V48.2556V48.2601V48.2645V48.269V48.2735V48.2779V48.2824V48.2869V48.2913V48.2958V48.3003V48.3048V48.3092V48.3137V48.3182V48.3226V48.3271V48.3316V48.336V48.3405V48.345V48.3494V48.3539V48.3584V48.3628V48.3673V48.3718V48.3763V48.3807V48.3852V48.3897V48.3941V48.3986V48.4031V48.4075V48.412V48.4165V48.4209V48.4254V48.4299V48.4343V48.4388V48.4433V48.4478V48.4522V48.4567V48.4612V48.4656V48.4701V48.4746V48.479V48.4835V48.488V48.4924V48.4969V48.5014V48.5059V48.5103V48.5148V48.5193V48.5237V48.5282V48.5327V48.5371V48.5416V48.5461V48.5505V48.555V48.5595V48.564V48.5684V48.5729V48.5774V48.5818V48.5863V48.5908V48.5952V48.5997V48.6042V48.6087V48.6131V48.6176V48.6221V48.6265V48.631V48.6355V48.6399V48.6444V48.6489V48.6533V48.6578V48.6623V48.6668V48.6712V48.6757V48.6802V48.6846V48.6891V48.6936V48.698V48.7025V48.707V48.7115V48.7159V48.7204V48.7249V48.7293V48.7338V48.7383V48.7427V48.7472V48.7517V48.7561V48.7606V48.7651V48.7696V48.774V48.7785V48.783V48.7874V48.7919V48.7964V48.8008V48.8053V48.8098V48.8143V48.8187V48.8232V48.8277V48.8321V48.8366V48.8411V48.8456V48.85V48.8545V48.859V48.8634V48.8679V48.8724V48.8768V48.8813V48.8858V48.8903V48.8947V48.8992V48.9037V48.9081V48.9126V48.9171V48.9215V48.926V48.9305V48.935V48.9394V48.9439V48.9484V48.9528V48.9573V48.9618V48.9662V48.9707V48.9752V48.9797V48.9841V48.9886V48.9931V48.9975V49.002V49.0065V49.011V49.0154V49.0199V49.0244V49.0288V49.0333V49.0378V49.0423V49.0467V49.0512V49.0557V49.0601V49.0646V49.0691V49.0735V49.078V49.0825V49.087V49.0914V49.0959V49.1004V49.1048V49.1093V49.1138V49.1183V49.1227V49.1272V49.1317V49.1361V49.1406V49.1451V49.1496V49.154V49.1585V49.163V49.1674V49.1719V49.1764V49.1808V49.1853V49.1898V49.1943V49.1987V49.2032V49.2077V49.2121V49.2166V49.2211V49.2256V49.23V49.2345V49.239V49.2434V49.2479V49.2524V49.2569V49.2613V49.2658V49.2703V49.2747V49.2792V49.2837V49.2882V49.2926V49.2971V49.3016V49.306V49.3105V49.315V49.3195V49.3239V49.3284V49.3329V49.3373V49.3418V49.3463V49.3508V49.3552V49.3597V49.3642V49.3686V49.3731V49.3776V49.3821V49.3865V49.391V49.3955V49.3999V49.4044V49.4089V49.4134V49.4178V49.4223V49.4268V49.4313V49.4357V49.4402V49.4447V49.4491V49.4536V49.4581V49.4626V49.467V49.4715V49.476V49.4804V49.4849V49.4894V49.4939V49.4983V49.5028V49.5073V49.5117V49.5162V49.5207V49.5252V49.5296V49.5341V49.5386V49.543V49.5475V49.552V49.5565V49.5609V49.5654V49.5699V49.5744V49.5788V49.5833V49.5878V49.5922V49.5967V49.6012V49.6057V49.6101V49.6146V49.6191V49.6236V49.628V49.6325V49.637V49.6414V49.6459V49.6504V49.6549V49.6593V49.6638V49.6683V49.6727V49.6772V49.6817V49.6862V49.6906V49.6951V49.6996V49.7041V49.7085V49.713V49.7175V49.7219V49.7264V49.7309V49.7354V49.7398V49.7443V49.7488V49.7533V49.7577V49.7622V49.7667V49.7711V49.7756V49.7801V49.7846V49.789V49.7935V49.798V49.8025V49.8069V49.8114V49.8159V49.8203V49.8248V49.8293V49.8338V49.8382V49.8427V49.8472V49.8517V49.8561V49.8606V49.8651V49.8695V49.874V49.8785V49.883V49.8874V49.8919V49.8964V49.9009V49.9053V49.9098V49.9143V49.9188V49.9232V49.9277V49.9322V49.9366V49.9411V49.9456V49.9501V49.9545V49.959V49.9635V49.968V49.9724V49.9769V49.9814V49.9859V49.9903V49.9948V49.9993V50.0037V50.0082V50.0127V50.0172V50.0216V50.0261V50.0306V50.0351V50.0395V50.044V50.0485V50.053V50.0574V50.0619V50.0664V50.0708V50.0753V50.0798V50.0843V50.0887V50.0932V50.0977V50.1022V50.1066V50.1111V50.1156V50.1201V50.1245V50.129V50.1335V50.138V50.1424V50.1469V50.1514V50.1558V50.1603V50.1648V50.1693V50.1737V50.1782V50.1827V50.1872V50.1916V50.1961V50.2006V50.2051V50.2095V50.214V50.2185V50.223V50.2274V50.2319V50.2364V50.2409V50.2453V50.2498V50.2543V50.2588V50.2632V50.2677V50.2722V50.2766C5.30632 50.8496 5.34108 51.6407 5.90385 52.1839Z" fill="#00518F" stroke="#00518F" stroke-width="2"/>
<path d="M25.9767 42.2697C26.0002 42.293 26.0242 42.3153 26.0485 42.3367C26.016 42.3093 25.9852 42.2813 25.9562 42.2526C25.6272 41.9268 25.3812 41.3811 25.3804 40.4901V20.3842C25.3804 19.7584 25.5114 19.3027 25.7117 18.9756C25.4207 19.4601 25.3896 20.0359 25.3896 20.49V40.4194C25.3896 40.9852 25.4386 41.7384 25.9767 42.2697ZM59.5329 24.4633C59.5329 24.0344 59.5057 23.4985 59.2613 23.0323C59.434 23.3559 59.5455 23.8011 59.5455 24.4121V24.4435V24.4749V24.5063V24.5377V24.5691V24.6005V24.6319V24.6633V24.6948V24.7262V24.7576V24.789V24.8204V24.8518V24.8832V24.9146V24.946V24.9774V25.0089V25.0403V25.0717V25.1031V25.1345V25.1659V25.1973V25.2287V25.2601V25.2915V25.3229V25.3544V25.3858V25.4172V25.4486V25.48V25.5114V25.5428V25.5742V25.6056V25.637V25.6685V25.6999V25.7313V25.7627V25.7941V25.8255V25.8569V25.8883V25.9197V25.9511V25.9825V26.014V26.0454V26.0768V26.1082V26.1396V26.171V26.2024V26.2338V26.2652V26.2966V26.3281V26.3595V26.3909V26.4223V26.4537V26.4851V26.5165V26.5479V26.5793V26.6107V26.6422V26.6736V26.705V26.7364V26.7678V26.7992V26.8306V26.862V26.8934V26.9248V26.9562V26.9877V27.0191V27.0505V27.0819V27.1133V27.1447V27.1761V27.2075V27.2389V27.2703V27.3018V27.3332V27.3646V27.396V27.4274V27.4588V27.4902V27.5216V27.553V27.5844V27.6158V27.6473V27.6787V27.7101V27.7415V27.7729V27.8043V27.8357V27.8671V27.8985V27.9299V27.9614V27.9928V28.0242V28.0556V28.087V28.1184V28.1498V28.1812V28.2126V28.244V28.2754V28.3069V28.3383V28.3697V28.4011V28.4325V28.4639V28.4953V28.5267V28.5581V28.5895V28.621V28.6524V28.6838V28.7152V28.7466V28.778V28.8094V28.8408V28.8722V28.9036V28.9351V28.9665V28.9979V29.0293V29.0607V29.0921V29.1235V29.1549V29.1863V29.2177V29.2491V29.2806V29.312V29.3434V29.3748V29.4062V29.4376V29.469V29.5004V29.5318V29.5632V29.5947V29.6261V29.6575V29.6889V29.7203V29.7517V29.7831V29.8145V29.8459V29.8773V29.9087V29.9402V29.9716V30.003V30.0344V30.0658V30.0972V30.1286V30.16V30.1914V30.2228V30.2543V30.2857V30.3171V30.3485V30.3799V30.4113V30.4427V30.4741V30.5055V30.5369V30.5683V30.5998V30.6312V30.6626V30.694V30.7254V30.7568V30.7882V30.8196V30.851V30.8824V30.9139V30.9453V30.9767V31.0081V31.0395V31.0709V31.1023V31.1337V31.1651V31.1965V31.228V31.2594V31.2908V31.3222V31.3536V31.385V31.4164V31.4478V31.4792V31.5106V31.542V31.5735V31.6049V31.6363V31.6677V31.6991V31.7305V31.7619V31.7933V31.8247V31.8561V31.8876V31.919V31.9504V31.9818V32.0132V32.0446V32.076V32.1074V32.1388V32.1702V32.2016V32.2331V32.2645V32.2959V32.3273V32.3587V32.3901V32.4215V32.4529V32.4843V32.5157V32.5472V32.5786V32.61V32.6414V32.6728V32.7042V32.7356V32.767V32.7984V32.8298V32.8612V32.8927V32.9241V32.9555V32.9869V33.0183V33.0497V33.0811V33.1125V33.1439V33.1753V33.2068V33.2382V33.2696V33.301V33.3324V33.3638V33.3952V33.4266V33.458V33.4894V33.5209V33.5523V33.5837V33.6151V33.6465V33.6779V33.7093V33.7407V33.7721V33.8035V33.8349V33.8664V33.8978V33.9292V33.9606V33.992V34.0234V34.0548V34.0862V34.1176V34.149V34.1805V34.2119V34.2433V34.2747V34.3061V34.3375V34.3689V34.4003V34.4317V34.4631V34.4945V34.526V34.5574V34.5888V34.6202V34.6516V34.683V34.7144V34.7458V34.7772V34.8086V34.8401V34.8715V34.9029V34.9343V34.9657V34.9971V35.0285V35.0599V35.0913V35.1227V35.1541V35.1856V35.217V35.2484V35.2798V35.3112V35.3426V35.374V35.4054V35.4368V35.4682V35.4997V35.5311V35.5625V35.5939V35.6253V35.6567V35.6881V35.7195V35.7509V35.7823V35.8137V35.8452V35.8766V35.908V35.9394V35.9708V36.0022V36.0336V36.065V36.0964V36.1278V36.1593V36.1907V36.2221V36.2535V36.2849V36.3163V36.3477V36.3791V36.4105V36.4419V36.4734V36.5048V36.5362V36.5676V36.599V36.6304V36.6618V36.6932V36.7246V36.756V36.7874V36.8189V36.8503V36.8817V36.9131V36.9445V36.9759V37.0073V37.0387V37.0701V37.1015V37.133V37.1644V37.1958V37.2272V37.2586V37.29V37.3214V37.3528V37.3842V37.4156V37.447V37.4785V37.5099V37.5413V37.5727V37.6041V37.6355V37.6669V37.6983V37.7297V37.7611V37.7926V37.824V37.8554V37.8868V37.9182V37.9496V37.981V38.0124V38.0438V38.0752V38.1066V38.1381V38.1695V38.2009V38.2323V38.2637V38.2951V38.3265V38.3579V38.3893V38.4207V38.4522V38.4836V38.515V38.5464V38.5778V38.6092V38.6406V38.672V38.7034V38.7348V38.7663V38.7977V38.8291V38.8605V38.8919V38.9233V38.9547V38.9861V39.0175V39.0489V39.0803V39.1118V39.1432V39.1746V39.206V39.2374V39.2688V39.3002V39.3316V39.363V39.3944V39.4259V39.4573V39.4887V39.5201V39.5515V39.5829V39.6143V39.6457V39.6771V39.7085V39.7399V39.7714V39.8028V39.8342V39.8656V39.897V39.9284V39.9598V39.9912V40.0226V40.054V40.0855V40.1169V40.1483V40.1797V40.2111V40.2425V40.2739V40.3053V40.3367V40.3681V40.3995V40.431V40.4624V40.4938C59.5455 41.4034 59.2983 41.947 58.9696 42.2686C58.8298 42.4052 58.6485 42.5281 58.415 42.6246C58.6024 42.542 58.781 42.4285 58.9404 42.2728C59.483 41.7427 59.5329 40.9897 59.5329 40.426V40.3948V40.3637V40.3325V40.3013V40.2702V40.239V40.2078V40.1766V40.1455V40.1143V40.0831V40.052V40.0208V39.9896V39.9584V39.9273V39.8961V39.8649V39.8338V39.8026V39.7714V39.7402V39.7091V39.6779V39.6467V39.6156V39.5844V39.5532V39.522V39.4909V39.4597V39.4285V39.3974V39.3662V39.335V39.3038V39.2727V39.2415V39.2103V39.1792V39.148V39.1168V39.0856V39.0545V39.0233V38.9921V38.961V38.9298V38.8986V38.8674V38.8363V38.8051V38.7739V38.7428V38.7116V38.6804V38.6492V38.6181V38.5869V38.5557V38.5245V38.4934V38.4622V38.431V38.3999V38.3687V38.3375V38.3063V38.2752V38.244V38.2128V38.1817V38.1505V38.1193V38.0881V38.057V38.0258V37.9946V37.9634V37.9323V37.9011V37.8699V37.8388V37.8076V37.7764V37.7452V37.7141V37.6829V37.6517V37.6205V37.5894V37.5582V37.527V37.4959V37.4647V37.4335V37.4023V37.3712V37.34V37.3088V37.2776V37.2465V37.2153V37.1841V37.1529V37.1218V37.0906V37.0594V37.0283V36.9971V36.9659V36.9347V36.9036V36.8724V36.8412V36.81V36.7789V36.7477V36.7165V36.6853V36.6542V36.623V36.5918V36.5606V36.5295V36.4983V36.4671V36.436V36.4048V36.3736V36.3424V36.3113V36.2801V36.2489V36.2177V36.1866V36.1554V36.1242V36.093V36.0619V36.0307V35.9995V35.9683V35.9372V35.906V35.8748V35.8436V35.8125V35.7813V35.7501V35.7189V35.6878V35.6566V35.6254V35.5942V35.5631V35.5319V35.5007V35.4695V35.4384V35.4072V35.376V35.3448V35.3137V35.2825V35.2513V35.2201V35.189V35.1578V35.1266V35.0954V35.0643V35.0331V35.0019V34.9707V34.9396V34.9084V34.8772V34.846V34.8149V34.7837V34.7525V34.7213V34.6902V34.659V34.6278V34.5966V34.5655V34.5343V34.5031V34.4719V34.4408V34.4096V34.3784V34.3472V34.3161V34.2849V34.2537V34.2225V34.1914V34.1602V34.129V34.0978V34.0667V34.0355V34.0043V33.9731V33.942V33.9108V33.8796V33.8484V33.8173V33.7861V33.7549V33.7237V33.6925V33.6614V33.6302V33.599V33.5678V33.5367V33.5055V33.4743V33.4431V33.412V33.3808V33.3496V33.3184V33.2873V33.2561V33.2249V33.1937V33.1626V33.1314V33.1002V33.069V33.0378V33.0067V32.9755V32.9443V32.9131V32.882V32.8508V32.8196V32.7884V32.7573V32.7261V32.6949V32.6637V32.6325V32.6014V32.5702V32.539V32.5078V32.4767V32.4455V32.4143V32.3831V32.352V32.3208V32.2896V32.2584V32.2272V32.1961V32.1649V32.1337V32.1025V32.0714V32.0402V32.009V31.9778V31.9466V31.9155V31.8843V31.8531V31.8219V31.7908V31.7596V31.7284V31.6972V31.666V31.6349V31.6037V31.5725V31.5413V31.5102V31.479V31.4478V31.4166V31.3854V31.3543V31.3231V31.2919V31.2607V31.2296V31.1984V31.1672V31.136V31.1048V31.0737V31.0425V31.0113V30.9801V30.949V30.9178V30.8866V30.8554V30.8242V30.7931V30.7619V30.7307V30.6995V30.6683V30.6372V30.606V30.5748V30.5436V30.5125V30.4813V30.4501V30.4189V30.3877V30.3566V30.3254V30.2942V30.263V30.2318V30.2007V30.1695V30.1383V30.1071V30.0759V30.0448V30.0136V29.9824V29.9512V29.9201V29.8889V29.8577V29.8265V29.7953V29.7642V29.733V29.7018V29.6706V29.6394V29.6083V29.5771V29.5459V29.5147V29.4835V29.4524V29.4212V29.39V29.3588V29.3276V29.2965V29.2653V29.2341V29.2029V29.1717V29.1406V29.1094V29.0782V29.047V29.0158V28.9847V28.9535V28.9223V28.8911V28.8599V28.8288V28.7976V28.7664V28.7352V28.704V28.6729V28.6417V28.6105V28.5793V28.5481V28.517V28.4858V28.4546V28.4234V28.3922V28.3611V28.3299V28.2987V28.2675V28.2363V28.2052V28.174V28.1428V28.1116V28.0804V28.0493V28.0181V27.9869V27.9557V27.9245V27.8934V27.8622V27.831V27.7998V27.7686V27.7374V27.7063V27.6751V27.6439V27.6127V27.5815V27.5504V27.5192V27.488V27.4568V27.4256V27.3945V27.3633V27.3321V27.3009V27.2697V27.2385V27.2074V27.1762V27.145V27.1138V27.0826V27.0515V27.0203V26.9891V26.9579V26.9267V26.8956V26.8644V26.8332V26.802V26.7708V26.7396V26.7085V26.6773V26.6461V26.6149V26.5837V26.5526V26.5214V26.4902V26.459V26.4278V26.3966V26.3655V26.3343V26.3031V26.2719V26.2407V26.2095V26.1784V26.1472V26.116V26.0848V26.0536V26.0225V25.9913V25.9601V25.9289V25.8977V25.8665V25.8354V25.8042V25.773V25.7418V25.7106V25.6794V25.6483V25.6171V25.5859V25.5547V25.5235V25.4924V25.4612V25.43V25.3988V25.3676V25.3364V25.3053V25.2741V25.2429V25.2117V25.1805V25.1493V25.1182V25.087V25.0558V25.0246V24.9934V24.9622V24.9311V24.8999V24.8687V24.8375V24.8063V24.7751V24.744V24.7128V24.6816V24.6504V24.6192V24.588V24.5569V24.5257V24.4945V24.4633Z" fill="#00518F" stroke="#00518F" stroke-width="2"/>
<path d="M13.7078 17.6766C13.7899 17.83 13.8717 17.9739 13.9429 18.0991C13.9701 18.1469 13.9957 18.192 14.0192 18.2338C14.036 18.2639 14.0522 18.2938 14.0677 18.3234M14.0677 18.3234C14.2029 18.7149 14.2732 19.1172 14.2675 19.5319C14.2584 20.1872 14.0608 20.8013 13.7424 21.3822L13.7381 21.3899L13.7381 21.3899C13.7325 21.3998 13.7269 21.4099 13.7212 21.4201C13.4911 21.8319 13.1468 22.4482 12.3176 22.7632M14.0677 18.3234C14.2873 18.7442 14.3649 19.1106 14.3588 19.4671C14.352 19.865 14.2396 20.3141 13.9974 20.8796C13.5134 22.0091 13.0037 22.6171 12.0284 22.8817L12.0284 22.8816L12.0204 22.8839C12.0048 22.8883 11.9892 22.8927 11.9736 22.8972C12.0867 22.8523 12.2012 22.8077 12.3176 22.7632M12.3176 22.7632C12.3179 22.7631 12.3181 22.763 12.3184 22.7629L11.9615 21.8288L12.3159 22.7638C12.3165 22.7636 12.3171 22.7634 12.3176 22.7632ZM9.3053 24.0174C9.3467 24.0005 9.38782 23.9836 9.42866 23.9667L9.35748 24.538C9.35569 24.5524 9.35443 24.5598 9.35116 24.5792C9.34951 24.589 9.34735 24.6018 9.34434 24.6201L9.34407 24.6218C9.33743 24.6623 9.32129 24.7606 9.32129 24.8765C9.32129 24.9334 9.31954 24.993 9.31638 25.0564C9.31399 24.7101 9.3103 24.3637 9.3053 24.0174ZM9.30556 27.9819C9.3096 27.6997 9.31277 27.4175 9.31507 27.1354C9.36698 27.3465 9.44843 27.5604 9.57401 27.7631C9.71582 27.9943 9.89949 28.18 10.0957 28.33C10.0862 28.3257 10.0766 28.3214 10.067 28.317C9.82715 28.208 9.56761 28.0901 9.30556 27.9819ZM13.1854 29.8777C12.9305 29.6145 12.6411 29.3964 12.3194 29.2194C13.0855 29.4724 13.4863 29.9662 13.9286 30.9419L13.9288 30.9423C14.2076 31.5565 14.3452 32.0605 14.358 32.5133C14.3704 32.9485 14.2695 33.3944 13.9744 33.9031C13.9599 33.9279 13.9448 33.9538 13.9291 33.9807C13.9078 34.0171 13.8854 34.0554 13.8623 34.0953C13.9463 33.8929 14.0325 33.6887 14.1223 33.4808L14.1255 33.4732L14.1287 33.4656C14.414 32.7739 14.3411 32.1777 14.1701 31.6217L14.17 31.6214C13.9688 30.9682 13.6621 30.3698 13.1854 29.8777ZM13.2086 36.4212C13.2595 36.673 13.3643 36.893 13.4876 37.0807C13.2881 36.8857 13.0872 36.6907 12.8848 36.4968C12.991 36.2421 13.0921 35.9947 13.1905 35.7517C13.1626 35.9635 13.1617 36.1899 13.2086 36.4212ZM15.7522 39.2948C15.5679 39.1193 15.3845 38.9424 15.2014 38.7644C15.378 38.8844 15.5842 38.9816 15.8239 39.0302C16.0336 39.0727 16.2338 39.0712 16.4215 39.0404C16.1979 39.1271 15.9752 39.2121 15.7522 39.2948ZM20.521 37.9993C20.1374 37.8788 19.7303 37.8587 19.339 37.9391C19.6825 37.8354 19.8849 37.812 20.0522 37.8215C20.2238 37.8312 20.4347 37.8799 20.7914 38.0294C20.9838 38.1101 21.1997 38.2117 21.4576 38.339L21.4545 38.3465C21.1502 38.2227 20.8381 38.102 20.5293 38.002L20.5293 38.002L20.521 37.9993ZM9.07581 27.8881C9.07589 27.8881 9.0774 27.8888 9.08015 27.8904C9.07711 27.8889 9.07574 27.8881 9.07581 27.8881ZM37.0349 12.7079C37.6073 13.2522 38.168 13.8039 38.7212 14.3499L38.7082 14.3629C38.4064 14.0492 38.0882 13.7269 37.7602 13.4276L37.7269 13.3973L37.691 13.37C37.4764 13.207 37.2283 13.0947 36.9654 13.0403C36.7025 12.9859 36.4306 12.9907 36.1698 13.0544L36.1192 13.0668L36.0702 13.0843C35.8444 13.165 35.6206 13.2489 35.3993 13.3341C35.8617 13.1253 36.3524 12.9507 36.887 12.7606C36.9359 12.7432 36.9852 12.7256 37.0349 12.7079ZM33.0051 14.0723C33.2521 14.0693 33.4944 14.0415 33.7319 13.9927C33.5037 14.0814 33.2768 14.1675 33.0489 14.2499C32.995 14.2663 32.937 14.2665 32.8829 14.2506C32.66 14.168 32.4376 14.0834 32.2159 13.9969C32.4751 14.0501 32.7381 14.0757 33.0051 14.0723ZM30.7861 13.4087C30.5934 13.3252 30.4015 13.2403 30.2102 13.154C30.1602 13.1276 30.1216 13.0883 30.0974 13.0432C29.6599 12.1205 29.2571 11.1754 28.8587 10.2134C28.7769 10.0148 28.6257 9.69555 28.3107 9.45674C28.1236 9.31481 27.924 9.23386 27.7282 9.19225C27.9572 9.18994 28.1863 9.18698 28.4155 9.18333C28.606 9.63492 28.7911 10.0564 28.9729 10.4705C29.226 11.047 29.4728 11.609 29.7191 12.2176L29.722 12.2248L29.725 12.2319C29.9875 12.8527 30.4125 13.1803 30.7861 13.4087ZM24.3624 9.18318C24.5913 9.18644 24.8203 9.18921 25.0494 9.19147C24.8609 9.23147 24.6678 9.30843 24.485 9.44302C24.1679 9.67633 24.0117 9.99252 23.926 10.1899L23.9222 10.1987L23.9186 10.2075C23.7733 10.5605 23.628 10.9105 23.4805 11.2571C23.4812 11.2549 23.4819 11.2526 23.4826 11.2504L23.4831 11.2489C23.5862 10.9134 23.7312 10.5743 23.904 10.1962C23.9413 10.1146 23.9806 10.0298 24.021 9.94253C24.1321 9.70264 24.2517 9.44434 24.3624 9.18318ZM22.4853 12.9767C22.7032 12.759 22.8869 12.5186 23.0416 12.2596C22.9321 12.5014 22.8204 12.7414 22.7057 12.9795C22.6617 13.0648 22.5915 13.1376 22.5023 13.1866C22.2936 13.2829 22.0821 13.3769 21.8683 13.4688C22.0907 13.3282 22.2969 13.1649 22.4853 12.9767ZM20.4839 14.0266C20.289 14.1007 20.0929 14.1735 19.8959 14.2453C19.8422 14.2615 19.7845 14.2614 19.7308 14.2451C19.5693 14.1866 19.4082 14.1264 19.2467 14.0647C19.72 14.1689 20.1382 14.1078 20.4839 14.0266ZM24.4555 8.96157C24.4556 8.96163 24.4549 8.96304 24.4534 8.96559C24.4548 8.96277 24.4555 8.9615 24.4555 8.96157ZM15.736 12.6939C16.072 12.8324 16.4094 12.9661 16.743 13.097C16.7305 13.0925 16.718 13.0881 16.7055 13.0836L16.6583 13.0668L16.6096 13.0549C16.3518 12.9914 16.0831 12.9852 15.8227 13.0367C15.5623 13.0881 15.3157 13.1961 15.1011 13.3538L15.0619 13.3825L15.0258 13.4149C15.0117 13.4275 14.9974 13.4402 14.9829 13.4529C15.235 13.201 15.486 12.948 15.736 12.6939ZM12.8823 15.5041C13.0808 15.3147 13.2787 15.1247 13.4759 14.934C13.3704 15.1078 13.2818 15.3019 13.2276 15.5161L13.2275 15.516L13.2247 15.528C13.1588 15.8024 13.1616 16.0725 13.1996 16.3219C13.1985 16.319 13.1974 16.3161 13.1963 16.3133C13.0998 16.0554 12.9957 15.7771 12.8823 15.5041Z" fill="#00518F" stroke="#00518F" stroke-width="2"/>
<path d="M17.3518 26.3641L17.3518 26.364C17.3386 25.8952 17.3637 25.4285 17.4236 24.9687C17.2699 26.3551 17.4392 27.7754 17.9372 29.1058C17.585 28.2016 17.3769 27.2628 17.3518 26.3641ZM21.2812 33.3791C20.486 32.8824 19.722 32.1382 19.075 31.222C19.6588 32.0258 20.3936 32.7576 21.2812 33.3791Z" fill="#00518F" stroke="#00518F" stroke-width="2"/>
<mask id="path-5-inside-1_32_268" fill="white">
<path d="M37.1281 27.7245L32.8632 31.9176L37.16 36.1289L35.7629 37.4941L30.1883 31.992C32.0331 30.1838 33.9282 28.3178 35.8418 26.4353L37.1281 27.7245Z"/>
</mask>
<path d="M37.1281 27.7245L32.8632 31.9176L37.16 36.1289L35.7629 37.4941L30.1883 31.992C32.0331 30.1838 33.9282 28.3178 35.8418 26.4353L37.1281 27.7245Z" fill="#00518F"/>
<path d="M37.1281 27.7245L38.5303 29.1506L39.967 27.7381L38.5439 26.3118L37.1281 27.7245ZM32.8632 31.9176L31.4611 30.4914L30.0083 31.9198L31.4633 33.3459L32.8632 31.9176ZM37.16 36.1289L38.5578 37.5593L40.0194 36.131L38.5599 34.7006L37.16 36.1289ZM35.7629 37.4941L34.358 38.9176L35.756 40.2973L37.1608 38.9245L35.7629 37.4941ZM30.1883 31.992L28.7883 30.5636L27.3361 31.987L28.7833 33.4154L30.1883 31.992ZM35.8418 26.4353L37.2576 25.0226L35.8549 23.6168L34.4392 25.0095L35.8418 26.4353ZM35.7259 26.2983L31.4611 30.4914L34.2654 33.3438L38.5303 29.1506L35.7259 26.2983ZM31.4633 33.3459L35.76 37.5573L38.5599 34.7006L34.2632 30.4893L31.4633 33.3459ZM35.7621 34.6985L34.3651 36.0637L37.1608 38.9245L38.5578 37.5593L35.7621 34.6985ZM37.1679 36.0707L31.5932 30.5685L28.7833 33.4154L34.358 38.9176L37.1679 36.0707ZM31.5882 33.4203C33.4347 31.6105 35.3317 29.7426 37.2444 27.861L34.4392 25.0095C32.5247 26.893 30.6314 28.7572 28.7883 30.5636L31.5882 33.4203ZM34.426 27.8479L35.7123 29.1371L38.5439 26.3118L37.2576 25.0226L34.426 27.8479Z" fill="#00518F" mask="url(#path-5-inside-1_32_268)"/>
<mask id="path-7-inside-2_32_268" fill="white">
<path d="M49.1429 37.4527L47.8398 36.2214L52.0912 32.0398L47.7307 27.764L49.116 26.4088L54.7276 31.9489L49.1429 37.4527Z"/>
</mask>
<path d="M49.1429 37.4527L47.8398 36.2214L52.0912 32.0398L47.7307 27.764L49.116 26.4088L54.7276 31.9489L49.1429 37.4527Z" fill="#00518F"/>
<path d="M49.1429 37.4527L47.7692 38.9064L49.172 40.232L50.5467 38.8772L49.1429 37.4527ZM47.8398 36.2214L46.4373 34.7955L44.9583 36.2502L46.4661 37.6751L47.8398 36.2214ZM52.0912 32.0398L53.4937 33.4657L54.9456 32.0377L53.4915 30.6118L52.0912 32.0398ZM47.7307 27.764L46.3321 26.3344L44.8725 27.7624L46.3305 29.1921L47.7307 27.764ZM49.116 26.4088L50.5212 24.9855L49.1224 23.6045L47.7174 24.9791L49.116 26.4088ZM54.7276 31.9489L56.1315 33.3734L57.5756 31.9502L56.1327 30.5257L54.7276 31.9489ZM50.5165 35.9991L49.2134 34.7677L46.4661 37.6751L47.7692 38.9064L50.5165 35.9991ZM49.2422 37.6473L53.4937 33.4657L50.6888 30.6139L46.4373 34.7955L49.2422 37.6473ZM53.4915 30.6118L49.131 26.336L46.3305 29.1921L50.6909 33.4678L53.4915 30.6118ZM49.1294 29.1937L50.5147 27.8384L47.7174 24.9791L46.3321 26.3344L49.1294 29.1937ZM47.7109 27.832L53.3225 33.3722L56.1327 30.5257L50.5212 24.9855L47.7109 27.832ZM53.3238 30.5244L47.739 36.0282L50.5467 38.8772L56.1315 33.3734L53.3238 30.5244Z" fill="#00518F" mask="url(#path-7-inside-2_32_268)"/>
<path d="M45.0044 28.873L41.2745 35.4747L45.0038 28.8727L45.0044 28.873Z" fill="#00518F" stroke="#00518F" stroke-width="2"/>
</g>
<defs>
<clipPath id="clip0_32_268">
<rect width="69" height="68" fill="white"/>
</clipPath>
</defs>
</svg>
