<svg width="69" height="68" viewBox="0 0 69 68" fill="none" xmlns="http://www.w3.org/2000/svg">
<g clip-path="url(#clip0_32_281)">
<path d="M49.999 38.0239V38.8086C49.999 45.4122 49.999 52.0157 49.999 58.6192C49.999 61.9093 47.904 63.998 44.6085 63.998C37.5257 63.998 30.443 63.998 23.3606 63.998C20.1079 63.998 18.0026 61.8962 18.0013 58.6496C18.0013 52.7131 18.0013 46.7762 18.0013 40.8388V39.9995C17.4855 39.9995 16.9959 40.0051 16.5056 39.9995C15.7912 39.9899 15.4933 39.752 15.314 39.061C15.2878 38.9603 15.2692 38.8541 15.245 38.7562C14.8313 36.7605 14.8313 36.7564 12.9225 35.993C12.8312 35.966 12.7355 35.9573 12.6409 35.9674C12.5462 35.9775 12.4545 36.0061 12.3709 36.0516C11.7778 36.3964 11.2062 36.7792 10.6297 37.155C10.0939 37.4998 9.6167 37.4363 9.17055 36.9853C8.45339 36.2594 7.73163 35.5379 7.00528 34.8207C6.55154 34.3711 6.50672 33.8918 6.85633 33.3602C7.18871 32.8561 7.50867 32.3437 7.83346 31.8355C7.90591 31.7336 7.97179 31.6272 8.03068 31.5169C8.19411 31.1721 7.2556 29.2005 6.88047 29.1109C6.21296 28.9516 5.54269 28.802 4.87311 28.653C4.27387 28.5192 3.99942 28.1386 4.0008 27.5359C4.0008 26.5144 4.0008 25.4935 4.0008 24.4734C4.0008 23.8369 4.30352 23.4673 4.92966 23.339C5.55579 23.2108 6.19779 23.088 6.81082 22.8949C7.037 22.826 7.23008 22.5791 7.38593 22.3743C7.5066 22.215 7.50936 21.9667 7.62728 21.804C8.24238 20.9551 7.95965 20.2662 7.40937 19.4801C6.29984 17.894 6.34398 17.865 7.71761 16.4838C8.20032 15.9962 8.69198 15.5135 9.17124 15.0205C9.61463 14.5646 10.0925 14.5019 10.6283 14.8495C11.1869 15.2122 11.7371 15.5921 12.3205 15.9107C12.5136 16.0162 12.8032 15.9935 13.0391 15.9576C13.2363 15.928 13.4094 15.7445 13.6066 15.7128C14.6713 15.5425 15.0416 14.8377 15.1237 13.8606C15.1677 13.4881 15.249 13.121 15.3664 12.7648C15.5278 12.2214 16.0063 11.9228 16.5028 12.0221C17.0165 12.1249 17.3868 12.5814 17.2889 13.1255C17.0938 14.2102 16.8786 15.2949 16.5842 16.3548C16.5076 16.6307 16.1408 16.8865 15.8477 17.0251C14.9857 17.4313 14.0845 17.754 13.2177 18.1498C12.7736 18.3526 12.3833 18.3526 11.9806 18.0905C11.5448 17.8071 11.0758 17.5644 10.6745 17.2382C10.2463 16.8886 9.96563 16.983 9.64015 17.3699C9.43328 17.6223 9.14365 17.8112 8.8499 18.0643C9.26709 18.7139 9.61739 19.2952 10.0049 19.8511C10.3546 20.3531 10.3497 20.811 10.0739 21.362C9.69687 22.1241 9.37113 22.9107 9.09883 23.7162C8.90782 24.2679 8.59751 24.5927 8.0224 24.703C7.35283 24.8313 6.69152 24.9989 6.01574 25.152V26.8477C6.72393 27.0118 7.42454 27.1925 8.13205 27.3304C8.64164 27.4345 8.8961 27.7441 9.07194 28.2158C9.39052 29.0695 9.74152 29.9136 10.1256 30.7404C10.3401 31.2024 10.3566 31.6072 10.0746 32.0327C9.75324 32.5154 9.45879 33.0229 9.12435 33.5001C8.93333 33.7725 8.95609 33.9449 9.1933 34.1897C10.0863 35.12 10.0766 35.1297 11.1317 34.4552C11.223 34.405 11.3102 34.3476 11.3924 34.2835C12.1716 33.5898 12.9377 33.5843 13.8204 34.1649C14.3458 34.5097 14.9926 34.6994 15.6133 34.8704C16.2552 35.0483 16.6104 35.3993 16.7166 36.0572C16.8214 36.6916 16.9814 37.3177 17.1214 37.9701H17.9682C17.9806 37.7963 18.0006 37.6349 18.0006 37.4736C18.0006 35.6662 18.0006 33.858 18.0006 32.021C16.1615 31.9272 14.6423 31.2624 13.4556 29.9025C11.1503 27.26 11.6668 23.0108 14.5589 21.1206C14.843 20.9351 15.3312 20.873 15.6464 20.9827C15.9029 21.0709 16.2166 21.5199 16.1897 21.7764C16.1518 22.1336 15.8912 22.5446 15.6029 22.7853C14.521 23.6907 13.959 24.812 14.0169 26.2194C14.0976 28.293 15.9043 30.0081 18.0075 29.9674V29.2336C18.0075 22.6085 18.0075 15.9841 18.0075 9.3603C18.0075 6.10612 20.1072 4.00217 23.3544 4.00079C30.4575 4.00079 37.5602 4.00079 44.6623 4.00079C47.9033 4.00079 50.0017 6.10681 50.0031 9.36582C50.0031 15.3032 50.0031 21.2404 50.0031 27.1773V27.9993C50.5106 27.9993 50.9816 27.9958 51.4512 27.9993C52.2311 28.0069 52.5325 28.2468 52.7097 29.015C52.8476 29.6233 52.9462 30.2432 53.1234 30.8397C53.1862 31.05 53.4055 31.2535 53.6061 31.3748C53.8668 31.5369 54.2116 31.5693 54.4612 31.7424C55.1142 32.1954 55.6631 32.0637 56.2369 31.5872C56.6023 31.2838 57.034 31.059 57.4402 30.8059C57.9098 30.5142 58.3608 30.5597 58.7504 30.9438C59.5254 31.701 60.2918 32.4665 61.0494 33.2402C61.4563 33.6539 61.4804 34.1173 61.1687 34.6035C60.7977 35.1814 60.4102 35.7489 60.0723 36.3468C59.9737 36.5233 59.9916 36.7978 60.0337 37.0116C60.0757 37.2253 60.2681 37.4198 60.304 37.637C60.475 38.6714 61.1646 38.9665 62.1065 39.1396C64.0098 39.4893 64.0008 39.5389 64.0008 41.4842C64.0008 42.1511 64.007 42.8172 64.0008 43.4841C63.9925 44.193 63.7553 44.4826 63.0561 44.6667C62.9554 44.6936 62.8547 44.7184 62.7533 44.7439C62.092 44.9088 61.2846 44.897 60.8108 45.2887C60.3564 45.6652 60.2302 46.4534 59.9978 47.0755C59.9444 47.26 59.9657 47.4582 60.0571 47.6271C60.4019 48.2188 60.7908 48.7884 61.1653 49.3642C61.4969 49.8745 61.4466 50.3469 61.0218 50.7772C60.2902 51.5178 59.5537 52.255 58.8207 52.9942C58.3725 53.4466 57.8898 53.4914 57.3588 53.1411C56.8547 52.8094 56.3431 52.4888 55.8341 52.1633C55.7328 52.0904 55.6265 52.0245 55.5163 51.966C55.1646 51.8019 53.2034 52.7515 53.1179 53.128C52.9697 53.7769 52.8421 54.4306 52.6842 55.0768C52.52 55.7505 52.0367 56.0994 51.4822 55.9781C50.912 55.8533 50.6127 55.3609 50.7458 54.6727C50.9313 53.7128 51.1085 52.7473 51.3843 51.8123C51.4788 51.4909 51.8091 51.1509 52.1201 50.9979C52.9928 50.5641 53.8933 50.1886 54.8156 49.8738C55.1961 49.7567 55.6051 49.7723 55.9755 49.9179C56.523 50.1531 57.014 50.5282 57.5078 50.8744C57.7836 51.0703 57.9649 51.0365 58.1973 50.7958C58.4835 50.4972 58.8179 50.2441 59.1579 49.9559C58.7228 49.2752 58.3718 48.6905 57.9856 48.1319C57.6512 47.6492 57.647 47.2079 57.9063 46.6769C58.2845 45.8926 58.619 45.088 58.9083 44.2667C59.0945 43.7433 59.3799 43.4192 59.9378 43.3137C60.6115 43.1875 61.2777 43.02 61.9741 42.8641V41.1401C61.3087 40.9926 60.646 40.8291 59.9744 40.7029C59.3979 40.594 59.0903 40.2671 58.9 39.7141C58.6281 38.9085 58.3021 38.1222 57.9243 37.3605C57.6484 36.8088 57.6429 36.3495 57.9973 35.851C58.3111 35.4103 58.5683 34.9304 58.8828 34.4911C59.0834 34.2104 59.0296 34.0387 58.8014 33.8015C57.9125 32.8809 57.9215 32.8719 56.8623 33.5491C56.6168 33.7063 56.3624 33.8505 56.1286 34.0229C55.628 34.3918 55.1632 34.3373 54.6184 34.0608C53.9002 33.6883 53.1519 33.3769 52.3814 33.1298C51.7443 32.9299 51.396 32.5823 51.2857 31.9313C51.1781 31.2976 51.0202 30.6721 50.8816 30.0281H50.0355V35.9503C50.3693 36.0006 50.7113 36.0461 51.0519 36.104C53.3965 36.5033 55.3425 38.3045 55.839 40.6395C56.3686 43.1331 55.5942 45.2032 53.593 46.7803C53.3282 46.9872 52.9034 47.1251 52.5731 47.0941C51.8332 47.0161 51.5457 46.068 52.0511 45.4984C52.2015 45.3287 52.4001 45.2032 52.5759 45.0556C53.2004 44.5284 53.6484 43.8225 53.8596 43.033C54.0708 42.2434 54.035 41.4081 53.7571 40.6395C53.1903 39.0769 51.7201 38.028 49.999 38.0239ZM20.0024 33.9642C20.0024 42.2122 20.0024 50.4604 20.0024 58.7089C20.0024 60.7776 21.2285 61.9982 23.3124 61.9982C30.4348 61.9982 37.5579 61.9982 44.6816 61.9982C46.7945 61.9982 47.9999 60.7825 47.9999 58.653C47.9999 42.2191 47.9999 25.7855 47.9999 9.35203C47.9999 7.1936 46.7979 6.0013 44.6265 6.00061H23.3806C21.1823 6.00061 20.0017 7.19222 20.0017 9.40719C20.0003 17.5936 19.9999 25.7793 20.0003 33.9642H20.0024Z" fill="#00518F"/>
<path d="M55.0141 12.0048C55.2753 12.0118 55.5234 12.1201 55.7061 12.3069C55.8887 12.4936 55.9915 12.7442 55.9927 13.0054C55.9927 13.5867 55.4913 14.1129 54.9479 14.1018C54.3818 14.0894 53.9998 13.6846 53.9991 13.0964C53.9991 12.4578 54.4287 11.9951 55.0141 12.0048Z" fill="#00518F"/>
<path d="M53.9991 17.0946C53.9991 16.4561 54.4308 15.9913 55.0155 16.0051C55.2766 16.0123 55.5246 16.1208 55.707 16.3077C55.8894 16.4946 55.9919 16.7452 55.9927 17.0064C55.9927 17.5884 55.4899 18.1139 54.9459 18.1015C54.3777 18.0897 53.9991 17.6836 53.9991 17.0946Z" fill="#00518F"/>
<path d="M53.9991 21.066C54.0108 20.4336 54.4611 19.9764 55.0438 20.0047C55.3046 20.02 55.5493 20.136 55.7263 20.3282C55.9033 20.5204 55.9988 20.7738 55.9927 21.035C55.9761 21.6191 55.461 22.1287 54.9176 22.099C54.3501 22.068 53.9881 21.6618 53.9991 21.066Z" fill="#00518F"/>
<path d="M12.0011 46.8581C12.0149 46.2561 12.4335 45.8106 12.9914 45.8058C13.1257 45.806 13.2587 45.8332 13.3824 45.8856C13.5061 45.9381 13.618 46.0148 13.7116 46.1112C13.8052 46.2076 13.8785 46.3218 13.9273 46.447C13.976 46.5722 13.9992 46.7059 13.9954 46.8402C13.9733 47.4346 13.4824 47.907 12.9141 47.8815C12.3459 47.856 11.988 47.4664 12.0011 46.8581Z" fill="#00518F"/>
<path d="M12.0011 50.8578C12.0149 50.2558 12.4342 49.8103 12.9921 49.8055C13.1263 49.8058 13.2592 49.833 13.3828 49.8855C13.5064 49.938 13.6182 50.0147 13.7116 50.1111C13.8051 50.2075 13.8783 50.3217 13.9269 50.4468C13.9755 50.572 13.9986 50.7056 13.9947 50.8398C13.9733 51.4343 13.4824 51.9066 12.9135 51.8811C12.3446 51.8556 11.9874 51.4605 12.0011 50.8578Z" fill="#00518F"/>
<path d="M12.9417 55.8835C12.3659 55.8718 11.9991 55.4829 12.0012 54.8857C12.0012 54.2554 12.4459 53.7899 13.0252 53.8051C13.2859 53.8151 13.5326 53.9255 13.7137 54.1133C13.8948 54.3011 13.9963 54.5517 13.9968 54.8126C13.9913 55.4022 13.5065 55.8952 12.9417 55.8835Z" fill="#00518F"/>
<path d="M26.4016 33.9869C27.5083 32.8898 28.5489 31.8706 29.5736 30.8375C30.0956 30.3121 30.1294 29.7287 29.697 29.2984C29.2647 28.8681 28.6854 28.9046 28.1586 29.4266C26.9174 30.6573 25.6812 31.8935 24.4501 33.1353C23.835 33.7559 23.8294 34.2386 24.4404 34.8544C25.4499 35.8757 26.4691 36.8873 27.4849 37.9024C27.7497 38.1672 28.0021 38.4458 28.282 38.6934C28.7392 39.0975 29.2916 39.0947 29.6867 38.7113C30.0818 38.3279 30.1004 37.7721 29.7115 37.3073C29.566 37.1321 29.3943 36.9777 29.233 36.8163L26.4016 33.9869ZM41.5867 33.9648C41.3847 34.18 41.2481 34.3324 41.104 34.4772C40.1786 35.4061 39.2422 36.3232 38.3278 37.2645C37.883 37.7238 37.8968 38.3162 38.3071 38.7127C38.7036 39.094 39.2766 39.1175 39.7118 38.692C41.0509 37.3822 42.376 36.0582 43.6872 34.7199C44.0871 34.3124 44.1581 33.7897 43.752 33.3697C42.4059 31.9786 41.0383 30.6091 39.649 29.2611C39.2428 28.8653 38.6726 28.9246 38.2981 29.2998C37.9237 29.6749 37.9016 30.2093 38.2568 30.6562C38.3782 30.7987 38.5084 30.9337 38.6464 31.0603C39.6076 32.0112 40.5703 32.9608 41.5867 33.9648ZM35.9956 30.1245C35.988 29.5039 35.6212 29.0812 35.1295 29.0115C34.6041 28.9363 34.1641 29.2515 34.0062 29.8625C33.3658 32.3988 32.7319 34.9369 32.1044 37.4769C31.9037 38.2844 32.1485 38.8189 32.7732 38.9706C33.3601 39.1133 33.8297 38.752 34.0234 37.9838C34.5291 35.9909 35.0284 33.9968 35.5212 32.0016C35.6902 31.3375 35.857 30.6741 35.9956 30.1245ZM33.9497 10.0001C34.9075 10.0001 35.8653 10.0064 36.8238 10.0001C37.552 9.99325 38.0023 9.59467 37.9961 8.98921C37.9878 8.40168 37.5541 8.00861 36.8617 8.00585C34.9461 7.99711 33.0302 7.99711 31.1141 8.00585C30.4328 8.0093 29.9984 8.42581 30.0067 9.01403C30.0149 9.60226 30.4494 9.98912 31.1389 9.99739C32.0747 10.0084 33.0125 10.0001 33.9497 10.0001Z" fill="white"/>
<path d="M26.4016 33.9869L29.2343 36.8142C29.3957 36.9756 29.5674 37.13 29.7129 37.3052C30.0998 37.77 30.0853 38.3244 29.6881 38.7092C29.2909 39.094 28.7406 39.0954 28.2834 38.6913C28.0035 38.4437 27.7511 38.1651 27.4863 37.9003C26.4705 36.8852 25.4513 35.8736 24.4418 34.8523C23.8336 34.2379 23.8363 33.7531 24.4514 33.1332C25.683 31.8919 26.9192 30.6557 28.16 29.4245C28.6868 28.9025 29.2633 28.8646 29.6984 29.2963C30.1336 29.728 30.097 30.31 29.575 30.8355C28.5489 31.8705 27.5083 32.8897 26.4016 33.9869Z" fill="#00518F"/>
<path d="M41.5867 33.9648C40.5703 32.9608 39.6076 32.0112 38.6464 31.0603C38.5084 30.9337 38.3782 30.7987 38.2568 30.6562C37.9016 30.2093 37.923 29.6763 38.2981 29.2997C38.6733 28.9232 39.2428 28.8653 39.649 29.2611C41.036 30.6109 42.4036 31.9804 43.752 33.3697C44.1581 33.7897 44.0871 34.3124 43.6872 34.7199C42.3742 36.0564 41.0491 37.3804 39.7118 38.692C39.2766 39.1175 38.7036 39.094 38.3071 38.7127C37.8934 38.3162 37.883 37.7238 38.3278 37.2645C39.2408 36.3232 40.1786 35.4061 41.104 34.4772C41.2481 34.3324 41.3847 34.18 41.5867 33.9648Z" fill="#00518F"/>
<path d="M35.9956 30.1245C35.8577 30.6762 35.6895 31.3375 35.5233 32.0016C35.0245 33.9959 34.5252 35.9899 34.0255 37.9838C33.8318 38.752 33.3621 39.1133 32.7753 38.9706C32.1506 38.8189 31.9058 38.2844 32.1064 37.4769C32.7358 34.9378 33.369 32.3997 34.0062 29.8624C34.1607 29.2515 34.6041 28.9363 35.1295 29.0115C35.6212 29.0811 35.9881 29.5025 35.9956 30.1245Z" fill="#00518F"/>
<path d="M33.9497 10.0001C33.0125 10.0001 32.0747 10.0084 31.1376 10.0001C30.448 9.99186 30.0129 9.60156 30.0046 9.0154C29.9963 8.42925 30.4308 8.01067 31.1121 8.00722C33.0277 7.99711 34.9436 7.99711 36.8597 8.00722C37.5493 8.00722 37.9858 8.40304 37.994 8.99058C38.0023 9.59604 37.552 9.99462 36.8217 10.0015C35.8653 10.0063 34.9075 10.0001 33.9497 10.0001Z" fill="#00518F"/>
</g>
<defs>
<clipPath id="clip0_32_281">
<rect width="60" height="60" fill="white" transform="translate(4 4)"/>
</clipPath>
</defs>
</svg>
