<svg width="49" height="49" viewBox="0 0 49 49" fill="none" xmlns="http://www.w3.org/2000/svg">
<g clip-path="url(#clip0_34_1850)">
<path d="M40.545 17.675C39.3768 16.875 39.0141 15.2867 39.7197 14.059C40.8899 12.0226 40.6998 9.52013 39.2354 7.68385C37.7709 5.84748 35.3737 5.10554 33.1279 5.7932C31.7737 6.20795 30.3061 5.50089 29.7862 4.18398C28.9237 1.99924 26.8489 0.587646 24.5001 0.587646C22.1513 0.587646 20.0763 1.99924 19.2138 4.18398C18.6939 5.50098 17.226 6.20767 15.8722 5.7932C13.6268 5.10545 11.2291 5.84748 9.76465 7.68385C8.30009 9.52022 8.11006 12.0227 9.28034 14.059C9.9859 15.2866 9.62337 16.875 8.45506 17.675C6.51706 19.0019 5.60254 21.339 6.1251 23.6289C6.64766 25.9188 8.48572 27.6275 10.8075 27.9824C12.2071 28.1962 13.223 29.4699 13.1201 30.8821C13.0887 31.3111 13.1058 31.734 13.1667 32.1454L8.52556 42.4111C8.28959 42.9331 8.37706 43.5445 8.7499 43.9794C9.12284 44.4144 9.71346 44.5938 10.2656 44.4404L15.3148 43.0349L17.5952 47.7542C17.8417 48.2644 18.3581 48.5877 18.9236 48.5877C18.9298 48.5877 18.9362 48.5877 18.9425 48.5876C19.5153 48.5803 20.032 48.2422 20.2681 47.7202L24.4144 38.5489L28.8499 47.7528C29.0961 48.2637 29.6129 48.5877 30.179 48.5877C30.1848 48.5877 30.1906 48.5877 30.1964 48.5876C30.7692 48.581 31.2863 48.2433 31.523 47.7215L33.6871 42.9479L38.7692 44.2295C39.3247 44.3697 39.9109 44.1754 40.2731 43.7316C40.6353 43.2877 40.7077 42.6743 40.4591 42.1583L35.7796 32.448C35.8827 31.9426 35.9189 31.417 35.8798 30.8822C35.7768 29.4701 36.7926 28.1963 38.1923 27.9825C40.5141 27.6278 42.3521 25.9189 42.8748 23.629C43.3976 21.339 42.4829 19.002 40.545 17.675ZM18.8793 43.6288L17.4355 40.6408C17.1844 40.1211 16.6618 39.8071 16.1072 39.8071C15.976 39.8071 15.8429 39.8248 15.7114 39.8613L12.5145 40.7512L14.9094 35.4541C15.3212 35.8361 15.7951 36.1617 16.3224 36.4156C18.3864 37.4095 20.798 37.08 22.5162 35.5843L18.8793 43.6288ZM36.4308 40.5963L33.2131 39.785C32.5205 39.6103 31.8033 39.9564 31.5084 40.6064L30.1383 43.6288L26.1097 35.2693C26.1942 35.3308 26.2762 35.397 26.3544 35.4692C27.4327 36.4658 28.8067 36.9845 30.2024 36.9844C31.0394 36.9844 31.8843 36.7979 32.6775 36.4158C33.1644 36.1814 33.6052 35.8852 33.9943 35.5405L36.4308 40.5963ZM39.9978 22.9722C39.798 23.8483 39.1016 24.8583 37.7466 25.0652C36.329 25.2817 35.0558 26.0185 34.1617 27.1398C33.2675 28.261 32.8325 29.6663 32.9369 31.0966C33.0365 32.4634 32.207 33.3671 31.3973 33.757C30.5878 34.147 29.3639 34.2322 28.3573 33.3019C27.304 32.3285 25.9342 31.7926 24.5001 31.7926C23.066 31.7926 21.696 32.3286 20.6427 33.3019C19.6361 34.2321 18.4123 34.1469 17.6028 33.757C16.7932 33.3671 15.9636 32.4634 16.0632 31.0965C16.1676 29.666 15.7327 28.2608 14.8384 27.1397C13.9443 26.0184 12.6711 25.2815 11.2535 25.065C9.89862 24.858 9.20225 23.8481 9.00228 22.972C8.80231 22.0959 8.99159 20.8838 10.1224 20.1095C11.3057 19.2993 12.1331 18.083 12.4524 16.6849C12.7716 15.2868 12.5537 13.832 11.8391 12.5885C11.1563 11.4002 11.5116 10.226 12.0718 9.52341C12.6322 8.82094 13.6978 8.21326 15.0083 8.61441C16.3795 9.03441 17.8464 8.92294 19.1383 8.30072C20.4305 7.67851 21.432 6.60123 21.9587 5.26726C22.4618 3.99264 23.6014 3.53842 24.5 3.53842C25.3986 3.53842 26.5383 3.99264 27.0414 5.26745C27.568 6.60142 28.5696 7.6787 29.8618 8.30101C31.1539 8.92322 32.6207 9.03469 33.9919 8.61469C35.3019 8.21316 36.3678 8.82104 36.9283 9.52369C37.4885 10.2263 37.8439 11.4005 37.161 12.5887C36.4463 13.8322 36.2286 15.287 36.5478 16.6851C36.867 18.0833 37.6943 19.2995 38.8777 20.1098C40.0086 20.8841 40.1978 22.0962 39.9978 22.9722Z" fill="#00518F"/>
<path d="M24.5005 8.38159C18.4114 8.38159 13.4575 13.3354 13.4575 19.4245C13.4575 25.5136 18.4112 30.4675 24.5005 30.4675C30.5897 30.4675 35.5433 25.5137 35.5433 19.4245C35.5433 13.3353 30.5895 8.38159 24.5005 8.38159ZM24.5005 27.5166C20.0385 27.5166 16.4084 23.8865 16.4084 19.4246C16.4084 14.9627 20.0384 11.3326 24.5005 11.3326C28.9625 11.3326 32.5925 14.9627 32.5925 19.4246C32.5924 23.8865 28.9624 27.5166 24.5005 27.5166Z" fill="#00518F"/>
<path d="M29.5103 16.9277C29.0298 16.2698 28.107 16.1257 27.4486 16.6064L23.3201 19.6219L22.5861 18.5767C22.1177 17.9097 21.1972 17.7489 20.5307 18.2172C19.8637 18.6855 19.7029 19.6058 20.1712 20.2726L21.7691 22.5478C21.9967 22.8719 22.3451 23.0909 22.736 23.1555C22.816 23.1687 22.8965 23.1753 22.9765 23.1753C23.2872 23.1753 23.5926 23.077 23.8468 22.8913L29.1891 18.9893C29.8471 18.5088 29.9909 17.5857 29.5103 16.9277Z" fill="#00518F"/>
</g>
<defs>
<clipPath id="clip0_34_1850">
<rect width="48" height="48" fill="white" transform="translate(0.5 0.587646)"/>
</clipPath>
</defs>
</svg>
