<svg width="69" height="68" viewBox="0 0 69 68" fill="none" xmlns="http://www.w3.org/2000/svg">
<g clip-path="url(#clip0_32_356)">
<path d="M9.85939 36.4568V56.0953H34.9648V46.9971C34.9648 46.833 34.9578 46.6688 34.9648 46.5057C35.0043 45.9135 35.3784 45.5318 35.9157 45.5258C36.4529 45.5197 36.8527 45.8923 36.8863 46.4825C36.9111 46.9105 36.8943 47.3426 36.8943 47.7726V56.1315C37.5147 56.1315 38.0915 56.1245 38.6684 56.1315C39.4234 56.1436 39.7856 56.4981 39.7885 57.2585C39.7935 58.0772 39.8479 58.9081 39.7381 59.7128C39.3927 62.2628 37.4068 63.9919 34.8618 63.995C26.5501 64.003 18.2384 64.003 9.92667 63.995C9.60535 63.9937 9.28478 63.963 8.96885 63.9033C7.86983 63.7039 6.87344 63.1209 6.15108 62.2546C5.42872 61.3884 5.02554 60.293 5.01088 59.1569C4.99901 58.5425 5.00198 57.9282 5.01088 57.3139C5.01979 56.48 5.36512 56.1396 6.19827 56.1315C6.73952 56.1315 7.28078 56.1315 7.90514 56.1315V35.909C7.90514 34.778 8.18319 34.499 9.29043 34.499C12.0877 34.499 14.886 34.499 17.6833 34.499C18.1958 34.499 18.6015 34.6551 18.7787 35.1758C19.0102 35.8516 18.5372 36.4588 17.7615 36.4659C16.2921 36.479 14.8227 36.4659 13.3533 36.4659L9.85939 36.4568ZM11.7523 62.0211C11.8215 61.2154 11.5267 60.1458 12.6765 60.1015C13.9628 60.0532 13.6293 61.2295 13.7214 61.9808H31.0761C31.1483 60.5124 31.3333 60.0673 31.9785 60.0844C33.2925 60.1086 32.9561 61.2053 33.056 61.9767C37.198 62.5588 38.1549 60.2939 37.7927 58.1347H6.94237C6.94237 58.5375 6.92554 58.9051 6.94237 59.2697C7.02449 60.7048 8.16142 61.9103 9.57343 62.012C10.275 62.0623 10.9805 62.0211 11.7523 62.0211Z" fill="#00518F"/>
<path d="M33.9871 28.1261L21.8797 38.2887C22.0252 38.5556 22.1637 38.8185 22.3101 39.0763C22.9335 40.175 23.5628 41.2707 24.1842 42.3705C24.6157 43.1329 24.5424 43.719 23.9863 44.0282C23.4303 44.3374 22.9226 44.0886 22.4912 43.3313C21.756 42.0422 21.0238 40.7511 20.256 39.4036C19.0458 40.1287 17.8416 40.7873 16.7067 41.5527C15.9388 42.0714 15.7587 43.1369 16.2119 43.9798C16.8393 45.1461 17.4903 46.2962 18.1741 47.4342C18.7153 48.3295 19.7256 48.5893 20.6577 48.1452C20.6948 48.1295 20.7308 48.1114 20.7656 48.0908C24.7176 45.3787 29.292 44.1148 33.6586 42.3725C35.9216 41.4661 38.2103 40.6292 40.5475 39.7369C40.4257 39.5133 40.3248 39.324 40.2189 39.1327C38.9438 36.8841 37.6677 34.6346 36.3906 32.3841C36.0067 31.7023 36.2026 31.0195 36.8191 30.812C37.3316 30.6398 37.7462 30.8402 38.0965 31.4566C39.305 33.5815 40.5108 35.7085 41.7141 37.8375C42.0258 38.3874 42.3404 38.9353 42.6472 39.4882C43.134 40.3684 42.9519 40.8981 42.0208 41.2506C38.0529 42.77 34.0848 44.2867 30.1162 45.8007C29.3652 46.0877 28.6162 46.3767 27.8038 46.6889C28.4074 47.7665 29.011 48.7958 29.5681 49.8502C30.4052 51.4384 29.7383 53.3449 28.1422 54.0085C26.8005 54.5655 25.3152 54.0559 24.5365 52.7396C23.8824 51.6368 23.264 50.5119 22.5961 49.3396C20.7378 50.6207 18.9023 50.8321 17.1114 49.2248C16.7532 49.4262 16.4088 49.6337 16.0506 49.815C14.6139 50.5401 12.9476 50.0355 12.1778 48.6508C11.4079 47.266 11.8492 45.564 13.2138 44.6838C13.3117 44.6119 13.4164 44.5501 13.5264 44.4995C14.039 44.2981 14.1963 44.0111 14.1201 43.3917C13.946 41.9455 14.5268 40.7571 15.6677 39.8668C15.7455 39.8017 15.8294 39.7443 15.918 39.6956C20.1164 37.619 23.4718 34.3681 27.0379 31.4132C29.1762 29.6418 31.2927 27.8431 33.4211 26.0585C34.19 25.414 34.7362 25.5086 35.2388 26.3727C35.505 26.8309 35.7751 27.2872 36.0225 27.7555C36.3194 28.3194 36.2016 28.8693 35.7405 29.1604C35.2458 29.4705 34.7134 29.3134 34.3552 28.7475C34.2454 28.5702 34.1464 28.393 33.9871 28.1261ZM25.9277 47.409L24.2664 48.3829C24.9432 49.5723 25.5705 50.7093 26.2355 51.8231C26.5155 52.2914 27.0627 52.3921 27.506 52.1404C27.6131 52.0821 27.7079 52.0029 27.7849 51.9073C27.8619 51.8117 27.9195 51.7015 27.9546 51.5831C27.9896 51.4647 28.0013 51.3405 27.989 51.2175C27.9767 51.0945 27.9407 50.9752 27.883 50.8664C27.2665 49.7233 26.6075 48.6054 25.9277 47.409ZM15.9734 47.5299C15.6479 46.9568 15.3412 46.4221 15.0384 45.8873C13.7758 46.5359 13.4552 47.0374 13.8342 47.692C14.2131 48.3466 14.8533 48.3073 15.9734 47.5299Z" fill="#00518F"/>
<path d="M54.2954 4.98091C56.1676 4.98091 58.0387 4.98091 59.9108 4.98091C61.7621 4.98594 62.9842 6.21561 62.9871 8.09184C62.9937 11.9188 62.9937 15.7495 62.9871 19.5839C62.9871 21.4289 61.7631 22.6787 59.9603 22.6827C56.1758 22.6894 52.3917 22.6894 48.6078 22.6827C46.8396 22.6827 45.6057 21.4238 45.5958 19.6302C45.5859 17.7862 45.5958 15.9432 45.5958 14.0992C45.5958 13.3137 45.9412 12.8675 46.5398 12.8534C47.1592 12.8393 47.5293 13.3026 47.5293 14.1183C47.5293 15.9009 47.5293 17.6835 47.5293 19.466C47.5293 20.3825 47.8637 20.7158 48.7751 20.7168C52.4593 20.7168 56.1428 20.7168 59.8257 20.7168C60.7271 20.7168 61.0566 20.3764 61.0576 19.4509C61.0576 15.7018 61.0576 11.9527 61.0576 8.20363C61.0576 7.28314 60.7261 6.94878 59.8168 6.94878C56.1326 6.94878 52.449 6.94878 48.7662 6.94878C47.8578 6.94878 47.5352 7.28213 47.5293 8.20766C47.5293 8.74041 47.5392 9.27317 47.5293 9.80492C47.5115 10.4636 47.0999 10.8956 46.5349 10.8765C45.9906 10.8583 45.6176 10.4414 45.6038 9.80391C45.5899 9.16641 45.5889 8.53396 45.6038 7.89948C45.61 7.12361 45.9181 6.38189 46.4606 5.83675C47.0031 5.29161 47.7357 4.98749 48.498 4.99098C50.4305 4.96782 52.363 4.98191 54.2954 4.98091Z" fill="#00518F"/>
<path d="M45.5939 44.3293C45.5939 42.4239 45.5939 40.5184 45.5939 38.613C45.5939 36.7076 46.8119 35.4759 48.7028 35.4739C52.4266 35.4739 56.1504 35.4739 59.8742 35.4739C61.7681 35.4739 62.9802 36.6965 62.9871 38.609C62.9931 40.4332 62.9931 42.2564 62.9871 44.0785C62.9871 44.852 62.622 45.3042 62.0214 45.3042C61.4208 45.3042 61.0586 44.853 61.0566 44.0785C61.0566 42.2758 61.0566 40.4731 61.0566 38.6704C61.0566 37.7882 60.7162 37.4428 59.8504 37.4418C56.1471 37.4418 52.4434 37.4418 48.7394 37.4418C47.8697 37.4418 47.5313 37.7842 47.5303 38.6664C47.5263 42.435 47.5263 46.2042 47.5303 49.9741C47.5303 50.8603 47.8677 51.2088 48.7296 51.2098C52.4335 51.2098 56.1372 51.2098 59.8406 51.2098C60.7123 51.2098 61.0487 50.8654 61.0576 49.9902C61.0576 49.4373 61.0467 48.8824 61.0576 48.3305C61.0754 47.7001 61.4623 47.2872 62.0105 47.2811C62.5587 47.2751 62.9644 47.684 62.9802 48.3124C62.998 49.0083 63.0079 49.7062 62.9753 50.4011C62.905 51.8916 61.7077 53.1495 60.2423 53.1616C56.2777 53.1958 52.3125 53.1958 48.3466 53.1616C46.808 53.1485 45.6097 51.8272 45.5958 50.2279C45.581 48.263 45.5949 46.2962 45.5939 44.3293Z" fill="#00518F"/>
<path d="M18.5392 22.7482C18.5392 25.2478 18.5392 27.7474 18.5392 30.247C18.5392 31.2098 18.2166 31.5371 17.2697 31.5381C13.6059 31.5381 9.94186 31.5381 6.27744 31.5381C5.33149 31.5381 5.01089 31.2108 5.01089 30.246C5.01089 25.2058 5.01089 20.165 5.01089 15.1234C5.01089 14.1586 5.3305 13.8353 6.27843 13.8343C9.94351 13.8343 13.6079 13.8343 17.2717 13.8343C18.2176 13.8343 18.5382 14.1606 18.5392 15.1254C18.5392 17.6667 18.5392 20.2076 18.5392 22.7482ZM16.58 15.8455H6.98492V29.5421H16.5751L16.58 15.8455Z" fill="#00518F"/>
<path d="M20.4677 12.8383C20.4875 7.93171 24.4019 3.97582 29.2059 3.99999C30.3502 4.00618 31.4821 4.24208 32.5367 4.69418C33.5912 5.14628 34.5478 5.80569 35.3516 6.63465C36.1554 7.46361 36.7907 8.44583 37.2209 9.52504C37.6512 10.6043 37.868 11.7593 37.859 12.9239C37.8382 17.7952 33.8922 21.731 29.0595 21.7008C24.3287 21.6716 20.4479 17.6694 20.4677 12.8383ZM35.9265 12.8433C35.9265 9.05462 32.8848 5.95779 29.1733 5.96585C28.2814 5.96544 27.3983 6.14433 26.5746 6.49223C25.7509 6.84014 25.0028 7.35022 24.3733 7.99317C23.7438 8.63613 23.2452 9.39931 22.9063 10.2389C22.5674 11.0785 22.3947 11.9779 22.3982 12.8856C22.3982 16.63 25.4429 19.7279 29.1268 19.7339C30.0181 19.7382 30.9016 19.5631 31.7263 19.2189C32.551 18.8747 33.3009 18.3681 33.9327 17.7281C34.5645 17.0881 35.0659 16.3274 35.4081 15.4896C35.7502 14.6519 35.9264 13.7536 35.9265 12.8464V12.8433Z" fill="#00518F"/>
<path d="M58.1555 44.3082C58.1588 45.0853 57.9358 45.8461 57.5146 46.4943C57.0934 47.1426 56.493 47.6493 55.7891 47.9505C55.0852 48.2517 54.3094 48.3339 53.5596 48.1867C52.8099 48.0395 52.1198 47.6695 51.5765 47.1234C51.0332 46.5773 50.661 45.8796 50.507 45.1184C50.353 44.3572 50.424 43.5666 50.7111 42.8465C50.9982 42.1264 51.4885 41.5089 52.1201 41.0722C52.7517 40.6354 53.4963 40.3989 54.2598 40.3926C54.7683 40.3891 55.2724 40.4877 55.7434 40.6826C56.2144 40.8776 56.6431 41.1651 57.0049 41.5287C57.3667 41.8924 57.6545 42.325 57.8519 42.8019C58.0493 43.2788 58.1525 43.7907 58.1555 44.3082ZM54.2856 42.3604C53.9033 42.3617 53.53 42.4784 53.2131 42.6959C52.8961 42.9133 52.6498 43.2217 52.5053 43.5819C52.3608 43.9421 52.3247 44.3378 52.4015 44.719C52.4783 45.1001 52.6646 45.4494 52.9368 45.7225C53.2089 45.9957 53.5547 46.1805 53.9302 46.2534C54.3056 46.3262 54.6939 46.284 55.0458 46.1319C55.3976 45.9799 55.6971 45.7249 55.9064 45.3993C56.1156 45.0737 56.2251 44.6922 56.221 44.3031C56.2132 43.7857 56.006 43.292 55.6439 42.9286C55.2819 42.5652 54.7941 42.3612 54.2856 42.3604Z" fill="#00518F"/>
<path d="M54.2915 12.8262C55.8005 12.8997 56.2022 13.1153 56.219 13.8102C56.2358 14.5051 55.8232 14.7437 54.2915 14.8505C54.2915 15.776 54.2915 16.7096 54.2915 17.6442C54.2915 18.2082 54.0471 18.5939 53.4999 18.7268C52.9062 18.8698 52.3748 18.3965 52.361 17.7056C52.3422 16.767 52.361 15.8284 52.361 14.8555C51.5694 14.7357 50.4443 15.0851 50.4622 13.8112C50.48 12.5885 51.5664 12.9179 52.362 12.8242C52.362 12.4486 52.3521 12.1051 52.362 11.7627C52.3863 11.0173 52.6878 10.3092 53.2053 9.78125C53.7229 9.25333 54.4181 8.94505 55.1504 8.91867C55.7935 8.89651 56.4367 8.90356 57.0828 8.91867C57.729 8.93377 58.1594 9.33762 58.1495 9.9157C58.1396 10.4938 57.7191 10.8664 57.0492 10.8805C56.5663 10.8906 56.0825 10.8805 55.5996 10.8805C54.5844 10.8805 54.2865 11.1957 54.2885 12.2502L54.2915 12.8262Z" fill="#00518F"/>
<path d="M44.6835 33.506C44.0413 33.498 43.6238 33.1475 43.5644 32.6188C43.507 32.1061 43.8553 31.662 44.4282 31.5432C45.9837 31.2189 47.5405 30.8993 49.0986 30.5844C49.7913 30.4454 50.2949 30.7355 50.4157 31.3186C50.5443 31.9349 50.2059 32.3932 49.4717 32.5493C47.9756 32.8675 46.4775 33.1717 44.9794 33.4788C44.8814 33.4943 44.7826 33.5034 44.6835 33.506Z" fill="#00518F"/>
<path d="M37.7541 24.7422C37.9223 24.3887 37.9886 24.1692 38.1153 23.996C39.0335 22.7324 39.959 21.4745 40.8918 20.2224C41.2925 19.6856 41.8467 19.5889 42.3048 19.9404C42.7629 20.2919 42.8253 20.8518 42.4265 21.4027C41.5102 22.6676 40.5844 23.9251 39.649 25.1753C39.3522 25.5671 38.9415 25.8017 38.4972 25.5439C38.1905 25.3666 37.9876 25.0031 37.7541 24.7422Z" fill="#00518F"/>
<path d="M45.7027 24.5338C45.9659 24.7936 46.3103 25.0141 46.4804 25.3304C46.71 25.7594 46.4963 26.1703 46.1292 26.4543C44.8834 27.4161 43.6347 28.3748 42.3741 29.3175C41.8457 29.7133 41.2797 29.6277 40.9452 29.1483C40.6246 28.6901 40.7177 28.1412 41.2173 27.7524C42.0267 27.117 42.852 26.5016 43.6703 25.8772C44.0869 25.559 44.4965 25.2297 44.925 24.9275C45.1159 24.7926 45.3445 24.712 45.7027 24.5338Z" fill="#00518F"/>
<path d="M11.7285 23.6687C11.125 23.6687 10.5204 23.6807 9.91679 23.6687C9.2944 23.6525 8.88673 23.2658 8.87486 22.7089C8.862 22.1288 9.28154 21.7169 9.93658 21.7099C11.1649 21.6971 12.3928 21.6971 13.6205 21.7099C14.2428 21.7159 14.6505 22.1127 14.6634 22.6666C14.6753 23.2427 14.2518 23.6536 13.6007 23.6687C12.9763 23.6797 12.3519 23.6687 11.7285 23.6687Z" fill="#00518F"/>
<path d="M11.7562 27.6034C11.1526 27.6034 10.5481 27.6145 9.94447 27.6034C9.28646 27.5883 8.86692 27.1885 8.87484 26.6094C8.88275 26.0303 9.30131 25.6476 9.96921 25.6426C11.1777 25.6325 12.3855 25.6325 13.5927 25.6426C14.2497 25.6496 14.6713 26.0565 14.6634 26.6346C14.6554 27.2126 14.2369 27.5913 13.568 27.6034C12.9644 27.6125 12.3598 27.6034 11.7562 27.6034Z" fill="#00518F"/>
<path d="M12.7012 19.7309C12.3786 19.7309 12.0551 19.7511 11.7355 19.7259C11.1962 19.6836 10.8232 19.2848 10.8113 18.7742C10.8064 18.6454 10.827 18.517 10.8719 18.3965C10.9169 18.2761 10.9852 18.1661 11.0729 18.0731C11.1605 17.9801 11.2657 17.9061 11.3821 17.8554C11.4985 17.8047 11.6237 17.7785 11.7503 17.7781C12.4133 17.751 13.0792 17.751 13.7422 17.7781C13.9874 17.7826 14.2212 17.8842 14.394 18.0613C14.5667 18.2385 14.6648 18.4772 14.6673 18.7268C14.6802 19.2606 14.2933 19.6866 13.7273 19.7259C13.383 19.7511 13.0386 19.7309 12.7012 19.7309Z" fill="#00518F"/>
<path d="M26.2661 12.8373C26.2661 11.9158 26.2562 10.9943 26.2661 10.0728C26.279 9.09593 26.9459 8.67093 27.8137 9.10499C29.6522 10.0245 31.4926 10.943 33.3034 11.9168C33.6062 12.079 33.8813 12.4949 33.9574 12.8413C34.0564 13.3036 33.6942 13.6138 33.2876 13.8202C31.453 14.7488 29.6264 15.6904 27.786 16.6099C26.9499 17.0268 26.282 16.6039 26.2671 15.6622C26.2523 14.7206 26.2661 13.7789 26.2661 12.8373ZM28.2154 14.2019L30.8554 12.8464L28.2154 11.5029V14.2019Z" fill="#00518F"/>
</g>
<defs>
<clipPath id="clip0_32_356">
<rect width="58" height="60" fill="white" transform="translate(5 4)"/>
</clipPath>
</defs>
</svg>
