<svg width="49" height="49" viewBox="0 0 49 49" fill="none" xmlns="http://www.w3.org/2000/svg">
<g clip-path="url(#clip0_34_1971)">
<path d="M14.396 43.7126L14.3755 43.7048C13.8374 43.501 13.5236 43.0933 13.2788 42.6125L13.2787 42.6123C12.6975 41.4658 12.1026 40.3266 11.5073 39.1863C11.2793 38.7497 11.0513 38.3129 10.8239 37.8755C10.7542 37.7606 10.6977 37.6378 10.6556 37.5097L10.6528 37.5011L10.6531 37.501C10.6124 37.3379 10.6122 37.1769 10.6699 37.0321C10.7283 36.8856 10.8407 36.7691 11.0001 36.6876C11.159 36.6063 11.3185 36.5831 11.47 36.6242C11.6197 36.6648 11.7459 36.7638 11.8489 36.8974L11.8534 36.9033L11.8533 36.9034C11.9273 37.0122 11.992 37.1273 12.0467 37.2475C12.2448 37.6291 12.4433 38.0106 12.6419 38.3922C13.276 39.611 13.9104 40.8303 14.5348 42.0546L14.5348 42.0547C14.6114 42.2049 14.6631 42.2566 14.7042 42.2722C14.7386 42.2852 14.8045 42.286 14.9562 42.1996L14.957 42.1991C15.8842 41.6797 16.8271 41.1881 17.7738 40.7077C17.9091 40.639 17.9432 40.589 17.9521 40.5557C17.9621 40.518 17.9538 40.4529 17.8834 40.3199L17.883 40.3193C16.4381 37.5562 15.0005 34.789 13.5702 32.0175L13.5702 32.0174C13.5031 31.8871 13.4557 31.854 13.4259 31.8454C13.394 31.8361 13.337 31.8409 13.2146 31.9049L13.2145 31.9049C12.2518 32.4066 11.2838 32.8992 10.3105 33.3825C10.1903 33.4428 10.1546 33.4865 10.1446 33.5149C10.136 33.5396 10.1343 33.5906 10.1994 33.7052L10.1996 33.7057C10.4297 34.1152 10.6428 34.5342 10.8512 34.9526L14.396 43.7126ZM14.396 43.7126L14.418 43.7129M14.396 43.7126L14.418 43.7129M14.418 43.7129L15.0108 43.7211L15.0428 43.7215L15.071 43.7065C15.3788 43.5436 15.6847 43.3789 15.9902 43.2145C16.7595 42.8005 17.5257 42.3881 18.3091 42.0091M14.418 43.7129L18.3091 42.0091M28.3935 38.1632C26.6166 38.2979 24.8379 38.404 23.059 38.5102C22.7266 38.5301 22.3942 38.5499 22.0618 38.5699C21.0257 38.6323 20.1223 39.0776 19.2228 39.521C19.1453 39.5592 19.0678 39.5974 18.9902 39.6353M28.3935 38.1632L28.4017 38.288C28.4019 38.2879 28.4021 38.2879 28.4023 38.2879M28.3935 38.1632L28.403 38.2879C28.4027 38.2879 28.4025 38.2879 28.4023 38.2879M28.3935 38.1632C29.2 38.1106 30.0011 37.9928 30.7893 37.811C32.1867 37.4705 33.3158 36.6231 34.4419 35.778C34.7292 35.5624 35.0163 35.3469 35.3076 35.14C35.4385 35.0473 35.4974 34.7233 35.46 34.5353M28.4023 38.2879C26.6245 38.4226 24.8449 38.5289 23.0661 38.635C22.7338 38.6549 22.4015 38.6747 22.0693 38.6947L22.0693 38.6947C21.0596 38.7554 20.1784 39.1895 19.2747 39.6348C19.2227 39.6604 19.1707 39.686 19.1186 39.7116M28.4023 38.2879C29.2153 38.2348 30.0229 38.1161 30.8174 37.9328L30.8189 37.9325C31.7156 37.714 32.5007 37.2922 33.238 36.8009C33.6731 36.5111 34.0998 36.191 34.5227 35.8737C34.8097 35.6584 35.0949 35.4444 35.3799 35.242M19.1186 39.7116C19.1149 39.705 19.1111 39.6984 19.1072 39.6918L19.1077 39.6899C19.1099 39.6791 19.1125 39.6655 19.1144 39.6501L18.9902 39.6353M19.1186 39.7116C19.3588 40.1332 19.427 40.5732 19.3004 40.9771C19.1685 41.3978 18.8322 41.7575 18.3091 42.0091M19.1186 39.7116C19.0942 39.7236 19.0697 39.7356 19.0452 39.7476L19.0214 39.699L18.9804 39.7231M18.9902 39.6353L19.0211 39.6984M18.9902 39.6353C18.9884 39.6505 18.9854 39.6642 18.9827 39.6763C18.9781 39.6972 18.9746 39.7131 18.9804 39.7231M19.0211 39.6984L15.0125 43.5961C15.3186 43.434 15.6236 43.2699 15.9285 43.1058C16.6989 42.6911 17.4688 42.2768 18.2549 41.8965M19.0211 39.6984L18.9804 39.7231M19.0211 39.6984L18.3091 42.0091M18.9804 39.7231C19.4823 40.5509 19.2556 41.4152 18.2549 41.8965M18.2549 41.8965L18.3091 42.0091M18.2549 41.8965L18.3093 42.009C18.3092 42.009 18.3092 42.0091 18.3091 42.0091M35.3799 35.242L21.7135 34.3679H21.9377C24.6132 34.3625 27.2886 34.3625 29.9637 34.3679C30.8391 34.3779 31.699 34.1315 32.4412 33.6579M35.3799 35.242L35.3077 35.1402L35.38 35.2419C35.38 35.242 35.3799 35.242 35.3799 35.242ZM35.46 34.5353L35.5826 34.511C35.5826 34.511 35.5826 34.5109 35.5826 34.5108C35.5354 34.2725 35.3707 34.1144 35.1628 34.0592C34.9588 34.005 34.7221 34.0512 34.5156 34.1941C33.9805 34.5619 33.4507 34.9385 32.9221 35.3144C32.7876 35.4099 32.6532 35.5055 32.5189 35.6008C31.6573 36.2114 30.7311 36.6677 29.7044 36.7596L29.7043 36.7596C28.082 36.9057 26.4564 37.0131 24.8295 37.1207C24.3217 37.1542 23.8138 37.1878 23.3058 37.2226C23.1641 37.2322 23.0215 37.2408 22.8784 37.2494C21.8446 37.3118 20.7839 37.3757 19.7931 37.8512L19.7931 37.8512C19.4976 37.9931 19.2003 38.1305 18.8973 38.2705C18.7543 38.3365 18.6101 38.4032 18.4642 38.4712L15.286 32.3498C15.5755 32.1985 15.8609 32.0468 16.1442 31.8962C16.8969 31.4962 17.6344 31.1043 18.3909 30.7498L18.3911 30.7497C18.9928 30.4664 19.6187 30.5972 20.1669 31.0103C20.8619 31.5342 21.6287 31.7572 22.4778 31.7436M35.46 34.5353C35.385 34.1561 34.9482 34.0464 34.5864 34.2971L35.46 34.5353ZM22.4778 31.7436C22.4778 31.7436 22.4778 31.7436 22.4778 31.7436L22.4758 31.6186L22.4778 31.7436ZM22.4778 31.7436C23.2361 31.7319 23.9938 31.733 24.7508 31.7467L24.7517 31.7467C25.1323 31.751 25.3959 32.0235 25.4115 32.3793C25.4269 32.7314 25.1837 33.0257 24.8068 33.0807M24.8068 33.0807C24.6894 33.0923 24.5714 33.0961 24.4535 33.0918L24.4535 33.0917L24.4483 33.0917C24.1462 33.0934 23.8438 33.0943 23.5412 33.0952C22.9353 33.097 22.3287 33.0988 21.7223 33.1068M24.8068 33.0807C24.8076 33.0806 24.8085 33.0805 24.8094 33.0804L24.8219 33.2048M24.8068 33.0807C24.8059 33.0808 24.8051 33.0809 24.8042 33.081L24.8219 33.2048M21.7223 33.1068C21.7223 33.1068 21.7223 33.1068 21.7223 33.1068L21.7239 33.2317L21.7223 33.1068ZM21.7223 33.1068C21.3085 33.112 21.0179 33.404 21.0141 33.7895C21.0103 34.1794 21.3022 34.4584 21.7029 34.4925L21.7028 34.4929H21.7135H21.7139H21.7143H21.7148H21.7152H21.7157H21.7161H21.7165H21.717H21.7174H21.7178H21.7183H21.7187H21.7191H21.7196H21.72H21.7204H21.7209H21.7213H21.7218H21.7222H21.7226H21.7231H21.7235H21.7239H21.7244H21.7248H21.7252H21.7257H21.7261H21.7265H21.727H21.7274H21.7279H21.7283H21.7287H21.7292H21.7296H21.73H21.7305H21.7309H21.7313H21.7318H21.7322H21.7326H21.7331H21.7335H21.734H21.7344H21.7348H21.7353H21.7357H21.7361H21.7366H21.737H21.7374H21.7379H21.7383H21.7388H21.7392H21.7396H21.7401H21.7405H21.7409H21.7414H21.7418H21.7422H21.7427H21.7431H21.7436H21.744H21.7444H21.7449H21.7453H21.7457H21.7462H21.7466H21.747H21.7475H21.7479H21.7484H21.7488H21.7492H21.7497H21.7501H21.7505H21.751H21.7514H21.7519H21.7523H21.7527H21.7532H21.7536H21.754H21.7545H21.7549H21.7553H21.7558H21.7562H21.7567H21.7571H21.7575H21.758H21.7584H21.7588H21.7593H21.7597H21.7602H21.7606H21.761H21.7615H21.7619H21.7623H21.7628H21.7632H21.7636H21.7641H21.7645H21.765H21.7654H21.7658H21.7663H21.7667H21.7671H21.7676H21.768H21.7685H21.7689H21.7693H21.7698H21.7702H21.7706H21.7711H21.7715H21.772H21.7724H21.7728H21.7733H21.7737H21.7741H21.7746H21.775H21.7754H21.7759H21.7763H21.7768H21.7772H21.7776H21.7781H21.7785H21.7789H21.7794H21.7798H21.7803H21.7807H21.7811H21.7816H21.782H21.7824H21.7829H21.7833H21.7838H21.7842H21.7846H21.7851H21.7855H21.7859H21.7864H21.7868H21.7873H21.7877H21.7881H21.7886H21.789H21.7894H21.7899H21.7903H21.7908H21.7912H21.7916H21.7921H21.7925H21.7929H21.7934H21.7938H21.7943H21.7947H21.7951H21.7956H21.796H21.7964H21.7969H21.7973H21.7978H21.7982H21.7986H21.7991H21.7995H21.7999H21.8004H21.8008H21.8013H21.8017H21.8021H21.8026H21.803H21.8035H21.8039H21.8043H21.8048H21.8052H21.8056H21.8061H21.8065H21.807H21.8074H21.8078H21.8083H21.8087H21.8091H21.8096H21.81H21.8105H21.8109H21.8113H21.8118H21.8122H21.8126H21.8131H21.8135H21.814H21.8144H21.8148H21.8153H21.8157H21.8162H21.8166H21.817H21.8175H21.8179H21.8183H21.8188H21.8192H21.8197H21.8201H21.8205H21.821H21.8214H21.8218H21.8223H21.8227H21.8232H21.8236H21.824H21.8245H21.8249H21.8254H21.8258H21.8262H21.8267H21.8271H21.8275H21.828H21.8284H21.8289H21.8293H21.8297H21.8302H21.8306H21.8311H21.8315H21.8319H21.8324H21.8328H21.8332H21.8337H21.8341H21.8346H21.835H21.8354H21.8359H21.8363H21.8368H21.8372H21.8376H21.8381H21.8385H21.8389H21.8394H21.8398H21.8403H21.8407H21.8411H21.8416H21.842H21.8425H21.8429H21.8433H21.8438H21.8442H21.8446H21.8451H21.8455H21.846H21.8464H21.8468H21.8473H21.8477H21.8482H21.8486H21.849H21.8495H21.8499H21.8503H21.8508H21.8512H21.8517H21.8521H21.8525H21.853H21.8534H21.8539H21.8543H21.8547H21.8552H21.8556H21.856H21.8565H21.8569H21.8574H21.8578H21.8582H21.8587H21.8591H21.8596H21.86H21.8604H21.8609H21.8613H21.8618H21.8622H21.8626H21.8631H21.8635H21.8639H21.8644H21.8648H21.8653H21.8657H21.8661H21.8666H21.867H21.8675H21.8679H21.8683H21.8688H21.8692H21.8696H21.8701H21.8705H21.871H21.8714H21.8718H21.8723H21.8727H21.8732H21.8736H21.874H21.8745H21.8749H21.8754H21.8758H21.8762H21.8767H21.8771H21.8775H21.878H21.8784H21.8789H21.8793H21.8797H21.8802H21.8806H21.8811H21.8815H21.8819H21.8824H21.8828H21.8833H21.8837H21.8841H21.8846H21.885H21.8854H21.8859H21.8863H21.8868H21.8872H21.8876H21.8881H21.8885H21.889H21.8894H21.8898H21.8903H21.8907H21.8912H21.8916H21.892H21.8925H21.8929H21.8934H21.8938H21.8942H21.8947H21.8951H21.8955H21.896H21.8964H21.8969H21.8973H21.8977H21.8982H21.8986H21.8991H21.8995H21.8999H21.9004H21.9008H21.9013H21.9017H21.9021H21.9026H21.903H21.9034H21.9039H21.9043H21.9048H21.9052H21.9056H21.9061H21.9065H21.907H21.9074H21.9078H21.9083H21.9087H21.9092H21.9096H21.91H21.9105H21.9109H21.9114H21.9118H21.9122H21.9127H21.9131H21.9135H21.914H21.9144H21.9149H21.9153H21.9157H21.9162H21.9166H21.9171H21.9175H21.9179H21.9184H21.9188H21.9193H21.9197H21.9201H21.9206H21.921H21.9215H21.9219H21.9223H21.9228H21.9232H21.9236H21.9241H21.9245H21.925H21.9254H21.9258H21.9263H21.9267H21.9272H21.9276H21.928H21.9285H21.9289H21.9294H21.9298H21.9302H21.9307H21.9311H21.9316H21.932H21.9324H21.9329H21.9333H21.9337H21.9342H21.9346H21.9351H21.9355H21.9359H21.9364H21.9368H21.9373H21.9377L21.938 34.4929C24.6131 34.4875 27.2881 34.4875 29.9628 34.4929C30.8625 34.5031 31.746 34.2497 32.5085 33.7633L32.4412 33.6579M32.4412 33.6579C32.6703 33.5128 32.8984 33.366 33.1266 33.2192C33.8033 32.7838 34.4801 32.3482 35.1817 31.9583C36.1885 31.398 36.9915 30.6986 37.3877 29.5543C37.5652 29.0416 38.0911 28.8812 38.5285 29.0993C38.9523 29.3105 39.1071 29.7786 38.9063 30.2681C38.6297 30.9658 38.192 31.585 37.6303 32.073M32.4412 33.6579L32.5081 33.7635C32.7389 33.6173 32.9682 33.4698 33.1969 33.3226C33.8728 32.8877 34.5447 32.4554 35.2424 32.0675L35.2425 32.0675C36.264 31.4991 37.0957 30.7795 37.5058 29.5952C37.6559 29.1617 38.0951 29.0229 38.4727 29.2112L38.4727 29.2112C38.829 29.3887 38.9706 29.7821 38.7906 30.2206L38.7901 30.222C38.5209 30.9011 38.095 31.5036 37.5488 31.9782M37.6303 32.073L37.5492 31.9779C37.5491 31.978 37.5489 31.9781 37.5488 31.9782M37.6303 32.073C37.3892 32.2788 37.1322 32.4653 36.8751 32.652C36.747 32.745 36.6189 32.838 36.4926 32.9334C36.1738 33.1735 36.0946 33.5094 36.2881 33.7857C36.4742 34.0508 36.8004 34.096 37.1155 33.8804C37.4559 33.6472 37.795 33.4091 38.1181 33.1515M37.6303 32.073L37.5484 31.9786C37.5485 31.9785 37.5486 31.9784 37.5488 31.9782M37.5488 31.9782C37.3114 32.1809 37.0616 32.3622 36.807 32.5469C36.678 32.6405 36.5477 32.7351 36.4172 32.8337M24.8219 33.2048C25.2605 33.1421 25.5548 32.7943 25.5364 32.3738C25.5179 31.9533 25.2016 31.6268 24.7531 31.6218L24.8219 33.2048ZM34.3149 27.3659C35.1026 27.3201 36.0347 27.8309 36.2733 28.9291C36.2748 28.9267 36.2764 28.9244 36.2779 28.9221C36.3102 28.8743 36.3391 28.8313 36.3671 28.786M34.3149 27.3659L36.4172 32.8337M34.3149 27.3659C33.3652 27.421 32.7343 28.0809 32.5334 29.1952L34.3149 27.3659ZM36.3671 28.786C36.3819 28.841 36.395 28.8974 36.4063 28.9553C36.4316 28.9175 36.4556 28.8809 36.4785 28.8436C37.0363 27.9324 38.1371 27.609 39.0525 28.0872C39.9678 28.5653 40.3597 29.6614 39.961 30.6566M36.3671 28.786C36.3688 28.7834 36.3704 28.7808 36.372 28.7782M36.3671 28.786C36.0756 27.7026 35.1224 27.1937 34.3076 27.2411C33.8036 27.2703 33.3783 27.4613 33.0536 27.7964C32.7304 28.1298 32.514 28.5984 32.4104 29.173L32.4103 29.1732C32.3897 29.2888 32.3511 29.4036 32.3002 29.5351C32.2822 29.5817 32.2621 29.6316 32.2409 29.6844M39.961 30.6566C39.5731 31.6395 38.9373 32.5002 38.1181 33.1515M39.961 30.6566L40.0771 30.7031C40.0771 30.703 40.0772 30.7029 40.0772 30.7028M39.961 30.6566L40.0773 30.7025C40.0773 30.7026 40.0772 30.7027 40.0772 30.7028M38.1181 33.1515L38.1959 33.2494M38.1181 33.1515L38.196 33.2493C38.196 33.2493 38.1959 33.2493 38.1959 33.2494M36.4172 32.8337C36.4173 32.8337 36.4174 32.8336 36.4174 32.8336L36.4926 32.9334L36.4172 32.8337ZM38.1959 33.2494C39.0323 32.5843 39.6813 31.7057 40.0772 30.7028M38.1959 33.2494L10.8513 34.9527C10.9492 35.1492 10.9848 35.344 10.9454 35.521C10.9055 35.7005 10.7919 35.8457 10.6234 35.9446M40.0772 30.7028C40.4984 29.6509 40.0851 28.4856 39.1103 27.9764C38.1336 27.4661 36.9622 27.8141 36.372 28.7782M36.372 28.7782C36.3719 28.7783 36.3719 28.7783 36.3719 28.7783L36.4781 28.8434L36.372 28.7782ZM32.2409 29.6844C31.8638 28.6194 30.9709 27.955 29.954 28.0289L29.954 28.0289C29.3822 28.0707 28.8933 28.2852 28.5214 28.6457C28.1501 29.0055 27.9018 29.5045 27.7986 30.1057M32.2409 29.6844C32.2467 29.701 32.2525 29.7177 32.2581 29.7346L32.2586 29.7359C32.2667 29.7611 32.2764 29.7839 32.2983 29.8355C32.3009 29.8418 32.3038 29.8486 32.3069 29.8558L27.9217 30.1271C28.1208 28.9677 28.8733 28.2332 29.9631 28.1536C30.9282 28.0834 31.7876 28.7233 32.1396 29.7743C32.1472 29.7979 32.1565 29.8211 32.1719 29.8577C32.1862 29.8208 32.2005 29.7849 32.2144 29.7501C32.2146 29.7498 32.2147 29.7494 32.2149 29.749C32.2237 29.7271 32.2323 29.7055 32.2408 29.6844C32.2408 29.6844 32.2408 29.6844 32.2409 29.6844ZM27.7986 30.1057C27.7816 30.2037 27.7631 30.3045 27.7346 30.3953C27.7057 30.4876 27.6705 30.5558 27.6286 30.5973L27.6271 30.5988C27.3812 30.8509 27.1131 31.0783 26.8258 31.322C26.7483 31.3878 26.6694 31.4547 26.5891 31.5236M27.7986 30.1057L27.9217 30.1271L27.7985 30.1059C27.7985 30.1059 27.7986 30.1058 27.7986 30.1057ZM26.5891 31.5236C26.3485 31.0724 26.0419 30.7677 25.6769 30.5793C25.2757 30.3722 24.8161 30.3118 24.32 30.3363L24.32 30.3363C23.8976 30.3572 23.4778 30.3523 23.0537 30.3475C22.8199 30.3448 22.5848 30.342 22.3472 30.3436L22.3458 30.3436C21.8729 30.3522 21.4099 30.2026 21.0277 29.9172L21.0267 29.9165C20.459 29.5014 19.869 29.2693 19.2611 29.2247C18.6532 29.1801 18.0364 29.3236 17.4159 29.6458L17.4156 29.6459C16.8715 29.9301 16.3308 30.221 15.791 30.5114C15.5173 30.6587 15.2438 30.8058 14.9703 30.9518L14.9702 30.9519C14.8746 31.003 14.7784 31.051 14.6833 31.0984C14.6733 31.1034 14.6632 31.1084 14.6532 31.1134C14.3897 30.7885 14.1181 30.5671 13.8251 30.4645C13.5029 30.3517 13.1727 30.3887 12.829 30.5569L12.8289 30.5569C11.7073 31.1069 10.5943 31.6736 9.48988 32.257C8.78775 32.6275 8.55025 33.4328 8.89301 34.1499L8.89307 34.15C9.12914 34.6424 9.38658 35.1241 9.64393 35.6016M26.5891 31.5236C26.609 31.5609 26.6284 31.5991 26.6474 31.6384L14.6182 31.2708C14.6571 31.2511 14.697 31.2313 14.7373 31.2111C14.8331 31.1634 14.9319 31.1141 15.0291 31.0621C15.3035 30.9156 15.5773 30.7683 15.8512 30.621C16.3905 30.3308 16.93 30.0406 17.4735 29.7567C18.6806 29.13 19.849 29.2102 20.953 30.0174C21.3572 30.3192 21.8472 30.4777 22.3481 30.4686C22.5807 30.4671 22.8136 30.4697 23.0464 30.4724C23.4734 30.4773 23.9004 30.4822 24.3261 30.4611C25.255 30.4153 26.0073 30.6776 26.492 31.6075C26.5246 31.5792 26.557 31.5512 26.5891 31.5236ZM9.64393 35.6016C9.64391 35.6015 9.64389 35.6015 9.64388 35.6015L9.75402 35.5424L9.64399 35.6017C9.64397 35.6016 9.64395 35.6016 9.64393 35.6016ZM9.64393 35.6016C9.7505 35.8001 9.89939 35.9427 10.0759 36.0063C10.2549 36.0708 10.4471 36.0484 10.6234 35.9446M10.6234 35.9446L10.56 35.8369L10.6233 35.9447C10.6233 35.9447 10.6234 35.9447 10.6234 35.9446ZM30.2488 33.0886C30.8132 33.0563 31.2811 32.8961 31.7208 32.6218C32.515 32.1254 33.31 31.6301 34.1058 31.1358C34.3712 30.9701 34.563 30.8502 34.7048 30.7424C34.8453 30.6357 34.9268 30.548 34.9779 30.4512C35.0291 30.3543 35.0558 30.2366 35.0655 30.0587C35.0752 29.8791 35.067 29.6507 35.0555 29.3351M30.2488 33.0886L35.0555 29.3351M30.2488 33.0886C30.4265 32.9541 30.6005 32.8216 30.772 32.6911C31.3479 32.253 31.8951 31.8366 32.4544 31.4364C33.2132 30.8935 33.6885 30.1874 33.8026 29.23L33.8026 29.23C33.8482 28.8449 34.1324 28.6184 34.4552 28.6369L34.4553 28.6369C34.7897 28.6558 35.0402 28.9217 35.0555 29.3351M30.2488 33.0886L35.0555 29.3351M26.8922 33.1002C26.8331 33.0999 26.7739 33.0997 26.7146 33.0995C26.7682 33.0516 26.819 33.0074 26.8764 32.9666C27.2435 32.7071 27.6139 32.4532 27.9856 32.1987L27.915 32.0955L27.9856 32.1987C28.6485 31.7448 29.0361 31.112 29.1692 30.3144L29.1692 30.3143C29.2243 29.9839 29.3635 29.7412 29.5472 29.5949C29.729 29.4499 29.9654 29.3905 30.2372 29.4444C30.7569 29.5489 31.1339 30.144 31.0069 30.7311L31.0068 30.7314C31.0041 30.744 30.9933 30.7667 30.9669 30.7976C30.9419 30.8269 30.9097 30.8555 30.8777 30.8799C29.9385 31.5891 28.9981 32.2952 28.0564 32.9981L28.0562 32.9978L28.0493 33.0038C27.9946 33.0513 27.9284 33.0823 27.8582 33.0938C27.5365 33.1028 27.2155 33.1015 26.8922 33.1002Z" fill="#00518F" stroke="#00518F" stroke-width="0.25"/>
<mask id="path-2-outside-1_34_1971" maskUnits="userSpaceOnUse" x="15.1434" y="3.59351" width="18" height="19" fill="black">
<rect fill="white" x="15.1434" y="3.59351" width="18" height="19"/>
<path d="M19.6291 20.0304C19.5001 19.952 19.3453 19.8931 19.2359 19.7859C18.8059 19.3648 18.39 18.9261 17.9649 18.4987C17.729 18.2618 17.6909 17.9974 17.8421 17.7047C17.8612 17.6578 17.8842 17.6128 17.9109 17.5699C18.4502 16.8561 18.4533 16.121 17.9723 15.3847C17.8631 15.2154 17.7129 15.0779 17.5361 14.9854C17.2456 14.8469 16.9292 14.763 16.6202 14.6721C16.2836 14.5699 16.1404 14.3425 16.1435 13.9934C16.1478 13.4099 16.1515 12.8258 16.1435 12.2424C16.138 11.8708 16.3057 11.6451 16.6478 11.5424C16.6712 11.5339 16.6953 11.5274 16.7197 11.5229C17.6056 11.4064 18.1431 10.9031 18.3096 10.0082C18.3433 9.82773 18.3532 9.61528 18.2924 9.4492C18.1756 9.13021 18.003 8.83316 17.8488 8.52921C17.6946 8.22526 17.726 7.9702 17.9612 7.73268C18.3851 7.30277 18.8076 6.87222 19.2286 6.44105C19.4479 6.21544 19.693 6.16531 19.9744 6.30632C20.0319 6.33001 20.087 6.3594 20.139 6.39405C20.8559 6.95808 21.5863 6.9211 22.3167 6.43416C22.4553 6.34612 22.5672 6.22049 22.6399 6.0713C22.7762 5.74668 22.8721 5.40387 22.9771 5.06859C23.076 4.74897 23.2794 4.59042 23.6111 4.59355C24.2082 4.59794 24.8053 4.59355 25.4024 4.59355C25.7151 4.59355 25.9203 4.73456 26.0167 5.03913C26.1255 5.3763 26.2139 5.72223 26.3571 6.04185C26.4441 6.20906 26.5727 6.34998 26.73 6.45046C27.4671 6.95808 28.1779 6.90732 28.9102 6.38152C29.3144 6.09198 29.5048 6.16656 29.8611 6.52691C30.2494 6.91985 30.6321 7.31906 31.0228 7.70949C31.2685 7.95578 31.3146 8.22714 31.1542 8.5361C31.1403 8.57154 31.1235 8.60571 31.1039 8.63825C30.5307 9.3765 30.5645 10.1329 31.0553 10.8906C31.1428 11.0314 31.267 11.1445 31.4141 11.2171C31.7446 11.3594 32.0935 11.4578 32.4351 11.575C32.7177 11.6715 32.8565 11.877 32.8577 12.1766C32.8577 12.7983 32.8577 13.42 32.8577 14.0416C32.8577 14.3594 32.7072 14.5681 32.4099 14.6683C32.3393 14.6915 32.2686 14.7172 32.198 14.741C31.0308 15.1371 31.0265 15.1352 30.6425 16.3466C30.6141 16.4763 30.6291 16.612 30.6849 16.7321C30.825 17.0561 30.9884 17.37 31.1487 17.6846C31.3091 17.9992 31.2771 18.2656 31.0295 18.5144C30.6139 18.9322 30.2006 19.3537 29.7899 19.7791C29.5441 20.0297 29.2769 20.0629 28.9771 19.9006C28.9541 19.8909 28.9321 19.8789 28.9114 19.8649C28.1785 19.2702 27.4272 19.3009 26.6716 19.8091C26.5417 19.8894 26.4365 20.0054 26.3681 20.1438C26.2348 20.4703 26.1371 20.8125 26.0346 21.1509C25.932 21.4893 25.7145 21.6523 25.3723 21.6485C24.7875 21.6485 24.2051 21.6485 23.6185 21.6485C23.2959 21.6485 23.0723 21.5037 22.9783 21.1772C22.9592 21.1305 22.9438 21.0823 22.9323 21.0331C22.8303 20.0874 22.2522 19.6048 21.3965 19.4037C21.2482 19.3693 21.0932 19.3795 20.9505 19.4331C20.6433 19.5628 20.3503 19.7371 20.0481 19.8837C19.9258 19.9376 19.7968 19.9715 19.6291 20.0304ZM17.2615 12.5438C17.2615 12.8327 17.2769 13.1116 17.2566 13.3874C17.2394 13.6218 17.3224 13.7502 17.5454 13.7791C18.4595 13.8988 18.9663 14.4571 19.1721 15.3458C19.1721 15.3577 19.1825 15.3684 19.1868 15.3803C19.7397 16.8141 19.7538 16.3253 19.1174 17.6627C19.1008 17.6965 19.0652 17.7316 19.0682 17.763C19.0775 17.8632 19.0682 17.9886 19.1241 18.0575C19.7041 18.7839 19.7071 18.7814 20.5076 18.3671C20.5739 18.3326 20.644 18.3044 20.706 18.2624C20.9831 18.0807 21.2589 18.087 21.555 18.2261C21.9494 18.4141 22.345 18.6053 22.759 18.7331C23.2904 18.8967 23.5724 19.2219 23.7131 19.7715C23.9035 20.5161 23.9385 20.4929 24.7101 20.5092C24.9841 20.5154 25.1346 20.4333 25.1702 20.1601C25.2826 19.2921 25.7735 18.7857 26.5973 18.5933C26.6333 18.5829 26.6675 18.5669 26.6986 18.5457C27.4684 18.0669 28.2264 18.0268 28.9716 18.6084C28.9894 18.6262 29.0125 18.6374 29.0373 18.6403C29.1461 18.6278 29.283 18.6479 29.3574 18.5864C30.0546 18.0017 30.0509 17.9974 29.6455 17.177C29.6123 17.1093 29.5841 17.0385 29.5441 16.974C29.3783 16.7032 29.3758 16.4337 29.5048 16.1423C29.6836 15.7387 29.8734 15.3351 29.9999 14.9127C30.1634 14.3587 30.4853 14.0598 31.04 13.9132C31.752 13.7252 31.7305 13.6863 31.7464 12.9236C31.7526 12.6422 31.685 12.5138 31.4 12.4166C30.1007 11.9735 30.4238 12.2913 29.8783 10.999C29.8709 10.9747 29.8616 10.9511 29.8507 10.9282C29.3752 10.1235 29.2886 9.32637 29.8943 8.54174C29.9206 8.51453 29.9382 8.47977 29.9447 8.4421C29.9447 8.36188 29.9563 8.25973 29.9146 8.20584C29.7075 7.94074 29.4845 7.68881 29.2904 7.45819C28.8801 7.66688 28.5735 7.80663 28.2823 7.97521C28.1603 8.05108 28.0214 8.09415 27.8786 8.1004C27.7359 8.10665 27.5939 8.07587 27.4659 8.01093C26.9542 7.78156 26.4216 7.59418 25.9264 7.33535C25.7082 7.21022 25.5315 7.02146 25.419 6.79326C25.2599 6.47051 25.1831 6.10389 25.0689 5.75169H23.9361C23.823 6.10076 23.7039 6.43353 23.608 6.7732C23.5757 6.90866 23.5101 7.03351 23.4175 7.13601C23.3249 7.23852 23.2082 7.31531 23.0785 7.35917C22.6835 7.5102 22.2799 7.65309 21.9113 7.86052C21.3584 8.17387 20.8713 8.11496 20.3423 7.79034C19.8017 7.45819 19.8017 7.50895 19.3355 7.93197C19.0431 8.19706 18.9669 8.42643 19.2065 8.75921C19.3306 8.91863 19.4209 9.10258 19.4718 9.29942C19.5216 9.54446 19.5652 9.82836 19.4915 10.0515C19.306 10.6161 19.0827 11.167 18.8231 11.7003C18.7128 11.9042 18.5423 12.0675 18.336 12.1672C18.0018 12.3282 17.6357 12.4172 17.2615 12.5438Z"/>
</mask>
<path d="M19.6291 20.0304C19.5001 19.952 19.3453 19.8931 19.2359 19.7859C18.8059 19.3648 18.39 18.9261 17.9649 18.4987C17.729 18.2618 17.6909 17.9974 17.8421 17.7047C17.8612 17.6578 17.8842 17.6128 17.9109 17.5699C18.4502 16.8561 18.4533 16.121 17.9723 15.3847C17.8631 15.2154 17.7129 15.0779 17.5361 14.9854C17.2456 14.8469 16.9292 14.763 16.6202 14.6721C16.2836 14.5699 16.1404 14.3425 16.1435 13.9934C16.1478 13.4099 16.1515 12.8258 16.1435 12.2424C16.138 11.8708 16.3057 11.6451 16.6478 11.5424C16.6712 11.5339 16.6953 11.5274 16.7197 11.5229C17.6056 11.4064 18.1431 10.9031 18.3096 10.0082C18.3433 9.82773 18.3532 9.61528 18.2924 9.4492C18.1756 9.13021 18.003 8.83316 17.8488 8.52921C17.6946 8.22526 17.726 7.9702 17.9612 7.73268C18.3851 7.30277 18.8076 6.87222 19.2286 6.44105C19.4479 6.21544 19.693 6.16531 19.9744 6.30632C20.0319 6.33001 20.087 6.3594 20.139 6.39405C20.8559 6.95808 21.5863 6.9211 22.3167 6.43416C22.4553 6.34612 22.5672 6.22049 22.6399 6.0713C22.7762 5.74668 22.8721 5.40387 22.9771 5.06859C23.076 4.74897 23.2794 4.59042 23.6111 4.59355C24.2082 4.59794 24.8053 4.59355 25.4024 4.59355C25.7151 4.59355 25.9203 4.73456 26.0167 5.03913C26.1255 5.3763 26.2139 5.72223 26.3571 6.04185C26.4441 6.20906 26.5727 6.34998 26.73 6.45046C27.4671 6.95808 28.1779 6.90732 28.9102 6.38152C29.3144 6.09198 29.5048 6.16656 29.8611 6.52691C30.2494 6.91985 30.6321 7.31906 31.0228 7.70949C31.2685 7.95578 31.3146 8.22714 31.1542 8.5361C31.1403 8.57154 31.1235 8.60571 31.1039 8.63825C30.5307 9.3765 30.5645 10.1329 31.0553 10.8906C31.1428 11.0314 31.267 11.1445 31.4141 11.2171C31.7446 11.3594 32.0935 11.4578 32.4351 11.575C32.7177 11.6715 32.8565 11.877 32.8577 12.1766C32.8577 12.7983 32.8577 13.42 32.8577 14.0416C32.8577 14.3594 32.7072 14.5681 32.4099 14.6683C32.3393 14.6915 32.2686 14.7172 32.198 14.741C31.0308 15.1371 31.0265 15.1352 30.6425 16.3466C30.6141 16.4763 30.6291 16.612 30.6849 16.7321C30.825 17.0561 30.9884 17.37 31.1487 17.6846C31.3091 17.9992 31.2771 18.2656 31.0295 18.5144C30.6139 18.9322 30.2006 19.3537 29.7899 19.7791C29.5441 20.0297 29.2769 20.0629 28.9771 19.9006C28.9541 19.8909 28.9321 19.8789 28.9114 19.8649C28.1785 19.2702 27.4272 19.3009 26.6716 19.8091C26.5417 19.8894 26.4365 20.0054 26.3681 20.1438C26.2348 20.4703 26.1371 20.8125 26.0346 21.1509C25.932 21.4893 25.7145 21.6523 25.3723 21.6485C24.7875 21.6485 24.2051 21.6485 23.6185 21.6485C23.2959 21.6485 23.0723 21.5037 22.9783 21.1772C22.9592 21.1305 22.9438 21.0823 22.9323 21.0331C22.8303 20.0874 22.2522 19.6048 21.3965 19.4037C21.2482 19.3693 21.0932 19.3795 20.9505 19.4331C20.6433 19.5628 20.3503 19.7371 20.0481 19.8837C19.9258 19.9376 19.7968 19.9715 19.6291 20.0304ZM17.2615 12.5438C17.2615 12.8327 17.2769 13.1116 17.2566 13.3874C17.2394 13.6218 17.3224 13.7502 17.5454 13.7791C18.4595 13.8988 18.9663 14.4571 19.1721 15.3458C19.1721 15.3577 19.1825 15.3684 19.1868 15.3803C19.7397 16.8141 19.7538 16.3253 19.1174 17.6627C19.1008 17.6965 19.0652 17.7316 19.0682 17.763C19.0775 17.8632 19.0682 17.9886 19.1241 18.0575C19.7041 18.7839 19.7071 18.7814 20.5076 18.3671C20.5739 18.3326 20.644 18.3044 20.706 18.2624C20.9831 18.0807 21.2589 18.087 21.555 18.2261C21.9494 18.4141 22.345 18.6053 22.759 18.7331C23.2904 18.8967 23.5724 19.2219 23.7131 19.7715C23.9035 20.5161 23.9385 20.4929 24.7101 20.5092C24.9841 20.5154 25.1346 20.4333 25.1702 20.1601C25.2826 19.2921 25.7735 18.7857 26.5973 18.5933C26.6333 18.5829 26.6675 18.5669 26.6986 18.5457C27.4684 18.0669 28.2264 18.0268 28.9716 18.6084C28.9894 18.6262 29.0125 18.6374 29.0373 18.6403C29.1461 18.6278 29.283 18.6479 29.3574 18.5864C30.0546 18.0017 30.0509 17.9974 29.6455 17.177C29.6123 17.1093 29.5841 17.0385 29.5441 16.974C29.3783 16.7032 29.3758 16.4337 29.5048 16.1423C29.6836 15.7387 29.8734 15.3351 29.9999 14.9127C30.1634 14.3587 30.4853 14.0598 31.04 13.9132C31.752 13.7252 31.7305 13.6863 31.7464 12.9236C31.7526 12.6422 31.685 12.5138 31.4 12.4166C30.1007 11.9735 30.4238 12.2913 29.8783 10.999C29.8709 10.9747 29.8616 10.9511 29.8507 10.9282C29.3752 10.1235 29.2886 9.32637 29.8943 8.54174C29.9206 8.51453 29.9382 8.47977 29.9447 8.4421C29.9447 8.36188 29.9563 8.25973 29.9146 8.20584C29.7075 7.94074 29.4845 7.68881 29.2904 7.45819C28.8801 7.66688 28.5735 7.80663 28.2823 7.97521C28.1603 8.05108 28.0214 8.09415 27.8786 8.1004C27.7359 8.10665 27.5939 8.07587 27.4659 8.01093C26.9542 7.78156 26.4216 7.59418 25.9264 7.33535C25.7082 7.21022 25.5315 7.02146 25.419 6.79326C25.2599 6.47051 25.1831 6.10389 25.0689 5.75169H23.9361C23.823 6.10076 23.7039 6.43353 23.608 6.7732C23.5757 6.90866 23.5101 7.03351 23.4175 7.13601C23.3249 7.23852 23.2082 7.31531 23.0785 7.35917C22.6835 7.5102 22.2799 7.65309 21.9113 7.86052C21.3584 8.17387 20.8713 8.11496 20.3423 7.79034C19.8017 7.45819 19.8017 7.50895 19.3355 7.93197C19.0431 8.19706 18.9669 8.42643 19.2065 8.75921C19.3306 8.91863 19.4209 9.10258 19.4718 9.29942C19.5216 9.54446 19.5652 9.82836 19.4915 10.0515C19.306 10.6161 19.0827 11.167 18.8231 11.7003C18.7128 11.9042 18.5423 12.0675 18.336 12.1672C18.0018 12.3282 17.6357 12.4172 17.2615 12.5438Z" fill="#00518F"/>
<path d="M19.6291 20.0304C19.5001 19.952 19.3453 19.8931 19.2359 19.7859C18.8059 19.3648 18.39 18.9261 17.9649 18.4987C17.729 18.2618 17.6909 17.9974 17.8421 17.7047C17.8612 17.6578 17.8842 17.6128 17.9109 17.5699C18.4502 16.8561 18.4533 16.121 17.9723 15.3847C17.8631 15.2154 17.7129 15.0779 17.5361 14.9854C17.2456 14.8469 16.9292 14.763 16.6202 14.6721C16.2836 14.5699 16.1404 14.3425 16.1435 13.9934C16.1478 13.4099 16.1515 12.8258 16.1435 12.2424C16.138 11.8708 16.3057 11.6451 16.6478 11.5424C16.6712 11.5339 16.6953 11.5274 16.7197 11.5229C17.6056 11.4064 18.1431 10.9031 18.3096 10.0082C18.3433 9.82773 18.3532 9.61528 18.2924 9.4492C18.1756 9.13021 18.003 8.83316 17.8488 8.52921C17.6946 8.22526 17.726 7.9702 17.9612 7.73268C18.3851 7.30277 18.8076 6.87222 19.2286 6.44105C19.4479 6.21544 19.693 6.16531 19.9744 6.30632C20.0319 6.33001 20.087 6.3594 20.139 6.39405C20.8559 6.95808 21.5863 6.9211 22.3167 6.43416C22.4553 6.34612 22.5672 6.22049 22.6399 6.0713C22.7762 5.74668 22.8721 5.40387 22.9771 5.06859C23.076 4.74897 23.2794 4.59042 23.6111 4.59355C24.2082 4.59794 24.8053 4.59355 25.4024 4.59355C25.7151 4.59355 25.9203 4.73456 26.0167 5.03913C26.1255 5.3763 26.2139 5.72223 26.3571 6.04185C26.4441 6.20906 26.5727 6.34998 26.73 6.45046C27.4671 6.95808 28.1779 6.90732 28.9102 6.38152C29.3144 6.09198 29.5048 6.16656 29.8611 6.52691C30.2494 6.91985 30.6321 7.31906 31.0228 7.70949C31.2685 7.95578 31.3146 8.22714 31.1542 8.5361C31.1403 8.57154 31.1235 8.60571 31.1039 8.63825C30.5307 9.3765 30.5645 10.1329 31.0553 10.8906C31.1428 11.0314 31.267 11.1445 31.4141 11.2171C31.7446 11.3594 32.0935 11.4578 32.4351 11.575C32.7177 11.6715 32.8565 11.877 32.8577 12.1766C32.8577 12.7983 32.8577 13.42 32.8577 14.0416C32.8577 14.3594 32.7072 14.5681 32.4099 14.6683C32.3393 14.6915 32.2686 14.7172 32.198 14.741C31.0308 15.1371 31.0265 15.1352 30.6425 16.3466C30.6141 16.4763 30.6291 16.612 30.6849 16.7321C30.825 17.0561 30.9884 17.37 31.1487 17.6846C31.3091 17.9992 31.2771 18.2656 31.0295 18.5144C30.6139 18.9322 30.2006 19.3537 29.7899 19.7791C29.5441 20.0297 29.2769 20.0629 28.9771 19.9006C28.9541 19.8909 28.9321 19.8789 28.9114 19.8649C28.1785 19.2702 27.4272 19.3009 26.6716 19.8091C26.5417 19.8894 26.4365 20.0054 26.3681 20.1438C26.2348 20.4703 26.1371 20.8125 26.0346 21.1509C25.932 21.4893 25.7145 21.6523 25.3723 21.6485C24.7875 21.6485 24.2051 21.6485 23.6185 21.6485C23.2959 21.6485 23.0723 21.5037 22.9783 21.1772C22.9592 21.1305 22.9438 21.0823 22.9323 21.0331C22.8303 20.0874 22.2522 19.6048 21.3965 19.4037C21.2482 19.3693 21.0932 19.3795 20.9505 19.4331C20.6433 19.5628 20.3503 19.7371 20.0481 19.8837C19.9258 19.9376 19.7968 19.9715 19.6291 20.0304ZM17.2615 12.5438C17.2615 12.8327 17.2769 13.1116 17.2566 13.3874C17.2394 13.6218 17.3224 13.7502 17.5454 13.7791C18.4595 13.8988 18.9663 14.4571 19.1721 15.3458C19.1721 15.3577 19.1825 15.3684 19.1868 15.3803C19.7397 16.8141 19.7538 16.3253 19.1174 17.6627C19.1008 17.6965 19.0652 17.7316 19.0682 17.763C19.0775 17.8632 19.0682 17.9886 19.1241 18.0575C19.7041 18.7839 19.7071 18.7814 20.5076 18.3671C20.5739 18.3326 20.644 18.3044 20.706 18.2624C20.9831 18.0807 21.2589 18.087 21.555 18.2261C21.9494 18.4141 22.345 18.6053 22.759 18.7331C23.2904 18.8967 23.5724 19.2219 23.7131 19.7715C23.9035 20.5161 23.9385 20.4929 24.7101 20.5092C24.9841 20.5154 25.1346 20.4333 25.1702 20.1601C25.2826 19.2921 25.7735 18.7857 26.5973 18.5933C26.6333 18.5829 26.6675 18.5669 26.6986 18.5457C27.4684 18.0669 28.2264 18.0268 28.9716 18.6084C28.9894 18.6262 29.0125 18.6374 29.0373 18.6403C29.1461 18.6278 29.283 18.6479 29.3574 18.5864C30.0546 18.0017 30.0509 17.9974 29.6455 17.177C29.6123 17.1093 29.5841 17.0385 29.5441 16.974C29.3783 16.7032 29.3758 16.4337 29.5048 16.1423C29.6836 15.7387 29.8734 15.3351 29.9999 14.9127C30.1634 14.3587 30.4853 14.0598 31.04 13.9132C31.752 13.7252 31.7305 13.6863 31.7464 12.9236C31.7526 12.6422 31.685 12.5138 31.4 12.4166C30.1007 11.9735 30.4238 12.2913 29.8783 10.999C29.8709 10.9747 29.8616 10.9511 29.8507 10.9282C29.3752 10.1235 29.2886 9.32637 29.8943 8.54174C29.9206 8.51453 29.9382 8.47977 29.9447 8.4421C29.9447 8.36188 29.9563 8.25973 29.9146 8.20584C29.7075 7.94074 29.4845 7.68881 29.2904 7.45819C28.8801 7.66688 28.5735 7.80663 28.2823 7.97521C28.1603 8.05108 28.0214 8.09415 27.8786 8.1004C27.7359 8.10665 27.5939 8.07587 27.4659 8.01093C26.9542 7.78156 26.4216 7.59418 25.9264 7.33535C25.7082 7.21022 25.5315 7.02146 25.419 6.79326C25.2599 6.47051 25.1831 6.10389 25.0689 5.75169H23.9361C23.823 6.10076 23.7039 6.43353 23.608 6.7732C23.5757 6.90866 23.5101 7.03351 23.4175 7.13601C23.3249 7.23852 23.2082 7.31531 23.0785 7.35917C22.6835 7.5102 22.2799 7.65309 21.9113 7.86052C21.3584 8.17387 20.8713 8.11496 20.3423 7.79034C19.8017 7.45819 19.8017 7.50895 19.3355 7.93197C19.0431 8.19706 18.9669 8.42643 19.2065 8.75921C19.3306 8.91863 19.4209 9.10258 19.4718 9.29942C19.5216 9.54446 19.5652 9.82836 19.4915 10.0515C19.306 10.6161 19.0827 11.167 18.8231 11.7003C18.7128 11.9042 18.5423 12.0675 18.336 12.1672C18.0018 12.3282 17.6357 12.4172 17.2615 12.5438Z" stroke="#00518F" stroke-width="0.5" mask="url(#path-2-outside-1_34_1971)"/>
<path d="M16.8797 24.9057L16.8796 24.9058L16.2991 25.498C16.1745 25.6252 16.0336 25.7077 15.8764 25.7326C15.7209 25.7572 15.5637 25.7232 15.4085 25.6431C15.3097 25.6026 15.2155 25.5516 15.1272 25.4909L15.117 25.4839L15.1174 25.4834C14.9331 25.3276 14.7659 25.3057 14.6033 25.34C14.4296 25.3767 14.2586 25.4776 14.0726 25.5873L14.07 25.5889C14.0402 25.6065 14.0052 25.6543 13.9681 25.7488C13.945 25.8074 13.9273 25.8657 13.9088 25.9268C13.8975 25.9642 13.8858 26.0027 13.8724 26.0429L13.7539 26.0034L13.8725 26.0426C13.8146 26.2174 13.7656 26.3591 13.713 26.47C13.6599 26.5821 13.5983 26.6736 13.5094 26.7399C13.4202 26.8065 13.3159 26.8385 13.1945 26.8551C13.0751 26.8714 12.9284 26.874 12.7489 26.8741H12.7488C12.6541 26.8741 12.5611 26.873 12.4691 26.8718C12.2884 26.8696 12.1114 26.8675 11.932 26.874L11.9275 26.7491M16.8797 24.9057L16.2098 25.4105C15.9887 25.6361 15.7393 25.675 15.461 25.5296C15.3686 25.4921 15.2805 25.4446 15.1981 25.3879C14.7731 25.0287 14.3799 25.2608 14.019 25.4738L14.0063 25.4813C13.8934 25.5482 13.8375 25.7316 13.7868 25.8981C13.7758 25.9344 13.7649 25.97 13.7538 26.0033C13.521 26.7065 13.4706 26.7485 12.7488 26.7491C12.6574 26.7491 12.5661 26.748 12.4748 26.7469C12.2922 26.7447 12.1097 26.7424 11.9275 26.7491M16.8797 24.9057C17.0289 24.7533 17.1476 24.6314 17.2317 24.5247C17.3168 24.4168 17.3762 24.3128 17.3951 24.1936C17.414 24.0744 17.3896 23.9572 17.3421 23.8283C17.2951 23.701 17.2201 23.5487 17.1255 23.358C16.9991 23.1003 16.9928 22.8475 17.0767 22.6406C17.1605 22.434 17.3391 22.2613 17.606 22.1718L17.6126 22.1696C17.8102 22.1037 17.9678 22.0511 18.0881 21.9965C18.2112 21.9407 18.3106 21.8763 18.3799 21.7784C18.449 21.6808 18.4777 21.5649 18.4913 21.4284C18.5046 21.2946 18.5046 21.1249 18.5046 20.9114V20.9045V20.7165V20.7112C18.5046 20.4332 18.5046 20.2176 18.4924 20.0502C18.4801 19.8825 18.4549 19.7465 18.394 19.6357C18.3303 19.5198 18.2357 19.4453 18.1145 19.3846C17.9995 19.327 17.8498 19.2768 17.6668 19.2153L17.6583 19.2124L17.6577 19.2122C17.3481 19.1098 17.1566 18.9351 17.0722 18.7282C16.9876 18.5211 17.0009 18.2582 17.1487 17.9608L17.1487 17.9607C17.236 17.7847 17.3053 17.6424 17.3487 17.5222C17.3925 17.4005 17.4147 17.2889 17.3969 17.1753C17.379 17.0616 17.3237 16.9623 17.2447 16.8604C17.1667 16.7598 17.0573 16.6465 16.9204 16.5069M16.8797 24.9057L13.8386 15.6315C13.5537 14.6102 13.4198 14.6132 12.8311 14.6266C12.7241 14.629 12.602 14.6318 12.4613 14.6288H12.3495H12.3495C11.3715 14.6288 11.3715 14.6288 11.0545 15.587C10.9206 15.9925 10.2731 16.2852 9.90883 16.0884C9.00612 15.6 8.93982 15.6695 8.47513 16.157C8.41329 16.2219 8.34439 16.2942 8.26554 16.3735L8.18629 16.4544M11.9275 26.7491L11.9328 26.874C11.7188 26.8832 11.5254 26.8437 11.3717 26.7331C11.2165 26.6213 11.1186 26.4492 11.0728 26.2274M11.9275 26.7491C11.5343 26.766 11.2775 26.6012 11.1952 26.202M11.0728 26.2274C11.0728 26.2273 11.0728 26.2273 11.0728 26.2273L11.1952 26.202M11.0728 26.2274C11.0728 26.2274 11.0728 26.2274 11.0728 26.2275L11.1952 26.202M11.0728 26.2274C11.0251 25.9979 10.9574 25.8032 10.8485 25.6574C10.7431 25.5162 10.5942 25.4143 10.3661 25.3766M11.1952 26.202C11.0969 25.7295 10.9059 25.339 10.3861 25.2532M10.3661 25.3766C10.3661 25.3766 10.3662 25.3766 10.3662 25.3766L10.3861 25.2532M10.3661 25.3766C10.2159 25.3523 10.0613 25.3522 9.96293 25.4L9.96232 25.4003L9.93424 25.4138C9.71979 25.5168 9.54933 25.5987 9.4078 25.6504C9.25875 25.7047 9.12588 25.7319 8.99196 25.7086C8.85815 25.6852 8.74148 25.6145 8.618 25.5118C8.49623 25.4106 8.35558 25.2675 8.17646 25.0852L8.17331 25.082L8.1732 25.0819L8.1209 25.0285C8.12082 25.0284 8.12074 25.0283 8.12066 25.0283C8.0792 24.9865 8.03952 24.9468 8.00173 24.9091C7.87985 24.7873 7.77772 24.6852 7.69962 24.5952C7.59624 24.4759 7.52013 24.3616 7.49253 24.2272C7.46471 24.0917 7.48997 23.9548 7.54751 23.7978C7.60458 23.6421 7.69921 23.4519 7.825 23.2065C7.89181 23.0759 7.88257 22.8577 7.79812 22.6428C7.71327 22.4269 7.5742 22.269 7.44244 22.2277L7.44242 22.2277C7.1729 22.1432 6.96817 22.0761 6.817 22.0064C6.66433 21.9361 6.55036 21.8562 6.47725 21.7371C6.40554 21.6203 6.38388 21.4826 6.37645 21.3229C6.37168 21.2203 6.37268 21.0972 6.37385 20.9534C6.37448 20.8756 6.37516 20.7917 6.375 20.7017L6.375 20.7015L6.375 20.6257V20.6252C6.37537 20.53 6.37427 20.4405 6.37325 20.3577C6.37186 20.2441 6.37061 20.1433 6.37356 20.0581C6.37877 19.9072 6.39695 19.7721 6.46329 19.6544C6.5313 19.5337 6.64009 19.448 6.79143 19.3733C6.94085 19.2995 7.14335 19.231 7.4122 19.1509L7.4123 19.1509C7.57275 19.1033 7.7183 18.9437 7.80077 18.7302C7.88285 18.5178 7.88879 18.2859 7.80906 18.1214L7.80908 18.1215L7.92149 18.0669L7.80905 18.1214L7.80601 18.1151C7.69942 17.8957 7.61525 17.7224 7.56261 17.5788C7.50897 17.4325 7.48209 17.3021 7.50369 17.1706C7.52529 17.039 7.59246 16.924 7.69007 16.8025C7.78586 16.6832 7.92104 16.5458 8.09225 16.3717L8.09702 16.3669M10.3661 25.3766C10.366 25.3766 10.3659 25.3765 10.3658 25.3765L10.3861 25.2532M10.3861 25.2532C10.2313 25.2281 10.0434 25.2219 9.90821 25.2877L9.88449 25.2991C8.98678 25.7302 8.98595 25.7306 8.26247 24.9944L8.20964 24.9405C8.16654 24.897 8.1258 24.8563 8.08741 24.818C7.48887 24.2198 7.46058 24.1916 7.93627 23.2634L8.09702 16.3669M8.18629 16.4544L8.09718 16.3667L8.17627 16.286L8.17688 16.2854L8.17688 16.2854C8.25063 16.2112 8.31897 16.1396 8.38148 16.0741C8.45409 15.998 8.51883 15.9302 8.57506 15.8761C8.68381 15.7714 8.79093 15.6865 8.92155 15.6498C9.05545 15.6121 9.19412 15.6301 9.35602 15.6864C9.51617 15.7421 9.71275 15.8402 9.96823 15.9784M8.18629 16.4544C7.83544 16.811 7.66005 16.9893 7.62701 17.191C7.59399 17.3925 7.70319 17.6173 7.92152 18.0669C8.11995 18.4761 7.86992 19.1454 7.44789 19.2707L8.09702 16.3669M8.18629 16.4544L8.09702 16.3669M9.96823 15.9784L9.90888 16.0883L9.96831 15.9784C9.96828 15.9784 9.96826 15.9784 9.96823 15.9784ZM9.96823 15.9784C10.1027 16.051 10.3115 16.0404 10.5175 15.9492C10.7223 15.8585 10.8837 15.7056 10.9358 15.5478L10.9358 15.5478L10.938 15.5412C11.0154 15.3072 11.0765 15.1227 11.1388 14.9823C11.2022 14.8396 11.2734 14.7268 11.3798 14.6481C11.4866 14.5691 11.6139 14.5354 11.7661 14.5195C11.9151 14.5038 12.1039 14.5038 12.3422 14.5038L12.3495 14.5038H12.4613H12.464L12.464 14.5038C12.6049 14.5068 12.718 14.5042 12.821 14.5017C12.8884 14.5001 12.9516 14.4987 13.0156 14.4989C13.1637 14.4996 13.3019 14.5104 13.4242 14.5738C13.5507 14.6394 13.6422 14.7509 13.7221 14.9131C13.8011 15.0734 13.8746 15.2955 13.959 15.5979L13.959 15.598C13.9746 15.6539 14.0176 15.7181 14.0903 15.7823C14.162 15.8457 14.2553 15.9026 14.3573 15.9458C14.4592 15.9889 14.5653 16.0163 14.6609 16.024C14.7581 16.0317 14.8345 16.0184 14.8857 15.9912L14.9444 16.1015L14.8855 15.9912C15.1453 15.8527 15.3438 15.7513 15.5047 15.6925C15.6675 15.6331 15.8081 15.6111 15.9466 15.6488C16.0813 15.6854 16.1946 15.7737 16.3137 15.8868C16.3804 15.9501 16.4565 16.0291 16.5439 16.1197C16.61 16.1883 16.6826 16.2635 16.7623 16.3437L16.7624 16.3438C16.7983 16.38 16.8346 16.4177 16.8699 16.4544C16.887 16.4722 16.9039 16.4898 16.9204 16.5069M16.9204 16.5069C16.9204 16.5068 16.9203 16.5067 16.9202 16.5066L16.8309 16.5941L16.9207 16.5071C16.9206 16.5071 16.9205 16.507 16.9204 16.5069ZM17.1151 20.8826C16.922 20.8917 16.7566 20.9359 16.6137 21.0098C16.446 21.0965 16.3159 21.2206 16.2096 21.3636C16.0417 21.5896 15.9251 21.8768 15.8137 22.1512C15.7877 22.2154 15.762 22.2788 15.7359 22.3406L15.7358 22.3408C15.6348 22.5817 15.5635 22.8204 15.5618 23.0604C15.56 23.3041 15.6301 23.5415 15.7984 23.7778L15.7987 23.7781C15.847 23.8454 15.8593 23.8912 15.8572 23.9264C15.855 23.9618 15.8367 24.0117 15.7695 24.0838L15.7694 24.0839C15.6965 24.1622 15.6469 24.1774 15.614 24.1781C15.5763 24.1788 15.5259 24.1612 15.4505 24.1062C15.2351 23.949 15.0126 23.8654 14.7814 23.8583C14.5512 23.8511 14.3237 23.92 14.098 24.0487C13.8987 24.1592 13.6884 24.2478 13.4709 24.3131L13.4706 24.3132C13.2681 24.3747 13.0971 24.4726 12.9678 24.6149C12.8381 24.7577 12.7569 24.9379 12.723 25.1528C12.6935 25.3395 12.6349 25.4257 12.5696 25.4623C12.5114 25.495 12.4158 25.5065 12.2577 25.4623C12.2399 25.0319 12.0526 24.75 11.7858 24.5442C11.5681 24.3763 11.2923 24.2568 11.0294 24.1429C10.963 24.1141 10.8975 24.0857 10.8339 24.057L10.8332 24.0567C10.5874 23.9474 10.3454 23.8763 10.1026 23.8789C9.85668 23.8815 9.61939 23.9597 9.38486 24.133C9.32305 24.1787 9.28429 24.1869 9.25834 24.1846C9.23193 24.1822 9.19048 24.1664 9.12914 24.1025C9.06052 24.031 9.03121 23.9823 9.02298 23.9443L17.1151 20.8826ZM17.1151 20.8826C17.1503 20.7258 17.1439 20.623 17.1123 20.5564C17.0799 20.4881 17.0042 20.4257 16.8187 20.3963L16.8178 20.3961C16.6083 20.3614 16.431 20.2798 16.2903 20.1484C16.15 20.0175 16.0531 19.8438 15.9927 19.6359L15.9927 19.6358C15.9354 19.4376 15.8565 19.2466 15.7575 19.0665L15.7571 19.0658C15.6255 18.8226 15.5463 18.575 15.5472 18.3238C15.548 18.0707 15.6301 17.8239 15.8045 17.5843C15.8537 17.516 15.8595 17.4737 15.8547 17.4428C15.849 17.4061 15.8242 17.3565 15.7565 17.2834C15.6892 17.2117 15.6444 17.1974 15.6162 17.1962C15.5852 17.195 15.5412 17.2082 15.473 17.259L15.4727 17.2592C15.2429 17.4293 15.0058 17.5133 14.7616 17.516C14.5191 17.5188 14.2807 17.4414 14.0466 17.3076C13.892 17.2205 13.7281 17.1517 13.5582 17.1028L13.5929 16.9827L13.5584 17.1028C13.3218 17.035 13.1255 16.9225 12.9767 16.7585C12.828 16.5945 12.7335 16.3863 12.689 16.138L12.689 16.1378C12.6711 16.0372 12.648 15.9794 12.6163 15.9452C12.59 15.9169 12.5417 15.888 12.4271 15.8887L12.4263 15.8887C12.3195 15.8887 12.2798 15.9178 12.2589 15.9429C12.2308 15.9768 12.2123 16.0323 12.1955 16.1271L12.1955 16.1274C12.1493 16.3848 12.0504 16.5976 11.8958 16.7642C11.7414 16.9304 11.5385 17.0432 11.2965 17.1123L11.2949 17.1127L11.2949 17.1127C11.1492 17.1522 11.0091 17.211 10.8782 17.2876C10.6329 17.4353 10.3828 17.5182 10.1285 17.516C9.87287 17.5138 9.62446 17.4256 9.38381 17.2505C9.31965 17.2038 9.28152 17.1961 9.25696 17.1983C9.23207 17.2006 9.19184 17.2157 9.12976 17.2804C9.06049 17.3526 9.03076 17.401 9.02232 17.4386C9.01603 17.4666 9.0175 17.5068 9.06821 17.5766L9.06834 17.5768C9.24597 17.8222 9.33055 18.075 9.3309 18.3341C9.33124 18.5914 9.24861 18.8448 9.10887 19.0934C9.01617 19.2617 8.94322 19.4406 8.89155 19.6264L8.89134 19.6271C8.83287 19.8325 8.73924 20.0082 8.60162 20.1422C8.46315 20.277 8.28679 20.3632 8.07452 20.3992C7.89942 20.4289 7.81225 20.4867 7.77291 20.5554C7.73802 20.6163 7.72378 20.715 7.76457 20.8763C8.16653 20.9054 8.4408 21.0848 8.64437 21.3425C8.84317 21.5942 8.97495 21.9221 9.10206 22.2384C9.11006 22.2583 9.11804 22.2782 9.12602 22.298L9.12607 22.2981C9.2279 22.5514 9.30562 22.8015 9.31128 23.0519C9.31705 23.3069 9.24804 23.5555 9.06915 23.804L17.1151 20.8826Z" fill="#00518F" stroke="#00518F" stroke-width="0.25"/>
<path d="M31.5493 23.8336L31.5727 23.7827C31.6958 23.5158 31.8189 23.2541 31.9419 22.9944L31.942 22.9942C32.0117 22.8479 32.0007 22.6267 31.9149 22.4159C31.8288 22.2046 31.6844 22.0444 31.5349 21.9954L31.5348 21.9954C31.5159 21.9892 31.4973 21.9831 31.479 21.9771C31.2575 21.9044 31.0824 21.847 30.9492 21.7884C30.8036 21.7244 30.6895 21.6516 30.6133 21.538C30.5379 21.4257 30.5109 21.2903 30.5001 21.1281C30.4912 20.9937 30.4928 20.8259 30.4948 20.6184C30.4952 20.5765 30.4957 20.5331 30.496 20.488V20.488V20.4879V20.4878V20.4878V20.4877V20.4876V20.4875V20.4875V20.4874V20.4873V20.4873V20.4872V20.4871V20.487V20.487V20.4869V20.4868V20.4867V20.4867V20.4866V20.4865V20.4864V20.4864V20.4863V20.4862V20.4862V20.4861V20.486V20.4859V20.4859V20.4858V20.4857V20.4856V20.4856V20.4855V20.4854V20.4853V20.4853V20.4852V20.4851V20.485V20.485V20.4849V20.4848V20.4848V20.4847V20.4846V20.4845V20.4845V20.4844V20.4843V20.4842V20.4842V20.4841V20.484V20.4839V20.4839V20.4838V20.4837V20.4837V20.4836V20.4835V20.4834V20.4834V20.4833V20.4832V20.4831V20.4831V20.483V20.4829V20.4828V20.4828V20.4827V20.4826V20.4825V20.4825V20.4824V20.4823V20.4823V20.4822V20.4821V20.482V20.482V20.4819V20.4818V20.4817V20.4817V20.4816V20.4815V20.4814V20.4814V20.4813V20.4812V20.4812V20.4811V20.481V20.4809V20.4809V20.4808V20.4807V20.4806V20.4806V20.4805V20.4804V20.4803V20.4803V20.4802V20.4801V20.48V20.48V20.4799V20.4798V20.4798V20.4797V20.4796V20.4795V20.4795V20.4794V20.4793V20.4792V20.4792V20.4791V20.479V20.4789V20.4789V20.4788V20.4787V20.4786V20.4786V20.4785V20.4784V20.4784V20.4783V20.4782V20.4781V20.4781V20.478V20.4779V20.4778V20.4778V20.4777V20.4776V20.4775V20.4775V20.4774V20.4773V20.4772V20.4772V20.4771V20.477V20.477V20.4769V20.4768V20.4767V20.4767V20.4766V20.4765V20.4764V20.4764V20.4763V20.4762V20.4761V20.4761V20.476V20.4759V20.4758V20.4758V20.4757V20.4756V20.4755V20.4755V20.4754V20.4753V20.4753V20.4752V20.4751V20.475V20.475V20.4749V20.4748V20.4747V20.4747V20.4746V20.4745V20.4744V20.4744V20.4743V20.4742V20.4741V20.4741V20.474V20.4739V20.4738V20.4738V20.4737V20.4736V20.4736V20.4735V20.4734V20.4733V20.4733V20.4732V20.4731V20.473V20.473V20.4729V20.4728V20.4727V20.4727V20.4726V20.4725V20.4724V20.4724V20.4723V20.4722V20.4721V20.4721V20.472V20.4719V20.4718V20.4718V20.4717V20.4716V20.4716V20.4715V20.4714V20.4713V20.4713V20.4712V20.4711V20.471V20.471V20.4709V20.4708V20.4707V20.4707V20.4706V20.4705V20.4704V20.4704V20.4703V20.4702V20.4701V20.4701V20.47V20.4699V20.4698V20.4698V20.4697V20.4696V20.4695V20.4695V20.4694V20.4693V20.4692V20.4692V20.4691V20.469V20.469V20.4689V20.4688V20.4687V20.4687V20.4686V20.4685V20.4684V20.4684V20.4683V20.4682V20.4681V20.4681V20.468V20.4679V20.4678V20.4678V20.4677V20.4676V20.4675V20.4675V20.4674V20.4673V20.4672V20.4672V20.4671V20.467V20.4669V20.4669V20.4668V20.4667V20.4666V20.4666V20.4665V20.4664V20.4663V20.4663V20.4662V20.4661V20.466V20.466V20.4659V20.4658V20.4657V20.4657V20.4656V20.4655V20.4654V20.4654V20.4653V20.4652V20.4651V20.4651V20.465V20.4649V20.4648V20.4648V20.4647V20.4646V20.4645V20.4645V20.4644V20.4643V20.4642V20.4642V20.4641V20.464V20.4639V20.4639V20.4638V20.4637V20.4636V20.4636V20.4635V20.4634V20.4633V20.4633V20.4632V20.4631V20.463V20.463V20.4629V20.4628V20.4627V20.4627V20.4626V20.4625V20.4624V20.4624V20.4623V20.4622V20.4621V20.4621V20.462V20.4619V20.4618V20.4618V20.4617V20.4616V20.4615V20.4615V20.4614V20.4613V20.4612V20.4612V20.4611V20.461V20.4609V20.4609V20.4608V20.4607V20.4606V20.4606V20.4605V20.4604V20.4603V20.4603V20.4602V20.4601V20.46V20.46V20.4599V20.4598V20.4597V20.4597V20.4596V20.4595V20.4594V20.4594V20.4593V20.4592V20.4591V20.4591V20.459V20.4589V20.4588V20.4588V20.4587V20.4586V20.4585V20.4584V20.4584V20.4583V20.4582V20.4581V20.4581V20.458V20.4579V20.4578V20.4578V20.4577V20.4576V20.4575V20.4575V20.4574V20.4573V20.4572V20.4572V20.4571V20.457V20.4569V20.4569V20.4568V20.4567V20.4566V20.4566V20.4565V20.4564V20.4563V20.4562V20.4562V20.4561V20.456V20.4559V20.4559V20.4558V20.4557V20.4556V20.4556V20.4555V20.4554V20.4553V20.4553V20.4552V20.4551V20.455V20.455V20.4549V20.4548V20.4547V20.4546V20.4546V20.4545V20.4544V20.4543V20.4543V20.4542V20.4541V20.454V20.454V20.4539V20.4538V20.4537V20.4537V20.4536V20.4535V20.4534V20.4533V20.4533V20.4532V20.4531V20.453V20.453V20.4529V20.4528V20.4527V20.4527V20.4526V20.4525V20.4524V20.4523V20.4523V20.4522V20.4521V20.452V20.452V20.4519V20.4518V20.4517V20.4517V20.4516V20.4515V20.4514V20.4514V20.4513V20.4512V20.4511V20.451V20.451V20.4509V20.4508V20.4507V20.4507V20.4506V20.4505V20.4504V20.4503V20.4503V20.4476L30.496 20.4476C30.4991 20.3025 30.4961 20.1829 30.4934 20.0741C30.4917 20.0094 30.4902 19.9484 30.4901 19.8882C30.4899 19.7369 30.4992 19.5959 30.5584 19.4708C30.6202 19.3404 30.7274 19.2438 30.8871 19.1601C31.0441 19.0778 31.2616 19.0028 31.5577 18.9193L31.5579 18.9192C31.6193 18.902 31.6863 18.8567 31.7514 18.7824C31.8159 18.7088 31.8728 18.6133 31.9152 18.5084C32.0031 18.2908 32.0141 18.0723 31.9499 17.9482L31.9499 17.9482C31.8157 17.6882 31.7183 17.489 31.6617 17.3274C31.6046 17.1642 31.5836 17.0246 31.6176 16.8885C31.6509 16.7548 31.733 16.6432 31.8383 16.5274C31.8989 16.4608 31.9747 16.3851 32.0613 16.2985C32.1221 16.2378 32.1882 16.1717 32.2582 16.0997L32.2586 16.0993C32.2635 16.0944 32.2688 16.0889 32.2744 16.0831C32.2864 16.0707 32.2995 16.0572 32.3122 16.0447L32.3164 16.0404C32.4903 15.8629 32.6276 15.7229 32.7467 15.6237C32.868 15.5228 32.9833 15.4528 33.1157 15.4303C33.2484 15.4078 33.3797 15.4362 33.5261 15.492C33.6697 15.5467 33.8431 15.6342 34.0625 15.7449L34.069 15.7481L34.0694 15.7484C34.2088 15.8194 34.427 15.8103 34.6368 15.7241C34.8471 15.6378 35.0041 15.4928 35.0477 15.3449C35.1298 15.0664 35.1973 14.8578 35.2685 14.705C35.3404 14.5508 35.4226 14.4386 35.542 14.3688C35.6587 14.3006 35.7937 14.2834 35.945 14.2787C36.0237 14.2763 36.1185 14.2774 36.2254 14.2787C36.3168 14.2798 36.417 14.281 36.5236 14.2802L36.5246 14.2801L36.5989 14.2801H36.5998V14.2802C36.7034 14.2809 36.8006 14.2798 36.8895 14.2787C36.9987 14.2774 37.0953 14.2763 37.1759 14.279C37.3268 14.284 37.4615 14.3019 37.5779 14.3711C37.6967 14.4417 37.7784 14.5546 37.85 14.7095C37.921 14.8631 37.9884 15.0725 38.0703 15.352M31.5493 23.8336L37.9504 15.3872M31.5493 23.8336L31.5716 23.885C31.5918 23.9312 31.6064 23.9727 31.6219 24.0167C31.6311 24.0427 31.6406 24.0696 31.6517 24.0989C31.6786 24.1696 31.7137 24.2493 31.774 24.3142L31.8656 24.2293L31.7735 24.3138C31.7958 24.3381 31.8182 24.3625 31.8406 24.387C32.14 24.7139 32.4483 25.0504 32.7952 25.3377L32.7953 25.3377C32.8908 25.4166 33.0187 25.4457 33.1322 25.4562C33.249 25.467 33.3709 25.4597 33.471 25.4497L33.471 25.4498L33.4735 25.4494C33.5735 25.4374 33.6637 25.3945 33.7395 25.3525C33.7714 25.3348 33.8033 25.3158 33.8331 25.298C33.839 25.2944 33.845 25.2909 33.8508 25.2874C33.8865 25.2662 33.9194 25.2469 33.9517 25.2304L33.8947 25.1192L33.9515 25.2305C34.2008 25.1032 34.443 25.0984 34.6414 25.1843C34.8402 25.2705 35.0095 25.4543 35.099 25.7316L35.099 25.7318C35.1378 25.8512 35.1759 25.9713 35.2134 26.0919L35.3328 26.0548L31.5493 23.8336ZM38.0703 15.352C38.0703 15.352 38.0703 15.352 38.0703 15.352L37.9504 15.3872M38.0703 15.352C38.0703 15.3519 38.0703 15.3518 38.0703 15.3517L37.9504 15.3872M38.0703 15.352C38.11 15.4857 38.267 15.6315 38.4784 15.723C38.6907 15.8149 38.8985 15.8265 39.0152 15.7626L39.0154 15.7625C39.2742 15.6215 39.4734 15.5217 39.6359 15.4652C39.8003 15.408 39.9409 15.3902 40.0767 15.4287C40.209 15.4663 40.3179 15.5526 40.4289 15.6592C40.4861 15.7142 40.552 15.783 40.6258 15.8602C40.6898 15.9271 40.7598 16.0002 40.8353 16.0761L40.836 16.0768L40.8888 16.1307L40.8889 16.1308L40.8939 16.1358C41.0675 16.3133 41.2045 16.4533 41.3016 16.5748C41.4005 16.6986 41.4682 16.8155 41.4899 16.9489C41.5116 17.0823 41.4844 17.2148 41.4299 17.3638C41.3764 17.5101 41.2908 17.6868 41.1824 17.9108L41.1793 17.9171L41.1791 17.9176C41.1081 18.0624 41.1169 18.2884 41.2007 18.5033C41.2851 18.7197 41.4263 18.877 41.5675 18.9183M37.9504 15.3872C38.0604 15.7588 38.741 16.0552 39.0752 15.8722C39.9889 15.3746 40.0583 15.4473 40.5323 15.9433C40.5956 16.0095 40.6661 16.0833 40.7468 16.1643L40.7996 16.2182C41.511 16.9452 41.511 16.9452 41.0668 17.8626C40.8825 18.2387 41.1424 18.9243 41.5325 19.0383M41.5675 18.9183C41.5675 18.9183 41.5675 18.9183 41.5674 18.9183L41.5325 19.0383M41.5675 18.9183C41.8506 19.0008 42.0611 19.0735 42.215 19.1523C42.371 19.2324 42.4794 19.3242 42.5448 19.4497C42.6081 19.5714 42.6224 19.7093 42.6251 19.8599C42.6263 19.9313 42.625 20.01 42.6235 20.0948L42.6232 20.1122C42.6216 20.2044 42.62 20.3056 42.6213 20.4188L42.6213 20.4202L42.6213 20.5342V20.5411C42.6213 20.7893 42.6213 20.9847 42.6063 21.1387C42.5911 21.2951 42.5592 21.4251 42.484 21.5341C42.4084 21.6438 42.2993 21.7174 42.1607 21.7825C42.0252 21.8462 41.8473 21.908 41.6228 21.986L41.6159 21.9884L41.6156 21.9885C41.4361 22.0505 41.2835 22.2156 41.1997 22.4237C41.1161 22.6316 41.1101 22.8602 41.1956 23.0355M41.5675 18.9183L41.5325 19.0383M41.5325 19.0383L41.1956 23.0355M32.3479 16.1868C32.3538 16.1808 32.3597 16.1747 32.3656 16.1686C32.3773 16.1566 32.3888 16.1446 32.4007 16.133C33.1133 15.406 33.1133 15.406 34.0126 15.8597C34.3812 16.0477 35.0502 15.7782 35.1676 15.3803C35.4583 14.3941 35.5359 14.3951 36.2193 14.4036C36.3098 14.4048 36.4109 14.406 36.5246 14.4051H36.5989L32.3479 16.1868ZM32.3479 16.1868C32.2741 16.2627 32.2068 16.3299 32.1459 16.3907C31.6266 16.9091 31.5787 16.9568 32.061 17.8908C32.2385 18.2343 31.9602 18.9362 31.5916 19.0396C30.5998 19.3194 30.6036 19.4747 30.6182 20.0649C30.621 20.1766 30.6241 20.3037 30.621 20.4503L32.3479 16.1868ZM41.0834 23.0905C41.1559 23.2378 41.2284 23.3845 41.3021 23.5292L40.5042 25.1897M41.0834 23.0905L41.1957 23.0357C41.1957 23.0357 41.1957 23.0356 41.1956 23.0355M41.0834 23.0905L41.1955 23.0353C41.1956 23.0354 41.1956 23.0355 41.1956 23.0355M41.0834 23.0905C40.8739 22.6613 41.1301 22.0239 41.5748 21.8704C42.4963 21.5501 42.4963 21.5501 42.4963 20.5342L41.1956 23.0355M41.1956 23.0355C41.2681 23.1827 41.3402 23.3286 41.4135 23.4725L41.4139 23.4733C41.497 23.6394 41.5316 23.8058 41.5054 23.9696C41.4791 24.1335 41.3941 24.2807 41.2628 24.4122L41.2626 24.4124C41.2194 24.4555 41.1762 24.4985 41.133 24.5413C40.9178 24.7553 40.705 24.9668 40.5042 25.1897M40.5042 25.1897L40.4152 25.1095L40.5042 25.1897C40.5042 25.1897 40.5042 25.1897 40.5042 25.1897ZM33.3847 16.9509C33.2557 17.0332 33.1903 17.1078 33.1664 17.1757C33.1412 17.2471 33.1507 17.3465 33.2621 17.5027C33.3882 17.6771 33.4555 17.8633 33.4635 18.0577C33.4715 18.2514 33.4204 18.4451 33.3228 18.6354L33.3215 18.6379L33.3215 18.6379C33.2177 18.8293 33.1349 19.0319 33.0747 19.2419C33.004 19.5117 32.8853 19.7361 32.7094 19.9051C32.5326 20.0751 32.3058 20.1818 32.0321 20.2282L32.0319 20.2282C31.9457 20.2427 31.9133 20.268 31.8966 20.2909C31.8764 20.3186 31.8598 20.3688 31.8566 20.4704L31.8566 20.4705C31.8535 20.57 31.8748 20.6137 31.8947 20.636C31.9161 20.6602 31.9566 20.6829 32.0401 20.6975L32.0186 20.8206L32.0399 20.6975C32.316 20.7453 32.5419 20.8548 32.7168 21.0265C32.8908 21.1972 33.0068 21.4222 33.0767 21.6894C33.1212 21.8501 33.185 22.0046 33.2664 22.1493L33.267 22.1503L33.267 22.1503C33.3934 22.3798 33.4604 22.6116 33.4533 22.8458C33.4463 23.0807 33.3651 23.3079 33.2115 23.528C33.1588 23.6037 33.142 23.655 33.1432 23.6958C33.1444 23.7341 33.1623 23.788 33.237 23.8666C33.3126 23.9455 33.3614 23.9545 33.3922 23.9526C33.433 23.9501 33.4833 23.9265 33.5591 23.8716L33.5593 23.8716C33.778 23.7138 34.003 23.6342 34.2347 23.6309C34.4651 23.6276 34.6912 23.6999 34.9132 23.8274C35.035 23.8963 35.1644 23.9502 35.2985 23.988L35.2987 23.988C35.5745 24.0663 35.8151 24.1891 35.9981 24.3762C36.1824 24.5646 36.3006 24.8106 36.3431 25.121L36.3431 25.1211C36.354 25.2013 36.3785 25.2248 36.3958 25.2358C36.4217 25.2523 36.4685 25.2636 36.559 25.2636C36.6488 25.2636 36.6958 25.2519 36.7219 25.2353C36.7397 25.2239 36.764 25.2 36.7748 25.121C36.8174 24.8106 36.9353 24.5655 37.1196 24.3775C37.3024 24.1909 37.543 24.0683 37.8191 23.9882L37.822 23.9874L37.822 23.9875C37.9796 23.9458 38.1314 23.8838 38.2738 23.8029C38.2742 23.8027 38.2746 23.8025 38.275 23.8022L38.3368 23.9109L33.3847 16.9509ZM33.3847 16.9509C33.684 17.2335 33.9999 17.3049 34.3209 17.2666C34.6011 17.2332 34.8876 17.1148 35.1605 17.0021C35.2098 16.9817 35.2587 16.9615 35.307 16.942L35.3077 16.9417C35.561 16.8379 35.7987 16.7171 35.9833 16.5401C36.1714 16.3596 36.2987 16.1261 36.3401 15.8088L36.2162 15.7927C36.2444 15.5796 36.3704 15.5501 36.5608 15.5457L33.3847 16.9509ZM39.9469 22.2495L39.8373 22.1894C39.8374 22.1893 39.8374 22.1892 39.8375 22.189C39.9117 22.0536 39.9699 21.9095 40.0106 21.7598L40.0108 21.7592C40.0878 21.4821 40.2047 21.2357 40.3855 21.0475C40.5684 20.8571 40.8095 20.7337 41.1197 20.6924L41.1199 20.6923C41.1954 20.6824 41.2196 20.6588 41.2313 20.6406C41.2477 20.6151 41.2601 20.5673 41.257 20.4765L41.257 20.4751L41.257 20.4751C41.2548 20.3776 41.2476 20.3249 41.2309 20.2928C41.222 20.2757 41.2051 20.2517 41.1286 20.2414L41.1454 20.1175M39.9469 22.2495L36.7766 15.8126C36.8181 16.1317 36.9485 16.3639 37.1383 16.5426C37.3242 16.7176 37.5623 16.837 37.8109 16.9419L37.8112 16.942C37.8442 16.9558 37.8774 16.9699 37.9108 16.984C38.1999 17.1062 38.5026 17.2343 38.7997 17.2672C39.1204 17.3027 39.4352 17.2287 39.7339 16.9504C39.8673 17.0346 39.9308 17.1116 39.9527 17.1801C39.9762 17.2539 39.9622 17.3554 39.8516 17.5088L39.8512 17.5094C39.7246 17.6873 39.6584 17.8745 39.6518 18.0689C39.6452 18.2623 39.6979 18.4541 39.7954 18.6421L39.7957 18.6427C39.8798 18.8029 39.9478 18.9714 39.9988 19.1457C40.0787 19.4266 40.1968 19.6793 40.3798 19.8732C40.5651 20.0697 40.8101 20.1987 41.1288 20.2414L41.1454 20.1175M39.9469 22.2495C40.026 22.1053 40.0879 21.9519 40.1312 21.7927C40.2786 21.2625 40.5674 20.8921 41.1362 20.8163C41.3359 20.7899 41.3887 20.669 41.3819 20.4722C41.3776 20.2842 41.358 20.1463 41.1454 20.1175M39.9469 22.2495L40.1189 19.111C40.2725 19.6512 40.5612 20.0392 41.1454 20.1175M39.421 25.3682C39.421 25.3682 39.4211 25.3682 39.4211 25.3682L39.4782 25.257L39.421 25.3682Z" fill="#00518F" stroke="#00518F" stroke-width="0.25"/>
<path d="M27.4621 10.0213L27.4623 10.0214C27.639 10.1987 27.7531 10.3891 27.7825 10.5825C27.8127 10.7813 27.7509 10.9679 27.6066 11.123C27.4633 11.2769 27.2846 11.3538 27.0857 11.3334C26.8933 11.3137 26.7011 11.2049 26.5177 11.0299C25.6737 10.2251 24.7003 9.97388 23.6116 10.3337L23.6116 10.3337C22.5352 10.6893 21.8916 11.4701 21.6716 12.6101L21.6716 12.6101C21.3581 14.2301 22.5288 15.824 24.1751 16.0295C25.7882 16.2308 27.3065 14.9218 27.3619 13.2728L27.3619 13.2725C27.3651 13.1828 27.3634 13.0911 27.3608 12.9958C27.3605 12.9817 27.3601 12.9674 27.3597 12.953L27.4621 10.0213ZM27.4621 10.0213C26.8682 9.42775 26.1158 9.02545 25.2987 8.86496C24.4815 8.70446 23.6362 8.79295 22.8682 9.11929C22.1002 9.44562 21.4438 9.9952 20.9805 10.6991C20.5172 11.403 20.2675 12.2302 20.2622 13.0776C20.2489 15.0875 21.5652 16.8134 23.4987 17.3136L23.4988 17.3137C25.3608 17.7931 27.3415 16.8845 28.2483 15.137C28.6475 14.3707 28.8105 13.4995 28.7163 12.6374C28.6754 12.2239 28.3725 11.9395 27.9931 11.9615C27.8041 11.9724 27.6414 12.0518 27.5272 12.1873C27.4141 12.3216 27.3557 12.5022 27.3556 12.7057L27.4621 10.0213ZM24.1597 16.1536C25.8472 16.3641 27.429 14.9979 27.4868 13.277L24.1597 16.1536Z" fill="#00518F" stroke="#00518F" stroke-width="0.25"/>
<path d="M15.3145 20.6718C15.3167 21.2505 15.1507 21.8171 14.8373 22.3C14.5238 22.783 14.0767 23.1607 13.5523 23.3851C13.0278 23.6094 12.4497 23.6702 11.8913 23.5595C11.3328 23.4489 10.8194 23.1719 10.4158 22.764C10.0122 22.3561 9.73645 21.8356 9.62305 21.2684C9.50965 20.7012 9.56359 20.1124 9.77815 19.5764C9.99272 19.0403 10.3584 18.5808 10.8294 18.2561C11.3003 17.9315 11.8552 17.7564 12.4241 17.7532M15.3145 20.6718C15.3148 20.2865 15.2402 19.9049 15.095 19.5491C14.9497 19.1932 14.7366 18.8701 14.4678 18.5985C14.1991 18.3269 13.8801 18.1122 13.5292 17.9671C13.1784 17.822 12.8027 17.7493 12.4241 17.7532M15.3145 20.6718C15.3145 20.6719 15.3145 20.672 15.3145 20.6721L15.1895 20.672L15.3145 20.6715C15.3145 20.6716 15.3145 20.6717 15.3145 20.6718ZM12.4241 17.7532C12.4239 17.7532 12.4238 17.7532 12.4237 17.7532L12.4251 17.8782L12.4244 17.7532C12.4243 17.7532 12.4242 17.7532 12.4241 17.7532ZM13.2529 21.9842C13.0283 22.1306 12.7702 22.2131 12.5054 22.2244L12.4109 22.2234C12.2136 22.2215 12.0185 22.1795 11.837 22.0999C11.6556 22.0202 11.4913 21.9045 11.3539 21.7592C11.2164 21.6139 11.1086 21.442 11.0367 21.2535C10.9648 21.065 10.9305 20.8637 10.9356 20.6614L10.9356 20.6602C10.9405 20.3548 11.0342 20.0579 11.2045 19.8073C11.3748 19.5566 11.6139 19.3636 11.8913 19.2522C12.1686 19.1408 12.472 19.1159 12.7631 19.1806C13.0542 19.2454 13.3203 19.3969 13.5275 19.6164C13.7347 19.8359 13.8736 20.1135 13.9263 20.4142C13.979 20.7148 13.943 21.0246 13.8229 21.3042C13.7029 21.5838 13.5044 21.8204 13.2529 21.9842Z" fill="#00518F" stroke="#00518F" stroke-width="0.25"/>
<path d="M39.4306 20.4465C39.4319 21.025 39.2652 21.5911 38.9512 22.0734C38.6372 22.5558 38.1898 22.9328 37.6652 23.1564C37.1407 23.3801 36.5628 23.4402 36.0046 23.329C35.4464 23.2178 34.9335 22.9405 34.5303 22.5324C34.1271 22.1243 33.8518 21.6038 33.7388 21.0367C33.6258 20.4697 33.68 19.8811 33.8947 19.3454C34.1094 18.8096 34.4751 18.3503 34.9459 18.0258C35.4167 17.7014 35.9715 17.5264 36.5401 17.5232M39.4306 20.4465C39.4317 20.0608 39.3578 19.6786 39.2129 19.3221C39.068 18.9655 38.8549 18.6417 38.5861 18.3695C38.3172 18.0974 37.9979 17.8823 37.6466 17.737C37.2953 17.5917 36.9192 17.519 36.5401 17.5232M39.4306 20.4465C39.4306 20.4466 39.4306 20.4467 39.4306 20.4468L39.3056 20.4464L39.4306 20.4461C39.4306 20.4463 39.4306 20.4464 39.4306 20.4465ZM36.5401 17.5232C36.54 17.5232 36.5399 17.5232 36.5397 17.5232L36.5411 17.6482L36.5405 17.5232C36.5403 17.5232 36.5402 17.5232 36.5401 17.5232ZM36.5482 21.9953L36.5469 21.9954C36.3494 21.9961 36.1537 21.9567 35.9711 21.8794C35.7886 21.802 35.6228 21.6884 35.4835 21.5448C35.3442 21.4012 35.2342 21.2307 35.16 21.043C35.0858 20.8553 35.049 20.6544 35.0517 20.4519L35.0517 20.4506C35.0526 20.1452 35.1424 19.8471 35.3094 19.5941C35.4763 19.3412 35.7128 19.1449 35.9886 19.0296C36.2645 18.9144 36.5674 18.8854 36.8593 18.946C37.1512 19.0067 37.4192 19.1544 37.6293 19.3709C37.8394 19.5874 37.982 19.863 38.0388 20.1628C38.0955 20.4627 38.0637 20.7729 37.9476 21.0542C37.8314 21.3354 37.6362 21.5747 37.387 21.7421C37.1379 21.9095 36.846 21.9975 36.5482 21.9953ZM34.9268 20.4502L34.9267 20.4502L34.9268 20.4502Z" fill="#00518F" stroke="#00518F" stroke-width="0.25"/>
</g>
<defs>
<clipPath id="clip0_34_1971">
<rect width="36" height="39" fill="white" transform="translate(6.5 4.58789)"/>
</clipPath>
</defs>
</svg>
