<svg width="70" height="70" viewBox="0 0 70 70" fill="none" xmlns="http://www.w3.org/2000/svg">
<path d="M0.349064 28.9743C2.35885 25.0244 3.36014 20.7214 4.67119 16.5302C4.73948 16.2965 4.75971 16.0514 4.73063 15.8097C4.62064 14.7728 4.88358 13.7307 5.47235 12.8702C6.06113 12.0096 6.93718 11.3871 7.94338 11.1141C8.96208 10.8372 10.0471 10.9455 10.991 11.4183C11.9349 11.8912 12.6714 12.6954 13.0597 13.6772C13.2758 14.2283 13.5532 14.3706 14.0862 14.34C14.7593 14.3025 15.4341 14.3055 16.1068 14.349C16.2094 14.3682 16.3056 14.4127 16.3867 14.4784C16.4679 14.5441 16.5314 14.629 16.5714 14.7254C16.6092 15.2457 16.6163 15.7677 16.593 16.2888C15.6368 16.2888 14.7489 16.3068 13.8611 16.2888C13.4631 16.2762 13.2614 16.4041 13.1408 16.7931C12.804 17.8162 12.1124 18.5565 11.2048 19.1346C11.0895 19.2064 10.9895 19.3004 10.9107 19.4111C10.8318 19.5217 10.7757 19.6469 10.7456 19.7794C10.4988 22.3262 10.2864 24.8767 10.0774 27.4271C10.0594 27.6414 10.1657 27.863 10.1801 28.0827C10.2359 28.9436 10.2647 29.8082 10.335 30.6673C10.3638 31.0276 10.3782 31.4328 10.5637 31.7102C12.6815 34.8838 14.8222 38.0436 16.9856 41.1896C17.1724 41.4581 17.4316 41.668 17.733 41.7948C19.1143 42.3351 19.9139 43.3798 19.8688 44.8838C19.849 45.6042 20.0886 45.7303 20.7459 45.7303C30.1597 45.7087 39.5723 45.7087 48.9838 45.7303C49.6447 45.7303 49.8842 45.5934 49.859 44.8838C49.8158 43.3762 50.6082 42.3243 51.9966 41.7984C52.2633 41.7 52.4963 41.5276 52.6684 41.3013C54.8763 38.0772 57.0697 34.8442 59.2488 31.6021C59.395 31.3635 59.45 31.0802 59.4037 30.8042C59.2068 29.8544 59.2653 28.8693 59.573 27.9494C59.6359 27.7363 59.6579 27.5133 59.6378 27.292C59.4343 24.8316 59.2326 22.3695 58.9895 19.9073C58.9416 19.5971 58.7725 19.3185 58.5194 19.1328C57.6152 18.573 56.9193 17.7322 56.5385 16.7391C56.4757 16.6264 56.3878 16.5298 56.2816 16.4567C56.1754 16.3836 56.0538 16.336 55.9262 16.3176C55.0257 16.2708 54.1253 16.2978 53.1348 16.2978C53.1348 15.7233 53.106 15.1901 53.1564 14.6642C53.169 14.5417 53.4518 14.3634 53.6174 14.3562C54.3378 14.3202 55.0581 14.3184 55.7785 14.3562C56.2125 14.3724 56.443 14.2679 56.6159 13.8158C56.9801 12.8123 57.7044 11.98 58.648 11.4807C59.5915 10.9814 60.6869 10.8507 61.7214 11.1141C63.8375 11.6257 65.2061 13.6357 64.9846 15.8962C64.9669 16.1396 64.9962 16.3843 65.071 16.6166C65.9979 19.6834 66.9332 22.7489 67.8768 25.8133C67.9562 26.0672 68.078 26.306 68.237 26.5193C70.0523 28.9635 69.5841 32.0452 67.1331 33.8175C66.8993 33.9826 66.7129 34.2062 66.5928 34.4659C65.6131 36.7786 64.6641 39.1039 63.6934 41.4202C63.5565 41.7444 63.5133 41.9605 63.8735 42.1946C64.9072 42.8665 65.325 43.8805 65.2818 45.0765C65.2638 45.5682 65.3736 45.8168 65.8923 45.9861C66.8843 46.2962 67.7517 46.9144 68.3686 47.7509C68.9855 48.5875 69.3197 49.5989 69.323 50.6384C69.353 55.1749 69.353 59.7132 69.323 64.2533C69.2977 67.0378 67.1277 69.1686 64.3435 69.2532C64.0752 69.2532 63.8033 69.2532 63.5349 69.2532H6.19112C2.90631 69.2532 1.32874 68.0771 0.428293 64.9305C0.415686 64.8909 0.374275 64.8602 0.347262 64.826V50.1413C0.399487 49.972 0.462541 49.8045 0.505762 49.6316C0.919966 47.9169 1.93023 46.6651 3.57804 46.0653C4.28939 45.806 4.46589 45.4907 4.44788 44.7865C4.42226 44.2882 4.52805 43.792 4.75468 43.3475C4.98131 42.903 5.3208 42.5259 5.7391 42.2541C6.1407 41.9857 6.18752 41.7588 6.00563 41.3319C5.1268 39.2678 4.2672 37.1959 3.42679 35.1162C3.16206 34.4623 2.83427 33.9148 2.22918 33.4807C1.75155 33.1084 1.35557 32.6419 1.06581 32.1101C0.747056 31.5589 0.579574 30.9213 0.345459 30.3215L0.349064 28.9743ZM34.8594 67.2918H63.9761C66.1372 67.2918 67.3708 66.0598 67.3726 63.9182C67.3726 59.7396 67.297 55.5591 67.4032 51.3823C67.4591 49.1597 66.2074 47.4468 63.6015 47.6269C63.4899 47.6269 63.3764 47.6269 63.2648 47.6269H6.44868C6.15694 47.6269 5.86337 47.6269 5.57163 47.6269C3.53123 47.7044 2.34626 48.9309 2.34446 50.9734C2.34446 55.2445 2.34446 59.5139 2.34446 63.7814C2.34446 66.1066 3.53302 67.2846 5.87957 67.2846L34.8594 67.2918ZM9.10675 33.0701C8.13958 34.0635 6.82576 34.6444 5.44017 34.6911C5.44834 34.8054 5.46704 34.9188 5.49601 35.0297C6.34963 37.101 7.19422 39.1723 8.08566 41.2328C8.1739 41.4364 8.55209 41.6309 8.80601 41.6345C10.5565 41.6705 12.307 41.6543 14.0574 41.6525C14.2915 41.6525 14.5256 41.6309 14.9146 41.6129L9.10675 33.0701ZM64.3651 34.6911C62.9522 34.6583 61.6075 34.077 60.6157 33.0701L54.7916 41.6561H55.7029C57.2516 41.6561 58.8004 41.6561 60.3491 41.6561C61.7484 41.6453 61.3954 41.8362 61.9249 40.597C62.7353 38.6734 63.5133 36.7426 64.3615 34.6875L64.3651 34.6911ZM8.47644 29.6101C8.46577 29.0063 8.27685 28.4191 7.9334 27.9224C7.58995 27.4258 7.1073 27.0418 6.5462 26.8187C5.9851 26.5957 5.37061 26.5435 4.77996 26.6689C4.18931 26.7942 3.64888 27.0915 3.2267 27.5232C2.80452 27.9549 2.51943 28.5019 2.40724 29.0952C2.29506 29.6886 2.36079 30.3019 2.59621 30.858C2.83164 31.4141 3.22623 31.8881 3.73034 32.2205C4.23445 32.5529 4.82556 32.7288 5.42935 32.7261C6.24644 32.7156 7.02598 32.3812 7.59666 31.7962C8.16734 31.2113 8.48249 30.4237 8.47287 29.6065L8.47644 29.6101ZM61.2424 29.6389C61.247 30.2428 61.4301 30.8318 61.7686 31.3319C62.107 31.832 62.5859 32.2208 63.1447 32.4494C63.7036 32.6781 64.3176 32.7363 64.9095 32.6169C65.5013 32.4974 66.0447 32.2055 66.4711 31.778C66.8976 31.3505 67.1881 30.8064 67.3062 30.2141C67.4243 29.6219 67.3646 29.008 67.1347 28.4496C66.9048 27.8911 66.5149 27.4132 66.0141 27.0758C65.5133 26.7385 64.9239 26.5567 64.3201 26.5535C63.5037 26.5545 62.721 26.8796 62.1443 27.4575C61.5675 28.0354 61.2437 28.8187 61.2442 29.6353L61.2424 29.6389ZM17.841 45.6691C18.158 44.2155 17.697 43.5851 16.3193 43.5815C13.5387 43.5719 10.7588 43.5719 7.97943 43.5815C6.64138 43.5815 6.12091 44.3434 6.5225 45.6691H17.841ZM51.8778 45.6691H63.2468C63.5025 44.1255 63.0757 43.5887 61.6097 43.5869C58.8976 43.5869 56.1855 43.5869 53.4734 43.5869C52.0345 43.5707 51.5662 44.1705 51.8796 45.6493L51.8778 45.6691ZM4.22637 24.7326C5.73552 24.4876 7.03217 24.7074 8.29098 25.4656C8.45847 23.4646 8.61692 21.5824 8.76099 19.8443L6.05966 18.6843C5.47438 20.6242 4.87289 22.6036 4.22637 24.7326ZM60.9542 19.8407C61.1091 21.622 61.2694 23.497 61.4441 25.5053C62.7317 24.6461 64.0464 24.529 65.4907 24.7002L63.652 18.6951L60.9542 19.8407ZM11.4425 15.3288C11.4454 14.8557 11.3078 14.3924 11.0471 13.9976C10.7865 13.6028 10.4146 13.2942 9.97852 13.1109C9.54242 12.9276 9.06176 12.8779 8.59739 12.9681C8.13302 13.0582 7.70588 13.2842 7.37001 13.6173C7.03414 13.9505 6.80467 14.3758 6.71068 14.8395C6.61669 15.3031 6.66239 15.7843 6.84201 16.222C7.02163 16.6596 7.32704 17.0341 7.71963 17.2981C8.11222 17.562 8.57431 17.7034 9.04735 17.7045C9.36174 17.7101 9.67406 17.6525 9.96586 17.5354C10.2577 17.4182 10.523 17.2437 10.7463 17.0223C10.9695 16.8008 11.1462 16.5369 11.2658 16.246C11.3854 15.9552 11.4455 15.6433 11.4425 15.3288ZM60.6229 17.7027C60.9371 17.7087 61.2495 17.6525 61.542 17.5374C61.8345 17.4222 62.1013 17.2504 62.3272 17.0319C62.5532 16.8133 62.7337 16.5522 62.8584 16.2637C62.9831 15.9751 63.0496 15.6648 63.0541 15.3504C63.059 14.7153 62.8139 14.1038 62.3719 13.6478C61.9298 13.1919 61.3262 12.9281 60.6913 12.9135C60.3771 12.9101 60.0653 12.9688 59.7737 13.086C59.4822 13.2033 59.2166 13.3769 58.9922 13.5968C58.7677 13.8168 58.5888 14.0788 58.4657 14.368C58.3425 14.6571 58.2776 14.9677 58.2745 15.282C58.2638 15.5967 58.3168 15.9103 58.4301 16.2041C58.5434 16.4978 58.7148 16.7657 58.9341 16.9917C59.1533 17.2177 59.4158 17.3972 59.706 17.5193C59.9962 17.6415 60.308 17.7039 60.6229 17.7027Z" fill="#00518F"/>
<path d="M37.4204 0.256841C37.7697 1.25107 38.0975 2.25251 38.4811 3.23233C38.6084 3.47843 38.8017 3.68423 39.0394 3.82671C40.0605 4.52915 41.0527 4.40127 42.072 3.75286C42.5925 3.42325 43.2462 2.98738 43.7685 3.06663C44.2583 3.14047 44.6581 3.82671 45.0903 4.24818C45.8449 4.98664 46.594 5.72871 47.39 6.51221C46.965 7.41278 46.576 8.31335 46.1294 9.1815C45.9097 9.60297 45.9493 9.94339 46.088 10.3811C46.3779 11.3033 46.8642 11.912 47.8601 12.148C48.5804 12.3281 49.5223 12.5082 49.9005 13.0197C50.2606 13.5097 50.0212 14.4426 50.0302 15.1811C50.0302 15.9664 50.0626 16.7553 50.0103 17.5388C49.9894 17.667 49.9395 17.7887 49.8647 17.8948C49.7898 18.0008 49.6918 18.0885 49.5781 18.1512C48.7533 18.4988 47.8907 18.7564 47.0569 19.0896C46.8252 19.1984 46.6314 19.374 46.5004 19.5939C45.8971 20.5557 45.8071 21.5067 46.4878 22.5136C46.8588 23.0539 47.3648 23.7744 47.2586 24.3147C47.1451 24.8893 46.3923 25.3432 45.9079 25.8385C45.3442 26.4166 44.7445 26.9642 44.2025 27.564C43.8855 27.9242 43.6082 27.9242 43.2102 27.7243C42.4989 27.3427 41.7686 26.9976 41.0221 26.6904C40.7172 26.5936 40.3917 26.5811 40.0803 26.6544C38.9169 26.8687 38.3838 27.6378 38.0525 28.7509C37.4978 30.6169 37.4293 30.5971 35.4718 30.5971C34.5966 30.5971 33.7195 30.5791 32.8443 30.5971C32.4481 30.6079 32.2338 30.4854 32.1114 30.091C31.8808 29.3417 31.571 28.6176 31.3477 27.8648C31.1983 27.3496 30.8525 27.1443 30.4113 26.921C29.5829 26.4905 28.8157 26.4275 28.0359 26.984C27.9589 27.0295 27.8774 27.0669 27.7928 27.0957C27.1787 27.3604 26.5124 27.9098 25.9649 27.8161C25.4174 27.7225 24.969 26.9786 24.49 26.5085C23.8795 25.9123 23.296 25.2855 22.6711 24.7074C22.3847 24.4408 22.3757 24.2301 22.545 23.8987C22.9466 23.1224 23.3284 22.3317 23.6652 21.5265C23.7506 21.263 23.7587 20.9805 23.6886 20.7124C23.4491 19.5795 22.7882 18.9113 21.6068 18.6645C20.9639 18.533 20.1427 18.3475 19.8059 17.89C19.4691 17.4325 19.7014 16.6292 19.6942 15.988C19.6942 15.1577 19.7213 14.3238 19.6816 13.4952C19.66 13.0233 19.8419 12.8162 20.2723 12.6811C21.0647 12.4362 21.8517 12.166 22.6134 11.8454C22.8797 11.7093 23.1015 11.5 23.2528 11.242C23.8579 10.2946 23.8867 9.35982 23.2276 8.3836C22.8566 7.83425 22.6387 7.18044 22.3361 6.53743C23.4707 5.40271 24.5908 4.26979 25.7362 3.16388C25.8217 3.1114 25.9183 3.07938 26.0182 3.07032C26.1182 3.06126 26.2189 3.07541 26.3125 3.11165C27.0742 3.43946 27.8306 3.78708 28.5618 4.17793C28.9994 4.41028 29.3614 4.35804 29.8224 4.21575C30.748 3.91496 31.355 3.42865 31.5603 2.41461C31.7115 1.67434 32.0447 0.973692 32.2968 0.253235L37.4204 0.256841ZM29.1363 24.3219C29.6766 24.5435 30.1592 24.81 30.6742 24.9397C32.1545 25.3125 33.1018 26.1573 33.3359 27.7081C33.453 28.4934 33.8762 28.7383 34.6794 28.6933C36.3578 28.596 35.994 28.9382 36.4533 27.3983C36.8134 26.1879 37.4942 25.5755 38.6305 25.0568C40.0226 24.4282 41.2346 24.2805 42.4862 25.2081C43.1111 25.671 43.5541 25.5125 44.0638 24.9487C44.9931 23.9185 45.1065 23.9095 44.424 22.7351C43.7991 21.6544 43.8747 20.7539 44.3033 19.6029C44.8436 18.144 45.627 17.1966 47.1847 16.948C47.8961 16.8346 48.1302 16.4257 48.096 15.6872C48.0275 14.2769 48.096 14.1977 46.7417 13.8231C45.5802 13.5006 45.0038 12.8252 44.4942 11.7409C43.8189 10.3 43.7018 9.05362 44.6419 7.7586C45.0633 7.18043 44.9228 6.76797 44.4041 6.29067C43.3236 5.30184 43.3236 5.19918 42.0792 5.91243C41.0473 6.50681 40.1811 6.42215 39.0808 6.0205C37.5806 5.47115 36.5847 4.67144 36.3344 3.06122C36.23 2.38579 35.8464 2.20027 35.1656 2.22729C33.6781 2.28673 33.5953 2.22729 33.2135 3.62678C32.8983 4.78672 32.1924 5.30905 31.1479 5.81157C29.7162 6.4978 28.4663 6.59506 27.1769 5.65487C26.5934 5.228 26.1756 5.3865 25.7002 5.90162C24.7115 6.9733 24.6197 6.98231 25.34 8.28093C25.8641 9.23914 25.8515 10.0406 25.4841 11.0997C24.9222 12.7207 24.0578 13.7528 22.3469 14.0212C21.8067 14.1076 21.605 14.4156 21.6266 15.001C21.6698 16.622 21.6266 16.6418 23.1663 17.1462C24.0488 17.4343 24.6197 17.8666 25.0699 18.7816C25.8821 20.4333 26.0676 21.9156 24.933 23.4412C24.6737 23.7924 24.7781 24.0571 25.0843 24.3615C26.3449 25.6223 26.3449 25.6404 27.9513 24.8713C28.3475 24.6857 28.7527 24.502 29.1417 24.3219H29.1363Z" fill="#00518F"/>
<path d="M27.8306 58.3347C28.9219 59.5613 28.8498 60.9968 28.7526 62.4917H26.8689C26.8689 62.0432 26.8689 61.5912 26.8689 61.1283C26.8689 60.2421 26.5375 59.4676 25.7361 59.147C25.1526 58.9111 24.4323 59.0101 23.6795 58.9543V62.4017C23.5553 62.4755 23.5192 62.5133 23.4814 62.5169C21.7273 62.6646 21.7273 62.6646 21.7273 60.9265C21.7273 58.3671 21.7489 55.8077 21.7129 53.2483C21.7021 52.5855 21.911 52.4035 22.5504 52.436C23.5805 52.4882 24.6142 52.454 25.6479 52.4486C27.1192 52.4486 28.2195 53.0754 28.794 54.4298C29.3685 55.7843 29.0822 57.0181 28.0557 58.0771C27.9944 58.1402 27.9386 58.2122 27.8306 58.3347ZM23.6885 54.4262C23.6741 54.7306 23.6579 54.9305 23.6579 55.1305C23.6378 55.6233 23.6438 56.117 23.6759 56.6092C23.6975 56.7012 23.7417 56.7863 23.8046 56.8568C23.8676 56.9273 23.9471 56.9808 24.0361 57.0127C24.6626 57.0577 25.2915 57.0577 25.918 57.0127C26.2471 56.9869 26.5536 56.8354 26.774 56.5895C26.9943 56.3437 27.1115 56.0224 27.1012 55.6924C27.1012 55.0512 26.6474 54.4784 26.0207 54.4316C25.2769 54.3866 24.5169 54.4262 23.6957 54.4262H23.6885Z" fill="#00518F"/>
<path d="M46.0357 62.5422V60.6618H42.605V62.4899H40.6997C40.6835 62.2918 40.6565 62.1189 40.6565 61.9496C40.6565 59.9971 40.6403 58.0447 40.6565 56.0941C40.6727 54.1434 42.1963 52.5296 44.0782 52.4612C46.1546 52.3837 47.833 53.7868 47.9302 55.8473C48.0275 57.9078 47.9645 59.9755 47.9807 62.0396C47.9807 62.3999 47.8546 62.58 47.4692 62.5548C47.0352 62.5241 46.5922 62.5422 46.0357 62.5422ZM44.3105 58.6535C44.7571 58.6535 45.2109 58.6805 45.6521 58.6391C45.7926 58.6265 46.0267 58.4356 46.0303 58.3221C46.0781 57.4962 46.0673 56.668 45.9979 55.8437C45.8917 54.9431 45.1407 54.3884 44.2547 54.4028C43.8345 54.3991 43.4294 54.5588 43.1247 54.8481C42.8199 55.1374 42.6394 55.5338 42.6212 55.9536C42.5582 56.674 42.605 57.3837 42.5708 58.0987C42.5492 58.5544 42.7509 58.6841 43.1705 58.6535C43.5487 58.6337 43.9305 58.6553 44.3105 58.6535Z" fill="#00518F"/>
<path d="M31.2559 52.4684C32.7885 52.4684 34.2724 52.3783 35.7401 52.4936C37.4113 52.6251 38.5819 54.165 38.5045 55.9031C38.4306 57.6052 37.098 58.8948 35.2863 58.9849C34.5983 59.0209 33.905 58.9849 33.1144 58.9849V62.4935H31.2559V52.4684ZM34.4687 57.0216C34.7823 57.0415 35.0969 57.0415 35.4105 57.0216C35.7374 56.9821 36.038 56.8229 36.2545 56.5748C36.471 56.3267 36.588 56.0073 36.5829 55.678C36.5731 55.3486 36.4386 55.0351 36.2066 54.8011C35.9746 54.5671 35.6624 54.4298 35.3331 54.4172C35.0198 54.3956 34.7046 54.4064 34.3912 54.4064C33.1144 54.4064 33.1144 54.4064 33.1144 55.6924C33.1144 57.0343 33.1144 57.0343 34.4687 57.0216Z" fill="#00518F"/>
<path d="M16.3085 58.4518V56.5444H18.2138C18.2138 57.0649 18.2336 57.5962 18.1994 58.124C18.1766 58.199 18.135 58.2671 18.0786 58.3216C18.0222 58.3761 17.9528 58.4154 17.877 58.4356C17.3692 58.4716 16.8559 58.4518 16.3085 58.4518Z" fill="#00518F"/>
<path d="M53.4102 56.5444V58.4518C52.87 58.4518 52.3513 58.477 51.8435 58.4338C51.7618 58.4038 51.689 58.3538 51.6317 58.2883C51.5745 58.2229 51.5346 58.1441 51.5158 58.0591C51.4743 57.5728 51.4995 57.0811 51.4995 56.5444H53.4102Z" fill="#00518F"/>
<path d="M5.52661 56.5191H7.3275V58.4103H5.52661V56.5191Z" fill="#00518F"/>
<path d="M10.913 58.4518V56.4993C11.4263 56.4993 11.9341 56.4849 12.4384 56.5102C12.5572 56.5102 12.7589 56.656 12.7643 56.7425C12.7968 57.2343 12.7968 57.7277 12.7643 58.2194C12.7643 58.3041 12.5465 58.4356 12.4258 58.441C11.9324 58.4662 11.4443 58.4518 10.913 58.4518Z" fill="#00518F"/>
<path d="M58.813 56.4957V58.3959C58.6983 58.4211 58.5822 58.4397 58.4654 58.4518C56.8032 58.5058 56.6375 58.2915 57.0247 56.4957H58.813Z" fill="#00518F"/>
<path d="M64.2085 56.5372V58.4122H62.3914V56.5372H64.2085Z" fill="#00518F"/>
<path d="M40.9446 15.4423C40.9407 16.6461 40.5799 17.8216 39.908 18.8203C39.236 19.819 38.283 20.596 37.1694 21.0529C36.0559 21.5099 34.8319 21.6263 33.6522 21.3875C32.4725 21.1487 31.3901 20.5653 30.542 19.7112C29.6938 18.8572 29.1179 17.7707 28.8872 16.5892C28.6564 15.4078 28.7812 14.1844 29.2456 13.0739C29.7101 11.9633 30.4934 11.0155 31.4965 10.3502C32.4996 9.68494 33.6774 9.33213 34.881 9.3364C35.681 9.33591 36.473 9.4938 37.2116 9.80099C37.9502 10.1082 38.6207 10.5586 39.1844 11.1262C39.7481 11.6938 40.1939 12.3675 40.496 13.1082C40.7981 13.849 40.9506 14.6423 40.9446 15.4423ZM34.8523 19.5957C35.6705 19.5914 36.4692 19.3449 37.1475 18.8871C37.8258 18.4293 38.3533 17.7808 38.6635 17.0235C38.9737 16.2662 39.0527 15.4339 38.8904 14.6317C38.7282 13.8296 38.332 13.0934 37.7519 12.5162C37.1717 11.9391 36.4337 11.5466 35.6308 11.3885C34.8279 11.2304 33.9962 11.3137 33.2406 11.6279C32.485 11.9421 31.8394 12.473 31.3852 13.1538C30.931 13.8346 30.6886 14.6347 30.6886 15.4531C30.6957 16.5533 31.1374 17.6061 31.9173 18.3821C32.6972 19.1581 33.7522 19.5943 34.8523 19.5957Z" fill="#00518F"/>
</svg>
