<svg width="267" height="405" viewBox="0 0 267 405" fill="none" xmlns="http://www.w3.org/2000/svg">
<path d="M71.9497 256.035C29.9099 231.566 -1.99534 208.128 0.632144 203.628C3.25963 199.128 39.3876 215.347 81.4274 239.816C123.373 264.285 155.372 287.723 152.745 292.223C150.024 296.723 113.896 280.504 71.9497 256.035Z" fill="url(#paint0_radial_37_227)"/>
<path d="M210.268 269.817C176.768 288.004 147.584 299.067 145.05 294.473C142.61 289.879 167.759 271.504 201.26 253.316C234.76 235.129 263.944 224.066 266.478 228.66C269.011 233.254 243.769 251.629 210.268 269.817Z" fill="url(#paint1_radial_37_227)"/>
<path d="M254.373 85.5963L110.611 2.72054C107.045 0.65802 102.541 3.28304 102.541 7.40808V138.378L258.877 228.566V93.5651C258.877 90.1901 257.094 87.19 254.373 85.5963Z" fill="url(#paint2_linear_37_227)"/>
<path d="M258.877 93.471C258.877 90.2835 257.188 87.2835 254.373 85.6897L110.611 2.72024C109.016 1.78273 107.139 1.78273 105.638 2.53274L110.048 0.188966C110.33 0.00146484 110.518 0.00146484 110.799 0.00146484C111.456 0.0952157 112.113 0.282717 112.676 0.657721L256.437 83.5335C259.252 85.1272 260.941 88.1272 260.941 91.3148V226.316L258.877 228.378V225.191V93.471Z" fill="url(#paint3_linear_37_227)"/>
<path d="M148.335 284.91L7.10708 203.441C3.16585 201.191 3.16585 195.566 7.10708 193.316L102.541 138.284L258.877 228.472L161.003 284.91C157.062 287.16 152.276 287.16 148.335 284.91Z" fill="#F3F3FD"/>
<path d="M7.10703 203.535L148.335 284.91C152.182 287.16 157.062 287.16 160.909 284.91L255.123 230.629L258.877 228.472V232.785L161.003 289.223C157.155 291.473 152.276 291.473 148.428 289.223L7.20088 207.754C5.23026 206.628 4.19803 204.566 4.29187 202.597V198.378C4.19803 200.441 5.23025 202.41 7.10703 203.535Z" fill="#457DB5"/>
<path opacity="0.6" d="M110.048 14.3458L251.464 95.8153L251.182 212.254L110.048 130.691V14.3458Z" fill="url(#paint4_linear_37_227)"/>
<path d="M227.535 222.847L218.808 217.878C218.432 217.691 217.963 217.691 217.682 217.878L209.048 222.847C208.579 223.128 208.579 223.878 209.048 224.16L217.682 229.129C218.057 229.316 218.526 229.316 218.808 229.129L227.441 224.16C228.004 223.878 228.004 223.128 227.535 222.847Z" fill="#BEBCE0"/>
<path d="M227.535 222.378L218.808 217.41C218.432 217.222 217.963 217.222 217.681 217.41L209.048 222.378C208.579 222.66 208.579 223.41 209.048 223.691L217.681 228.66C218.057 228.847 218.526 228.847 218.808 228.66L227.441 223.691C228.004 223.41 228.004 222.66 227.535 222.378Z" fill="#D8D8FB"/>
<path d="M215.054 215.91L206.327 210.941C205.952 210.754 205.482 210.754 205.201 210.941L196.568 215.91C196.099 216.191 196.099 216.941 196.568 217.223L205.201 222.191C205.576 222.379 206.045 222.379 206.327 222.191L214.96 217.223C215.523 216.941 215.523 216.191 215.054 215.91Z" fill="#BEBCE0"/>
<path d="M215.054 215.347L206.327 210.378C205.952 210.191 205.482 210.191 205.201 210.378L196.568 215.347C196.099 215.628 196.099 216.378 196.568 216.66L205.201 221.628C205.576 221.816 206.045 221.816 206.327 221.628L214.96 216.66C215.523 216.378 215.523 215.628 215.054 215.347Z" fill="#D8D8FB"/>
<path d="M202.48 208.879L193.753 203.91C193.377 203.723 192.908 203.723 192.627 203.91L183.993 208.879C183.524 209.16 183.524 209.91 183.993 210.191L192.627 215.16C193.002 215.348 193.471 215.348 193.753 215.16L202.386 210.191C203.043 209.91 203.043 209.16 202.48 208.879Z" fill="#BEBCE0"/>
<path d="M202.48 208.41L193.753 203.441C193.377 203.253 192.908 203.253 192.627 203.441L183.993 208.41C183.524 208.691 183.524 209.441 183.993 209.722L192.627 214.691C193.002 214.878 193.471 214.878 193.753 214.691L202.386 209.722C203.043 209.441 203.043 208.691 202.48 208.41Z" fill="#D8D8FB"/>
<path d="M189.999 201.941L181.272 196.972C180.897 196.785 180.427 196.785 180.146 196.972L171.513 201.941C171.044 202.222 171.044 202.972 171.513 203.253L180.146 208.222C180.521 208.41 180.991 208.41 181.272 208.222L189.905 203.253C190.468 202.972 190.468 202.222 189.999 201.941Z" fill="#BEBCE0"/>
<path d="M189.999 201.378L181.272 196.41C180.897 196.222 180.427 196.222 180.146 196.41L171.513 201.378C171.044 201.66 171.044 202.41 171.513 202.691L180.146 207.66C180.521 207.847 180.991 207.847 181.272 207.66L189.905 202.691C190.468 202.41 190.468 201.753 189.999 201.378Z" fill="#D8D8FB"/>
<path d="M177.425 194.91L168.698 189.941C168.322 189.753 167.853 189.753 167.572 189.941L158.938 194.91C158.469 195.191 158.469 195.941 158.938 196.222L167.572 201.191C167.947 201.378 168.416 201.378 168.698 201.191L177.331 196.222C177.988 196.035 177.988 195.285 177.425 194.91Z" fill="#BEBCE0"/>
<path d="M177.425 194.441L168.698 189.472C168.322 189.284 167.853 189.284 167.572 189.472L158.938 194.441C158.469 194.722 158.469 195.472 158.938 195.753L167.572 200.722C167.947 200.91 168.416 200.91 168.698 200.722L177.331 195.753C177.988 195.472 177.988 194.722 177.425 194.441Z" fill="#D8D8FB"/>
<path d="M164.944 187.972L156.217 183.003C155.842 182.816 155.372 182.816 155.091 183.003L146.458 187.972C145.989 188.253 145.989 189.003 146.458 189.285L155.091 194.254C155.466 194.441 155.935 194.441 156.217 194.254L164.85 189.285C165.507 189.003 165.507 188.253 164.944 187.972Z" fill="#BEBCE0"/>
<path d="M164.944 187.503L156.217 182.535C155.842 182.347 155.372 182.347 155.091 182.535L146.458 187.503C145.989 187.785 145.989 188.535 146.458 188.816L155.091 193.785C155.466 193.972 155.935 193.972 156.217 193.785L164.85 188.816C165.507 188.535 165.507 187.785 164.944 187.503Z" fill="#D8D8FB"/>
<path d="M152.463 181.035L143.736 176.066C143.361 175.879 142.892 175.879 142.61 176.066L133.977 181.035C133.508 181.316 133.508 182.066 133.977 182.347L142.61 187.316C142.986 187.504 143.455 187.504 143.736 187.316L152.37 182.347C152.933 182.066 152.933 181.316 152.463 181.035Z" fill="#BEBCE0"/>
<path d="M152.463 180.472L143.736 175.503C143.361 175.316 142.892 175.316 142.61 175.503L133.977 180.472C133.508 180.753 133.508 181.503 133.977 181.784L142.61 186.753C142.986 186.941 143.455 186.941 143.736 186.753L152.37 181.784C152.933 181.503 152.933 180.753 152.463 180.472Z" fill="#D8D8FB"/>
<path d="M139.889 174.003L131.162 169.034C130.787 168.847 130.318 168.847 130.036 169.034L121.403 174.003C120.934 174.284 120.934 175.034 121.403 175.316L130.036 180.285C130.411 180.472 130.881 180.472 131.162 180.285L139.795 175.316C140.452 175.034 140.452 174.284 139.889 174.003Z" fill="#BEBCE0"/>
<path d="M139.889 173.534L131.162 168.566C130.787 168.378 130.318 168.378 130.036 168.566L121.403 173.534C120.934 173.816 120.934 174.566 121.403 174.847L130.036 179.816C130.411 180.003 130.881 180.003 131.162 179.816L139.795 174.847C140.452 174.566 140.452 173.816 139.889 173.534Z" fill="#D8D8FB"/>
<path d="M127.409 167.066L118.681 162.097C118.306 161.91 117.837 161.91 117.555 162.097L108.922 167.066C108.453 167.347 108.453 168.097 108.922 168.378L117.555 173.347C117.931 173.535 118.4 173.535 118.681 173.347L127.315 168.378C127.972 168.097 127.972 167.347 127.409 167.066Z" fill="#BEBCE0"/>
<path d="M127.408 166.503L118.681 161.534C118.306 161.346 117.837 161.346 117.555 161.534L108.922 166.503C108.453 166.784 108.453 167.534 108.922 167.815L117.555 172.784C117.931 172.972 118.4 172.972 118.681 172.784L127.315 167.815C127.972 167.534 127.972 166.878 127.408 166.503Z" fill="#D8D8FB"/>
<path d="M114.928 160.034L106.201 155.066C105.826 154.878 105.356 154.878 105.075 155.066L96.4417 160.034C95.9725 160.316 95.9725 161.066 96.4417 161.347L105.075 166.316C105.45 166.503 105.919 166.503 106.201 166.316L114.834 161.347C115.397 161.159 115.397 160.409 114.928 160.034Z" fill="#BEBCE0"/>
<path d="M114.928 159.565L106.201 154.597C105.826 154.409 105.356 154.409 105.075 154.597L96.4417 159.565C95.9725 159.847 95.9725 160.597 96.4417 160.878L105.075 165.847C105.45 166.034 105.919 166.034 106.201 165.847L114.834 160.878C115.397 160.597 115.397 159.847 114.928 159.565Z" fill="#D8D8FB"/>
<path d="M83.3043 167.441L92.0313 162.378C92.4066 162.191 92.8758 162.191 93.2512 162.378L100.852 166.691L109.673 171.753C110.236 172.035 110.236 172.785 109.673 173.066L100.852 178.128C100.477 178.316 100.008 178.316 99.6322 178.128L90.8114 173.066L83.2104 168.753C82.8351 168.472 82.8351 167.722 83.3043 167.441Z" fill="#BEBCE0"/>
<path d="M83.3042 166.878L92.0313 161.815C92.4066 161.628 92.8758 161.628 93.2512 161.815L100.852 166.128L109.673 171.19C110.236 171.472 110.236 172.222 109.673 172.503L100.852 177.565C100.477 177.753 100.008 177.753 99.6322 177.565L90.8114 172.503L83.2104 168.19C82.8351 167.909 82.835 167.159 83.3042 166.878Z" fill="#D8D8FB"/>
<path d="M194.879 219.472L186.152 214.504C185.776 214.316 185.307 214.316 185.026 214.504L176.392 219.472C175.923 219.754 175.923 220.504 176.392 220.785L185.026 225.754C185.401 225.941 185.87 225.941 186.152 225.754L194.785 220.785C195.348 220.504 195.348 219.754 194.879 219.472Z" fill="#BEBCE0"/>
<path d="M194.879 218.91L186.152 213.941C185.776 213.753 185.307 213.753 185.026 213.941L176.392 218.91C175.923 219.191 175.923 219.941 176.392 220.222L185.026 225.191C185.401 225.379 185.87 225.379 186.152 225.191L194.785 220.222C195.348 219.941 195.348 219.191 194.879 218.91Z" fill="#D8D8FB"/>
<path d="M182.492 212.722L173.765 207.754C173.39 207.566 172.92 207.566 172.639 207.754L164.006 212.722C163.536 213.004 163.536 213.754 164.006 214.035L172.639 219.004C173.014 219.191 173.483 219.191 173.765 219.004L182.398 214.035C183.055 213.754 183.055 213.004 182.492 212.722Z" fill="#BEBCE0"/>
<path d="M182.492 212.254L173.765 207.285C173.39 207.097 172.92 207.097 172.639 207.285L164.006 212.254C163.536 212.535 163.536 213.285 164.006 213.566L172.639 218.535C173.014 218.722 173.483 218.722 173.765 218.535L182.398 213.566C183.055 213.285 183.055 212.535 182.492 212.254Z" fill="#D8D8FB"/>
<path d="M170.293 205.878L161.566 200.91C161.19 200.722 160.721 200.722 160.44 200.91L151.807 205.878C151.337 206.16 151.337 206.91 151.807 207.191L160.44 212.16C160.815 212.347 161.284 212.347 161.566 212.16L170.199 207.191C170.762 207.003 170.762 206.253 170.293 205.878Z" fill="#BEBCE0"/>
<path d="M170.293 205.409L161.566 200.441C161.19 200.253 160.721 200.253 160.44 200.441L151.807 205.409C151.337 205.691 151.337 206.441 151.807 206.722L160.44 211.691C160.815 211.878 161.284 211.878 161.566 211.691L170.199 206.722C170.762 206.441 170.762 205.691 170.293 205.409Z" fill="#D8D8FB"/>
<path d="M158.094 199.222L149.367 194.253C148.991 194.066 148.522 194.066 148.241 194.253L139.608 199.222C139.138 199.503 139.138 200.253 139.608 200.535L148.241 205.504C148.616 205.691 149.085 205.691 149.367 205.504L158 200.535C158.563 200.253 158.563 199.503 158.094 199.222Z" fill="#BEBCE0"/>
<path d="M158.094 198.659L149.367 193.691C148.991 193.503 148.522 193.503 148.241 193.691L139.608 198.659C139.138 198.941 139.138 199.691 139.608 199.972L148.241 204.941C148.616 205.128 149.085 205.128 149.367 204.941L158 199.972C158.563 199.691 158.563 198.941 158.094 198.659Z" fill="#D8D8FB"/>
<path d="M145.989 192.472L137.262 187.503C136.886 187.316 136.417 187.316 136.136 187.503L127.502 192.472C127.033 192.753 127.033 193.503 127.502 193.785L136.136 198.754C136.511 198.941 136.98 198.941 137.262 198.754L145.895 193.785C146.552 193.503 146.552 192.753 145.989 192.472Z" fill="#BEBCE0"/>
<path d="M145.989 191.909L137.262 186.941C136.886 186.753 136.417 186.753 136.136 186.941L127.502 191.909C127.033 192.191 127.033 192.941 127.502 193.222L136.136 198.191C136.511 198.378 136.98 198.378 137.262 198.191L145.895 193.222C146.552 192.941 146.552 192.191 145.989 191.909Z" fill="#D8D8FB"/>
<path d="M134.165 185.816L125.438 180.847C125.063 180.659 124.593 180.659 124.312 180.847L115.679 185.816C115.209 186.097 115.209 186.847 115.679 187.128L124.312 192.097C124.687 192.284 125.156 192.284 125.438 192.097L134.071 187.128C134.634 186.941 134.634 186.191 134.165 185.816Z" fill="#BEBCE0"/>
<path d="M134.165 185.347L125.438 180.378C125.063 180.191 124.593 180.191 124.312 180.378L115.679 185.347C115.209 185.628 115.209 186.378 115.679 186.659L124.312 191.628C124.687 191.816 125.156 191.816 125.438 191.628L134.071 186.659C134.634 186.378 134.634 185.628 134.165 185.347Z" fill="#D8D8FB"/>
<path d="M122.153 179.159L113.426 174.191C113.051 174.003 112.582 174.003 112.3 174.191L103.667 179.159C103.198 179.441 103.198 180.191 103.667 180.472L112.3 185.441C112.676 185.628 113.145 185.628 113.426 185.441L122.06 180.472C122.623 180.191 122.623 179.441 122.153 179.159Z" fill="#BEBCE0"/>
<path d="M122.153 178.597L113.426 173.628C113.051 173.44 112.582 173.44 112.3 173.628L103.667 178.597C103.198 178.878 103.198 179.628 103.667 179.909L112.3 184.878C112.676 185.066 113.145 185.066 113.426 184.878L122.06 179.909C122.623 179.628 122.623 178.972 122.153 178.597Z" fill="#D8D8FB"/>
<path d="M182.773 237.848L194.691 231.004L188.404 227.441C187.935 227.16 187.841 226.41 188.404 226.129L197.037 221.16C197.412 220.973 197.881 220.973 198.163 221.16L205.67 225.473L214.397 230.441C214.866 230.723 214.866 231.473 214.397 231.754L206.702 236.16L205.764 236.723L192.627 244.223C192.251 244.41 191.782 244.41 191.5 244.223L182.867 239.254C182.304 238.879 182.304 238.129 182.773 237.848Z" fill="#BEBCE0"/>
<path d="M182.773 237.285L194.691 230.441L188.404 226.878C187.935 226.597 187.841 225.847 188.404 225.566L197.037 220.597C197.412 220.41 197.881 220.41 198.163 220.597L205.67 224.91L214.397 229.878C214.866 230.16 214.866 230.91 214.397 231.191L205.764 236.16L192.627 243.66C192.251 243.847 191.782 243.847 191.5 243.66L182.867 238.691C182.304 238.316 182.304 237.566 182.773 237.285Z" fill="#D8D8FB"/>
<path d="M188.685 230.816L179.958 225.847C179.583 225.66 179.114 225.66 178.832 225.847L170.199 230.816C169.73 231.097 169.73 231.847 170.199 232.129L178.832 237.098C179.208 237.285 179.677 237.285 179.958 237.098L188.591 232.129C189.248 231.847 189.248 231.097 188.685 230.816Z" fill="#BEBCE0"/>
<path d="M188.685 230.347L179.958 225.378C179.583 225.191 179.114 225.191 178.832 225.378L170.199 230.347C169.73 230.628 169.73 231.378 170.199 231.659L178.832 236.628C179.208 236.816 179.677 236.816 179.958 236.628L188.591 231.659C189.248 231.378 189.248 230.628 188.685 230.347Z" fill="#D8D8FB"/>
<path d="M176.205 223.879L167.478 218.91C167.102 218.722 166.633 218.722 166.352 218.91L157.718 223.879C157.249 224.16 157.249 224.91 157.718 225.191L166.352 230.16C166.727 230.348 167.196 230.348 167.478 230.16L176.111 225.191C176.674 224.91 176.674 224.16 176.205 223.879Z" fill="#BEBCE0"/>
<path d="M176.205 223.316L167.478 218.347C167.102 218.16 166.633 218.16 166.352 218.347L157.718 223.316C157.249 223.597 157.249 224.347 157.718 224.629L166.352 229.598C166.727 229.785 167.196 229.785 167.478 229.598L176.111 224.629C176.674 224.441 176.674 223.691 176.205 223.316Z" fill="#D8D8FB"/>
<path d="M163.724 216.847L154.997 211.879C154.622 211.691 154.153 211.691 153.871 211.879L145.238 216.847C144.769 217.129 144.769 217.879 145.238 218.16L153.871 223.129C154.246 223.316 154.716 223.316 154.997 223.129L163.63 218.16C164.193 217.972 164.193 217.222 163.724 216.847Z" fill="#BEBCE0"/>
<path d="M163.724 216.378L154.997 211.41C154.622 211.222 154.153 211.222 153.871 211.41L145.238 216.378C144.769 216.66 144.769 217.41 145.238 217.691L153.871 222.66C154.246 222.847 154.716 222.847 154.997 222.66L163.63 217.691C164.193 217.41 164.193 216.66 163.724 216.378Z" fill="#D8D8FB"/>
<path d="M151.15 209.91L142.423 204.941C142.047 204.753 141.578 204.753 141.297 204.941L132.663 209.91C132.194 210.191 132.194 210.941 132.663 211.222L141.297 216.191C141.672 216.378 142.141 216.378 142.423 216.191L151.056 211.222C151.713 210.941 151.713 210.191 151.15 209.91Z" fill="#BEBCE0"/>
<path d="M151.15 209.441L142.423 204.472C142.047 204.285 141.578 204.285 141.297 204.472L132.663 209.441C132.194 209.722 132.194 210.472 132.663 210.753L141.297 215.722C141.672 215.91 142.141 215.91 142.423 215.722L151.056 210.753C151.713 210.472 151.713 209.722 151.15 209.441Z" fill="#D8D8FB"/>
<path d="M138.669 202.972L129.942 198.003C129.567 197.816 129.098 197.816 128.816 198.003L120.183 202.972C119.714 203.253 119.714 204.003 120.183 204.285L128.816 209.253C129.191 209.441 129.661 209.441 129.942 209.253L138.575 204.285C139.138 204.003 139.138 203.253 138.669 202.972Z" fill="#BEBCE0"/>
<path d="M138.669 202.409L129.942 197.44C129.567 197.253 129.098 197.253 128.816 197.44L120.183 202.409C119.714 202.69 119.714 203.44 120.183 203.722L128.816 208.691C129.191 208.878 129.661 208.878 129.942 208.691L138.575 203.722C139.138 203.44 139.138 202.69 138.669 202.409Z" fill="#D8D8FB"/>
<path d="M126.095 195.941L117.368 190.972C116.992 190.785 116.523 190.785 116.242 190.972L107.608 195.941C107.139 196.222 107.139 196.972 107.608 197.254L116.242 202.222C116.617 202.41 117.086 202.41 117.368 202.222L126.001 197.254C126.658 196.972 126.658 196.222 126.095 195.941Z" fill="#BEBCE0"/>
<path d="M126.095 195.472L117.368 190.504C116.992 190.316 116.523 190.316 116.242 190.504L107.608 195.472C107.139 195.754 107.139 196.504 107.608 196.785L116.242 201.754C116.617 201.941 117.086 201.941 117.368 201.754L126.001 196.785C126.658 196.504 126.658 195.754 126.095 195.472Z" fill="#D8D8FB"/>
<path d="M113.614 189.004L104.887 184.035C104.512 183.847 104.043 183.847 103.761 184.035L95.1279 189.004C94.6587 189.285 94.6587 190.035 95.1279 190.316L103.761 195.285C104.136 195.472 104.606 195.472 104.887 195.285L113.52 190.316C114.177 190.035 114.177 189.285 113.614 189.004Z" fill="#BEBCE0"/>
<path d="M113.614 188.441L104.887 183.472C104.512 183.285 104.043 183.285 103.761 183.472L95.1279 188.441C94.6587 188.722 94.6587 189.472 95.1279 189.754L103.761 194.722C104.136 194.91 104.606 194.91 104.887 194.722L113.52 189.754C114.177 189.566 114.177 188.816 113.614 188.441Z" fill="#D8D8FB"/>
<path d="M101.134 182.066L92.4066 177.097C92.0312 176.91 91.562 176.91 91.2805 177.097L82.6473 182.066C82.1781 182.347 82.1781 183.097 82.6473 183.378L91.2805 188.347C91.6559 188.535 92.1251 188.535 92.4066 188.347L101.04 183.378C101.603 183.097 101.603 182.347 101.134 182.066Z" fill="#BEBCE0"/>
<path d="M101.134 181.503L92.4066 176.534C92.0312 176.347 91.562 176.347 91.2805 176.534L82.6473 181.503C82.1781 181.784 82.1781 182.534 82.6473 182.815L91.2805 187.784C91.6559 187.972 92.1251 187.972 92.4066 187.784L101.04 182.815C101.603 182.534 101.603 181.784 101.134 181.503Z" fill="#D8D8FB"/>
<path d="M188.122 245.348L179.395 240.379C179.02 240.191 178.551 240.191 178.269 240.379L169.636 245.348C169.167 245.629 169.167 246.379 169.636 246.66L178.269 251.629C178.645 251.816 179.114 251.816 179.395 251.629L188.028 246.66C188.591 246.379 188.591 245.629 188.122 245.348Z" fill="#BEBCE0"/>
<path d="M188.122 244.785L179.395 239.816C179.02 239.628 178.551 239.628 178.269 239.816L169.636 244.785C169.167 245.066 169.167 245.816 169.636 246.097L178.269 251.066C178.645 251.254 179.114 251.254 179.395 251.066L188.028 246.097C188.591 245.816 188.591 245.066 188.122 244.785Z" fill="#D8D8FB"/>
<path d="M175.548 238.316L166.821 233.347C166.445 233.16 165.976 233.16 165.695 233.347L157.062 238.316C156.592 238.597 156.592 239.347 157.062 239.629L165.695 244.598C166.07 244.785 166.539 244.785 166.821 244.598L175.454 239.629C176.111 239.347 176.111 238.597 175.548 238.316Z" fill="#BEBCE0"/>
<path d="M175.548 237.848L166.821 232.879C166.445 232.691 165.976 232.691 165.695 232.879L157.062 237.848C156.592 238.129 156.592 238.879 157.062 239.16L165.695 244.129C166.07 244.317 166.539 244.317 166.821 244.129L175.454 239.16C176.111 238.879 176.111 238.129 175.548 237.848Z" fill="#D8D8FB"/>
<path d="M163.067 231.379L154.34 226.41C153.965 226.223 153.496 226.223 153.214 226.41L144.581 231.379C144.112 231.66 144.112 232.41 144.581 232.691L153.214 237.66C153.59 237.848 154.059 237.848 154.34 237.66L162.973 232.691C163.536 232.41 163.536 231.66 163.067 231.379Z" fill="#BEBCE0"/>
<path d="M163.067 230.816L154.34 225.847C153.965 225.66 153.496 225.66 153.214 225.847L144.581 230.816C144.112 231.097 144.112 231.847 144.581 232.128L153.214 237.097C153.59 237.285 154.059 237.285 154.34 237.097L162.973 232.128C163.536 231.847 163.536 231.097 163.067 230.816Z" fill="#D8D8FB"/>
<path d="M100.477 196.504L91.7497 191.535C91.3744 191.348 90.9052 191.348 90.6236 191.535L81.9905 196.504C81.5213 196.785 81.5213 197.535 81.9905 197.816L90.6236 202.785C90.999 202.973 91.4682 202.973 91.7497 202.785L100.383 197.816C100.946 197.535 100.946 196.785 100.477 196.504Z" fill="#BEBCE0"/>
<path d="M100.477 195.941L91.7497 190.972C91.3743 190.785 90.9051 190.785 90.6236 190.972L81.9904 195.941C81.5213 196.222 81.5213 196.972 81.9904 197.253L90.6236 202.222C90.999 202.41 91.4682 202.41 91.7497 202.222L100.383 197.253C100.946 196.972 100.946 196.222 100.477 195.941Z" fill="#D8D8FB"/>
<path d="M87.9962 189.472L79.2691 184.503C78.8938 184.315 78.4246 184.315 78.1431 184.503L69.5099 189.472C69.0407 189.753 69.0407 190.503 69.5099 190.784L78.1431 195.753C78.5184 195.94 78.9876 195.94 79.2691 195.753L87.9023 190.784C88.4653 190.503 88.4654 189.847 87.9962 189.472Z" fill="#BEBCE0"/>
<path d="M87.9962 189.003L79.2691 184.035C78.8938 183.847 78.4246 183.847 78.1431 184.035L69.5099 189.003C69.0407 189.285 69.0407 190.035 69.5099 190.316L78.1431 195.285C78.5184 195.472 78.9876 195.472 79.2691 195.285L87.9023 190.316C88.4653 190.035 88.4654 189.285 87.9962 189.003Z" fill="#D8D8FB"/>
<path d="M75.4218 182.534L66.6948 177.566C66.3194 177.378 65.8502 177.378 65.5687 177.566L56.9355 182.534C56.4663 182.816 56.4663 183.566 56.9355 183.847L65.5687 188.816C65.944 189.003 66.4132 189.003 66.6948 188.816L75.3279 183.847C75.9848 183.566 75.9848 182.816 75.4218 182.534Z" fill="#BEBCE0"/>
<path d="M75.4218 182.066L66.6948 177.097C66.3194 176.909 65.8502 176.909 65.5687 177.097L56.9355 182.066C56.4663 182.347 56.4663 183.097 56.9355 183.378L65.5687 188.347C65.944 188.534 66.4132 188.534 66.6948 188.347L75.3279 183.378C75.9848 183.097 75.9848 182.347 75.4218 182.066Z" fill="#D8D8FB"/>
<path d="M88.653 174.941L79.926 169.972C79.5507 169.785 79.0815 169.785 78.7999 169.972L70.1668 174.941C69.6976 175.222 69.6976 175.972 70.1668 176.254L78.7999 181.222C79.1753 181.41 79.6445 181.41 79.926 181.222L88.5592 176.254C89.1222 175.972 89.1222 175.222 88.653 174.941Z" fill="#BEBCE0"/>
<path d="M88.653 174.378L79.926 169.409C79.5507 169.222 79.0815 169.222 78.7999 169.409L70.1668 174.378C69.6976 174.659 69.6976 175.409 70.1668 175.691L78.7999 180.659C79.1753 180.847 79.6445 180.847 79.926 180.659L88.5592 175.691C89.1222 175.409 89.1222 174.659 88.653 174.378Z" fill="#D8D8FB"/>
<path d="M94.5649 203.441L103.198 198.472C103.573 198.285 104.043 198.285 104.324 198.472L150.587 224.347C151.15 224.629 151.056 225.379 150.587 225.66L141.954 230.629C141.578 230.816 141.109 230.816 140.827 230.629L94.6587 204.753C94.0018 204.472 94.0019 203.722 94.5649 203.441Z" fill="#BEBCE0"/>
<path d="M94.5649 202.972L103.198 198.003C103.573 197.816 104.043 197.816 104.324 198.003L150.587 223.879C151.15 224.16 151.056 224.91 150.587 225.191L141.954 230.16C141.578 230.347 141.109 230.347 140.827 230.16L94.6587 204.285C94.0019 204.003 94.0019 203.253 94.5649 202.972Z" fill="#D8D8FB"/>
<path d="M133.602 236.441L87.7147 209.91C86.1194 208.972 84.1488 208.972 82.5535 209.91L60.4076 222.753C58.7185 223.785 58.7185 226.222 60.4076 227.16L106.013 253.597C107.609 254.535 109.485 254.535 111.081 253.597L133.602 240.847C135.385 239.91 135.385 237.379 133.602 236.441Z" fill="#CCCCCC"/>
<path d="M133.602 237.379L87.7146 210.847C86.1194 209.91 84.1487 209.91 82.5535 210.847L60.4075 223.691C59.7506 224.066 59.2814 224.722 59.1876 225.472C58.9999 224.441 59.3753 223.316 60.4075 222.753L82.5535 209.91C84.1487 208.972 86.1194 208.972 87.7146 209.91L133.602 236.441C134.634 237.004 135.009 238.129 134.822 239.16C134.728 238.41 134.353 237.754 133.602 237.379Z" fill="#BEBCE0"/>
<path d="M133.602 240.847L111.08 253.597C109.485 254.535 107.515 254.441 106.013 253.597L60.4075 227.16C59.7506 226.785 59.2814 226.128 59.1876 225.378C59.2814 224.722 59.7506 224.066 60.4075 223.597L82.5535 210.753C84.1487 209.816 86.1193 209.816 87.7146 210.753L133.602 237.285C134.259 237.66 134.728 238.316 134.822 239.066C134.728 239.816 134.353 240.472 133.602 240.847Z" fill="#D8D8FB"/>
<path d="M172.92 69.1894V63.7518C172.92 62.2518 171.888 60.3768 170.481 59.6268L123.749 32.7203C122.435 31.9703 121.309 32.5328 121.309 34.1265V42.3766C121.309 43.8766 122.341 45.7516 123.749 46.5016L177.8 77.7207L174.703 73.8769C173.577 72.4706 172.92 70.6894 172.92 69.1894Z" fill="url(#paint5_linear_37_227)"/>
<path d="M172.92 149.628V144.191C172.92 142.691 171.888 140.815 170.481 140.065L123.749 113.159C122.435 112.409 121.309 112.971 121.309 114.565V122.815C121.309 124.315 122.341 126.19 123.749 126.94L177.8 158.159L174.703 154.316C173.577 152.909 172.92 151.128 172.92 149.628Z" fill="url(#paint6_linear_37_227)"/>
<path d="M187.372 107.909V102.471C187.372 100.971 188.404 100.315 189.811 101.065L236.543 127.971C237.857 128.721 238.983 130.596 238.983 132.096V140.347C238.983 141.847 237.951 142.503 236.543 141.753L182.398 110.628L185.495 110.44C186.621 110.346 187.372 109.315 187.372 107.909Z" fill="url(#paint7_linear_37_227)"/>
<path d="M187.372 129.659V124.221C187.372 122.721 188.404 122.065 189.811 122.815L236.543 149.722C237.857 150.472 238.983 152.347 238.983 153.847V162.097C238.983 163.597 237.951 164.253 236.543 163.503L182.492 132.284L185.589 132.096C186.621 132.096 187.372 131.159 187.372 129.659Z" fill="url(#paint8_linear_37_227)"/>
<path d="M67.2578 47.1583L46.0502 78.5649L24.8426 110.065L61.1583 87.2837L97.4739 64.596L67.2578 47.1583Z" fill="url(#paint9_linear_37_227)"/>
<path d="M103.573 68.1582L64.2549 89.0646L24.8426 110.065L79.363 97.7835L133.883 85.5959L103.573 68.1582Z" fill="url(#paint10_linear_37_227)"/>
<path d="M97.4739 64.5958V71.3459L24.8426 110.065L97.4739 64.5958Z" fill="url(#paint11_linear_37_227)"/>
<path opacity="0.2" d="M100.571 180.097L67.2578 160.878L46.0502 192.284L24.8426 223.691L79.363 211.503L133.883 199.316L100.571 180.097Z" fill="url(#paint12_linear_37_227)"/>
<path d="M56.0827 379.801C28.5375 363.768 7.6326 348.411 9.35418 345.463C11.0758 342.514 34.7475 353.141 62.2927 369.174C89.7765 385.206 110.743 400.563 109.021 403.511C107.238 406.46 83.5665 395.833 56.0827 379.801Z" fill="url(#paint13_radial_37_227)"/>
<path d="M62.1698 310.633L19.6837 286.124L40.9574 312.415L62.1698 338.767L83.4435 336.924L104.717 335.143L62.1698 310.633Z" fill="url(#paint14_linear_37_227)"/>
<path d="M62.1698 310.633L104.656 335.143L64.3832 280.534C63.0305 278.752 61.309 277.708 59.9563 278.015L19.6837 286.124L62.1698 310.633Z" fill="url(#paint15_linear_37_227)"/>
<path d="M95.5561 386.127L28.8449 347.612V243.8L95.5561 282.315V386.127Z" fill="url(#paint16_linear_37_227)"/>
<path d="M19.6837 314.258V286.124L40.9574 312.415L62.1698 338.767L40.9574 340.548L19.6837 342.391V314.258Z" fill="url(#paint17_linear_37_227)"/>
<path d="M104.717 363.276V335.143L83.4435 336.924L62.1697 338.767L83.4435 365.058L104.717 391.41V363.276Z" fill="url(#paint18_linear_37_227)"/>
<path d="M62.1698 366.901L104.656 391.41L83.4435 362.294L64.0758 335.757C62.9691 334.222 61.4934 333.362 60.3252 333.607L40.9574 337.784L19.6837 342.391L62.1698 366.901Z" fill="url(#paint19_linear_37_227)"/>
<path d="M72.1918 306.088C72.1303 308.36 71.5769 309.958 70.6546 310.756C69.7324 311.616 68.5027 311.555 66.9655 310.695C66.2892 310.326 65.6744 309.773 65.1825 309.159C64.6906 308.545 64.3217 307.808 64.0758 307.07C63.2764 307.869 62.2312 307.93 60.94 307.193C59.7718 306.518 58.8495 305.412 58.2347 303.938C57.6198 302.463 57.3739 300.805 57.4969 299.085C57.6198 297.672 57.9887 296.505 58.4806 295.645C58.9725 294.785 59.6488 294.232 60.4481 294.109C61.2474 293.925 62.1082 294.109 63.0305 294.662C64.1987 295.338 65.121 296.198 65.9203 297.242L66.6581 298.286L66.0433 305.842C65.9818 306.518 66.0433 307.132 66.2277 307.623C66.4737 308.115 66.7811 308.545 67.273 308.79C68.0108 309.22 68.6256 309.098 69.1175 308.36C69.6094 307.685 69.8553 306.518 69.9168 304.982C70.0398 301.849 69.4864 299.085 68.2567 296.689C67.027 294.232 65.121 292.328 62.6616 290.915C61.1245 290.055 59.7718 289.687 58.5421 289.871C57.3124 290.055 56.3901 290.792 55.7138 292.021C55.0375 293.249 54.6071 294.908 54.5456 296.996C54.4226 300.129 54.976 302.955 56.2672 305.473C57.4969 307.992 59.4029 309.958 61.9238 311.37C62.6001 311.739 63.2764 312.046 64.0143 312.292C64.7521 312.538 65.3669 312.66 65.9203 312.722L66.3507 315.117C65.8588 315.179 65.1825 315.117 64.3832 314.872C63.5839 314.626 62.7231 314.257 61.8623 313.766C59.7718 312.538 57.9887 311.063 56.5131 309.22C55.0375 307.378 53.9307 305.351 53.1929 303.016C52.4551 300.682 52.1477 298.286 52.2706 295.706C52.3936 293.249 52.8855 291.284 53.7463 289.809C54.6686 288.335 55.8983 287.475 57.4354 287.291C58.9725 287.107 60.7556 287.598 62.7231 288.704C64.7521 289.871 66.4122 291.345 67.8878 293.126C69.302 294.969 70.4087 296.996 71.1465 299.208C71.9458 301.358 72.2533 303.692 72.1918 306.088ZM60.1407 300.559C60.0792 301.726 60.1407 302.709 60.3867 303.446C60.6326 304.245 61.1245 304.798 61.6778 305.166C62.0468 305.412 62.4157 305.412 62.7846 305.228C63.1535 305.043 63.3994 304.613 63.6454 304.061L64.1372 297.856C63.8298 297.549 63.5224 297.304 63.1535 297.119C62.2312 296.566 61.5549 296.628 61.0015 297.242C60.6326 297.856 60.3252 298.962 60.1407 300.559Z" fill="url(#paint20_linear_37_227)"/>
<defs>
<radialGradient id="paint0_radial_37_227" cx="0" cy="0" r="1" gradientUnits="userSpaceOnUse" gradientTransform="translate(76.6383 247.963) rotate(120.29) scale(9.37833 87.9984)">
<stop/>
<stop offset="0.9975" stop-opacity="0"/>
</radialGradient>
<radialGradient id="paint1_radial_37_227" cx="0" cy="0" r="1" gradientUnits="userSpaceOnUse" gradientTransform="translate(205.792 261.593) rotate(61.49) scale(9.37988 69.0477)">
<stop/>
<stop offset="0.9975" stop-opacity="0"/>
</radialGradient>
<linearGradient id="paint2_linear_37_227" x1="182.853" y1="47.8146" x2="178.774" y2="180.505" gradientUnits="userSpaceOnUse">
<stop stop-color="#DCD2FA"/>
<stop offset="1" stop-color="#F6F4FE"/>
</linearGradient>
<linearGradient id="paint3_linear_37_227" x1="260.895" y1="114.239" x2="105.667" y2="114.239" gradientUnits="userSpaceOnUse">
<stop stop-color="#DCAFEC"/>
<stop offset="0.0199239" stop-color="#DEB4ED"/>
<stop offset="0.1336" stop-color="#E7CDF4"/>
<stop offset="0.2619" stop-color="#EFE0F9"/>
<stop offset="0.4114" stop-color="#F4EDFC"/>
<stop offset="0.6014" stop-color="#F7F5FE"/>
<stop offset="0.9681" stop-color="#F8F7FF"/>
<stop offset="0.9766" stop-color="#F3F2FF"/>
<stop offset="1" stop-color="#F1F0FF"/>
</linearGradient>
<linearGradient id="paint4_linear_37_227" x1="176.869" y1="154.4" x2="184.961" y2="65.2979" gradientUnits="userSpaceOnUse">
<stop stop-color="#0364C2"/>
<stop offset="0.1992" stop-color="#035ABC"/>
<stop offset="0.4183" stop-color="#034AB1"/>
<stop offset="0.9272" stop-color="#002EA0"/>
<stop offset="1" stop-color="#002A9D"/>
</linearGradient>
<linearGradient id="paint5_linear_37_227" x1="121.389" y1="55.0075" x2="177.857" y2="55.0075" gradientUnits="userSpaceOnUse">
<stop stop-color="#F6F4FE"/>
<stop offset="1" stop-color="#DCD2FA"/>
</linearGradient>
<linearGradient id="paint6_linear_37_227" x1="121.389" y1="135.431" x2="177.857" y2="135.431" gradientUnits="userSpaceOnUse">
<stop stop-color="#F6F4FE"/>
<stop offset="1" stop-color="#DCD2FA"/>
</linearGradient>
<linearGradient id="paint7_linear_37_227" x1="182.393" y1="121.449" x2="238.862" y2="121.449" gradientUnits="userSpaceOnUse">
<stop stop-color="#F6F4FE"/>
<stop offset="1" stop-color="#DCD2FA"/>
</linearGradient>
<linearGradient id="paint8_linear_37_227" x1="182.393" y1="143.257" x2="238.861" y2="143.257" gradientUnits="userSpaceOnUse">
<stop stop-color="#F6F4FE"/>
<stop offset="1" stop-color="#DCD2FA"/>
</linearGradient>
<linearGradient id="paint9_linear_37_227" x1="27.7068" y1="105.812" x2="46.6523" y2="44.6475" gradientUnits="userSpaceOnUse">
<stop stop-color="#FF1E71"/>
<stop offset="0.2907" stop-color="#F51D6E"/>
<stop offset="0.7792" stop-color="#DB1A65"/>
<stop offset="1" stop-color="#CD1861"/>
</linearGradient>
<linearGradient id="paint10_linear_37_227" x1="59.7682" y1="115.743" x2="78.7288" y2="54.5294" gradientUnits="userSpaceOnUse">
<stop stop-color="#FF1E71"/>
<stop offset="0.2907" stop-color="#F51D6E"/>
<stop offset="0.7792" stop-color="#DB1A65"/>
<stop offset="1" stop-color="#CD1861"/>
</linearGradient>
<linearGradient id="paint11_linear_37_227" x1="58.3921" y1="76.5847" x2="64.0922" y2="98.4551" gradientUnits="userSpaceOnUse">
<stop stop-color="#FF1E71"/>
<stop offset="0.2907" stop-color="#F51D6E"/>
<stop offset="0.7792" stop-color="#DB1A65"/>
<stop offset="1" stop-color="#CD1861"/>
</linearGradient>
<linearGradient id="paint12_linear_37_227" x1="24.8736" y1="192.278" x2="133.909" y2="192.278" gradientUnits="userSpaceOnUse">
<stop stop-color="#FF1E71"/>
<stop offset="0.2873" stop-color="#F51D6E"/>
<stop offset="0.4183" stop-color="#EF1C6C"/>
<stop offset="0.8999" stop-color="#D31963"/>
<stop offset="1" stop-color="#CD1861"/>
</linearGradient>
<radialGradient id="paint13_radial_37_227" cx="0" cy="0" r="1" gradientUnits="userSpaceOnUse" gradientTransform="translate(59.1505 374.516) rotate(120.29) scale(6.14486 57.6582)">
<stop/>
<stop offset="0.9975" stop-opacity="0"/>
</radialGradient>
<linearGradient id="paint14_linear_37_227" x1="55.7046" y1="318.861" x2="58.9472" y2="314.73" gradientUnits="userSpaceOnUse">
<stop stop-color="#799FDB"/>
<stop offset="0.3257" stop-color="#7494D6"/>
<stop offset="0.4373" stop-color="#718FD3"/>
<stop offset="1" stop-color="#6270C3"/>
</linearGradient>
<linearGradient id="paint15_linear_37_227" x1="64.2321" y1="304.491" x2="66.1472" y2="298.741" gradientUnits="userSpaceOnUse">
<stop stop-color="#718FD3"/>
<stop offset="1" stop-color="#6270C3"/>
</linearGradient>
<linearGradient id="paint16_linear_37_227" x1="32.761" y1="351.829" x2="108.664" y2="302.761" gradientUnits="userSpaceOnUse">
<stop offset="0.2255" stop-color="#9285D4"/>
<stop offset="0.3095" stop-color="#ABA4E0"/>
<stop offset="0.4211" stop-color="#C8C7ED"/>
<stop offset="0.5267" stop-color="#DCE0F7"/>
<stop offset="0.6229" stop-color="#E9EFFD"/>
<stop offset="0.701" stop-color="#EDF4FF"/>
</linearGradient>
<linearGradient id="paint17_linear_37_227" x1="19.684" y1="314.231" x2="62.1886" y2="314.231" gradientUnits="userSpaceOnUse">
<stop stop-color="#799FDB"/>
<stop offset="0.3218" stop-color="#7494D5"/>
<stop offset="0.8859" stop-color="#6577C6"/>
<stop offset="1" stop-color="#6270C3"/>
</linearGradient>
<linearGradient id="paint18_linear_37_227" x1="103.817" y1="362.857" x2="71.5108" y2="347.796" gradientUnits="userSpaceOnUse">
<stop stop-color="#799FDB"/>
<stop offset="0.3218" stop-color="#7494D5"/>
<stop offset="0.8859" stop-color="#6577C6"/>
<stop offset="1" stop-color="#6270C3"/>
</linearGradient>
<linearGradient id="paint19_linear_37_227" x1="56.4021" y1="412.407" x2="70.5421" y2="300.95" gradientUnits="userSpaceOnUse">
<stop stop-color="#799FDB"/>
<stop offset="0.3218" stop-color="#7494D5"/>
<stop offset="0.8859" stop-color="#6577C6"/>
<stop offset="1" stop-color="#6270C3"/>
</linearGradient>
<linearGradient id="paint20_linear_37_227" x1="52.2876" y1="301.126" x2="72.1756" y2="301.126" gradientUnits="userSpaceOnUse">
<stop stop-color="#FF1E71"/>
<stop offset="0.2907" stop-color="#F51D6E"/>
<stop offset="0.7792" stop-color="#DB1A65"/>
<stop offset="1" stop-color="#CD1861"/>
</linearGradient>
</defs>
</svg>
