<svg width="70" height="70" viewBox="0 0 70 70" fill="none" xmlns="http://www.w3.org/2000/svg">
<path d="M0.372681 19.7309C0.894865 18.4537 1.73034 17.6217 3.19066 17.6016C3.33111 17.6016 3.52378 17.3535 3.60121 17.1783C3.93973 16.412 4.26744 15.6402 4.54834 14.8502C4.58164 14.7351 4.59005 14.614 4.57296 14.4953C4.55587 14.3766 4.51371 14.263 4.44934 14.1623C3.39417 12.8304 3.43196 11.3853 4.60417 10.1793C5.43967 9.31993 6.27876 8.46421 7.12506 7.62491C8.26126 6.50098 9.74677 6.44076 10.9388 7.48988C11.2143 7.73255 11.3998 7.79094 11.7473 7.61761C12.4675 7.25269 13.24 6.99726 13.9693 6.64876C14.0731 6.59285 14.1639 6.51508 14.2357 6.42067C14.3074 6.32626 14.3584 6.21741 14.3852 6.1014C14.5653 4.41185 15.6043 3.39557 17.2662 3.3755C18.6131 3.35908 19.9672 3.40652 21.3069 3.40652C21.5255 3.40067 21.74 3.34385 21.9335 3.24048C26.3414 0.912337 31.0015 0.344894 35.8632 1.17325C36.0181 1.19879 36.1711 1.23711 36.3241 1.27725C37.0948 1.47795 37.536 2.1056 37.4171 2.82995C37.2983 3.55431 36.6357 4.01409 35.8236 3.94293C34.2174 3.80244 32.6095 3.60174 30.9997 3.59262C28.5652 3.57802 26.2478 4.20932 24.0492 5.26027C23.9491 5.31746 23.8624 5.39604 23.7953 5.49056C23.7281 5.58508 23.6821 5.69328 23.6603 5.80764C23.6315 6.15978 23.5828 6.53747 24.1284 6.69803C25.0288 6.97354 25.8733 7.38954 26.7934 7.76722C27.4992 7.0155 28.3942 6.532 29.4692 6.81481C30.0245 6.97834 30.5353 7.26927 30.9619 7.66505C31.8334 8.44961 32.6328 9.3181 33.4521 10.161C34.6297 11.3726 34.673 12.8231 33.6322 14.1441C33.5661 14.2553 33.5241 14.3796 33.5092 14.5087C33.4943 14.6377 33.5068 14.7684 33.5458 14.8921C33.8141 15.6621 34.1742 16.3992 34.4461 17.1674C34.5667 17.5086 34.7306 17.6034 35.0691 17.6308C36.6987 17.7658 37.6854 18.8551 37.6998 20.5008C37.7107 21.7087 37.7107 22.9154 37.6998 24.1208C37.6818 25.7538 36.6591 26.8576 35.0457 26.9653C34.6856 26.9872 34.5577 27.1277 34.4425 27.4488C34.1652 28.2151 33.8069 28.9522 33.5422 29.7222C33.5074 29.8472 33.4994 29.9782 33.5186 30.1066C33.5379 30.235 33.584 30.3577 33.6538 30.4666C34.6712 31.7602 34.6351 33.2144 33.4917 34.4059C32.6623 35.2707 31.822 36.1222 30.9709 36.9602C29.7968 38.1152 28.3257 38.1663 27.1085 37.0807C27.0169 36.9736 26.8905 36.9031 26.7522 36.8821C26.6139 36.861 26.4727 36.8906 26.354 36.9657C25.6248 37.3106 24.8649 37.5915 24.1284 37.9236C23.9484 38.0039 23.7053 38.1827 23.6981 38.325C23.6351 39.7026 22.9779 40.6276 21.8092 41.0856C22.5565 43.0525 23.293 44.9902 24.0564 47.0026H39.8408C40.5754 43.1711 42.6047 40.0273 44.8303 36.9675C45.8387 35.5827 46.7858 34.1504 47.8536 32.6068C47.4629 32.5849 47.254 32.563 47.0451 32.5612C46.0116 32.5612 44.978 32.5612 43.9444 32.5612C42.9649 32.5612 42.3401 32.0303 42.3239 31.2147C42.3077 30.3991 42.9595 29.8353 43.9768 29.8317C45.4822 29.8317 46.9875 29.8134 48.491 29.8408C48.943 29.8499 49.1969 29.7441 49.3031 29.2697C49.548 28.164 49.8523 27.0693 50.0846 25.96C50.1981 25.4126 50.2071 24.8415 50.2755 24.1755H47.9995C46.0692 24.1755 44.1371 24.1755 42.205 24.1755C41.5514 24.1755 40.9968 23.9931 40.7123 23.3453C40.3036 22.4112 40.9554 21.4624 42.0466 21.4515C44.2073 21.4296 46.3681 21.4515 48.5163 21.4515H50.2467C50.1739 19.59 49.8249 17.7503 49.2113 15.9942C49.1663 15.8665 48.8512 15.7752 48.6711 15.7734C47.0991 15.7552 45.5254 15.7734 43.9534 15.7625C42.9667 15.7625 42.3455 15.2461 42.3329 14.4287C42.3203 13.6113 42.9685 13.0384 43.9804 13.0329C45.2589 13.0329 46.5392 13.0329 48.0445 13.0329C47.3242 12.0057 46.712 11.1062 46.0746 10.2194C45.8513 9.90744 45.5686 9.63922 45.3291 9.34C44.8141 8.69775 44.8484 7.88035 45.403 7.38042C45.9576 6.88049 46.7408 6.90055 47.326 7.52455C48.707 8.99969 49.849 10.687 50.7094 12.5239C50.9057 12.938 51.1272 13.0913 51.5737 13.0712C52.2202 13.0311 52.8702 13.0603 53.5706 13.0603C53.9091 11.5733 54.2405 10.1173 54.57 8.66309C54.8545 7.40961 55.2002 7.12315 56.4679 7.1195C57.4114 7.1195 58.3567 7.09031 59.2985 7.12862C59.7882 7.14869 60.0367 7.01003 60.251 6.52835C60.6806 5.56538 61.4233 4.78094 62.355 4.30606C63.2868 3.83119 64.3511 3.69465 65.3702 3.91922C66.3651 4.13841 67.2604 4.68535 67.9162 5.4746C68.5719 6.26386 68.9513 7.25097 68.9949 8.28175C69.0441 9.33661 68.7367 10.3769 68.1235 11.2308C67.5103 12.0847 66.628 12.7011 65.6223 12.9782C64.563 13.2795 63.4317 13.1813 62.4384 12.7018C61.4451 12.2224 60.657 11.3942 60.2204 10.3709C60.0403 9.98042 59.8602 9.8235 59.4281 9.84175C58.6682 9.89101 57.6905 9.60638 57.2061 9.98771C56.7218 10.369 56.747 11.3853 56.5633 12.1279C56.3742 12.8997 56.2032 13.677 56.0231 14.4506C55.7926 15.4468 55.3767 15.7862 54.3755 15.7917C53.6552 15.7917 52.935 15.7917 52.2147 15.7917C52.1807 15.7954 52.1474 15.804 52.1157 15.8172C52.4291 17.6691 52.7441 19.5174 53.07 21.4387C53.1817 21.4387 53.3762 21.4733 53.5724 21.4733C55.6378 21.4733 57.7139 21.4733 59.772 21.4843C60.188 21.4843 60.3932 21.3675 60.5697 20.9625C60.9954 19.9466 61.7668 19.1195 62.7437 18.6315C63.7207 18.1436 64.838 18.0274 65.8924 18.3041C66.9474 18.5756 67.8738 19.2161 68.508 20.1125C69.1422 21.0088 69.4435 22.1035 69.3586 23.203C69.2627 24.3134 68.7812 25.3532 67.9997 26.1376C67.2183 26.9221 66.1877 27.4002 65.0911 27.4871C63.2436 27.655 61.3962 26.5511 60.5895 24.7503C60.4094 24.3251 60.1826 24.2029 59.7378 24.2029C57.6941 24.2266 55.6504 24.2138 53.6067 24.2157C53.4086 24.2157 53.2105 24.2357 53.0665 24.2449C52.737 26.1187 52.4146 27.9433 52.0779 29.859C52.7783 29.859 53.5472 29.859 54.3179 29.859C55.3479 29.859 55.7728 30.213 56.0087 31.2384C56.322 32.6105 56.6479 33.9753 56.9396 35.3583C57.017 35.7232 57.1629 35.8527 57.5231 35.8381C58.1066 35.8044 58.6915 35.8044 59.2751 35.8381C59.7702 35.8765 60.0133 35.7159 60.2222 35.2342C61.0145 33.4096 62.8151 32.3824 64.7994 32.543C65.7254 32.6207 66.6064 32.9811 67.3261 33.5765C68.0459 34.172 68.5706 34.9745 68.831 35.8783C69.146 37.006 69.0325 38.2124 68.5128 39.2595C67.9931 40.3065 67.1051 41.1182 66.0238 41.5344C64.9417 41.9486 63.7447 41.9308 62.675 41.4847C61.6053 41.0386 60.7427 40.1975 60.2618 39.1315C60.0439 38.6425 59.7954 38.5184 59.3129 38.5367C58.3495 38.5713 57.3826 38.5494 56.4156 38.5367C55.2596 38.5367 54.8599 38.2082 54.5952 37.0533C54.2549 35.5736 53.9236 34.0939 53.576 32.5667C52.7351 32.5667 51.9285 32.5521 51.1254 32.5795C51.0439 32.5957 50.9664 32.6285 50.8977 32.6758C50.829 32.7232 50.7705 32.7841 50.7257 32.855C48.883 35.6247 47.0469 38.3998 45.2175 41.1805C43.9571 43.0871 42.9811 45.1197 42.5328 47.384C42.5084 47.4952 42.5065 47.6102 42.5272 47.7222C42.548 47.8341 42.5909 47.9407 42.6534 48.0353C44.5945 50.1409 44.7295 51.9472 43.0639 54.4523C44.0669 55.6803 44.4828 57.098 44.0255 58.6799C43.5681 60.2617 42.5093 61.216 40.9338 61.7269C40.9338 62.5352 40.9338 63.3507 40.9338 64.1663C40.9158 67.3976 38.8307 69.6564 35.6381 69.7568C33.1262 69.8334 30.6053 69.8316 28.0916 69.7568C24.9009 69.6619 22.8212 67.414 22.7924 64.17C22.7834 64.0114 22.7834 63.8524 22.7924 63.6938C22.9202 62.5242 22.7924 61.6867 21.4833 61.0445C19.6035 60.1322 18.5465 57.0779 20.6028 54.5217C20.2823 53.8502 19.8718 53.2317 19.6863 52.5511C19.2253 50.8725 19.6863 49.3965 20.9269 48.2032C21.0564 48.1036 21.1516 47.9652 21.1991 47.8077C21.2466 47.6502 21.244 47.4815 21.1916 47.3256C20.7268 45.2828 19.9014 43.3419 18.7554 41.5965C18.6275 41.3994 18.3124 41.2772 18.0621 41.2188C17.7848 41.1531 17.4805 41.2097 17.1888 41.2005C15.6025 41.1531 14.5329 40.1423 14.423 38.5348C14.3978 38.1845 14.2934 38.0294 13.9729 37.9072C13.1986 37.6134 12.4477 37.2522 11.6699 36.9621C11.5671 36.9294 11.4586 36.9194 11.3517 36.933C11.2448 36.9465 11.1421 36.9832 11.0505 37.0405C9.63696 38.1882 8.27385 38.1353 6.9774 36.8234C6.19772 36.037 5.41625 35.2506 4.63657 34.4515C3.42835 33.2089 3.37613 31.7803 4.45651 30.4155C4.51967 30.3139 4.56027 30.1996 4.57551 30.0805C4.59074 29.9614 4.58025 29.8404 4.54474 29.7258C4.26564 28.9376 3.93973 28.164 3.60121 27.3977C3.52378 27.2262 3.32934 26.989 3.18529 26.9872C1.69257 26.9507 0.84445 26.115 0.376285 24.7649L0.372681 19.7309ZM31.6839 32.304C31.349 31.9847 31.0249 31.7019 30.7332 31.3917C30.193 30.8151 30.193 30.2969 30.5027 29.5854C31.1089 28.1999 31.6809 26.8011 32.2187 25.3889C32.4996 24.6463 32.8993 24.285 33.7114 24.2649C34.1292 24.2649 34.5469 24.2649 34.9719 24.2649V20.3604C34.5181 20.3604 34.0968 20.3768 33.6772 20.3604C32.8525 20.3221 32.487 19.9644 32.2043 19.2072C31.6809 17.8133 31.1185 16.4333 30.5171 15.0673C30.184 14.3119 30.193 13.8084 30.753 13.2062C31.0537 12.8833 31.367 12.5731 31.5705 12.3651L28.8227 9.58084C28.6426 9.77242 28.423 10.0297 28.1835 10.2687C27.4074 11.0514 26.9627 11.0423 25.9669 10.5533C24.758 9.96578 23.5185 9.44502 22.254 8.99333C21.2853 8.64484 20.9827 8.34379 20.9755 7.28919C20.9755 6.91333 20.9755 6.53929 20.9755 6.17985H17.097C17.097 6.64876 17.097 7.05747 17.097 7.46618C17.079 8.29088 16.7261 8.66856 15.9734 8.95867C14.5977 9.48779 13.2346 10.0625 11.8913 10.6719C11.1711 11.0022 10.6201 11.0003 10.0547 10.4256C9.79757 10.1386 9.56053 9.83377 9.34526 9.51333L6.46424 12.4071C6.65511 12.5804 6.91797 12.7957 7.15566 13.0366C7.92813 13.8193 7.91373 14.2627 7.43116 15.2771C6.85466 16.5038 6.34492 17.7616 5.90423 19.0449C5.57291 19.9991 5.24161 20.3366 4.21345 20.3567C3.85332 20.3567 3.47336 20.3567 3.10243 20.3567V24.2576C3.55799 24.2576 3.97937 24.2467 4.40072 24.2576C5.17319 24.2814 5.56393 24.639 5.84123 25.3524C6.39402 26.7847 6.97202 28.2078 7.58964 29.6127C7.88134 30.2787 7.85432 30.8516 7.35194 31.3625C7.03863 31.6836 6.67493 31.9555 6.38502 32.2054L9.28222 35.1558C9.50313 34.8337 9.74368 34.526 10.0025 34.2343C10.6435 33.5793 11.1225 33.5866 11.9418 33.9698C13.2382 34.578 14.5587 35.1363 15.9032 35.6447C16.7531 35.9659 17.0862 36.307 17.0988 37.2102C17.0988 37.6116 17.0988 38.0148 17.0988 38.429H20.9773C20.9773 38.0203 20.9773 37.6609 20.9773 37.3014C20.9863 36.2906 21.2943 35.9713 22.2144 35.6283C23.5325 35.1375 24.8343 34.5828 26.1073 33.9862C26.959 33.5848 27.4326 33.5757 28.0989 34.2708C28.3488 34.5702 28.5758 34.8887 28.7777 35.2233L31.6839 32.304ZM25.4969 61.8966C25.4969 62.869 25.4447 63.7594 25.5096 64.6334C25.605 65.9489 26.5215 66.9652 27.7891 67.0053C30.5045 67.071 33.2235 67.0637 35.9388 67.0053C36.4768 66.9972 36.9937 66.7924 37.3944 66.4286C37.7951 66.0649 38.0526 65.5666 38.1194 65.0257C38.2473 64.0076 38.1464 62.9621 38.1464 61.8984L25.4969 61.8966ZM31.8424 53.0711C34.4227 53.0711 37.003 53.0711 39.5851 53.0711C39.8747 53.081 40.1641 53.0441 40.4422 52.9617C40.8058 52.8309 41.1104 52.571 41.2994 52.2302C41.4885 51.8894 41.5492 51.4906 41.4704 51.1079C41.3191 50.3161 40.6529 49.7851 39.7508 49.7833C34.5001 49.7833 29.2488 49.7833 23.997 49.7833C22.9472 49.7833 22.2234 50.4657 22.2162 51.4163C22.2072 52.3997 22.9364 53.0693 24.033 53.073C26.6343 53.0766 29.2375 53.076 31.8424 53.0711ZM31.8712 59.1232C33.2397 59.1232 34.6081 59.1232 35.9766 59.1232C37.3001 59.1232 38.6254 59.1506 39.938 59.094C40.1862 59.0894 40.4297 59.0258 40.6492 58.9084C40.8687 58.791 41.0579 58.6231 41.2017 58.4182C41.3455 58.2132 41.4399 57.9769 41.4771 57.7283C41.5144 57.4797 41.4936 57.2256 41.4163 56.9867C41.1895 56.2568 40.5863 55.8098 39.7111 55.808C34.4605 55.7983 29.2098 55.7983 23.9592 55.808C23.735 55.8117 23.5127 55.8504 23.3002 55.9229C22.9583 56.0416 22.6653 56.2728 22.4679 56.5796C22.2705 56.8864 22.18 57.2512 22.2108 57.6161C22.2419 57.9812 22.3947 58.3246 22.6441 58.5899C22.8934 58.8552 23.2245 59.0266 23.5828 59.0758C23.8505 59.1084 24.1201 59.1218 24.3896 59.1159C26.8828 59.1232 29.3755 59.1257 31.8676 59.1232H31.8712ZM66.3047 8.46786C66.3071 7.96164 66.1117 7.47503 65.7612 7.11435C65.4106 6.75367 64.9334 6.54823 64.4339 6.54294C64.1815 6.5398 63.931 6.58747 63.6969 6.68316C63.4629 6.77886 63.2499 6.92068 63.0703 7.10042C62.8908 7.28015 62.7482 7.49422 62.6509 7.73021C62.5537 7.96619 62.5036 8.2194 62.5036 8.47515C62.5089 8.97935 62.7064 9.46194 63.0547 9.82204C63.4031 10.1821 63.8752 10.3919 64.3726 10.4074C64.6254 10.41 64.8762 10.3618 65.1104 10.2654C65.3446 10.1691 65.5576 10.0266 65.737 9.84613C65.9165 9.66569 66.0587 9.45093 66.1555 9.21433C66.2524 8.97773 66.3019 8.724 66.3011 8.46786H66.3047ZM62.8943 22.8144C62.8934 23.0698 62.9423 23.3228 63.0382 23.559C63.1341 23.7952 63.2751 24.0098 63.4531 24.1906C63.6312 24.3713 63.8427 24.5146 64.0756 24.6122C64.3085 24.7099 64.5582 24.7599 64.8102 24.7594C65.3076 24.7449 65.7803 24.5364 66.1299 24.1775C66.4794 23.8186 66.6788 23.3368 66.6865 22.8326C66.687 22.577 66.6373 22.3238 66.5405 22.0877C66.4436 21.8516 66.3014 21.6374 66.1221 21.4575C65.9429 21.2776 65.7302 21.1355 65.4963 21.0396C65.2624 20.9436 65.0121 20.8957 64.7598 20.8986C64.5128 20.8996 64.2684 20.9499 64.0406 21.0468C63.8129 21.1437 63.6063 21.2852 63.4326 21.4632C63.259 21.6412 63.1217 21.8522 63.0287 22.084C62.9357 22.3159 62.8888 22.5641 62.8907 22.8144H62.8943ZM66.3029 37.1865C66.3084 36.9365 66.2649 36.6879 66.175 36.455C66.0851 36.2221 65.9505 36.0096 65.7791 35.8298C65.6076 35.6499 65.4027 35.5063 65.1761 35.4072C64.9495 35.3081 64.7058 35.2555 64.4591 35.2525C64.2068 35.2442 63.9555 35.2872 63.7199 35.379C63.4844 35.4707 63.2693 35.6094 63.0876 35.7868C62.9058 35.9642 62.7609 36.1767 62.6615 36.4118C62.5622 36.6469 62.5103 36.8997 62.509 37.1555C62.5085 37.4118 62.558 37.6658 62.6545 37.9027C62.7511 38.1397 62.8928 38.355 63.0716 38.5364C63.2504 38.7177 63.4628 38.8616 63.6966 38.9596C63.9303 39.0577 64.1809 39.108 64.4339 39.1078C64.9304 39.0964 65.403 38.8893 65.7513 38.5306C66.0996 38.1719 66.2962 37.6897 66.2993 37.1865H66.3029Z" fill="#00518F"/>
<path d="M41.6126 3.34449C41.9739 3.35405 42.3168 3.50744 42.5672 3.77143C42.8176 4.03542 42.9553 4.38874 42.9505 4.75487C42.9329 5.10889 42.7819 5.44258 42.5286 5.68704C42.2753 5.9315 41.939 6.06807 41.5892 6.06856C41.4103 6.06624 41.2337 6.02774 41.0697 5.9553C40.9057 5.88287 40.7576 5.77797 40.6341 5.64676C40.5107 5.51555 40.4144 5.36068 40.3508 5.19123C40.2872 5.02178 40.2577 4.84117 40.2639 4.66C40.2747 4.30572 40.4219 3.96976 40.6739 3.72394C40.9259 3.47812 41.2628 3.34194 41.6126 3.34449Z" fill="#00518F"/>
<path d="M21.0385 26.5566C21.0385 27.3284 20.6352 27.8575 20.0068 28.0162C19.7202 28.0861 19.4187 28.055 19.1519 27.928C18.8851 27.8009 18.6691 27.5856 18.5393 27.3174C18.3231 26.8691 18.1371 26.4064 17.9829 25.9326C17.8658 25.5822 17.693 25.4308 17.3058 25.4418C16.2525 25.4691 15.1955 25.4272 14.1439 25.4709C14.0179 25.4968 13.8982 25.5481 13.7921 25.6218C13.686 25.6954 13.5956 25.79 13.5263 25.8997C13.3462 26.1771 13.2724 26.5274 13.1481 26.843C12.7412 27.883 12.057 28.279 11.2575 27.9378C10.458 27.5966 10.2383 26.8649 10.6453 25.8085C11.5192 23.546 12.3943 21.2848 13.2706 19.0248C13.6548 18.031 14.0365 17.0366 14.4158 16.0416C14.6463 15.4359 15.0442 15.0399 15.7104 15.029C16.4073 15.018 16.8214 15.4213 17.0645 16.0526C18.3394 19.3733 19.616 22.694 20.8945 26.0147C20.9544 26.1918 21.0026 26.3729 21.0385 26.5566ZM16.717 22.6994L15.7249 20.145C15.3647 21.0975 15.0604 21.8711 14.7399 22.6994H16.717Z" fill="#00518F"/>
<path d="M23.0859 21.4369C23.0859 19.7747 23.0606 18.1143 23.0966 16.454C23.1218 15.2954 24.2383 14.6057 25.0972 15.2443C25.2817 15.3958 25.4341 15.5834 25.5455 15.796C25.6569 16.0085 25.7248 16.2416 25.7454 16.4813C25.7976 19.8458 25.785 23.214 25.7688 26.5803C25.7688 27.4743 25.1854 28.0582 24.4183 28.0509C23.6513 28.0436 23.102 27.4579 23.0912 26.5548C23.0696 24.8488 23.0859 23.1428 23.0859 21.4369Z" fill="#00518F"/>
</svg>
