<svg width="70" height="70" viewBox="0 0 70 70" fill="none" xmlns="http://www.w3.org/2000/svg">
<path d="M21.8444 23.8139V22.9919C21.8444 16.916 21.8444 10.8394 21.8444 4.76202C21.8444 2.49249 22.8046 0.839494 24.4411 0.29445C24.8608 0.16985 25.2921 0.112774 25.7239 0.124681C39.0064 0.124681 52.2895 0.124681 65.5732 0.124681C67.9904 0.124681 69.4711 1.9117 69.4711 4.86029C69.4711 24.6784 69.4711 44.4965 69.4711 64.3147C69.4711 67.2968 67.9849 69.1039 65.5402 69.1061C52.2797 69.1061 39.0192 69.1098 25.7587 69.1173C24.5162 69.1173 23.479 68.6571 22.5957 67.4643C21.4962 69.0816 20.0191 69.1352 18.4743 69.1218C13.8104 69.0816 9.14646 69.1106 4.48256 69.1061C1.94262 69.1061 0.472902 67.3191 0.471069 64.2432C0.471069 52.2597 0.471069 40.2717 0.471069 28.2793C0.471069 25.1989 1.93713 23.4186 4.4789 23.4163C9.24359 23.4163 13.9899 23.394 18.7455 23.4342C19.7571 23.4409 20.7558 23.6732 21.8444 23.8139ZM23.402 34.621C23.402 44.5166 23.402 54.4116 23.402 64.3057C23.402 66.2692 24.1882 67.2097 25.81 67.2097H65.4559C67.1254 67.2097 67.8969 66.2782 67.8969 64.2588C67.8969 44.4675 67.8969 24.6777 67.8969 4.88933C67.8969 2.9169 67.1272 2.00105 65.4889 2.00105H25.8467C24.1424 2.00105 23.402 2.9169 23.402 5.01889V34.621ZM2.01409 46.221V64.1181C2.01409 66.2581 2.80943 67.2208 4.57969 67.2208C9.2894 67.2208 13.9991 67.1672 18.707 67.2454C20.9629 67.2834 21.8682 66.5172 21.8572 63.3921C21.8169 51.9663 21.8407 40.5405 21.8389 29.1147C21.8389 28.7796 21.8389 28.4446 21.8132 28.1117C21.6666 26.0812 20.9739 25.2994 19.3099 25.2994C14.395 25.2994 9.4806 25.2994 4.56686 25.2994C2.80943 25.2994 2.01959 26.2711 2.01776 28.4267L2.01409 46.221Z" fill="#00518F"/>
<path d="M25.7166 34.6321C25.7166 31.5674 25.7166 28.5004 25.7166 25.4334C25.7166 23.3113 26.6915 22.1207 28.4379 22.1185C33.2393 22.1096 38.0406 22.1096 42.8419 22.1185C44.5481 22.1185 45.5175 23.3091 45.545 25.3821C45.545 25.4937 45.545 25.6054 45.545 25.7171C45.545 31.6515 45.545 37.5867 45.545 43.5226C45.545 45.9641 44.6525 47.0609 42.6752 47.0632C37.9673 47.0632 33.2594 47.0118 28.5515 47.0922C26.9664 47.119 25.6194 45.8792 25.6927 43.5807C25.788 40.5986 25.7166 37.6142 25.7166 34.6321ZM43.848 35.3425L43.9891 35.2777C43.9891 32.0477 43.9891 28.8176 43.9891 25.5876C43.9891 24.3478 43.7527 24.0507 42.7467 24.0507H28.4892C27.5363 24.0507 27.2614 24.3813 27.2596 25.5295C27.2596 30.7119 27.2596 35.8927 27.2596 41.0721C27.2596 41.2687 27.2926 41.4631 27.3219 41.8004C28.7788 39.6269 30.1459 37.5763 31.5203 35.5324C32.2533 34.4512 32.6675 34.4892 33.2924 35.6731C33.866 36.7587 34.4359 37.8488 35.0462 39.0104C35.3119 38.6239 35.5172 38.3402 35.7187 38.032C37.1848 35.8309 38.657 33.6299 40.1352 31.4289C40.8151 30.4148 41.2879 30.4527 41.8743 31.5652C42.5353 32.8191 43.1932 34.0774 43.848 35.3402V35.3425ZM40.9159 33.2762C39.2996 35.691 37.7199 38.0342 36.1696 40.402C36.1224 40.5247 36.0995 40.6591 36.1027 40.7945C36.1059 40.9298 36.1351 41.0624 36.1879 41.1816C36.7743 42.3744 37.3809 43.5539 38.0204 44.6976C38.1054 44.826 38.211 44.9319 38.3307 45.0088C38.4505 45.0856 38.5819 45.1317 38.7168 45.1443C40.1096 45.1868 41.5023 45.1734 42.8933 45.16C43.6593 45.16 43.9708 44.769 43.9763 43.8398C43.9873 42.4481 43.9763 41.0565 43.9763 39.6649C43.9963 39.445 43.9692 39.2225 43.8975 39.0193C42.9299 37.1183 41.9367 35.2263 40.9177 33.274L40.9159 33.2762ZM36.3986 45.1711L32.3193 37.3529L27.3146 44.8294C27.7306 44.9835 27.9798 45.1577 28.2308 45.16C30.9009 45.1756 33.571 45.1689 36.4005 45.1689L36.3986 45.1711Z" fill="#00518F"/>
<path d="M45.666 19.1141H28.5864C26.5944 19.1141 25.7111 18.0284 25.7092 15.5914C25.7074 13.1543 25.7092 10.6771 25.7092 8.23554C25.7092 6.20503 26.686 5.01443 28.3536 5.01219C39.872 5.01219 51.3903 5.01219 62.9086 5.01219C64.6038 5.01219 65.5805 6.20279 65.5934 8.28691C65.608 10.7962 65.608 13.304 65.5934 15.8103C65.5824 17.9436 64.6166 19.1096 62.8665 19.1118C57.1366 19.1178 51.4031 19.1185 45.666 19.1141ZM45.677 17.2243H62.8225C63.7388 17.2243 64.0265 16.8803 64.0283 15.7969C64.0283 13.3174 64.0283 10.8371 64.0283 8.35616C64.0283 7.26384 63.7333 6.89527 62.8408 6.89303C51.3872 6.89303 39.9331 6.89303 28.4783 6.89303C27.562 6.89303 27.2596 7.27054 27.2578 8.41424C27.2578 10.8118 27.2578 13.2087 27.2578 15.6048C27.2578 16.9048 27.5235 17.2243 28.5956 17.2243H45.677Z" fill="#00518F"/>
<path d="M52.7287 64.2141C49.3909 64.2141 46.0532 64.2141 42.7155 64.2141C40.806 64.2141 39.8658 63.0548 39.8658 60.7116C39.8658 58.2544 39.8658 55.7972 39.8658 53.3557C39.8658 51.2649 40.8591 50.0676 42.6147 50.0654C48.8784 50.0534 55.1422 50.0534 61.4059 50.0654C61.9557 50.0654 62.5054 50.0475 63.0552 50.0654C64.5946 50.1346 65.5787 51.3051 65.6007 53.1927C65.6312 55.8107 65.6312 58.4301 65.6007 61.0511C65.5787 63.0124 64.5653 64.2074 62.9489 64.2141C59.5403 64.2231 56.1336 64.2141 52.7287 64.2141ZM52.7708 51.9931C49.4099 51.9931 46.0502 51.9931 42.6917 51.9931C41.6911 51.9931 41.4089 52.317 41.4089 53.5099C41.4089 55.9357 41.4089 58.3609 41.4089 60.7853C41.4089 61.9424 41.6856 62.2775 42.6367 62.2797H62.795C63.7736 62.2797 64.0191 61.9781 64.021 60.8031C64.021 58.407 64.021 56.0095 64.021 53.6104C64.021 52.2589 63.8047 51.9931 62.707 51.9931H52.7708Z" fill="#00518F"/>
<path d="M50.2419 34.5808C50.2419 31.4014 50.2419 28.2234 50.2419 25.047C50.2419 23.0701 51.0244 22.1163 52.6334 22.114C56.1544 22.114 59.6748 22.114 63.1945 22.114C64.7999 22.114 65.6007 23.0813 65.6025 25.0403C65.6025 31.4244 65.6025 37.8071 65.6025 44.1883C65.6025 46.1205 64.82 47.0587 63.2367 47.0587C59.6937 47.0587 56.1507 47.0587 52.6078 47.0587C51.0171 47.0587 50.2474 46.1272 50.2437 44.195C50.2364 40.9917 50.2419 37.7863 50.2419 34.5808ZM51.8014 34.6322C51.8014 37.7796 51.8143 40.9292 51.8014 44.0766C51.8014 44.8406 51.97 45.1935 52.6517 45.1935C56.1727 45.1667 59.6925 45.1667 63.211 45.1935C63.8396 45.1935 64.0503 44.912 64.0485 44.1592C64.0339 37.8064 64.0339 31.4527 64.0485 25.0984C64.0485 24.2808 63.8048 24.0418 63.1634 24.0463C59.6668 24.0731 56.1697 24.0731 52.6719 24.0463C52.0195 24.0463 51.7886 24.3076 51.7959 25.114C51.8179 28.2771 51.8014 31.4557 51.8014 34.6322Z" fill="#00518F"/>
<path d="M25.7166 57.1062C25.7166 55.6565 25.7074 54.2023 25.7166 52.7593C25.7294 51.18 26.5431 50.1123 27.8405 50.0788C29.5778 50.0296 31.3157 50.0296 33.0542 50.0788C34.337 50.1167 35.1708 51.2068 35.18 52.7794C35.1959 55.6789 35.1959 58.5776 35.18 61.4755C35.18 63.1218 34.2912 64.1918 32.9369 64.2097C31.2681 64.232 29.5986 64.232 27.9285 64.2097C26.5724 64.1896 25.7294 63.1218 25.7129 61.4577V57.1062H25.7166ZM27.2596 57.2068C27.2596 58.5716 27.2596 59.9365 27.2596 61.3013C27.2596 61.9536 27.4429 62.2909 28.0183 62.2864C29.6395 62.273 31.2613 62.273 32.8838 62.2864C33.4116 62.2864 33.6168 61.996 33.6168 61.3728C33.6168 58.5582 33.6168 55.7451 33.6168 52.9335C33.6168 52.2634 33.3914 51.9797 32.8343 51.9864C31.2351 52.0058 29.6359 52.0058 28.0366 51.9864C27.4869 51.9864 27.2523 52.2813 27.2578 52.9447C27.2669 54.3676 27.2596 55.7883 27.2596 57.2068Z" fill="#00518F"/>
<path d="M11.91 56.0765C10.3147 56.0688 8.75726 55.4839 7.43507 54.3959C6.11289 53.3079 5.08555 51.7657 4.48335 49.9651C3.88115 48.1644 3.7312 46.1863 4.05253 44.2816C4.37386 42.3769 5.15198 40.6315 6.28823 39.2665C7.42447 37.9016 8.86765 36.9787 10.4348 36.6149C12.0019 36.2511 13.6223 36.4628 15.0906 37.2231C16.5589 37.9833 17.8089 39.258 18.6821 40.8854C19.5553 42.5128 20.0124 44.4196 19.9953 46.364C19.9764 48.9576 19.1148 51.4363 17.5992 53.2568C16.0837 55.0774 14.0378 56.0914 11.91 56.0765ZM5.99079 49.3126C6.6047 48.5397 7.20029 47.6953 7.88201 46.9738C8.22836 46.6075 8.33282 46.3707 8.18804 45.8145C7.90246 44.7442 7.94081 43.5846 8.29615 42.5459C8.65149 41.5071 9.30031 40.6578 10.1251 40.1518C11.6388 39.2449 13.1195 39.3968 14.4225 40.7058C15.7254 42.0148 16.1304 43.7929 15.7053 45.8212C15.6503 46.0848 15.5715 46.4913 15.6796 46.632C16.4016 47.5568 17.1713 48.4191 17.9117 49.297C19.1065 46.0245 18.2085 42.0036 15.7584 39.8413C14.5674 38.782 13.1153 38.2504 11.6425 38.3345C10.1698 38.4185 8.7648 39.1133 7.66026 40.3037C5.49599 42.6291 4.77396 46.67 5.99079 49.3126ZM9.3444 48.0527C8.39274 48.705 7.64809 49.7275 7.22961 50.9567C7.19396 51.0998 7.18534 51.2509 7.20438 51.3987C7.22342 51.5464 7.26963 51.687 7.33956 51.81C9.65043 54.9373 14.1879 54.9373 16.5409 51.81C16.6117 51.7044 16.6617 51.5804 16.6871 51.4476C16.7125 51.3148 16.7127 51.1766 16.6875 51.0438C16.2812 49.7702 15.5211 48.7109 14.5397 48.0505C12.7951 49.5762 11.0835 49.5985 9.3444 48.0527ZM11.9613 47.3156C12.5859 47.2924 13.1795 46.9785 13.6202 46.4385C14.0609 45.8984 14.3152 45.1731 14.3308 44.4117C14.3308 43.8367 14.1908 43.2746 13.9284 42.7967C13.6661 42.3188 13.2932 41.9466 12.8572 41.7273C12.4211 41.508 11.9414 41.4514 11.479 41.5647C11.0165 41.6781 10.592 41.9562 10.2594 42.3639C9.92671 42.7716 9.70083 43.2904 9.61036 43.8548C9.51989 44.4191 9.5689 45.0035 9.75119 45.5338C9.93347 46.0642 10.2408 46.5166 10.6343 46.8338C11.0277 47.151 11.4896 47.3187 11.9613 47.3156Z" fill="#00518F"/>
<path d="M11.9925 26.7871H14.3162C14.8439 26.7871 15.2324 27.0619 15.2324 27.7387C15.2324 28.4155 14.8403 28.7059 14.3162 28.7104C12.7218 28.7208 11.1275 28.7208 9.53315 28.7104C9.0182 28.7104 8.60403 28.4401 8.60769 27.7566C8.60769 27.0283 9.03652 26.7826 9.58629 26.7849C10.3981 26.7916 11.1953 26.7871 11.9925 26.7871Z" fill="#00518F"/>
<path d="M11.9099 32.3716C11.4316 32.3716 10.9515 32.3939 10.4732 32.3716C9.99489 32.3492 9.67969 32.0745 9.67419 31.4535C9.67419 30.7968 10.0022 30.4885 10.4989 30.4751C11.4573 30.4505 12.4157 30.4528 13.3742 30.4751C13.8708 30.4751 14.2171 30.7945 14.2098 31.4423C14.2025 32.0901 13.8433 32.3604 13.3485 32.3783C12.8537 32.3961 12.3901 32.3783 11.9099 32.3783V32.3716Z" fill="#00518F"/>
<path d="M11.8972 65.7219C11.417 65.7219 10.9369 65.7465 10.4605 65.7219C9.98398 65.6974 9.67794 65.398 9.66878 64.786C9.65962 64.1739 9.96382 63.8478 10.433 63.8344C11.4372 63.8031 12.4408 63.8031 13.4439 63.8344C13.9167 63.85 14.2209 64.1896 14.2062 64.7949C14.1916 65.4003 13.8672 65.6884 13.4017 65.7197C12.9014 65.7443 12.3993 65.7219 11.8972 65.7219Z" fill="#00518F"/>
<path d="M34.8666 33.6359C34.0385 33.6016 33.2546 33.1724 32.6836 32.4406C32.1126 31.7089 31.8 30.7332 31.8132 29.7234C31.8264 28.7136 32.1643 27.7505 32.7542 27.0413C33.3441 26.3322 34.1389 25.9337 34.9674 25.9316C35.3873 25.9305 35.8032 26.0314 36.1908 26.2284C36.5784 26.4255 36.9298 26.7146 37.2247 27.0791C37.5196 27.4435 37.7519 27.8759 37.9082 28.351C38.0645 28.8262 38.1415 29.3345 38.1348 29.8463C38.1281 30.3581 38.0378 30.8631 37.8692 31.3319C37.7006 31.8007 37.4571 32.2239 37.1528 32.5767C36.8485 32.9295 36.4897 33.2048 36.0971 33.3867C35.7046 33.5686 35.2863 33.6533 34.8666 33.6359ZM36.5159 29.8228C36.5188 29.5653 36.48 29.3096 36.4016 29.0704C36.3233 28.8312 36.207 28.6132 36.0594 28.4289C35.9117 28.2446 35.7357 28.0976 35.5414 27.9965C35.3471 27.8953 35.1383 27.8418 34.927 27.8392C34.5126 27.843 34.115 28.0391 33.815 28.3878C33.5151 28.7364 33.3354 29.2112 33.3126 29.7156C33.3072 30.2346 33.4668 30.7359 33.7578 31.1148C34.0488 31.4937 34.4487 31.7207 34.8739 31.7483C35.2997 31.7538 35.7101 31.5549 36.0167 31.1947C36.3232 30.8344 36.5012 30.3417 36.5122 29.8228H36.5159Z" fill="#00518F"/>
<path d="M52.5931 10.6637C52.6261 9.48647 53.1997 8.34723 54.3395 7.70837C55.5105 7.05387 56.6321 7.26161 57.5887 8.31373C58.5453 9.36584 58.8367 10.7106 58.4133 12.1826C58.2429 12.7701 58.3327 13.0761 58.6717 13.4626C59.1262 13.9674 59.5495 14.5169 59.982 15.053C60.3339 15.4886 60.4402 15.9845 60.0626 16.4514C59.6851 16.9183 59.2398 16.8244 58.8605 16.3687C58.4225 15.8416 57.9735 15.3233 57.5575 14.7694C57.2716 14.3896 57.0444 14.2645 56.5771 14.47C54.6089 15.3479 52.5931 13.5654 52.5931 10.6637ZM55.5875 12.7813C55.9695 12.786 56.3374 12.6056 56.6103 12.2797C56.8832 11.9538 57.0387 11.5091 57.0426 11.0434C57.0465 10.5778 56.8984 10.1293 56.631 9.79667C56.3637 9.46406 55.9988 9.27453 55.6168 9.26979C55.4234 9.26802 55.2316 9.31293 55.0524 9.40194C54.8733 9.49096 54.7104 9.62231 54.573 9.78843C54.4357 9.95454 54.3268 10.1521 54.2524 10.3698C54.178 10.5875 54.1398 10.821 54.1398 11.0568C54.147 11.52 54.3039 11.9609 54.5764 12.2838C54.8488 12.6067 55.2148 12.7855 55.5948 12.7813H55.5875Z" fill="#00518F"/>
<path d="M39.3216 12.9645H32.3267C32.0994 12.9645 31.8191 13.0382 31.656 12.9064C31.4012 12.7031 31.0714 12.3569 31.0622 12.0598C31.053 11.7627 31.3591 11.3897 31.5882 11.1283C31.6908 11.0099 31.9382 11.0613 32.1196 11.0613H46.5181C46.6776 11.0613 46.9011 11.0099 46.9836 11.1149C47.2127 11.4053 47.5334 11.7627 47.5334 12.1022C47.5334 12.3725 47.1797 12.7188 46.9213 12.9131C46.7527 13.0404 46.476 12.9645 46.2487 12.9645H39.3216Z" fill="#00518F"/>
<path d="M56.6083 58.0869C55.0561 58.0869 53.5039 58.0757 51.9517 58.0869C51.3854 58.0869 50.931 57.9372 50.8797 57.1442C50.8412 56.5456 51.2462 56.1993 51.9444 56.1993C55.0268 56.1993 58.1085 56.1993 61.1897 56.1993C61.8787 56.1993 62.2691 56.5634 62.2233 57.1777C62.1646 57.9283 61.7358 58.0891 61.197 58.0846C59.6687 58.0668 58.1385 58.0869 56.6083 58.0869Z" fill="#00518F"/>
<path d="M46.5199 56.1949H48.8455C49.3842 56.1949 49.7471 56.4919 49.7306 57.1755C49.7159 57.8143 49.3641 58.069 48.8491 58.069C47.2743 58.069 45.7014 58.069 44.1303 58.069C43.5805 58.069 43.2323 57.7786 43.2488 57.0906C43.2635 56.4495 43.6153 56.1837 44.1266 56.1859C44.9238 56.1971 45.7228 56.1949 46.5199 56.1949Z" fill="#00518F"/>
<path d="M57.9075 33.0797H54.4806C53.9473 33.0797 53.513 32.9032 53.4599 32.1504C53.4159 31.5317 53.8026 31.1631 54.4934 31.1609C56.7805 31.1609 59.0749 31.1609 61.3528 31.1609C61.886 31.1609 62.324 31.3261 62.3698 32.0879C62.4083 32.7178 62.0381 33.0752 61.3399 33.0819C60.1964 33.0886 59.0547 33.0797 57.9075 33.0797Z" fill="#00518F"/>
<path d="M57.9314 36.1332C59.0731 36.1332 60.2166 36.1332 61.3601 36.1332C61.9099 36.1332 62.346 36.3097 62.3644 37.0625C62.3827 37.8153 61.9447 38.032 61.4004 38.032H54.4073C53.8887 38.032 53.4727 37.8086 53.4672 37.1094C53.4672 36.3678 53.8777 36.131 54.4348 36.1355C55.6003 36.1399 56.7659 36.1332 57.9314 36.1332Z" fill="#00518F"/>
<path d="M57.9075 28.1028C56.7658 28.1028 55.6223 28.1028 54.4787 28.1028C53.929 28.1028 53.491 27.9152 53.4727 27.1713C53.4543 26.4275 53.8923 26.2019 54.4421 26.2041H61.4352C61.952 26.2041 62.3661 26.4118 62.3698 27.1244C62.3698 27.875 61.9556 28.1028 61.404 28.1006C60.233 28.1006 59.0675 28.1028 57.9075 28.1028Z" fill="#00518F"/>
<path d="M57.9222 42.9977C56.7567 42.9977 55.5912 42.9977 54.4256 42.9977C53.8759 42.9977 53.4544 42.7587 53.4672 42.017C53.4782 41.3156 53.8942 41.1057 54.4146 41.1057C56.7457 41.1057 59.0767 41.1057 61.4077 41.1057C61.9575 41.1057 62.3845 41.329 62.3643 42.084C62.3478 42.781 61.9447 42.9999 61.4187 42.9954C60.2532 42.991 59.0877 42.9977 57.9222 42.9977Z" fill="#00518F"/>
<path d="M1.97172 5.04793C2.06998 5.04764 2.16732 5.071 2.25814 5.1167C2.34896 5.1624 2.43148 5.22953 2.50096 5.31421C2.57044 5.3989 2.6255 5.49949 2.66299 5.61019C2.70047 5.7209 2.71966 5.83955 2.71941 5.95932V12.6071C2.71941 13.5006 2.91305 14.1781 3.30034 14.6398C3.68762 15.1014 4.22701 15.3248 4.9185 15.3099C5.61854 15.3099 6.1622 15.0866 6.54948 14.6398C6.93677 14.193 7.13042 13.5155 7.13042 12.6071V5.95932C7.13042 5.7176 7.20919 5.48579 7.34941 5.31487C7.48963 5.14395 7.6798 5.04793 7.8781 5.04793H7.9734C8.07158 5.04793 8.16881 5.0715 8.25952 5.1173C8.35024 5.1631 8.43267 5.23024 8.50209 5.31487C8.57152 5.3995 8.62659 5.49997 8.66417 5.61055C8.70174 5.72112 8.72109 5.83963 8.72109 5.95932V12.5735C8.74416 13.4361 8.5642 14.2888 8.20247 15.0307C7.87222 15.6872 7.39025 16.2102 6.81704 16.534C6.21509 16.8688 5.55992 17.0373 4.89833 17.0277C4.2412 17.0382 3.59032 16.8711 2.99247 16.5385C2.42467 16.2144 1.94925 15.6909 1.6272 15.0352C1.27541 14.289 1.10092 13.4382 1.12324 12.578V5.95932C1.12324 5.83945 1.14264 5.72075 1.18033 5.61003C1.21802 5.49931 1.27326 5.39874 1.34288 5.31408C1.41251 5.22942 1.49514 5.16233 1.58607 5.11666C1.677 5.07099 1.77443 5.04764 1.87277 5.04793H1.97172Z" fill="#00518F"/>
<path d="M12.2117 5.95932V15.9957C12.2117 16.2376 12.133 16.4697 11.9928 16.6409C11.8527 16.8122 11.6625 16.9087 11.464 16.9093H11.3632C11.1648 16.9087 10.9746 16.8122 10.8344 16.6409C10.6943 16.4697 10.6155 16.2376 10.6155 15.9957V5.95932C10.6155 5.7176 10.6943 5.48578 10.8345 5.31487C10.9748 5.14395 11.1649 5.04793 11.3632 5.04793H11.464C11.6623 5.04793 11.8525 5.14395 11.9927 5.31487C12.1329 5.48578 12.2117 5.7176 12.2117 5.95932Z" fill="#00518F"/>
<path d="M18.1239 10.9853L20.4366 15.5154C20.5073 15.6535 20.5463 15.8122 20.5497 15.975C20.5531 16.1377 20.5206 16.2986 20.4557 16.4409C20.3908 16.5831 20.2958 16.7016 20.1806 16.784C20.0654 16.8664 19.9342 16.9097 19.8007 16.9093H19.7732C19.6461 16.9094 19.5211 16.8699 19.4101 16.7944C19.2991 16.719 19.2058 16.6101 19.1391 16.4782L17.1599 12.6071L15.3182 16.4559C15.2517 16.5926 15.157 16.7058 15.0435 16.7842C14.93 16.8626 14.8017 16.9034 14.6713 16.9026C14.5379 16.9026 14.4069 16.859 14.292 16.7765C14.1771 16.6939 14.0823 16.5754 14.0176 16.4332C13.9529 16.291 13.9207 16.1303 13.9241 15.9677C13.9275 15.8052 13.9666 15.6467 14.0372 15.5087L16.3499 10.9786L14.0134 6.44181C13.9428 6.30386 13.9037 6.14539 13.9003 5.98283C13.8968 5.82028 13.9291 5.65957 13.9938 5.51736C14.0585 5.37515 14.1532 5.25663 14.2682 5.17408C14.3831 5.09154 14.5141 5.04798 14.6475 5.04793H14.6768C14.8039 5.04823 14.9288 5.08771 15.04 5.1627C15.1512 5.23769 15.245 5.34574 15.3127 5.47681L17.3047 9.3904L19.1611 5.50809C19.2274 5.37164 19.3218 5.25865 19.435 5.1803C19.5481 5.10195 19.676 5.06094 19.8062 5.06133C19.9397 5.06098 20.0709 5.10424 20.1861 5.18663C20.3013 5.26901 20.3963 5.3875 20.4612 5.52978C20.5261 5.67206 20.5586 5.83293 20.5552 5.99568C20.5518 6.15842 20.5128 6.3171 20.4421 6.45521L18.1239 10.9853Z" fill="#00518F"/>
</svg>
