<svg width="70" height="70" viewBox="0 0 70 70" fill="none" xmlns="http://www.w3.org/2000/svg">
<path d="M15.9536 16.0607C16.3251 15.1225 16.5295 14.9887 17.5566 14.985C18.8012 14.985 18.7844 14.9757 19.2191 13.848C19.4901 13.1342 19.8001 12.4359 20.1478 11.7561C20.3485 11.3678 20.3782 11.0984 20.0141 10.8068C19.7317 10.5661 19.469 10.3033 19.2284 10.0209C18.7659 9.49699 18.738 8.9062 19.2284 8.40273C20.7676 6.83101 22.323 5.27353 23.8944 3.7303C24.3885 3.2454 25.0999 3.18967 25.4919 3.7303C26.3352 4.91745 27.2156 4.84499 28.3152 4.14088C28.8298 3.8139 29.4855 3.71543 30.0502 3.45162C30.1539 3.39252 30.2441 3.31242 30.3151 3.21645C30.3861 3.12048 30.4363 3.01075 30.4625 2.89428C30.5294 2.51156 30.4718 2.10841 30.4848 1.71455C30.5127 0.971423 30.9102 0.523688 31.6401 0.518115C33.8407 0.499536 36.0418 0.499536 38.2436 0.518115C38.9383 0.518115 39.4639 0.986286 39.358 1.66254C39.1277 3.05219 39.7203 3.6597 41.0094 3.90679C41.551 4.03859 42.0628 4.27184 42.5177 4.59419C43.0192 4.92116 43.348 4.82456 43.6823 4.38983C43.8486 4.19627 44.0286 4.01497 44.221 3.84734C44.8748 3.22311 45.4599 3.20639 46.0933 3.83248C47.5793 5.30016 49.0542 6.77527 50.5179 8.25782C51.1494 8.89506 51.142 9.48213 50.5291 10.1324C49.5149 11.208 49.526 11.2025 50.1278 12.5773C50.4139 13.2331 50.6219 13.9223 50.9135 14.5763C50.9698 14.6714 51.0445 14.7544 51.1331 14.8204C51.2218 14.8864 51.3227 14.9342 51.4299 14.9609C51.7035 15.0099 51.9833 15.0143 52.2583 14.9739C53.1017 14.9051 53.7183 15.1596 53.8967 16.0886C56.3876 16.0886 58.8432 16.0886 61.2969 16.0886C63.617 16.0886 64.9748 17.4411 64.9748 19.7541C64.9748 32.3167 64.9748 44.8799 64.9748 57.4438V58.3727C65.3463 58.3727 65.675 58.3727 66.0112 58.3727C67.9653 58.3987 69.4031 59.8032 69.4179 61.7447C69.4272 62.7609 69.4829 63.7976 69.3269 64.7952C68.883 67.6228 66.6261 69.4899 63.7395 69.4992C59.0586 69.5104 54.3778 69.4992 49.6969 69.4992H6.52868C2.7301 69.4992 0.449097 67.2067 0.449097 63.387C0.449097 62.8538 0.449097 62.3206 0.449097 61.7874C0.473244 59.8014 1.89051 58.3931 3.88546 58.3708C4.18638 58.3708 4.48728 58.3708 4.89779 58.3708V19.9473C4.89779 17.3872 6.18506 16.0997 8.73726 16.0978H15.8273C15.8707 16.0902 15.913 16.0777 15.9536 16.0607ZM53.9115 22.799C53.5103 23.7558 53.319 23.8859 52.3011 23.8877C52.1399 23.9035 51.9775 23.9035 51.8163 23.8877C51.1996 23.7688 50.8875 24.014 50.7612 24.6308C50.6646 25.1326 50.4797 25.6131 50.2151 26.0502C49.5074 27.1352 49.4015 28.027 50.6071 28.876C51.1643 29.2643 51.116 29.9907 50.633 30.4737C49.095 32.0467 47.5397 33.6042 45.967 35.1461C45.4544 35.6515 44.8432 35.6143 44.2953 35.1127C44.0055 34.8452 43.7622 34.5182 43.4445 34.2971C43.3425 34.2321 43.228 34.1891 43.1084 34.1708C42.9887 34.1526 42.8666 34.1595 42.7498 34.1912C42.1239 34.4253 41.5499 34.8582 40.9109 34.9901C39.6627 35.2465 39.1556 35.8558 39.345 37.1563C39.4528 37.8846 38.942 38.349 38.2176 38.3546C36.0158 38.3732 33.8147 38.3732 31.6142 38.3546C30.9176 38.3546 30.5145 37.9087 30.4774 37.2102C30.4513 36.9092 30.4513 36.6065 30.4774 36.3054C30.5424 35.7481 30.3808 35.4211 29.7697 35.2892C29.2212 35.1919 28.6961 34.9914 28.2224 34.6984C27.1562 33.972 26.2739 33.9553 25.5402 35.122C25.5131 35.1599 25.4783 35.1916 25.438 35.2149C24.9235 35.5995 24.3811 35.6292 23.9223 35.1796C22.3323 33.624 20.7589 32.0516 19.2024 30.4626C18.725 29.974 18.7622 29.3664 19.234 28.8463C19.4945 28.5507 19.773 28.2715 20.068 28.0102C20.3485 27.7706 20.3466 27.5625 20.1943 27.2318C19.7763 26.3326 19.3807 25.4186 19.0464 24.4841C18.8903 24.0456 18.7176 23.806 18.2272 23.8896C18.0247 23.9249 17.8093 23.8896 17.6031 23.8989C16.7616 23.9676 16.1412 23.7131 15.9722 22.8362H11.5922V53.8991H58.2395V22.799H53.9115ZM27.0707 60.6151H4.11951C4.00434 60.6151 3.8873 60.6151 3.77214 60.6151C3.10901 60.669 2.70036 61.0591 2.65764 61.7298C2.63163 62.2871 2.65764 62.8445 2.65764 63.4018C2.65764 66.0139 3.93003 67.3033 6.5231 67.3033H61.8653C62.5377 67.3033 63.2102 67.3163 63.8826 67.3033C64.7548 67.2955 65.5892 66.9461 66.2067 66.3299C66.8242 65.7137 67.1755 64.8799 67.1852 64.0075C67.2019 63.3814 67.1852 62.7553 67.1852 62.1292C67.1852 60.9532 66.836 60.6077 65.6472 60.6077H42.7071C42.7071 61.0833 42.7183 61.453 42.7071 61.8227C42.6421 63.5783 41.2583 65.0237 39.5085 65.0442C36.4492 65.0832 33.3899 65.0776 30.3306 65.0442C29.6163 65.0318 28.9266 64.7805 28.3717 64.3303C27.8168 63.88 27.4288 63.2569 27.2695 62.5602C27.1301 61.9639 27.1395 61.3359 27.0707 60.6151ZM15.9796 18.3235H8.71123C7.43328 18.3235 7.11381 18.6449 7.11381 19.925V58.356H62.7123C62.7235 58.2166 62.7384 58.1052 62.7384 57.9956C62.7384 45.1976 62.7384 32.3997 62.7384 19.6017C62.7384 18.7415 62.3149 18.331 61.4381 18.3272C59.0048 18.3272 56.5715 18.3272 54.1363 18.3272C54.0509 18.3345 53.9664 18.3495 53.8837 18.3718V20.5492H58.8655C60.1973 20.5492 60.5094 20.8576 60.5094 22.1748V54.5177C60.5094 55.8498 60.1992 56.1637 58.8841 56.1637H10.9922C9.65856 56.1637 9.34834 55.8553 9.34834 54.54C9.34834 43.7646 9.34834 32.9836 9.34834 22.1971C9.34834 20.8595 9.65301 20.5511 10.9681 20.5492H15.9834L15.9796 18.3235ZM51.5822 17.2088H50.2523C49.6077 17.2088 49.1861 16.9023 49.0393 16.2799C48.6617 14.6532 48.0164 13.1006 47.1298 11.6855C46.7862 11.1282 46.8735 10.621 47.3304 10.1788C47.6443 9.87227 47.9843 9.58988 48.2257 9.37252L45.0011 6.13618C44.7522 6.40743 44.4662 6.74369 44.1541 7.05209C43.725 7.47753 43.2254 7.57414 42.7015 7.23787C41.2676 6.33926 39.6946 5.68448 38.0466 5.30016C37.4541 5.15897 37.1569 4.74281 37.1532 4.1353C37.1532 3.68199 37.1532 3.22683 37.1532 2.79395H32.6952C32.6952 3.26584 32.6952 3.68385 32.6952 4.09443C32.6952 4.7391 32.3888 5.16082 31.7665 5.30573C30.141 5.68535 28.5895 6.33131 27.1748 7.21744C26.6175 7.56114 26.1104 7.47196 25.6665 7.01679C25.36 6.70096 25.0776 6.36284 24.864 6.12132L21.6338 9.34465C21.8846 9.57688 22.1911 9.85369 22.4938 10.1435C22.9712 10.6098 23.0511 11.1319 22.6963 11.7115C21.82 13.1116 21.1869 14.6499 20.824 16.2613C20.6735 16.9097 20.2388 17.233 19.5627 17.22C19.1318 17.2107 18.7027 17.22 18.2718 17.22V21.6788C18.7361 21.6788 19.1708 21.6788 19.6036 21.6788C20.25 21.6788 20.668 21.9909 20.8128 22.6077C21.1911 24.2345 21.837 25.7871 22.7242 27.2021C23.0678 27.7594 22.9731 28.2685 22.5199 28.7106C22.206 29.019 21.866 29.2996 21.5725 29.5597L24.838 32.8387C25.0851 32.5452 25.3544 32.1978 25.6534 31.8801C26.1104 31.3933 26.6361 31.3227 27.2156 31.6794C28.6123 32.5461 30.1433 33.1746 31.746 33.5391C32.3962 33.6878 32.7156 34.1243 32.7026 34.8006C32.6933 35.2316 32.7026 35.6608 32.7026 36.1011H37.1606C37.1606 35.6366 37.1606 35.2019 37.1606 34.7672C37.1606 34.1225 37.469 33.7026 38.0894 33.5577C39.7161 33.1828 41.2683 32.5372 42.6811 31.6479C43.2384 31.3004 43.7455 31.3952 44.1894 31.8485C44.4959 32.1625 44.7764 32.5025 44.9881 32.7384L48.2313 29.5188C47.9601 29.268 47.6258 28.9819 47.3156 28.6698C46.8884 28.2425 46.7955 27.7409 47.1298 27.2188C48.0209 25.7798 48.6703 24.2046 49.0523 22.5557C49.1935 21.963 49.6096 21.6676 50.217 21.6639C50.6702 21.6639 51.1234 21.6639 51.5822 21.6639V17.2088ZM29.3666 60.6355C29.3666 61.048 29.348 61.3935 29.3666 61.7372C29.4112 62.3912 29.8179 62.8259 30.4811 62.8296C33.4419 62.847 36.4022 62.847 39.3618 62.8296C40.023 62.8296 40.4335 62.3912 40.4763 61.7372C40.5004 61.3768 40.4763 61.0145 40.4763 60.6355H29.3666Z" fill="#00518F"/>
<path d="M9.34097 11.6465H6.29651C4.79194 11.6465 3.2855 11.6465 1.77907 11.6465C0.850322 11.6465 0.445397 11.2452 0.441682 10.346C0.433014 8.2405 0.433014 6.13187 0.441682 4.02014C0.441682 3.15996 0.863333 2.75124 1.74193 2.74753C4.24212 2.74753 6.74231 2.74753 9.35766 2.74753C9.35766 2.35738 9.26666 1.96538 9.37997 1.64583C9.51371 1.27427 9.75147 0.806096 10.0765 0.653754C10.2637 0.594279 10.4624 0.580107 10.6561 0.612406C10.8499 0.644704 11.0332 0.722549 11.191 0.839537C13.095 2.6695 14.958 4.54404 16.8081 6.42788C17.2836 6.91092 17.2743 7.49799 16.7951 7.9866C14.9599 9.85371 13.1172 11.7153 11.2226 13.5248C11.0558 13.6489 10.8621 13.7321 10.6572 13.7676C10.4523 13.8031 10.2419 13.7899 10.0431 13.7291C9.72729 13.5935 9.50813 13.1049 9.36696 12.7259C9.25551 12.438 9.34097 12.0812 9.34097 11.6465ZM11.6312 4.51989C11.0517 4.68152 10.539 4.9379 10.0227 4.94905C7.8271 4.9955 5.62968 4.96949 3.43227 4.96949H2.71711V9.42827C5.17458 9.42827 7.58006 9.43942 9.98366 9.42827C10.6078 9.42827 11.1669 9.48772 11.4436 10.0098L14.2726 7.15801L11.6312 4.51989Z" fill="#00518F"/>
<path d="M60.515 2.74379H67.8316C69.1003 2.74379 69.4217 3.06891 69.4217 4.35267C69.4217 6.32197 69.4217 8.29126 69.4217 10.2606C69.4217 11.2545 69.026 11.6428 68.0267 11.6446C65.7977 11.6446 63.578 11.6446 61.3545 11.6446H60.5242C60.5242 11.9902 60.5242 12.2837 60.5242 12.5736C60.541 13.1309 60.3385 13.5731 59.7812 13.7886C59.224 14.0041 58.8413 13.7737 58.481 13.404C57.2848 12.2125 56.0867 11.0173 54.8868 9.8184C54.3295 9.26105 53.7723 8.7037 53.215 8.14635C52.5445 7.45896 52.5444 6.91833 53.2298 6.23093C54.9635 4.48829 56.6972 2.74998 58.4308 1.01601C58.8153 0.629584 59.2333 0.375062 59.7924 0.603574C60.3515 0.832087 60.5354 1.31698 60.5113 1.90405C60.5057 2.14186 60.515 2.40195 60.515 2.74379ZM58.377 10.0506C58.6965 9.46355 59.263 9.40782 59.889 9.41339C62.0678 9.43197 64.2467 9.41339 66.4236 9.41339H67.1555V4.9546H66.4441C64.2151 4.9546 61.9861 4.97876 59.7701 4.93417C59.2723 4.93417 58.7801 4.6685 58.3528 4.54402L55.6112 7.27132C56.4768 8.15378 57.4093 9.08455 58.377 10.0506Z" fill="#00518F"/>
<path d="M50.5012 51.6771H48.2983V46.7297L48.1422 46.6888C47.5367 47.8939 46.9311 49.1003 46.3256 50.3079C46.0154 50.921 45.7962 51.6604 44.9176 51.6492C44.039 51.6381 43.8402 50.8894 43.5319 50.2763C42.9338 49.0836 42.3375 47.8908 41.6335 46.7204V51.6585H39.412C39.399 51.4727 39.3748 51.2758 39.3748 51.0752C39.3748 48.0618 39.3748 45.0484 39.3655 42.035C39.3655 41.3699 39.5067 40.8274 40.207 40.6137C40.7865 40.4372 41.2528 40.7419 41.6428 41.5185L44.5275 47.2982C44.639 47.5193 44.7616 47.7329 44.9269 48.0413C45.0903 47.7534 45.2204 47.5471 45.3281 47.3316C46.3014 45.3846 47.2822 43.4432 48.2388 41.4888C48.5304 40.8887 48.9056 40.4725 49.6282 40.6082C50.2133 40.7178 50.4956 41.1859 50.4975 42.0015C50.4975 45.0372 50.4975 48.0717 50.4975 51.1049L50.5012 51.6771Z" fill="#00518F"/>
<path d="M36.0684 51.666C35.7192 48.5448 34.2295 47.0734 31.6104 47.3075V51.6715H29.3629V51.0324C29.3629 48.045 29.3629 45.0577 29.3629 42.0703C29.3629 40.937 29.7214 40.584 30.8619 40.584H34.6809C36.3675 40.584 37.6436 41.4516 38.1024 42.8933C38.5612 44.335 38.0541 45.7302 36.661 46.7557C36.6005 46.8058 36.5435 46.8598 36.4901 46.9173C37.6125 48.2475 38.2365 49.9273 38.2547 51.6678L36.0684 51.666ZM31.6476 42.8134V45.0298C32.7881 45.0298 33.8766 45.0521 34.9577 45.0298C35.2416 45.0214 35.5112 44.9034 35.7101 44.7005C35.909 44.4977 36.0217 44.2257 36.0246 43.9416C36.0275 43.6575 35.9203 43.3833 35.7256 43.1765C35.5309 42.9696 35.2636 42.8462 34.9799 42.832C33.8766 42.7911 32.7732 42.8134 31.6457 42.8134H31.6476Z" fill="#00518F"/>
<path d="M28.228 43.8928H26.0677C25.8913 42.9639 25.2319 42.7428 24.3737 42.8022C23.8425 42.8375 23.3075 42.8022 22.7744 42.8134C22.0314 42.8375 21.5949 43.2407 21.5838 43.9745C21.5633 45.4125 21.5652 46.8486 21.5838 48.2866C21.5838 49.0594 22.0258 49.4626 22.8134 49.483C23.3706 49.4979 23.9279 49.483 24.4851 49.483C25.5086 49.483 25.7093 49.3474 26.0975 48.3924H28.163C28.3747 49.979 26.9092 51.5991 25.1464 51.6938C24.2437 51.744 23.339 51.744 22.4364 51.6938C21.6286 51.6418 20.8687 51.293 20.3026 50.7145C19.7364 50.1359 19.4042 49.3684 19.3696 48.5597C19.3232 46.9619 19.3269 45.3605 19.3696 43.7609C19.4032 42.9311 19.7486 42.1446 20.3367 41.5584C20.9248 40.9722 21.7125 40.6295 22.5422 40.5989C23.3762 40.5673 24.2139 40.5691 25.0442 40.5989C26.8051 40.6509 28.1519 42.0312 28.228 43.8928Z" fill="#00518F"/>
<path d="M34.9168 31.6813C28.2503 31.6962 22.7168 26.2081 22.6908 19.5515C22.6629 12.7575 28.1203 7.20629 34.8314 7.20072C36.4454 7.18871 38.0458 7.49618 39.5406 8.10542C41.0353 8.71466 42.3947 9.61364 43.5406 10.7506C44.6865 11.8875 45.5962 13.24 46.2173 14.73C46.8384 16.2201 47.1586 17.8183 47.1596 19.4326C47.1561 22.6795 45.8653 25.7924 43.5702 28.0886C41.2751 30.3849 38.1631 31.6769 34.9168 31.6813ZM27.1525 25.6285C27.3884 23.3898 28.267 21.5822 29.9016 20.1628C29.9945 20.0792 29.9703 19.8042 29.9294 19.6352C29.7567 18.9199 29.4428 18.2176 29.3908 17.4968C29.32 16.377 29.5948 15.2626 30.1778 14.304C30.7608 13.3454 31.624 12.589 32.6507 12.137C33.6827 11.6719 34.8322 11.5339 35.9449 11.7415C37.0576 11.949 38.0802 12.4922 38.8752 13.2981C39.6698 14.0875 40.2015 15.103 40.3976 16.2059C40.5938 17.3089 40.4448 18.4454 39.9711 19.4605C39.7853 19.873 39.8299 20.0885 40.1568 20.3894C41.375 21.4806 42.2077 22.9365 42.5307 24.5398C42.6031 24.8687 42.644 25.2049 42.7072 25.5839C45.4265 22.5687 46.0637 16.6403 42.1666 12.5383C41.2638 11.5853 40.1819 10.8198 38.983 10.2853C37.7842 9.75088 36.4917 9.45803 35.1796 9.42352C33.8674 9.38902 32.5614 9.61353 31.3361 10.0842C30.1108 10.5549 28.9902 11.2626 28.0385 12.1667C23.9242 16.0756 24.1675 22.1321 27.1525 25.6285ZM31.4916 21.6044C31.1721 21.976 30.8285 22.3476 30.5146 22.7414C29.4707 24.0568 29.3053 25.5969 29.3499 27.2002C29.3374 27.3798 29.3797 27.5589 29.4713 27.7138C29.5628 27.8687 29.6993 27.9922 29.8626 28.0678C32.7046 29.66 35.6487 29.8885 38.682 28.7088C40.5246 27.9917 40.5617 27.9155 40.48 25.9518C40.4602 25.1146 40.249 24.2931 39.8626 23.5501C39.4762 22.8072 38.925 22.1626 38.251 21.6658C36.0332 23.1464 33.8246 23.1483 31.4916 21.6044ZM34.9298 20.5473C35.807 20.544 36.6477 20.196 37.2707 19.5785C37.8937 18.9609 38.2491 18.1232 38.2603 17.246C38.2635 16.8048 38.1794 16.3674 38.0128 15.9588C37.8462 15.5503 37.6004 15.1788 37.2896 14.8657C36.9788 14.5526 36.6092 14.3042 36.2019 14.1346C35.7947 13.965 35.3579 13.8777 34.9168 13.8777C34.0397 13.8806 33.1988 14.2281 32.5754 14.8453C31.9521 15.4625 31.5962 16.3 31.5845 17.1772C31.5811 17.6187 31.665 18.0565 31.8316 18.4654C31.9982 18.8742 32.2442 19.2461 32.5552 19.5594C32.8662 19.8727 33.2361 20.1213 33.6437 20.2909C34.0513 20.4604 34.4884 20.5476 34.9298 20.5473Z" fill="#00518F"/>
</svg>
