<svg width="40" height="39" viewBox="0 0 40 39" fill="none" xmlns="http://www.w3.org/2000/svg">
<circle cx="20.4081" cy="19.5281" r="19.4243" fill="#00518F"/>
<circle cx="20.4081" cy="19.5281" r="19.4243" fill="white" fill-opacity="0.2"/>
<path d="M25.9957 18.0281C25.1672 18.0281 24.4957 18.6997 24.4957 19.5281C24.4957 20.3565 25.1672 21.0281 25.9957 21.0281L25.9957 18.0281ZM27.6564 20.5887C28.2422 20.0029 28.2422 19.0532 27.6564 18.4674L18.1104 8.9215C17.5247 8.33571 16.5749 8.33572 15.9891 8.92151C15.4033 9.50729 15.4033 10.457 15.9891 11.0428L24.4744 19.5281L15.9892 28.0134C15.4034 28.5992 15.4034 29.5489 15.9892 30.1347C16.575 30.7205 17.5247 30.7205 18.1105 30.1347L27.6564 20.5887ZM25.9957 21.0281L26.5958 21.0281L26.5958 18.0281L25.9957 18.0281L25.9957 21.0281Z" fill="white"/>
</svg>
