<svg width="40" height="39" viewBox="0 0 40 39" fill="none" xmlns="http://www.w3.org/2000/svg">
<circle cx="19.592" cy="19.5281" r="19.4243" transform="rotate(-180 19.592 19.5281)" fill="#00518F"/>
<circle cx="19.592" cy="19.5281" r="19.4243" transform="rotate(-180 19.592 19.5281)" fill="white" fill-opacity="0.2"/>
<path d="M14.0044 21.0281C14.8328 21.0281 15.5044 20.3566 15.5044 19.5281C15.5044 18.6997 14.8328 18.0281 14.0044 18.0281L14.0044 21.0281ZM12.3436 18.4675C11.7579 19.0533 11.7579 20.003 12.3436 20.5888L21.8896 30.1347C22.4754 30.7205 23.4252 30.7205 24.0109 30.1347C24.5967 29.5489 24.5967 28.5992 24.0109 28.0134L15.5256 19.5281L24.0109 11.0428C24.5967 10.457 24.5967 9.50729 24.0109 8.92151C23.4251 8.33572 22.4753 8.33572 21.8896 8.92151L12.3436 18.4675ZM14.0044 18.0281L13.4043 18.0281L13.4043 21.0281L14.0044 21.0281L14.0044 18.0281Z" fill="white"/>
</svg>
