<svg width="70" height="70" viewBox="0 0 70 70" fill="none" xmlns="http://www.w3.org/2000/svg">
<path d="M59.8424 0.385576C62.8894 2.28625 65.931 4.1964 68.9889 6.07949C69.5051 6.39604 69.7178 6.74911 69.711 7.37411C69.6758 10.5166 69.6826 13.6605 69.711 16.8031C69.7283 17.0238 69.6806 17.2447 69.5737 17.4387C69.4668 17.6327 69.3054 17.7912 69.1095 17.8948C66.1911 19.7057 63.2796 21.5284 60.3748 23.3628C59.8112 23.7199 59.3289 23.7294 58.7585 23.3628C55.8547 21.5248 52.9418 19.7026 50.0198 17.8961C49.505 17.5769 49.2896 17.1792 49.2936 16.5717C49.3126 13.5415 49.3126 10.5112 49.2936 7.48098C49.2936 6.83569 49.547 6.44474 50.0767 6.11871C52.8668 4.39616 55.6487 2.66188 58.4225 0.915873C58.6827 0.753538 58.9238 0.558736 59.1731 0.374756L59.8424 0.385576ZM52.2404 7.16307C52.4423 7.29835 52.5832 7.40928 52.7322 7.50127C54.8444 8.82024 56.9661 10.123 59.0647 11.465C59.4549 11.7152 59.7123 11.6828 60.0809 11.4487C62.1063 10.1595 64.1454 8.89871 66.1776 7.62573C66.3944 7.49045 66.6017 7.34164 66.8699 7.16037C64.4854 5.67229 62.1714 4.21669 59.837 2.79355C59.673 2.69344 59.3194 2.76243 59.1284 2.87607C58.0107 3.54164 56.916 4.2451 55.8118 4.93367L52.2404 7.16307ZM60.5591 20.76C60.6727 20.7267 60.7836 20.6851 60.891 20.6355C63.0805 19.2706 65.2739 17.9124 67.4457 16.5203C67.6354 16.3986 67.7777 16.055 67.7804 15.8115C67.8075 13.7268 67.7966 11.6408 67.7939 9.55481C67.7939 9.41276 67.7668 9.27072 67.7506 9.10703C67.6655 9.12789 67.5825 9.15642 67.5026 9.19226C65.3132 10.5572 63.1184 11.9127 60.9479 13.3061C60.742 13.4414 60.5808 13.8012 60.5754 14.061C60.5428 15.7195 60.5591 17.3794 60.5591 19.0392V20.76ZM51.3232 9.00963C51.3232 11.4379 51.3124 13.7228 51.3422 16.0063C51.3422 16.2051 51.5765 16.4635 51.7703 16.588C53.667 17.7933 55.5638 18.977 57.4606 20.1661C57.7763 20.3636 58.0974 20.553 58.4943 20.7938C58.5092 20.4732 58.5282 20.2527 58.5282 20.043C58.5282 18.4521 58.4266 16.8518 58.5607 15.2717C58.6745 13.9338 58.2153 13.1762 57.046 12.535C55.1249 11.4839 53.3067 10.2474 51.3164 9.00963H51.3232Z" fill="#00518F"/>
<path d="M11.3826 0.385566C12.6426 1.19724 13.8972 2.00892 15.1626 2.80842C16.9117 3.91094 18.6608 5.01077 20.4275 6.08353C21.0047 6.43391 21.2648 6.85598 21.2567 7.55808C21.2214 10.545 21.2282 13.532 21.2567 16.519C21.2567 17.1818 21.0196 17.6012 20.4614 17.9462C17.5946 19.7165 14.739 21.5049 11.8948 23.3113C11.2621 23.7172 10.7459 23.7239 10.1037 23.3113C7.26392 21.4986 4.40748 19.7116 1.53433 17.9502C0.949037 17.5904 0.707877 17.1561 0.721425 16.4703C0.746715 13.5059 0.746715 10.5414 0.721425 7.57701C0.721425 6.88844 0.958532 6.44743 1.54518 6.09706C2.97182 5.24344 4.37001 4.33843 5.7831 3.46858C6.48084 3.03704 7.00247 3.1128 7.35744 3.67556C7.71241 4.23832 7.53357 4.75779 6.84938 5.18392C5.81022 5.84273 4.76293 6.48937 3.66416 7.17523C6.05409 8.66331 8.37627 10.1216 10.7093 11.5583C10.7903 11.6035 10.8805 11.6299 10.9732 11.6355C11.0658 11.6411 11.1585 11.6258 11.2445 11.5908C13.5937 10.146 15.9308 8.67954 18.3424 7.17253L13.3688 4.06111C12.5112 3.51999 11.6536 2.99105 10.7946 2.45399C9.74464 1.79653 9.7216 1.14584 10.7201 0.380157L11.3826 0.385566ZM2.74557 9.00286C2.74557 11.4271 2.73337 13.693 2.76588 15.9603C2.76588 16.1781 3.00976 16.4649 3.21705 16.5974C5.2615 17.9015 7.32356 19.1813 9.38156 20.4637C9.54143 20.5638 9.71618 20.6423 9.90722 20.7424C9.93923 20.6644 9.96285 20.5832 9.97767 20.5002C9.97767 18.2992 9.9953 16.0996 9.96414 13.9C9.96414 13.6741 9.73382 13.3764 9.52518 13.2425C8.17034 12.3632 6.78975 11.5191 5.41731 10.6641L2.74557 9.00286ZM19.2163 9.01909C16.8087 10.518 14.5231 11.9357 12.2511 13.3764C12.1088 13.4671 12.0221 13.7512 12.0194 13.946C12.0045 16.101 12.0099 18.256 12.0194 20.411C12.0328 20.5405 12.0554 20.6689 12.0872 20.7952C14.4378 19.3206 16.7166 17.8961 18.986 16.4567C19.0521 16.4046 19.1065 16.3391 19.1455 16.2645C19.1845 16.1899 19.2072 16.1079 19.2122 16.0239C19.2204 13.7349 19.2163 11.4474 19.2163 9.01909Z" fill="#00518F"/>
<path d="M21.2418 57.7399C21.2418 59.2659 21.2269 60.7918 21.2499 62.3178C21.2662 62.5738 21.2092 62.8291 21.0857 63.054C20.9622 63.279 20.7771 63.4642 20.5522 63.5881C17.6366 65.4008 14.7268 67.2239 11.823 69.0574C11.2336 69.4308 10.7391 69.4213 10.147 69.0466C7.28561 67.2293 4.41248 65.4324 1.52758 63.6557C0.943646 63.2959 0.70655 62.8575 0.714679 62.1676C0.741776 59.1834 0.741776 56.1986 0.714679 53.2135C0.714679 52.5817 0.93821 52.1705 1.47608 51.839C4.39981 50.0353 7.31362 48.2176 10.2175 46.3859C10.7662 46.041 11.2336 46.0464 11.7742 46.3859C14.6997 48.2257 17.632 50.0552 20.5711 51.8742C21.0602 52.1786 21.2648 52.5709 21.2485 53.154C21.2296 54.6867 21.2418 56.214 21.2418 57.7399ZM18.3248 52.8766C15.9308 51.3886 13.6141 49.9289 11.2797 48.499C11.1874 48.4543 11.0862 48.431 10.9836 48.431C10.8811 48.431 10.7799 48.4543 10.6876 48.499C8.35729 49.9316 6.03916 51.3845 3.70749 52.8401C3.75067 52.9023 3.80118 52.959 3.85789 53.0092C6.12182 54.4242 8.38168 55.8501 10.6619 57.2299C10.8434 57.3395 11.2241 57.2908 11.4246 57.1704C13.0951 56.1612 14.7454 55.1182 16.3996 54.0833C17.0296 53.7005 17.642 53.3068 18.3248 52.8766ZM9.92485 66.4438C9.9542 66.348 9.9746 66.2498 9.98581 66.1502C9.98581 63.9736 10.0061 61.7956 9.96953 59.619C9.96953 59.3795 9.71078 59.0657 9.48588 58.9223C7.42247 57.606 5.34142 56.3195 3.2631 55.0276C3.12084 54.9383 2.96236 54.8747 2.75236 54.7705C2.75236 57.1393 2.74556 59.4269 2.76724 61.7158C2.78229 61.8184 2.81876 61.9167 2.87431 62.0043C2.92986 62.092 3.00327 62.1669 3.08971 62.2244C5.25745 63.5935 7.42518 64.9449 9.59292 66.299C9.69805 66.3543 9.80665 66.4026 9.91807 66.4438H9.92485ZM19.2244 54.8247C19.132 54.8362 19.0411 54.858 18.9535 54.8896C16.7437 56.2654 14.5299 57.6331 12.3378 59.0359C12.1522 59.1563 12.0275 59.508 12.0235 59.7542C11.9977 61.5264 12.0099 63.2986 12.0099 65.0707V66.456C12.1248 66.4194 12.2366 66.3742 12.3446 66.3207C14.534 64.9557 16.7261 63.5948 18.9006 62.2055C19.0741 62.0932 19.1987 61.7767 19.2028 61.5521C19.2312 60.2291 19.2163 58.9047 19.2176 57.5817L19.2244 54.8247Z" fill="#00518F"/>
<path d="M25.0069 34.8872C25.0069 33.3613 25.0218 31.834 25.0002 30.3067C24.981 30.0499 25.0367 29.793 25.1605 29.5671C25.2843 29.3412 25.4709 29.156 25.6979 29.0337C28.6586 27.2038 31.6126 25.3622 34.5598 23.5089C35.0584 23.195 35.5083 23.2086 36.0014 23.5183C38.9495 25.3681 41.9031 27.2101 44.862 29.0445C45.0791 29.1623 45.2581 29.3393 45.378 29.5549C45.498 29.7705 45.554 30.0158 45.5394 30.262C45.5223 33.3157 45.5223 36.3694 45.5394 39.4231C45.5568 39.6912 45.4974 39.9586 45.368 40.1941C45.2387 40.4296 45.0449 40.6234 44.8092 40.7529C41.8891 42.5675 38.9762 44.391 36.0705 46.2236C35.5028 46.5821 35.007 46.5591 34.4447 46.206C31.5399 44.3689 28.627 42.5454 25.706 40.7353C25.2142 40.4296 24.9907 40.0508 25.0002 39.4691C25.0232 37.9418 25.0069 36.4145 25.0069 34.8872ZM42.6089 30.028C40.2014 28.5237 37.9036 27.0748 35.5855 25.6625C35.4093 25.5556 35.03 25.6179 34.8295 25.7396C32.6617 27.0627 30.5184 28.4127 28.3696 29.7601C28.2376 29.8554 28.1114 29.9584 27.9916 30.0686C30.1593 31.4214 32.2959 32.7052 34.3702 34.0796C35.0598 34.5368 35.5231 34.5098 36.1965 34.0661C38.2721 32.6957 40.4019 31.4092 42.6089 30.028ZM43.5031 31.9503C43.4175 31.9683 43.334 31.995 43.2539 32.0301C41.0428 33.4046 38.8262 34.7722 36.6314 36.1751C36.4417 36.2968 36.2981 36.6404 36.294 36.8826C36.2683 38.9699 36.2778 41.0587 36.2819 43.146C36.2956 43.3159 36.3192 43.4848 36.3523 43.652C38.6908 42.1882 40.9764 40.7651 43.2457 39.323C43.3907 39.231 43.4855 38.9605 43.4923 38.7684C43.5194 37.9838 43.5031 37.1978 43.5031 36.4118V31.9503ZM27.0311 31.8597V32.5564C27.0311 34.5531 27.0446 36.5498 27.0216 38.5465C27.0216 38.9997 27.1449 39.2676 27.5459 39.5111C29.5958 40.761 31.6226 42.0475 33.6603 43.3178C33.8215 43.4193 33.9976 43.4977 34.251 43.6317C34.251 41.225 34.2618 38.9172 34.232 36.6107C34.232 36.4321 33.9841 36.2048 33.7971 36.0898C32.3406 35.1605 30.8707 34.2514 29.4047 33.3369L27.0311 31.8597Z" fill="#00518F"/>
<path d="M67.7885 54.7191L63.5005 57.3882C62.6876 57.8982 61.8747 58.4326 61.0387 58.9114C60.6485 59.1347 60.5415 59.4052 60.5442 59.834C60.5618 62.5505 60.5442 65.2669 60.5564 67.9819C60.5564 68.496 60.5293 68.9749 60.0036 69.2549C59.5037 69.5255 59.104 69.2887 58.6908 69.0303C55.8185 67.2284 52.949 65.4238 50.0646 63.6435C49.5023 63.2972 49.276 62.8724 49.2815 62.2123C49.3068 59.228 49.3068 56.2428 49.2815 53.2568C49.2815 52.5993 49.4982 52.1745 50.0646 51.8282C52.9549 50.0524 55.8307 48.2573 58.6921 46.4427C59.3127 46.0491 59.8153 46.064 60.4236 46.4495C63.2878 48.2623 66.1636 50.057 69.0512 51.8336C69.4929 52.1042 69.707 52.4072 69.7015 52.9619C69.6726 56.149 69.6726 59.3367 69.7015 62.5247C69.7015 63.0469 69.5091 63.3486 69.0864 63.607C67.7831 64.4011 66.4974 65.2303 65.1994 66.0271C64.4895 66.4668 63.8771 66.3843 63.5573 65.8296C63.2498 65.298 63.449 64.7474 64.121 64.3267C65.2048 63.6422 66.2968 62.9739 67.3658 62.2745C67.5568 62.1487 67.7723 61.8795 67.7723 61.6752C67.7994 59.412 67.7885 57.1474 67.7885 54.7191ZM52.2418 52.8685C52.4206 52.9957 52.5426 53.0917 52.6726 53.1729C54.8038 54.504 56.9458 55.819 59.062 57.1717C59.4549 57.4234 59.715 57.3814 60.0809 57.1488C62.1443 55.8365 64.2239 54.55 66.2968 53.2527C66.4757 53.1404 66.645 53.0146 66.8632 52.8631C64.499 51.3872 62.2025 49.9411 59.8858 48.5342C59.7056 48.4246 59.3262 48.4733 59.1257 48.5923C57.7587 49.404 56.416 50.2617 55.0612 51.1045C54.1345 51.6835 53.2037 52.2625 52.2418 52.8685ZM51.3151 54.7137C51.3151 57.073 51.3313 59.2686 51.3015 61.4642C51.3015 61.9173 51.4722 62.1406 51.8259 62.3624C53.8703 63.6232 55.9025 64.903 57.9402 66.1732C58.1001 66.2733 58.2749 66.3504 58.5255 66.483C58.5255 64.0845 58.535 61.7983 58.5079 59.5121C58.5079 59.3281 58.2952 59.0873 58.1163 58.971C57.0623 58.2864 55.9906 57.6303 54.9243 56.9648L51.3151 54.7137Z" fill="#00518F"/>
<path d="M35.2291 12.5188C32.2837 12.5188 29.3383 12.5188 26.3915 12.5188C25.6003 12.5188 25.1884 12.1319 25.2304 11.4555C25.2656 10.9144 25.5515 10.5829 26.1016 10.5085C26.2583 10.4952 26.4158 10.492 26.573 10.4991C32.3537 10.4991 38.1343 10.5031 43.9149 10.5112C44.2699 10.5112 44.7495 10.5924 44.9473 10.8251C45.1451 11.0578 45.2562 11.6138 45.1275 11.9073C44.9988 12.2009 44.5327 12.485 44.2062 12.4944C42.2729 12.5485 40.3382 12.5215 38.4048 12.5228L35.2291 12.5188Z" fill="#00518F"/>
<path d="M35.2711 59.2754C32.3257 59.2754 29.3803 59.2754 26.4349 59.2754C25.5082 59.2754 24.9446 58.4434 25.4499 57.7629C25.6586 57.4829 26.1572 57.2827 26.5271 57.2786C29.6296 57.2408 32.7336 57.257 35.8361 57.257C38.6027 57.257 41.3679 57.257 44.1331 57.257C44.8851 57.257 45.2576 57.5668 45.3023 58.1796C45.3538 58.8641 44.9488 59.2713 44.1765 59.2727C41.456 59.2727 38.7341 59.2727 36.0136 59.2727L35.2711 59.2754Z" fill="#00518F"/>
<path d="M60.5076 34.8832C60.5076 36.7906 60.5076 38.6994 60.5076 40.6082C60.5076 41.4361 60.1161 41.9082 59.4684 41.8906C58.8452 41.8744 58.4875 41.4212 58.4875 40.6204C58.4875 36.7811 58.4875 32.9419 58.4875 29.1027C58.4875 28.2815 58.8262 27.877 59.4901 27.8743C60.154 27.8716 60.5076 28.2802 60.509 29.0919C60.5117 31.0209 60.5076 32.9514 60.5076 34.8832Z" fill="#00518F"/>
<path d="M10.0333 34.8899C10.0333 32.9825 10.0333 31.0746 10.0333 29.1662C10.0333 28.3546 10.3733 27.9244 11.0169 27.9068C11.6835 27.8879 12.0547 28.3343 12.056 29.1784C12.056 32.996 12.056 36.8127 12.056 40.6285C12.056 41.4726 11.6889 41.9312 11.0372 41.9271C10.3855 41.9231 10.0346 41.4699 10.0333 40.6149C10.0315 38.7048 10.0315 36.7965 10.0333 34.8899Z" fill="#00518F"/>
<path d="M20.498 21.2456C20.7005 21.3259 20.897 21.4204 21.086 21.5284C22.4932 22.4474 23.8964 23.3718 25.2955 24.3016C25.9553 24.7426 26.1084 25.2851 25.7494 25.8303C25.4053 26.3538 24.8308 26.4133 24.1588 25.9736C22.7362 25.0389 21.3136 24.096 19.8978 23.1571C19.4914 22.8866 19.2556 22.5308 19.4236 22.0208C19.5808 21.5541 19.9006 21.2808 20.498 21.2456Z" fill="#00518F"/>
<path d="M20.1904 49.2484C19.975 49.0347 19.5699 48.8115 19.4859 48.5017C19.4019 48.1919 19.5062 47.6102 19.7393 47.4452C21.2905 46.3426 22.8866 45.3037 24.4934 44.2823C24.9567 43.9888 25.4133 44.1741 25.7208 44.6165C26.0474 45.0859 26.0501 45.6 25.5718 45.9287C24.0029 47.0109 22.4029 48.0391 20.8082 49.078C20.6876 49.1619 20.5129 49.1659 20.1904 49.2484Z" fill="#00518F"/>
<path d="M51.1715 47.9958C51.1823 48.9238 50.3735 49.4703 49.711 49.0577C48.1136 48.0634 46.5515 47.0136 44.9961 45.9544C44.5138 45.627 44.4827 45.1279 44.7983 44.649C45.114 44.1701 45.5814 43.9847 46.0746 44.2986C47.6611 45.3091 49.2286 46.3508 50.784 47.41C50.994 47.5561 51.0902 47.8727 51.1715 47.9958Z" fill="#00518F"/>
<path d="M45.4621 26.3497C45.2386 26.1414 44.8972 25.9304 44.7102 25.6246C44.4541 25.212 44.6018 24.7616 44.9906 24.4978C46.5473 23.4426 48.1162 22.4023 49.7028 21.3863C50.1973 21.0698 50.6647 21.2619 50.9777 21.7367C51.2906 22.2115 51.2622 22.7148 50.7812 23.0422C49.2259 24.1014 47.6475 25.1255 46.0718 26.1536C45.9472 26.2402 45.7792 26.251 45.4621 26.3497Z" fill="#00518F"/>
</svg>
