<svg width="180" height="38" viewBox="0 0 180 38" fill="none" xmlns="http://www.w3.org/2000/svg">
<g clip-path="url(#clip0_60_491)">
<path d="M43.7719 9.1198C43.1862 8.49125 42.6871 7.8576 42.0926 7.33487C39.2625 4.83016 35.5783 3.55484 31.8327 3.78326C28.0871 4.01168 24.5793 5.72559 22.064 8.55627C18.6315 12.3901 17.4237 16.9021 18.4396 21.9713C19.7088 28.313 24.8858 33.1769 31.1615 34.0834C34.7885 34.6036 38.1659 33.91 41.3389 32.0945C42.0813 31.6699 42.0851 31.6674 42.667 32.4872C41.4551 33.4578 40.0848 34.2044 38.6186 34.6928C32.3329 36.8424 26.5952 35.7727 21.4934 31.4736C18.3681 28.8382 16.4606 25.3984 15.7996 21.3619C14.8089 15.3046 16.3239 9.93323 20.5829 5.46579C23.2042 2.68175 26.656 0.855028 30.4028 0.269073C34.9302 -0.4755 39.2282 0.312418 43.1147 2.8636C44.3325 3.66427 45.406 4.68934 46.5473 5.60986C46.9561 5.9388 46.9235 6.21163 46.5297 6.5648C45.6318 7.35272 44.7727 8.18654 43.7719 9.1198Z" fill="#018AC0"/>
<path d="M176.496 16.6177H179.947C179.96 16.8574 179.98 17.0639 179.98 17.2692C179.98 22.9517 180.041 28.6354 179.947 34.3153C179.915 36.3093 178.752 38.0395 176.367 37.9999C173.131 37.9451 169.893 37.9999 166.655 37.9999C166.529 37.9999 166.414 37.9757 166.228 37.9553C166.228 37.0552 166.221 36.1704 166.228 35.2932C166.228 34.8406 166.586 34.8967 166.869 34.898C168.477 34.912 170.085 34.9388 171.693 34.949C173.03 34.9579 174.366 34.9311 175.706 34.9553C176.282 34.9655 176.507 34.722 176.472 34.1598C176.44 33.6319 176.401 33.1016 176.412 32.5725C176.423 31.9872 176.152 31.7998 175.608 31.8075C173.142 31.819 170.678 31.8266 168.209 31.7973C167.341 31.7871 166.453 31.7641 165.611 31.5754C164.323 31.2847 163.703 30.238 163.463 29.0345C163.264 28.0323 163.223 26.9869 163.212 25.9593C163.182 22.8675 163.201 19.7745 163.201 16.6355H166.712V17.4783C166.712 20.8492 166.712 24.2207 166.712 27.5925C166.712 28.6902 166.827 28.7565 167.904 28.7399C169.092 28.7157 170.287 28.7756 171.472 28.7807C172.808 28.7871 174.144 28.7718 175.485 28.7654C176.347 28.7654 176.476 28.6379 176.476 27.7837C176.476 24.1374 176.47 20.491 176.458 16.8446C176.464 16.768 176.477 16.6921 176.496 16.6177Z" fill="#008AC0"/>
<path d="M160.681 31.8051H159.203C155.736 31.8051 152.271 31.8281 148.806 31.7885C147.883 31.7783 146.887 31.7618 146.057 31.4201C144.66 30.8451 144.06 29.5739 144.05 28.0618C144.034 25.4342 144.059 22.8065 144.05 20.1788C144.05 17.9872 145.59 16.6459 147.591 16.5975C150.513 16.5273 153.436 16.5847 156.358 16.5847C157.096 16.5847 157.177 16.5031 157.182 15.7394C157.19 14.5104 157.199 13.28 157.175 12.0522C157.166 11.6264 157.316 11.4938 157.718 11.504C158.47 11.5394 159.223 11.5364 159.975 11.4951C160.582 11.4505 160.704 11.6978 160.703 12.2601C160.683 18.4274 160.675 24.594 160.679 30.7596L160.681 31.8051ZM147.396 24.1248C147.396 25.2914 147.396 26.4567 147.396 27.6233C147.396 28.6432 147.481 28.7427 148.5 28.7707C149.545 28.7949 150.589 28.7822 151.635 28.7796C153.178 28.7728 154.721 28.7635 156.265 28.7516C156.972 28.7516 157.187 28.5667 157.188 27.9356C157.196 25.5183 157.196 23.1014 157.188 20.685C157.188 19.9047 157.032 19.7734 156.248 19.7734C153.572 19.7734 150.897 19.7734 148.221 19.7734C147.505 19.7734 147.402 19.8805 147.399 20.6327C147.391 21.7929 147.396 22.9633 147.396 24.1248Z" fill="#008AC0"/>
<path d="M84.0874 31.7603C81.3521 31.7603 78.6156 31.8024 75.8815 31.745C74.1107 31.7081 72.7751 30.3668 72.5681 28.5691C72.5029 28.0012 72.469 27.43 72.4665 26.8581C72.4582 23.5518 72.4582 20.245 72.4665 16.9377C72.4665 16.0453 72.6007 15.177 73.1024 14.398C73.8699 13.2059 75.0363 12.8235 76.328 12.8222C81.6744 12.812 87.0208 12.8464 92.3672 12.8553C92.7886 12.8553 92.9717 12.9917 92.9529 13.4456C92.924 14.1226 92.9315 14.8022 92.9529 15.4856C92.9629 15.826 92.8274 15.9458 92.5127 15.9343C92.3245 15.928 92.1364 15.9343 91.9483 15.9343C86.8941 15.9343 81.8399 15.9343 76.7858 15.9343C75.9405 15.9343 75.9292 15.9471 75.9292 16.7733C75.9292 20.4196 75.9292 24.066 75.9292 27.7124C75.9292 28.6112 75.9468 28.6189 76.8385 28.6189C81.9386 28.6189 87.0346 28.621 92.1264 28.6252C92.9391 28.6252 92.9391 28.6252 92.9416 29.4552C92.9416 29.9856 92.8977 30.5198 92.9529 31.0438C93.0206 31.6902 92.7509 31.8152 92.1715 31.8088C89.4776 31.782 86.7787 31.796 84.0886 31.796L84.0874 31.7603Z" fill="#008AC0"/>
<path d="M113.996 16.5883C115.564 16.5883 117.131 16.5578 118.697 16.5986C119.838 16.6279 120.891 17.0371 121.581 17.9691C121.976 18.5066 122.207 19.1504 122.244 19.8204C122.313 22.7451 122.303 25.6724 122.266 28.5984C122.242 30.5529 121.043 31.6443 119.307 31.7131C115.929 31.8483 112.542 31.8024 109.16 31.7884C107.934 31.7884 106.924 31.2082 106.323 30.1182C106.022 29.5685 105.854 28.9542 105.832 28.3256C105.779 25.5704 105.728 22.8114 105.832 20.0588C105.914 17.8556 106.96 16.735 109.235 16.6062C110.817 16.5119 112.41 16.5883 113.996 16.5883ZM114.059 19.6049H110.181C109.303 19.6049 109.283 19.6049 109.28 20.4668C109.272 22.8807 109.272 25.2946 109.28 27.7085C109.28 28.5691 109.347 28.629 110.221 28.629C112.87 28.629 115.517 28.6188 118.165 28.6163C118.63 28.6163 118.888 28.4798 118.883 27.9214C118.861 25.3817 118.861 22.8411 118.883 20.2997C118.883 19.777 118.707 19.587 118.191 19.596C116.813 19.6151 115.436 19.5998 114.059 19.5998V19.6049Z" fill="#008AC0"/>
<path d="M137.93 16.6177H141.425C141.438 16.837 141.457 17.0231 141.458 17.208C141.475 20.9172 141.49 24.6269 141.503 28.3371C141.503 30.3426 140.207 31.6813 138.358 31.7425C134.874 31.8585 131.383 31.8037 127.896 31.7654C126.426 31.7488 125.024 30.1449 125.039 28.6966C125.083 24.6907 125.054 20.6848 125.054 16.6292H128.5V17.4566C128.5 20.9117 128.515 24.3681 128.49 27.8232C128.49 28.4454 128.71 28.652 129.288 28.6481C131.963 28.6303 134.639 28.6248 137.314 28.6316C137.816 28.6316 137.941 28.4148 137.941 27.9367C137.927 24.4166 137.941 20.8977 137.941 17.3788L137.93 16.6177Z" fill="#008AC0"/>
<path d="M102.744 28.8102V31.9046C101.17 31.7924 99.6274 31.7771 98.1161 31.545C96.9498 31.3691 96.3516 30.4243 96.0882 29.3075C96.0027 28.8707 95.9674 28.4253 95.9828 27.9802C95.9753 25.2021 95.9828 22.424 95.9828 19.6459C95.9828 16.892 95.9828 14.1381 95.9828 11.3293H99.4054C99.4054 11.6685 99.4054 12 99.4054 12.3315C99.4054 17.2723 99.4025 22.2132 99.3966 27.1541C99.3966 28.8 99.4129 28.8115 101.036 28.8115L102.744 28.8102Z" fill="#008AC0"/>
<path d="M18.6691 30.1872L20.7421 32.4821C17.4814 35.5675 11.5468 36.9368 6.33838 34.0414C3.94058 32.707 2.05378 30.5917 0.981293 28.0356C-0.091198 25.4795 -0.287084 22.631 0.425122 19.948C1.73193 15.0509 6.21924 10.8117 12.5639 11.1649C12.0108 11.2146 11.3198 11.2274 10.6501 11.351C9.93151 11.4803 9.22529 11.6727 8.53939 11.926C7.87562 12.1791 7.23727 12.4963 6.6331 12.8733C6.02555 13.2457 5.45515 13.6774 4.92998 14.1623C-0.810205 19.5209 0.363667 28.7452 7.44954 32.0856C11.1944 33.8501 14.8076 33.2879 18.0733 30.6755C18.2527 30.534 18.427 30.3874 18.6691 30.1872Z" fill="#018AC0"/>
<path d="M56.8237 34.0158C54.6365 35.176 52.2975 35.5789 49.8457 35.3724C48.658 35.2729 47.5882 35.1301 46.4595 34.7081C43.2113 33.5007 41.147 30.5301 38.9196 28.0006L34.0548 22.4864L33.9946 22.4163L36.7274 20.5281C38.1697 22.336 39.6445 24.1056 41.0253 25.9556C42.2544 27.5964 43.5273 29.2105 44.9658 30.664C46.2438 31.9593 48.2617 32.7638 50.0225 33.0596C54.7882 33.8322 59.1451 31.0605 60.9937 26.9398C62.6165 23.3317 61.9481 18.5149 59.3972 15.5277C58.0176 13.9111 56.1928 12.6195 54.18 11.9668C52.1307 11.3025 49.9297 11.5142 47.8666 12.0229C46.2626 12.4194 44.503 13.0938 43.3267 14.3293C46.8182 10.4814 51.5438 10.8193 51.5438 10.8193C57.5185 10.8767 62.5589 15.5137 63.2712 21.5289C63.8719 26.6096 61.2972 31.6457 56.8237 34.0158Z" fill="url(#paint0_linear_60_491)"/>
</g>
<defs>
<linearGradient id="paint0_linear_60_491" x1="33.9984" y1="23.1213" x2="63.3565" y2="23.1213" gradientUnits="userSpaceOnUse">
<stop stop-color="#92D6F4"/>
<stop offset="1" stop-color="#008ABD"/>
</linearGradient>
<clipPath id="clip0_60_491">
<rect width="180" height="38" fill="white"/>
</clipPath>
</defs>
</svg>
