<svg width="18" height="17" viewBox="0 0 18 17" fill="none" xmlns="http://www.w3.org/2000/svg">
<path fill-rule="evenodd" clip-rule="evenodd" d="M17.0303 0.590785C17.2341 0.794513 17.3031 1.09694 17.2079 1.36888L11.9579 16.3689C11.8563 16.6591 11.5878 16.858 11.2806 16.8705C10.9733 16.883 10.6895 16.7067 10.5646 16.4257L7.6818 9.93932L1.1954 7.05647C0.91439 6.93158 0.738092 6.6478 0.750627 6.34054C0.763163 6.03328 0.961991 5.76481 1.25224 5.66322L16.2522 0.413221C16.5242 0.318042 16.8266 0.387056 17.0303 0.590785ZM9.14456 9.53721L11.1671 14.0878L14.7064 3.97538L9.14456 9.53721ZM13.6457 2.91472L3.53331 6.45407L8.0839 8.47655L13.6457 2.91472Z" fill="#00355E"/>
</svg>
