<svg width="34" height="24" viewBox="0 0 34 24" fill="none" xmlns="http://www.w3.org/2000/svg">
<path d="M33.1166 0.182833C32.5406 2.61483 31.9326 5.23883 31.2926 8.05483C30.6526 10.8708 30.0766 13.6228 29.5646 16.3108C29.0526 18.9988 28.6366 21.4628 28.3166 23.7028H19.1966L18.5246 22.6468C19.1006 20.4068 19.8366 18.0068 20.7326 15.4468C21.6286 12.8228 22.6206 10.1988 23.7086 7.57483C24.7966 4.95083 25.8526 2.48683 26.8766 0.182833H33.1166ZM15.3566 0.182833C14.7806 2.61483 14.1726 5.23883 13.5326 8.05483C12.8926 10.8708 12.3166 13.6228 11.8046 16.3108C11.2926 18.9988 10.8766 21.4628 10.5566 23.7028H1.53255L0.956554 22.6468C1.53255 20.4068 2.26855 18.0068 3.16455 15.4468C4.06055 12.8228 5.02055 10.1988 6.04455 7.57483C7.13255 4.95083 8.18855 2.48683 9.21255 0.182833H15.3566Z" fill="#00518F"/>
</svg>
